G04 #@! TF.GenerationSoftware,KiCad,Pcbnew,5.0.2-bee76a0~70~ubuntu16.04.1*
G04 #@! TF.CreationDate,2019-03-06T23:45:18+01:00*
G04 #@! TF.ProjectId,24VDC_to_USB_voltage_converter,32345644-435f-4746-9f5f-5553425f766f,rev?*
G04 #@! TF.SameCoordinates,Original*
G04 #@! TF.FileFunction,Soldermask,Bot*
G04 #@! TF.FilePolarity,Negative*
%FSLAX46Y46*%
G04 Gerber Fmt 4.6, Leading zero omitted, Abs format (unit mm)*
G04 Created by KiCad (PCBNEW 5.0.2-bee76a0~70~ubuntu16.04.1) date Wed 06 Mar 2019 11:45:18 PM CET*
%MOMM*%
%LPD*%
G01*
G04 APERTURE LIST*
%ADD10C,0.100000*%
G04 APERTURE END LIST*
D10*
G36*
X26579485Y-46098996D02*
X26579487Y-46098997D01*
X26579488Y-46098997D01*
X26697253Y-46147777D01*
X26816255Y-46197069D01*
X27029342Y-46339449D01*
X27210551Y-46520658D01*
X27352931Y-46733745D01*
X27451004Y-46970515D01*
X27501000Y-47221861D01*
X27501000Y-47478139D01*
X27451004Y-47729485D01*
X27352931Y-47966255D01*
X27210551Y-48179342D01*
X27029342Y-48360551D01*
X27029339Y-48360553D01*
X26816255Y-48502931D01*
X26579488Y-48601003D01*
X26579487Y-48601003D01*
X26579485Y-48601004D01*
X26328139Y-48651000D01*
X26071861Y-48651000D01*
X25820515Y-48601004D01*
X25820513Y-48601003D01*
X25820512Y-48601003D01*
X25583745Y-48502931D01*
X25370661Y-48360553D01*
X25370658Y-48360551D01*
X25189449Y-48179342D01*
X25047069Y-47966255D01*
X24948996Y-47729485D01*
X24899000Y-47478139D01*
X24899000Y-47221861D01*
X24948996Y-46970515D01*
X25047069Y-46733745D01*
X25189449Y-46520658D01*
X25370658Y-46339449D01*
X25583745Y-46197069D01*
X25702747Y-46147777D01*
X25820512Y-46098997D01*
X25820513Y-46098997D01*
X25820515Y-46098996D01*
X26071861Y-46049000D01*
X26328139Y-46049000D01*
X26579485Y-46098996D01*
X26579485Y-46098996D01*
G37*
G36*
X80579485Y-46098996D02*
X80579487Y-46098997D01*
X80579488Y-46098997D01*
X80697253Y-46147777D01*
X80816255Y-46197069D01*
X81029342Y-46339449D01*
X81210551Y-46520658D01*
X81352931Y-46733745D01*
X81451004Y-46970515D01*
X81501000Y-47221861D01*
X81501000Y-47478139D01*
X81451004Y-47729485D01*
X81352931Y-47966255D01*
X81210551Y-48179342D01*
X81029342Y-48360551D01*
X81029339Y-48360553D01*
X80816255Y-48502931D01*
X80579488Y-48601003D01*
X80579487Y-48601003D01*
X80579485Y-48601004D01*
X80328139Y-48651000D01*
X80071861Y-48651000D01*
X79820515Y-48601004D01*
X79820513Y-48601003D01*
X79820512Y-48601003D01*
X79583745Y-48502931D01*
X79370661Y-48360553D01*
X79370658Y-48360551D01*
X79189449Y-48179342D01*
X79047069Y-47966255D01*
X78948996Y-47729485D01*
X78899000Y-47478139D01*
X78899000Y-47221861D01*
X78948996Y-46970515D01*
X79047069Y-46733745D01*
X79189449Y-46520658D01*
X79370658Y-46339449D01*
X79583745Y-46197069D01*
X79702747Y-46147777D01*
X79820512Y-46098997D01*
X79820513Y-46098997D01*
X79820515Y-46098996D01*
X80071861Y-46049000D01*
X80328139Y-46049000D01*
X80579485Y-46098996D01*
X80579485Y-46098996D01*
G37*
G36*
X39001200Y-42305553D02*
X39059273Y-42323170D01*
X39112805Y-42351783D01*
X39159717Y-42390283D01*
X39198217Y-42437195D01*
X39226830Y-42490727D01*
X39244447Y-42548800D01*
X39251000Y-42615340D01*
X39251000Y-46084660D01*
X39244447Y-46151200D01*
X39226830Y-46209273D01*
X39198217Y-46262805D01*
X39159717Y-46309717D01*
X39112805Y-46348217D01*
X39059273Y-46376830D01*
X39001200Y-46394447D01*
X38934660Y-46401000D01*
X35465340Y-46401000D01*
X35398800Y-46394447D01*
X35340727Y-46376830D01*
X35287195Y-46348217D01*
X35240283Y-46309717D01*
X35201783Y-46262805D01*
X35173170Y-46209273D01*
X35155553Y-46151200D01*
X35149000Y-46084660D01*
X35149000Y-42615340D01*
X35155553Y-42548800D01*
X35173170Y-42490727D01*
X35201783Y-42437195D01*
X35240283Y-42390283D01*
X35287195Y-42351783D01*
X35340727Y-42323170D01*
X35398800Y-42305553D01*
X35465340Y-42299000D01*
X38934660Y-42299000D01*
X39001200Y-42305553D01*
X39001200Y-42305553D01*
G37*
G36*
X34001200Y-42305553D02*
X34059273Y-42323170D01*
X34112805Y-42351783D01*
X34159717Y-42390283D01*
X34198217Y-42437195D01*
X34226830Y-42490727D01*
X34244447Y-42548800D01*
X34251000Y-42615340D01*
X34251000Y-46084660D01*
X34244447Y-46151200D01*
X34226830Y-46209273D01*
X34198217Y-46262805D01*
X34159717Y-46309717D01*
X34112805Y-46348217D01*
X34059273Y-46376830D01*
X34001200Y-46394447D01*
X33934660Y-46401000D01*
X30465340Y-46401000D01*
X30398800Y-46394447D01*
X30340727Y-46376830D01*
X30287195Y-46348217D01*
X30240283Y-46309717D01*
X30201783Y-46262805D01*
X30173170Y-46209273D01*
X30155553Y-46151200D01*
X30149000Y-46084660D01*
X30149000Y-42615340D01*
X30155553Y-42548800D01*
X30173170Y-42490727D01*
X30201783Y-42437195D01*
X30240283Y-42390283D01*
X30287195Y-42351783D01*
X30340727Y-42323170D01*
X30398800Y-42305553D01*
X30465340Y-42299000D01*
X33934660Y-42299000D01*
X34001200Y-42305553D01*
X34001200Y-42305553D01*
G37*
G36*
X73598252Y-42147818D02*
X73598254Y-42147819D01*
X73598255Y-42147819D01*
X73971513Y-42302427D01*
X74146193Y-42419145D01*
X74307439Y-42526886D01*
X74593114Y-42812561D01*
X74593116Y-42812564D01*
X74817573Y-43148487D01*
X74972181Y-43521745D01*
X75051000Y-43917994D01*
X75051000Y-44322006D01*
X74972181Y-44718255D01*
X74817573Y-45091513D01*
X74817572Y-45091514D01*
X74593114Y-45427439D01*
X74307439Y-45713114D01*
X74307436Y-45713116D01*
X73971513Y-45937573D01*
X73598255Y-46092181D01*
X73598254Y-46092181D01*
X73598252Y-46092182D01*
X73202007Y-46171000D01*
X72797993Y-46171000D01*
X72401748Y-46092182D01*
X72401746Y-46092181D01*
X72401745Y-46092181D01*
X72028487Y-45937573D01*
X71692564Y-45713116D01*
X71692561Y-45713114D01*
X71406886Y-45427439D01*
X71182428Y-45091514D01*
X71182427Y-45091513D01*
X71027819Y-44718255D01*
X70949000Y-44322006D01*
X70949000Y-43917994D01*
X71027819Y-43521745D01*
X71182427Y-43148487D01*
X71406884Y-42812564D01*
X71406886Y-42812561D01*
X71692561Y-42526886D01*
X71853807Y-42419145D01*
X72028487Y-42302427D01*
X72401745Y-42147819D01*
X72401746Y-42147819D01*
X72401748Y-42147818D01*
X72797993Y-42069000D01*
X73202007Y-42069000D01*
X73598252Y-42147818D01*
X73598252Y-42147818D01*
G37*
G36*
X71181669Y-40103394D02*
X71218664Y-40114616D01*
X71252754Y-40132838D01*
X71282638Y-40157362D01*
X71307162Y-40187246D01*
X71325384Y-40221336D01*
X71336606Y-40258331D01*
X71341000Y-40302941D01*
X71341000Y-41797059D01*
X71336606Y-41841669D01*
X71325384Y-41878664D01*
X71307162Y-41912754D01*
X71282638Y-41942638D01*
X71252754Y-41967162D01*
X71218664Y-41985384D01*
X71181669Y-41996606D01*
X71137059Y-42001000D01*
X69442941Y-42001000D01*
X69398331Y-41996606D01*
X69361336Y-41985384D01*
X69327246Y-41967162D01*
X69297362Y-41942638D01*
X69272838Y-41912754D01*
X69254616Y-41878664D01*
X69243394Y-41841669D01*
X69239000Y-41797059D01*
X69239000Y-40302941D01*
X69243394Y-40258331D01*
X69254616Y-40221336D01*
X69272838Y-40187246D01*
X69297362Y-40157362D01*
X69327246Y-40132838D01*
X69361336Y-40114616D01*
X69398331Y-40103394D01*
X69442941Y-40099000D01*
X71137059Y-40099000D01*
X71181669Y-40103394D01*
X71181669Y-40103394D01*
G37*
G36*
X71005816Y-37702817D02*
X71037184Y-37712332D01*
X71066090Y-37727783D01*
X71091425Y-37748575D01*
X71112217Y-37773910D01*
X71127668Y-37802816D01*
X71137183Y-37834184D01*
X71141000Y-37872940D01*
X71141000Y-39227060D01*
X71137183Y-39265816D01*
X71127668Y-39297184D01*
X71112217Y-39326090D01*
X71091425Y-39351425D01*
X71066090Y-39372217D01*
X71037184Y-39387668D01*
X71005816Y-39397183D01*
X70967060Y-39401000D01*
X69612940Y-39401000D01*
X69574184Y-39397183D01*
X69542816Y-39387668D01*
X69513910Y-39372217D01*
X69488575Y-39351425D01*
X69467783Y-39326090D01*
X69452332Y-39297184D01*
X69442817Y-39265816D01*
X69439000Y-39227060D01*
X69439000Y-37872940D01*
X69442817Y-37834184D01*
X69452332Y-37802816D01*
X69467783Y-37773910D01*
X69488575Y-37748575D01*
X69513910Y-37727783D01*
X69542816Y-37712332D01*
X69574184Y-37702817D01*
X69612940Y-37699000D01*
X70967060Y-37699000D01*
X71005816Y-37702817D01*
X71005816Y-37702817D01*
G37*
G36*
X71005816Y-35702817D02*
X71037184Y-35712332D01*
X71066090Y-35727783D01*
X71091425Y-35748575D01*
X71112217Y-35773910D01*
X71127668Y-35802816D01*
X71137183Y-35834184D01*
X71141000Y-35872940D01*
X71141000Y-37227060D01*
X71137183Y-37265816D01*
X71127668Y-37297184D01*
X71112217Y-37326090D01*
X71091425Y-37351425D01*
X71066090Y-37372217D01*
X71037184Y-37387668D01*
X71005816Y-37397183D01*
X70967060Y-37401000D01*
X69612940Y-37401000D01*
X69574184Y-37397183D01*
X69542816Y-37387668D01*
X69513910Y-37372217D01*
X69488575Y-37351425D01*
X69467783Y-37326090D01*
X69452332Y-37297184D01*
X69442817Y-37265816D01*
X69439000Y-37227060D01*
X69439000Y-35872940D01*
X69442817Y-35834184D01*
X69452332Y-35802816D01*
X69467783Y-35773910D01*
X69488575Y-35748575D01*
X69513910Y-35727783D01*
X69542816Y-35712332D01*
X69574184Y-35702817D01*
X69612940Y-35699000D01*
X70967060Y-35699000D01*
X71005816Y-35702817D01*
X71005816Y-35702817D01*
G37*
G36*
X71181669Y-33103394D02*
X71218664Y-33114616D01*
X71252754Y-33132838D01*
X71282638Y-33157362D01*
X71307162Y-33187246D01*
X71325384Y-33221336D01*
X71336606Y-33258331D01*
X71341000Y-33302941D01*
X71341000Y-34797059D01*
X71336606Y-34841669D01*
X71325384Y-34878664D01*
X71307162Y-34912754D01*
X71282638Y-34942638D01*
X71252754Y-34967162D01*
X71218664Y-34985384D01*
X71181669Y-34996606D01*
X71137059Y-35001000D01*
X69442941Y-35001000D01*
X69398331Y-34996606D01*
X69361336Y-34985384D01*
X69327246Y-34967162D01*
X69297362Y-34942638D01*
X69272838Y-34912754D01*
X69254616Y-34878664D01*
X69243394Y-34841669D01*
X69239000Y-34797059D01*
X69239000Y-33302941D01*
X69243394Y-33258331D01*
X69254616Y-33221336D01*
X69272838Y-33187246D01*
X69297362Y-33157362D01*
X69327246Y-33132838D01*
X69361336Y-33114616D01*
X69398331Y-33103394D01*
X69442941Y-33099000D01*
X71137059Y-33099000D01*
X71181669Y-33103394D01*
X71181669Y-33103394D01*
G37*
G36*
X73598252Y-29007818D02*
X73598254Y-29007819D01*
X73598255Y-29007819D01*
X73971513Y-29162427D01*
X73971514Y-29162428D01*
X74307439Y-29386886D01*
X74593114Y-29672561D01*
X74593116Y-29672564D01*
X74817573Y-30008487D01*
X74972181Y-30381745D01*
X75051000Y-30777994D01*
X75051000Y-31182006D01*
X74972181Y-31578255D01*
X74817573Y-31951513D01*
X74817572Y-31951514D01*
X74593114Y-32287439D01*
X74307439Y-32573114D01*
X74307436Y-32573116D01*
X73971513Y-32797573D01*
X73598255Y-32952181D01*
X73598254Y-32952181D01*
X73598252Y-32952182D01*
X73202007Y-33031000D01*
X72797993Y-33031000D01*
X72401748Y-32952182D01*
X72401746Y-32952181D01*
X72401745Y-32952181D01*
X72028487Y-32797573D01*
X71692564Y-32573116D01*
X71692561Y-32573114D01*
X71406886Y-32287439D01*
X71182428Y-31951514D01*
X71182427Y-31951513D01*
X71027819Y-31578255D01*
X70949000Y-31182006D01*
X70949000Y-30777994D01*
X71027819Y-30381745D01*
X71182427Y-30008487D01*
X71406884Y-29672564D01*
X71406886Y-29672561D01*
X71692561Y-29386886D01*
X72028486Y-29162428D01*
X72028487Y-29162427D01*
X72401745Y-29007819D01*
X72401746Y-29007819D01*
X72401748Y-29007818D01*
X72797993Y-28929000D01*
X73202007Y-28929000D01*
X73598252Y-29007818D01*
X73598252Y-29007818D01*
G37*
G36*
X34001200Y-28305553D02*
X34059273Y-28323170D01*
X34112805Y-28351783D01*
X34159717Y-28390283D01*
X34198217Y-28437195D01*
X34226830Y-28490727D01*
X34244447Y-28548800D01*
X34251000Y-28615340D01*
X34251000Y-32084660D01*
X34244447Y-32151200D01*
X34226830Y-32209273D01*
X34198217Y-32262805D01*
X34159717Y-32309717D01*
X34112805Y-32348217D01*
X34059273Y-32376830D01*
X34001200Y-32394447D01*
X33934660Y-32401000D01*
X30465340Y-32401000D01*
X30398800Y-32394447D01*
X30340727Y-32376830D01*
X30287195Y-32348217D01*
X30240283Y-32309717D01*
X30201783Y-32262805D01*
X30173170Y-32209273D01*
X30155553Y-32151200D01*
X30149000Y-32084660D01*
X30149000Y-28615340D01*
X30155553Y-28548800D01*
X30173170Y-28490727D01*
X30201783Y-28437195D01*
X30240283Y-28390283D01*
X30287195Y-28351783D01*
X30340727Y-28323170D01*
X30398800Y-28305553D01*
X30465340Y-28299000D01*
X33934660Y-28299000D01*
X34001200Y-28305553D01*
X34001200Y-28305553D01*
G37*
G36*
X39001200Y-28305553D02*
X39059273Y-28323170D01*
X39112805Y-28351783D01*
X39159717Y-28390283D01*
X39198217Y-28437195D01*
X39226830Y-28490727D01*
X39244447Y-28548800D01*
X39251000Y-28615340D01*
X39251000Y-32084660D01*
X39244447Y-32151200D01*
X39226830Y-32209273D01*
X39198217Y-32262805D01*
X39159717Y-32309717D01*
X39112805Y-32348217D01*
X39059273Y-32376830D01*
X39001200Y-32394447D01*
X38934660Y-32401000D01*
X35465340Y-32401000D01*
X35398800Y-32394447D01*
X35340727Y-32376830D01*
X35287195Y-32348217D01*
X35240283Y-32309717D01*
X35201783Y-32262805D01*
X35173170Y-32209273D01*
X35155553Y-32151200D01*
X35149000Y-32084660D01*
X35149000Y-28615340D01*
X35155553Y-28548800D01*
X35173170Y-28490727D01*
X35201783Y-28437195D01*
X35240283Y-28390283D01*
X35287195Y-28351783D01*
X35340727Y-28323170D01*
X35398800Y-28305553D01*
X35465340Y-28299000D01*
X38934660Y-28299000D01*
X39001200Y-28305553D01*
X39001200Y-28305553D01*
G37*
G36*
X80579485Y-26098996D02*
X80579487Y-26098997D01*
X80579488Y-26098997D01*
X80816255Y-26197069D01*
X81029342Y-26339449D01*
X81210551Y-26520658D01*
X81352931Y-26733745D01*
X81451004Y-26970515D01*
X81501000Y-27221861D01*
X81501000Y-27478139D01*
X81451004Y-27729485D01*
X81352931Y-27966255D01*
X81210551Y-28179342D01*
X81029342Y-28360551D01*
X81029339Y-28360553D01*
X80816255Y-28502931D01*
X80579488Y-28601003D01*
X80579487Y-28601003D01*
X80579485Y-28601004D01*
X80328139Y-28651000D01*
X80071861Y-28651000D01*
X79820515Y-28601004D01*
X79820513Y-28601003D01*
X79820512Y-28601003D01*
X79583745Y-28502931D01*
X79370661Y-28360553D01*
X79370658Y-28360551D01*
X79189449Y-28179342D01*
X79047069Y-27966255D01*
X78948996Y-27729485D01*
X78899000Y-27478139D01*
X78899000Y-27221861D01*
X78948996Y-26970515D01*
X79047069Y-26733745D01*
X79189449Y-26520658D01*
X79370658Y-26339449D01*
X79583745Y-26197069D01*
X79820512Y-26098997D01*
X79820513Y-26098997D01*
X79820515Y-26098996D01*
X80071861Y-26049000D01*
X80328139Y-26049000D01*
X80579485Y-26098996D01*
X80579485Y-26098996D01*
G37*
G36*
X26579485Y-26098996D02*
X26579487Y-26098997D01*
X26579488Y-26098997D01*
X26816255Y-26197069D01*
X27029342Y-26339449D01*
X27210551Y-26520658D01*
X27352931Y-26733745D01*
X27451004Y-26970515D01*
X27501000Y-27221861D01*
X27501000Y-27478139D01*
X27451004Y-27729485D01*
X27352931Y-27966255D01*
X27210551Y-28179342D01*
X27029342Y-28360551D01*
X27029339Y-28360553D01*
X26816255Y-28502931D01*
X26579488Y-28601003D01*
X26579487Y-28601003D01*
X26579485Y-28601004D01*
X26328139Y-28651000D01*
X26071861Y-28651000D01*
X25820515Y-28601004D01*
X25820513Y-28601003D01*
X25820512Y-28601003D01*
X25583745Y-28502931D01*
X25370661Y-28360553D01*
X25370658Y-28360551D01*
X25189449Y-28179342D01*
X25047069Y-27966255D01*
X24948996Y-27729485D01*
X24899000Y-27478139D01*
X24899000Y-27221861D01*
X24948996Y-26970515D01*
X25047069Y-26733745D01*
X25189449Y-26520658D01*
X25370658Y-26339449D01*
X25583745Y-26197069D01*
X25820512Y-26098997D01*
X25820513Y-26098997D01*
X25820515Y-26098996D01*
X26071861Y-26049000D01*
X26328139Y-26049000D01*
X26579485Y-26098996D01*
X26579485Y-26098996D01*
G37*
M02*
