G04 #@! TF.GenerationSoftware,KiCad,Pcbnew,5.0.2-bee76a0~70~ubuntu16.04.1*
G04 #@! TF.CreationDate,2019-02-21T23:56:22+01:00*
G04 #@! TF.ProjectId,24VDC_to_USB_voltage_converter,32345644-435f-4746-9f5f-5553425f766f,rev?*
G04 #@! TF.SameCoordinates,Original*
G04 #@! TF.FileFunction,Legend,Bot*
G04 #@! TF.FilePolarity,Positive*
%FSLAX46Y46*%
G04 Gerber Fmt 4.6, Leading zero omitted, Abs format (unit mm)*
G04 Created by KiCad (PCBNEW 5.0.2-bee76a0~70~ubuntu16.04.1) date Thu 21 Feb 2019 11:56:22 PM CET*
%MOMM*%
%LPD*%
G01*
G04 APERTURE LIST*
%ADD10C,0.010000*%
%ADD11C,0.100000*%
G04 APERTURE END LIST*
D10*
G04 #@! TO.C,REF\002A\002A*
G36*
X141466665Y-93716406D02*
X141761015Y-93716695D01*
X141862990Y-93717120D01*
X141943645Y-93718408D01*
X142008112Y-93720914D01*
X142061524Y-93724996D01*
X142109012Y-93731008D01*
X142155711Y-93739308D01*
X142189611Y-93746436D01*
X142419451Y-93809754D01*
X142638768Y-93896012D01*
X142845799Y-94004009D01*
X143038780Y-94132544D01*
X143215951Y-94280418D01*
X143375547Y-94446430D01*
X143515807Y-94629379D01*
X143540446Y-94666449D01*
X143592244Y-94753402D01*
X143645145Y-94854820D01*
X143696164Y-94963866D01*
X143742318Y-95073702D01*
X143780625Y-95177488D01*
X143808102Y-95268388D01*
X143814196Y-95293984D01*
X143823561Y-95336979D01*
X142061979Y-95336979D01*
X142061979Y-96276250D01*
X143823561Y-96276250D01*
X143814196Y-96319244D01*
X143789136Y-96410611D01*
X143751648Y-96516469D01*
X143704815Y-96629878D01*
X143651718Y-96743892D01*
X143595440Y-96851569D01*
X143539064Y-96945967D01*
X143529608Y-96960319D01*
X143385866Y-97151791D01*
X143224667Y-97323630D01*
X143047010Y-97475163D01*
X142853891Y-97605719D01*
X142646309Y-97714624D01*
X142425262Y-97801206D01*
X142191745Y-97864794D01*
X142186044Y-97866021D01*
X142133462Y-97876622D01*
X142085042Y-97884513D01*
X142035391Y-97890078D01*
X141979119Y-97893702D01*
X141910832Y-97895769D01*
X141825141Y-97896664D01*
X141754401Y-97896799D01*
X141466667Y-97896776D01*
X141466667Y-98829479D01*
X141754401Y-98827762D01*
X141846376Y-98826709D01*
X141936109Y-98824766D01*
X142017842Y-98822126D01*
X142085821Y-98818981D01*
X142134289Y-98815526D01*
X142141354Y-98814789D01*
X142366763Y-98778594D01*
X142598614Y-98721376D01*
X142830575Y-98645284D01*
X143056315Y-98552465D01*
X143269501Y-98445068D01*
X143325303Y-98413135D01*
X143488844Y-98307667D01*
X143654786Y-98183545D01*
X143816573Y-98046431D01*
X143967650Y-97901982D01*
X144101460Y-97755859D01*
X144138007Y-97711607D01*
X144299327Y-97490012D01*
X144440652Y-97252378D01*
X144560975Y-97001089D01*
X144659289Y-96738532D01*
X144734588Y-96467092D01*
X144785865Y-96189155D01*
X144788410Y-96170416D01*
X144795359Y-96098751D01*
X144800292Y-96008046D01*
X144803208Y-95904923D01*
X144804105Y-95796009D01*
X144802981Y-95687925D01*
X144799834Y-95587298D01*
X144794662Y-95500752D01*
X144788617Y-95442812D01*
X144736661Y-95157894D01*
X144661431Y-94882354D01*
X144563609Y-94617809D01*
X144443879Y-94365877D01*
X144302924Y-94128177D01*
X144141427Y-93906325D01*
X144138007Y-93902079D01*
X143957720Y-93699121D01*
X143758578Y-93512656D01*
X143543027Y-93344214D01*
X143313515Y-93195325D01*
X143072491Y-93067517D01*
X142822400Y-92962322D01*
X142565691Y-92881267D01*
X142465381Y-92856769D01*
X142341470Y-92830938D01*
X142226300Y-92811592D01*
X142112480Y-92797981D01*
X141992615Y-92789356D01*
X141859313Y-92784968D01*
X141747787Y-92784008D01*
X141466667Y-92783750D01*
X141466665Y-93716406D01*
X141466665Y-93716406D01*
G37*
X141466665Y-93716406D02*
X141761015Y-93716695D01*
X141862990Y-93717120D01*
X141943645Y-93718408D01*
X142008112Y-93720914D01*
X142061524Y-93724996D01*
X142109012Y-93731008D01*
X142155711Y-93739308D01*
X142189611Y-93746436D01*
X142419451Y-93809754D01*
X142638768Y-93896012D01*
X142845799Y-94004009D01*
X143038780Y-94132544D01*
X143215951Y-94280418D01*
X143375547Y-94446430D01*
X143515807Y-94629379D01*
X143540446Y-94666449D01*
X143592244Y-94753402D01*
X143645145Y-94854820D01*
X143696164Y-94963866D01*
X143742318Y-95073702D01*
X143780625Y-95177488D01*
X143808102Y-95268388D01*
X143814196Y-95293984D01*
X143823561Y-95336979D01*
X142061979Y-95336979D01*
X142061979Y-96276250D01*
X143823561Y-96276250D01*
X143814196Y-96319244D01*
X143789136Y-96410611D01*
X143751648Y-96516469D01*
X143704815Y-96629878D01*
X143651718Y-96743892D01*
X143595440Y-96851569D01*
X143539064Y-96945967D01*
X143529608Y-96960319D01*
X143385866Y-97151791D01*
X143224667Y-97323630D01*
X143047010Y-97475163D01*
X142853891Y-97605719D01*
X142646309Y-97714624D01*
X142425262Y-97801206D01*
X142191745Y-97864794D01*
X142186044Y-97866021D01*
X142133462Y-97876622D01*
X142085042Y-97884513D01*
X142035391Y-97890078D01*
X141979119Y-97893702D01*
X141910832Y-97895769D01*
X141825141Y-97896664D01*
X141754401Y-97896799D01*
X141466667Y-97896776D01*
X141466667Y-98829479D01*
X141754401Y-98827762D01*
X141846376Y-98826709D01*
X141936109Y-98824766D01*
X142017842Y-98822126D01*
X142085821Y-98818981D01*
X142134289Y-98815526D01*
X142141354Y-98814789D01*
X142366763Y-98778594D01*
X142598614Y-98721376D01*
X142830575Y-98645284D01*
X143056315Y-98552465D01*
X143269501Y-98445068D01*
X143325303Y-98413135D01*
X143488844Y-98307667D01*
X143654786Y-98183545D01*
X143816573Y-98046431D01*
X143967650Y-97901982D01*
X144101460Y-97755859D01*
X144138007Y-97711607D01*
X144299327Y-97490012D01*
X144440652Y-97252378D01*
X144560975Y-97001089D01*
X144659289Y-96738532D01*
X144734588Y-96467092D01*
X144785865Y-96189155D01*
X144788410Y-96170416D01*
X144795359Y-96098751D01*
X144800292Y-96008046D01*
X144803208Y-95904923D01*
X144804105Y-95796009D01*
X144802981Y-95687925D01*
X144799834Y-95587298D01*
X144794662Y-95500752D01*
X144788617Y-95442812D01*
X144736661Y-95157894D01*
X144661431Y-94882354D01*
X144563609Y-94617809D01*
X144443879Y-94365877D01*
X144302924Y-94128177D01*
X144141427Y-93906325D01*
X144138007Y-93902079D01*
X143957720Y-93699121D01*
X143758578Y-93512656D01*
X143543027Y-93344214D01*
X143313515Y-93195325D01*
X143072491Y-93067517D01*
X142822400Y-92962322D01*
X142565691Y-92881267D01*
X142465381Y-92856769D01*
X142341470Y-92830938D01*
X142226300Y-92811592D01*
X142112480Y-92797981D01*
X141992615Y-92789356D01*
X141859313Y-92784968D01*
X141747787Y-92784008D01*
X141466667Y-92783750D01*
X141466665Y-93716406D01*
G36*
X146760813Y-92784315D02*
X146696330Y-92785975D01*
X146649697Y-92788945D01*
X146629349Y-92792088D01*
X146599583Y-92800065D01*
X146599583Y-93720530D01*
X146809119Y-93713259D01*
X147018953Y-93713523D01*
X147213141Y-93730382D01*
X147397580Y-93765075D01*
X147578168Y-93818839D01*
X147760803Y-93892911D01*
X147836511Y-93928879D01*
X148017062Y-94027977D01*
X148179702Y-94139326D01*
X148332099Y-94268408D01*
X148391378Y-94325705D01*
X148548015Y-94500861D01*
X148683527Y-94691520D01*
X148797234Y-94896394D01*
X148888456Y-95114193D01*
X148956515Y-95343629D01*
X148976674Y-95436197D01*
X148988823Y-95520244D01*
X148996934Y-95623234D01*
X149001015Y-95737965D01*
X149001074Y-95857234D01*
X148997116Y-95973837D01*
X148989149Y-96080571D01*
X148977181Y-96170233D01*
X148975943Y-96177031D01*
X148920089Y-96405759D01*
X148840701Y-96623965D01*
X148739069Y-96830177D01*
X148616478Y-97022928D01*
X148474219Y-97200748D01*
X148313579Y-97362168D01*
X148135845Y-97505719D01*
X147942307Y-97629931D01*
X147734252Y-97733336D01*
X147550763Y-97802535D01*
X147447623Y-97834118D01*
X147352893Y-97858129D01*
X147260130Y-97875463D01*
X147162894Y-97887016D01*
X147054742Y-97893680D01*
X146929233Y-97896352D01*
X146874089Y-97896504D01*
X146599583Y-97896186D01*
X146599583Y-98813164D01*
X146629349Y-98821141D01*
X146654749Y-98824138D01*
X146701744Y-98826203D01*
X146765490Y-98827382D01*
X146841142Y-98827723D01*
X146923854Y-98827274D01*
X147008783Y-98826083D01*
X147091083Y-98824197D01*
X147165909Y-98821663D01*
X147228417Y-98818531D01*
X147273762Y-98814847D01*
X147274271Y-98814789D01*
X147387271Y-98798341D01*
X147514872Y-98773706D01*
X147647338Y-98743083D01*
X147774934Y-98708667D01*
X147856016Y-98683536D01*
X148120553Y-98582498D01*
X148371277Y-98459513D01*
X148607195Y-98315777D01*
X148827320Y-98152487D01*
X149030660Y-97970838D01*
X149216227Y-97772026D01*
X149383030Y-97557247D01*
X149530079Y-97327698D01*
X149656385Y-97084573D01*
X149760958Y-96829070D01*
X149842808Y-96562383D01*
X149900945Y-96285709D01*
X149914162Y-96196875D01*
X149922618Y-96112107D01*
X149928437Y-96008118D01*
X149931618Y-95892009D01*
X149932161Y-95770887D01*
X149930066Y-95651854D01*
X149925334Y-95542014D01*
X149917963Y-95448472D01*
X149914162Y-95416354D01*
X149863241Y-95133706D01*
X149787795Y-94860614D01*
X149688081Y-94597714D01*
X149564354Y-94345637D01*
X149416872Y-94105017D01*
X149338048Y-93994218D01*
X149159770Y-93776723D01*
X148963767Y-93578344D01*
X148751402Y-93399882D01*
X148524041Y-93242133D01*
X148283047Y-93105897D01*
X148029787Y-92991971D01*
X147765623Y-92901153D01*
X147491921Y-92834241D01*
X147301120Y-92802813D01*
X147248646Y-92797490D01*
X147179782Y-92792930D01*
X147099419Y-92789212D01*
X147012450Y-92786413D01*
X146923764Y-92784612D01*
X146838255Y-92783887D01*
X146760813Y-92784315D01*
X146760813Y-92784315D01*
G37*
X146760813Y-92784315D02*
X146696330Y-92785975D01*
X146649697Y-92788945D01*
X146629349Y-92792088D01*
X146599583Y-92800065D01*
X146599583Y-93720530D01*
X146809119Y-93713259D01*
X147018953Y-93713523D01*
X147213141Y-93730382D01*
X147397580Y-93765075D01*
X147578168Y-93818839D01*
X147760803Y-93892911D01*
X147836511Y-93928879D01*
X148017062Y-94027977D01*
X148179702Y-94139326D01*
X148332099Y-94268408D01*
X148391378Y-94325705D01*
X148548015Y-94500861D01*
X148683527Y-94691520D01*
X148797234Y-94896394D01*
X148888456Y-95114193D01*
X148956515Y-95343629D01*
X148976674Y-95436197D01*
X148988823Y-95520244D01*
X148996934Y-95623234D01*
X149001015Y-95737965D01*
X149001074Y-95857234D01*
X148997116Y-95973837D01*
X148989149Y-96080571D01*
X148977181Y-96170233D01*
X148975943Y-96177031D01*
X148920089Y-96405759D01*
X148840701Y-96623965D01*
X148739069Y-96830177D01*
X148616478Y-97022928D01*
X148474219Y-97200748D01*
X148313579Y-97362168D01*
X148135845Y-97505719D01*
X147942307Y-97629931D01*
X147734252Y-97733336D01*
X147550763Y-97802535D01*
X147447623Y-97834118D01*
X147352893Y-97858129D01*
X147260130Y-97875463D01*
X147162894Y-97887016D01*
X147054742Y-97893680D01*
X146929233Y-97896352D01*
X146874089Y-97896504D01*
X146599583Y-97896186D01*
X146599583Y-98813164D01*
X146629349Y-98821141D01*
X146654749Y-98824138D01*
X146701744Y-98826203D01*
X146765490Y-98827382D01*
X146841142Y-98827723D01*
X146923854Y-98827274D01*
X147008783Y-98826083D01*
X147091083Y-98824197D01*
X147165909Y-98821663D01*
X147228417Y-98818531D01*
X147273762Y-98814847D01*
X147274271Y-98814789D01*
X147387271Y-98798341D01*
X147514872Y-98773706D01*
X147647338Y-98743083D01*
X147774934Y-98708667D01*
X147856016Y-98683536D01*
X148120553Y-98582498D01*
X148371277Y-98459513D01*
X148607195Y-98315777D01*
X148827320Y-98152487D01*
X149030660Y-97970838D01*
X149216227Y-97772026D01*
X149383030Y-97557247D01*
X149530079Y-97327698D01*
X149656385Y-97084573D01*
X149760958Y-96829070D01*
X149842808Y-96562383D01*
X149900945Y-96285709D01*
X149914162Y-96196875D01*
X149922618Y-96112107D01*
X149928437Y-96008118D01*
X149931618Y-95892009D01*
X149932161Y-95770887D01*
X149930066Y-95651854D01*
X149925334Y-95542014D01*
X149917963Y-95448472D01*
X149914162Y-95416354D01*
X149863241Y-95133706D01*
X149787795Y-94860614D01*
X149688081Y-94597714D01*
X149564354Y-94345637D01*
X149416872Y-94105017D01*
X149338048Y-93994218D01*
X149159770Y-93776723D01*
X148963767Y-93578344D01*
X148751402Y-93399882D01*
X148524041Y-93242133D01*
X148283047Y-93105897D01*
X148029787Y-92991971D01*
X147765623Y-92901153D01*
X147491921Y-92834241D01*
X147301120Y-92802813D01*
X147248646Y-92797490D01*
X147179782Y-92792930D01*
X147099419Y-92789212D01*
X147012450Y-92786413D01*
X146923764Y-92784612D01*
X146838255Y-92783887D01*
X146760813Y-92784315D01*
G36*
X115371250Y-86687679D02*
X113126072Y-86687679D01*
X113126072Y-84419821D01*
X111946786Y-84419821D01*
X111946786Y-90180179D01*
X113126072Y-90180179D01*
X113126072Y-87662430D01*
X114242992Y-87668313D01*
X115359911Y-87674196D01*
X115365773Y-88927187D01*
X115371635Y-90180179D01*
X116550536Y-90180179D01*
X116550536Y-84419821D01*
X115371250Y-84419821D01*
X115371250Y-86687679D01*
X115371250Y-86687679D01*
G37*
X115371250Y-86687679D02*
X113126072Y-86687679D01*
X113126072Y-84419821D01*
X111946786Y-84419821D01*
X111946786Y-90180179D01*
X113126072Y-90180179D01*
X113126072Y-87662430D01*
X114242992Y-87668313D01*
X115359911Y-87674196D01*
X115365773Y-88927187D01*
X115371635Y-90180179D01*
X116550536Y-90180179D01*
X116550536Y-84419821D01*
X115371250Y-84419821D01*
X115371250Y-86687679D01*
G36*
X125661652Y-84427046D02*
X125305405Y-84429765D01*
X124987134Y-84432980D01*
X124707855Y-84436670D01*
X124468584Y-84440814D01*
X124270337Y-84445391D01*
X124114129Y-84450380D01*
X124000976Y-84455760D01*
X123931893Y-84461511D01*
X123921072Y-84463099D01*
X123710570Y-84504224D01*
X123536407Y-84549936D01*
X123389567Y-84604363D01*
X123261035Y-84671632D01*
X123141796Y-84755868D01*
X123022832Y-84861200D01*
X122997601Y-84885833D01*
X122902109Y-84984505D01*
X122831593Y-85069383D01*
X122775450Y-85154807D01*
X122723081Y-85255117D01*
X122720266Y-85261002D01*
X122651130Y-85416744D01*
X122602871Y-85555619D01*
X122572223Y-85692648D01*
X122555921Y-85842856D01*
X122550700Y-86021265D01*
X122550662Y-86041339D01*
X122562560Y-86295293D01*
X122600139Y-86517428D01*
X122666225Y-86715104D01*
X122763644Y-86895679D01*
X122895221Y-87066513D01*
X122977789Y-87153652D01*
X123088577Y-87256558D01*
X123199505Y-87342462D01*
X123318579Y-87415341D01*
X123453806Y-87479170D01*
X123613190Y-87537928D01*
X123804739Y-87595590D01*
X123940572Y-87631866D01*
X124016769Y-87651518D01*
X123849858Y-87764581D01*
X123680055Y-87895003D01*
X123505000Y-88057436D01*
X123335086Y-88241314D01*
X123180705Y-88436076D01*
X123157854Y-88467946D01*
X123118862Y-88525149D01*
X123062238Y-88610945D01*
X122990977Y-88720589D01*
X122908073Y-88849336D01*
X122816522Y-88992441D01*
X122719316Y-89145156D01*
X122619452Y-89302738D01*
X122519923Y-89460440D01*
X122423725Y-89613517D01*
X122333851Y-89757224D01*
X122253297Y-89886814D01*
X122185057Y-89997542D01*
X122132125Y-90084663D01*
X122097497Y-90143431D01*
X122084166Y-90169101D01*
X122084108Y-90169531D01*
X122105875Y-90172164D01*
X122167530Y-90174560D01*
X122263605Y-90176635D01*
X122388631Y-90178308D01*
X122537140Y-90179494D01*
X122703662Y-90180110D01*
X122783188Y-90180179D01*
X123482268Y-90180179D01*
X124061583Y-89312723D01*
X124186485Y-89126423D01*
X124309316Y-88944574D01*
X124426628Y-88772186D01*
X124534972Y-88614272D01*
X124630901Y-88475840D01*
X124710965Y-88361902D01*
X124771718Y-88277469D01*
X124799559Y-88240342D01*
X124919728Y-88097055D01*
X125036606Y-87986516D01*
X125158570Y-87904885D01*
X125293996Y-87848317D01*
X125451261Y-87812969D01*
X125638742Y-87795000D01*
X125779396Y-87790833D01*
X126064197Y-87787589D01*
X126075937Y-90180179D01*
X127254822Y-90180179D01*
X127254822Y-85417679D01*
X126075536Y-85417679D01*
X126075536Y-86846429D01*
X125366831Y-86846242D01*
X125180818Y-86845453D01*
X124999682Y-86843309D01*
X124831074Y-86840006D01*
X124682647Y-86835736D01*
X124562052Y-86830691D01*
X124476939Y-86825066D01*
X124459973Y-86823352D01*
X124281380Y-86795016D01*
X124139586Y-86753701D01*
X124027140Y-86696377D01*
X123936588Y-86620017D01*
X123923031Y-86605147D01*
X123830162Y-86467636D01*
X123774813Y-86307632D01*
X123756080Y-86122452D01*
X123756109Y-86109375D01*
X123775450Y-85924068D01*
X123830341Y-85766920D01*
X123920889Y-85637785D01*
X124047199Y-85536518D01*
X124209381Y-85462974D01*
X124239209Y-85453608D01*
X124277810Y-85444059D01*
X124326016Y-85436305D01*
X124388547Y-85430172D01*
X124470123Y-85425487D01*
X124575465Y-85422077D01*
X124709292Y-85419768D01*
X124876324Y-85418388D01*
X125081282Y-85417763D01*
X125217867Y-85417679D01*
X126075536Y-85417679D01*
X127254822Y-85417679D01*
X127254822Y-84416576D01*
X125661652Y-84427046D01*
X125661652Y-84427046D01*
G37*
X125661652Y-84427046D02*
X125305405Y-84429765D01*
X124987134Y-84432980D01*
X124707855Y-84436670D01*
X124468584Y-84440814D01*
X124270337Y-84445391D01*
X124114129Y-84450380D01*
X124000976Y-84455760D01*
X123931893Y-84461511D01*
X123921072Y-84463099D01*
X123710570Y-84504224D01*
X123536407Y-84549936D01*
X123389567Y-84604363D01*
X123261035Y-84671632D01*
X123141796Y-84755868D01*
X123022832Y-84861200D01*
X122997601Y-84885833D01*
X122902109Y-84984505D01*
X122831593Y-85069383D01*
X122775450Y-85154807D01*
X122723081Y-85255117D01*
X122720266Y-85261002D01*
X122651130Y-85416744D01*
X122602871Y-85555619D01*
X122572223Y-85692648D01*
X122555921Y-85842856D01*
X122550700Y-86021265D01*
X122550662Y-86041339D01*
X122562560Y-86295293D01*
X122600139Y-86517428D01*
X122666225Y-86715104D01*
X122763644Y-86895679D01*
X122895221Y-87066513D01*
X122977789Y-87153652D01*
X123088577Y-87256558D01*
X123199505Y-87342462D01*
X123318579Y-87415341D01*
X123453806Y-87479170D01*
X123613190Y-87537928D01*
X123804739Y-87595590D01*
X123940572Y-87631866D01*
X124016769Y-87651518D01*
X123849858Y-87764581D01*
X123680055Y-87895003D01*
X123505000Y-88057436D01*
X123335086Y-88241314D01*
X123180705Y-88436076D01*
X123157854Y-88467946D01*
X123118862Y-88525149D01*
X123062238Y-88610945D01*
X122990977Y-88720589D01*
X122908073Y-88849336D01*
X122816522Y-88992441D01*
X122719316Y-89145156D01*
X122619452Y-89302738D01*
X122519923Y-89460440D01*
X122423725Y-89613517D01*
X122333851Y-89757224D01*
X122253297Y-89886814D01*
X122185057Y-89997542D01*
X122132125Y-90084663D01*
X122097497Y-90143431D01*
X122084166Y-90169101D01*
X122084108Y-90169531D01*
X122105875Y-90172164D01*
X122167530Y-90174560D01*
X122263605Y-90176635D01*
X122388631Y-90178308D01*
X122537140Y-90179494D01*
X122703662Y-90180110D01*
X122783188Y-90180179D01*
X123482268Y-90180179D01*
X124061583Y-89312723D01*
X124186485Y-89126423D01*
X124309316Y-88944574D01*
X124426628Y-88772186D01*
X124534972Y-88614272D01*
X124630901Y-88475840D01*
X124710965Y-88361902D01*
X124771718Y-88277469D01*
X124799559Y-88240342D01*
X124919728Y-88097055D01*
X125036606Y-87986516D01*
X125158570Y-87904885D01*
X125293996Y-87848317D01*
X125451261Y-87812969D01*
X125638742Y-87795000D01*
X125779396Y-87790833D01*
X126064197Y-87787589D01*
X126075937Y-90180179D01*
X127254822Y-90180179D01*
X127254822Y-85417679D01*
X126075536Y-85417679D01*
X126075536Y-86846429D01*
X125366831Y-86846242D01*
X125180818Y-86845453D01*
X124999682Y-86843309D01*
X124831074Y-86840006D01*
X124682647Y-86835736D01*
X124562052Y-86830691D01*
X124476939Y-86825066D01*
X124459973Y-86823352D01*
X124281380Y-86795016D01*
X124139586Y-86753701D01*
X124027140Y-86696377D01*
X123936588Y-86620017D01*
X123923031Y-86605147D01*
X123830162Y-86467636D01*
X123774813Y-86307632D01*
X123756080Y-86122452D01*
X123756109Y-86109375D01*
X123775450Y-85924068D01*
X123830341Y-85766920D01*
X123920889Y-85637785D01*
X124047199Y-85536518D01*
X124209381Y-85462974D01*
X124239209Y-85453608D01*
X124277810Y-85444059D01*
X124326016Y-85436305D01*
X124388547Y-85430172D01*
X124470123Y-85425487D01*
X124575465Y-85422077D01*
X124709292Y-85419768D01*
X124876324Y-85418388D01*
X125081282Y-85417763D01*
X125217867Y-85417679D01*
X126075536Y-85417679D01*
X127254822Y-85417679D01*
X127254822Y-84416576D01*
X125661652Y-84427046D01*
G36*
X108313368Y-84344987D02*
X108084044Y-84372497D01*
X107874005Y-84416937D01*
X107675167Y-84479711D01*
X107479443Y-84562226D01*
X107436294Y-84583023D01*
X107202692Y-84721313D01*
X107002626Y-84889953D01*
X106835669Y-85089436D01*
X106701395Y-85320254D01*
X106614673Y-85535363D01*
X106578002Y-85663355D01*
X106549305Y-85798596D01*
X106534333Y-85910670D01*
X106520759Y-86086696D01*
X106586050Y-86087926D01*
X106627078Y-86089067D01*
X106706009Y-86091586D01*
X106815421Y-86095232D01*
X106947888Y-86099758D01*
X107095986Y-86104914D01*
X107172947Y-86107628D01*
X107694554Y-86126101D01*
X107735818Y-85965734D01*
X107805413Y-85772995D01*
X107906259Y-85611979D01*
X108037130Y-85484046D01*
X108196796Y-85390559D01*
X108284197Y-85358041D01*
X108389178Y-85334995D01*
X108525136Y-85319055D01*
X108678193Y-85310596D01*
X108834471Y-85309994D01*
X108980091Y-85317626D01*
X109101176Y-85333866D01*
X109109975Y-85335673D01*
X109286166Y-85386343D01*
X109439669Y-85456861D01*
X109563745Y-85543180D01*
X109651654Y-85641252D01*
X109669614Y-85671686D01*
X109692546Y-85748025D01*
X109700469Y-85847458D01*
X109693310Y-85950256D01*
X109670996Y-86036685D01*
X109670968Y-86036752D01*
X109635033Y-86096107D01*
X109579638Y-86161327D01*
X109552593Y-86187116D01*
X109493127Y-86234232D01*
X109423786Y-86278289D01*
X109340107Y-86320901D01*
X109237623Y-86363682D01*
X109111870Y-86408248D01*
X108958382Y-86456213D01*
X108772695Y-86509192D01*
X108550343Y-86568799D01*
X108363572Y-86617103D01*
X108049726Y-86701297D01*
X107776822Y-86783583D01*
X107540622Y-86866098D01*
X107336893Y-86950977D01*
X107161399Y-87040357D01*
X107009904Y-87136375D01*
X106878172Y-87241167D01*
X106761969Y-87356868D01*
X106666353Y-87473166D01*
X106557493Y-87645468D01*
X106467480Y-87842798D01*
X106404603Y-88046074D01*
X106392595Y-88103585D01*
X106374948Y-88245109D01*
X106367452Y-88410686D01*
X106369737Y-88584673D01*
X106381431Y-88751429D01*
X106402161Y-88895314D01*
X106412500Y-88941401D01*
X106476921Y-89132721D01*
X106570890Y-89330214D01*
X106685367Y-89516207D01*
X106751697Y-89604613D01*
X106926931Y-89785408D01*
X107137869Y-89940166D01*
X107382406Y-90067908D01*
X107658439Y-90167654D01*
X107963864Y-90238424D01*
X108177363Y-90268445D01*
X108353568Y-90282327D01*
X108549978Y-90289306D01*
X108752388Y-90289504D01*
X108946591Y-90283046D01*
X109118384Y-90270055D01*
X109202679Y-90259498D01*
X109512659Y-90198740D01*
X109787119Y-90114451D01*
X110030539Y-90004486D01*
X110247396Y-89866698D01*
X110442171Y-89698942D01*
X110501960Y-89637078D01*
X110648421Y-89451526D01*
X110778431Y-89232745D01*
X110887371Y-88991292D01*
X110970625Y-88737725D01*
X111023577Y-88482601D01*
X111030594Y-88428259D01*
X111037909Y-88355101D01*
X111036244Y-88316161D01*
X111022374Y-88300666D01*
X110993072Y-88297842D01*
X110991546Y-88297840D01*
X110953163Y-88295702D01*
X110877371Y-88289746D01*
X110771897Y-88280644D01*
X110644467Y-88269066D01*
X110502807Y-88255683D01*
X110472679Y-88252775D01*
X110298704Y-88235879D01*
X110164576Y-88223213D01*
X110064970Y-88214932D01*
X109994558Y-88211190D01*
X109948015Y-88212139D01*
X109920014Y-88217934D01*
X109905229Y-88228728D01*
X109898334Y-88244676D01*
X109894003Y-88265932D01*
X109893262Y-88269509D01*
X109862098Y-88384752D01*
X109816167Y-88517631D01*
X109762504Y-88650014D01*
X109708146Y-88763769D01*
X109686757Y-88801702D01*
X109563119Y-88963918D01*
X109407584Y-89094475D01*
X109221213Y-89192873D01*
X109005069Y-89258616D01*
X108760211Y-89291205D01*
X108635715Y-89294927D01*
X108382819Y-89280309D01*
X108162672Y-89235989D01*
X107973151Y-89161266D01*
X107812132Y-89055440D01*
X107755691Y-89004697D01*
X107643104Y-88869232D01*
X107569341Y-88724532D01*
X107534985Y-88576086D01*
X107540618Y-88429380D01*
X107586822Y-88289904D01*
X107667211Y-88170925D01*
X107717783Y-88119365D01*
X107776781Y-88072122D01*
X107848371Y-88027619D01*
X107936716Y-87984280D01*
X108045981Y-87940527D01*
X108180331Y-87894785D01*
X108343931Y-87845477D01*
X108540944Y-87791026D01*
X108775535Y-87729856D01*
X108946333Y-87686699D01*
X109298527Y-87589589D01*
X109607895Y-87485409D01*
X109873885Y-87374386D01*
X110095941Y-87256745D01*
X110241813Y-87157843D01*
X110430422Y-86985709D01*
X110584216Y-86788385D01*
X110702167Y-86570946D01*
X110783243Y-86338465D01*
X110826416Y-86096017D01*
X110830654Y-85848677D01*
X110794927Y-85601518D01*
X110718206Y-85359616D01*
X110639930Y-85196799D01*
X110515116Y-85013077D01*
X110354471Y-84841503D01*
X110167341Y-84690164D01*
X109963070Y-84567145D01*
X109855279Y-84517905D01*
X109688646Y-84455619D01*
X109528098Y-84408682D01*
X109362149Y-84374980D01*
X109179311Y-84352400D01*
X108968097Y-84338826D01*
X108862209Y-84335134D01*
X108570061Y-84333001D01*
X108313368Y-84344987D01*
X108313368Y-84344987D01*
G37*
X108313368Y-84344987D02*
X108084044Y-84372497D01*
X107874005Y-84416937D01*
X107675167Y-84479711D01*
X107479443Y-84562226D01*
X107436294Y-84583023D01*
X107202692Y-84721313D01*
X107002626Y-84889953D01*
X106835669Y-85089436D01*
X106701395Y-85320254D01*
X106614673Y-85535363D01*
X106578002Y-85663355D01*
X106549305Y-85798596D01*
X106534333Y-85910670D01*
X106520759Y-86086696D01*
X106586050Y-86087926D01*
X106627078Y-86089067D01*
X106706009Y-86091586D01*
X106815421Y-86095232D01*
X106947888Y-86099758D01*
X107095986Y-86104914D01*
X107172947Y-86107628D01*
X107694554Y-86126101D01*
X107735818Y-85965734D01*
X107805413Y-85772995D01*
X107906259Y-85611979D01*
X108037130Y-85484046D01*
X108196796Y-85390559D01*
X108284197Y-85358041D01*
X108389178Y-85334995D01*
X108525136Y-85319055D01*
X108678193Y-85310596D01*
X108834471Y-85309994D01*
X108980091Y-85317626D01*
X109101176Y-85333866D01*
X109109975Y-85335673D01*
X109286166Y-85386343D01*
X109439669Y-85456861D01*
X109563745Y-85543180D01*
X109651654Y-85641252D01*
X109669614Y-85671686D01*
X109692546Y-85748025D01*
X109700469Y-85847458D01*
X109693310Y-85950256D01*
X109670996Y-86036685D01*
X109670968Y-86036752D01*
X109635033Y-86096107D01*
X109579638Y-86161327D01*
X109552593Y-86187116D01*
X109493127Y-86234232D01*
X109423786Y-86278289D01*
X109340107Y-86320901D01*
X109237623Y-86363682D01*
X109111870Y-86408248D01*
X108958382Y-86456213D01*
X108772695Y-86509192D01*
X108550343Y-86568799D01*
X108363572Y-86617103D01*
X108049726Y-86701297D01*
X107776822Y-86783583D01*
X107540622Y-86866098D01*
X107336893Y-86950977D01*
X107161399Y-87040357D01*
X107009904Y-87136375D01*
X106878172Y-87241167D01*
X106761969Y-87356868D01*
X106666353Y-87473166D01*
X106557493Y-87645468D01*
X106467480Y-87842798D01*
X106404603Y-88046074D01*
X106392595Y-88103585D01*
X106374948Y-88245109D01*
X106367452Y-88410686D01*
X106369737Y-88584673D01*
X106381431Y-88751429D01*
X106402161Y-88895314D01*
X106412500Y-88941401D01*
X106476921Y-89132721D01*
X106570890Y-89330214D01*
X106685367Y-89516207D01*
X106751697Y-89604613D01*
X106926931Y-89785408D01*
X107137869Y-89940166D01*
X107382406Y-90067908D01*
X107658439Y-90167654D01*
X107963864Y-90238424D01*
X108177363Y-90268445D01*
X108353568Y-90282327D01*
X108549978Y-90289306D01*
X108752388Y-90289504D01*
X108946591Y-90283046D01*
X109118384Y-90270055D01*
X109202679Y-90259498D01*
X109512659Y-90198740D01*
X109787119Y-90114451D01*
X110030539Y-90004486D01*
X110247396Y-89866698D01*
X110442171Y-89698942D01*
X110501960Y-89637078D01*
X110648421Y-89451526D01*
X110778431Y-89232745D01*
X110887371Y-88991292D01*
X110970625Y-88737725D01*
X111023577Y-88482601D01*
X111030594Y-88428259D01*
X111037909Y-88355101D01*
X111036244Y-88316161D01*
X111022374Y-88300666D01*
X110993072Y-88297842D01*
X110991546Y-88297840D01*
X110953163Y-88295702D01*
X110877371Y-88289746D01*
X110771897Y-88280644D01*
X110644467Y-88269066D01*
X110502807Y-88255683D01*
X110472679Y-88252775D01*
X110298704Y-88235879D01*
X110164576Y-88223213D01*
X110064970Y-88214932D01*
X109994558Y-88211190D01*
X109948015Y-88212139D01*
X109920014Y-88217934D01*
X109905229Y-88228728D01*
X109898334Y-88244676D01*
X109894003Y-88265932D01*
X109893262Y-88269509D01*
X109862098Y-88384752D01*
X109816167Y-88517631D01*
X109762504Y-88650014D01*
X109708146Y-88763769D01*
X109686757Y-88801702D01*
X109563119Y-88963918D01*
X109407584Y-89094475D01*
X109221213Y-89192873D01*
X109005069Y-89258616D01*
X108760211Y-89291205D01*
X108635715Y-89294927D01*
X108382819Y-89280309D01*
X108162672Y-89235989D01*
X107973151Y-89161266D01*
X107812132Y-89055440D01*
X107755691Y-89004697D01*
X107643104Y-88869232D01*
X107569341Y-88724532D01*
X107534985Y-88576086D01*
X107540618Y-88429380D01*
X107586822Y-88289904D01*
X107667211Y-88170925D01*
X107717783Y-88119365D01*
X107776781Y-88072122D01*
X107848371Y-88027619D01*
X107936716Y-87984280D01*
X108045981Y-87940527D01*
X108180331Y-87894785D01*
X108343931Y-87845477D01*
X108540944Y-87791026D01*
X108775535Y-87729856D01*
X108946333Y-87686699D01*
X109298527Y-87589589D01*
X109607895Y-87485409D01*
X109873885Y-87374386D01*
X110095941Y-87256745D01*
X110241813Y-87157843D01*
X110430422Y-86985709D01*
X110584216Y-86788385D01*
X110702167Y-86570946D01*
X110783243Y-86338465D01*
X110826416Y-86096017D01*
X110830654Y-85848677D01*
X110794927Y-85601518D01*
X110718206Y-85359616D01*
X110639930Y-85196799D01*
X110515116Y-85013077D01*
X110354471Y-84841503D01*
X110167341Y-84690164D01*
X109963070Y-84567145D01*
X109855279Y-84517905D01*
X109688646Y-84455619D01*
X109528098Y-84408682D01*
X109362149Y-84374980D01*
X109179311Y-84352400D01*
X108968097Y-84338826D01*
X108862209Y-84335134D01*
X108570061Y-84333001D01*
X108313368Y-84344987D01*
G36*
X119566786Y-85930139D02*
X119415368Y-85931181D01*
X119298683Y-85934145D01*
X119206119Y-85940060D01*
X119127062Y-85949951D01*
X119050896Y-85964847D01*
X118967008Y-85985772D01*
X118953023Y-85989516D01*
X118662869Y-86090250D01*
X118395309Y-86228979D01*
X118153326Y-86403213D01*
X117939905Y-86610467D01*
X117758029Y-86848253D01*
X117615064Y-87104678D01*
X117531969Y-87308601D01*
X117473332Y-87517963D01*
X117436252Y-87745596D01*
X117419143Y-87971394D01*
X117422054Y-88305223D01*
X117461734Y-88613691D01*
X117539026Y-88899125D01*
X117654774Y-89163849D01*
X117809819Y-89410189D01*
X118005004Y-89640472D01*
X118034956Y-89670937D01*
X118256295Y-89866500D01*
X118490889Y-90021647D01*
X118746531Y-90140986D01*
X118935724Y-90203854D01*
X119053995Y-90229662D01*
X119203738Y-90250474D01*
X119371249Y-90265339D01*
X119542822Y-90273310D01*
X119704753Y-90273438D01*
X119832462Y-90265912D01*
X120069147Y-90226899D01*
X120313177Y-90158784D01*
X120552483Y-90066426D01*
X120774996Y-89954685D01*
X120968647Y-89828419D01*
X121020137Y-89787747D01*
X121213802Y-89597838D01*
X121378561Y-89375038D01*
X121512694Y-89122762D01*
X121614481Y-88844424D01*
X121682203Y-88543440D01*
X121696110Y-88445268D01*
X121718669Y-88101926D01*
X121718221Y-88093750D01*
X120569799Y-88093750D01*
X120556071Y-88363973D01*
X120512314Y-88601240D01*
X120437779Y-88807234D01*
X120331718Y-88983638D01*
X120193384Y-89132135D01*
X120065689Y-89227695D01*
X119959493Y-89289022D01*
X119859603Y-89328883D01*
X119751801Y-89350725D01*
X119621871Y-89357998D01*
X119532768Y-89356954D01*
X119416089Y-89351720D01*
X119329679Y-89341662D01*
X119258495Y-89323986D01*
X119187495Y-89295903D01*
X119176305Y-89290793D01*
X119042011Y-89210974D01*
X118910281Y-89101219D01*
X118796385Y-88975136D01*
X118753045Y-88913617D01*
X118676705Y-88761827D01*
X118617553Y-88578326D01*
X118577588Y-88374143D01*
X118558812Y-88160304D01*
X118563223Y-87947838D01*
X118568312Y-87895092D01*
X118605330Y-87665291D01*
X118661592Y-87471242D01*
X118739812Y-87306456D01*
X118842709Y-87164446D01*
X118899103Y-87104955D01*
X119059903Y-86977246D01*
X119236653Y-86888650D01*
X119423394Y-86839164D01*
X119614166Y-86828788D01*
X119803009Y-86857520D01*
X119983965Y-86925358D01*
X120151073Y-87032300D01*
X120232435Y-87105282D01*
X120356616Y-87252991D01*
X120450672Y-87418858D01*
X120516363Y-87608039D01*
X120555450Y-87825694D01*
X120569694Y-88076980D01*
X120569799Y-88093750D01*
X121718221Y-88093750D01*
X121700706Y-87774671D01*
X121642751Y-87465131D01*
X121545329Y-87174933D01*
X121408969Y-86905704D01*
X121234197Y-86659073D01*
X121055358Y-86467967D01*
X120838311Y-86292640D01*
X120590274Y-86145890D01*
X120318293Y-86031595D01*
X120188479Y-85991370D01*
X120101869Y-85968368D01*
X120027258Y-85951863D01*
X119954117Y-85940815D01*
X119871918Y-85934189D01*
X119770132Y-85930947D01*
X119638229Y-85930053D01*
X119566786Y-85930139D01*
X119566786Y-85930139D01*
G37*
X119566786Y-85930139D02*
X119415368Y-85931181D01*
X119298683Y-85934145D01*
X119206119Y-85940060D01*
X119127062Y-85949951D01*
X119050896Y-85964847D01*
X118967008Y-85985772D01*
X118953023Y-85989516D01*
X118662869Y-86090250D01*
X118395309Y-86228979D01*
X118153326Y-86403213D01*
X117939905Y-86610467D01*
X117758029Y-86848253D01*
X117615064Y-87104678D01*
X117531969Y-87308601D01*
X117473332Y-87517963D01*
X117436252Y-87745596D01*
X117419143Y-87971394D01*
X117422054Y-88305223D01*
X117461734Y-88613691D01*
X117539026Y-88899125D01*
X117654774Y-89163849D01*
X117809819Y-89410189D01*
X118005004Y-89640472D01*
X118034956Y-89670937D01*
X118256295Y-89866500D01*
X118490889Y-90021647D01*
X118746531Y-90140986D01*
X118935724Y-90203854D01*
X119053995Y-90229662D01*
X119203738Y-90250474D01*
X119371249Y-90265339D01*
X119542822Y-90273310D01*
X119704753Y-90273438D01*
X119832462Y-90265912D01*
X120069147Y-90226899D01*
X120313177Y-90158784D01*
X120552483Y-90066426D01*
X120774996Y-89954685D01*
X120968647Y-89828419D01*
X121020137Y-89787747D01*
X121213802Y-89597838D01*
X121378561Y-89375038D01*
X121512694Y-89122762D01*
X121614481Y-88844424D01*
X121682203Y-88543440D01*
X121696110Y-88445268D01*
X121718669Y-88101926D01*
X121718221Y-88093750D01*
X120569799Y-88093750D01*
X120556071Y-88363973D01*
X120512314Y-88601240D01*
X120437779Y-88807234D01*
X120331718Y-88983638D01*
X120193384Y-89132135D01*
X120065689Y-89227695D01*
X119959493Y-89289022D01*
X119859603Y-89328883D01*
X119751801Y-89350725D01*
X119621871Y-89357998D01*
X119532768Y-89356954D01*
X119416089Y-89351720D01*
X119329679Y-89341662D01*
X119258495Y-89323986D01*
X119187495Y-89295903D01*
X119176305Y-89290793D01*
X119042011Y-89210974D01*
X118910281Y-89101219D01*
X118796385Y-88975136D01*
X118753045Y-88913617D01*
X118676705Y-88761827D01*
X118617553Y-88578326D01*
X118577588Y-88374143D01*
X118558812Y-88160304D01*
X118563223Y-87947838D01*
X118568312Y-87895092D01*
X118605330Y-87665291D01*
X118661592Y-87471242D01*
X118739812Y-87306456D01*
X118842709Y-87164446D01*
X118899103Y-87104955D01*
X119059903Y-86977246D01*
X119236653Y-86888650D01*
X119423394Y-86839164D01*
X119614166Y-86828788D01*
X119803009Y-86857520D01*
X119983965Y-86925358D01*
X120151073Y-87032300D01*
X120232435Y-87105282D01*
X120356616Y-87252991D01*
X120450672Y-87418858D01*
X120516363Y-87608039D01*
X120555450Y-87825694D01*
X120569694Y-88076980D01*
X120569799Y-88093750D01*
X121718221Y-88093750D01*
X121700706Y-87774671D01*
X121642751Y-87465131D01*
X121545329Y-87174933D01*
X121408969Y-86905704D01*
X121234197Y-86659073D01*
X121055358Y-86467967D01*
X120838311Y-86292640D01*
X120590274Y-86145890D01*
X120318293Y-86031595D01*
X120188479Y-85991370D01*
X120101869Y-85968368D01*
X120027258Y-85951863D01*
X119954117Y-85940815D01*
X119871918Y-85934189D01*
X119770132Y-85930947D01*
X119638229Y-85930053D01*
X119566786Y-85930139D01*
D11*
G04 #@! TO.C,G\002A\002A\002A*
G36*
X149323814Y-78820605D02*
X149325334Y-78822466D01*
X149332884Y-78820723D01*
X149333800Y-78814000D01*
X149329154Y-78803546D01*
X149325334Y-78805533D01*
X149323814Y-78820605D01*
X149323814Y-78820605D01*
G37*
X149323814Y-78820605D02*
X149325334Y-78822466D01*
X149332884Y-78820723D01*
X149333800Y-78814000D01*
X149329154Y-78803546D01*
X149325334Y-78805533D01*
X149323814Y-78820605D01*
G36*
X143979272Y-77741230D02*
X143986188Y-77799069D01*
X144017611Y-77855777D01*
X144061500Y-77900040D01*
X144093489Y-77922836D01*
X144124922Y-77934126D01*
X144167388Y-77937612D01*
X144179436Y-77937700D01*
X144224323Y-77935135D01*
X144251269Y-77928053D01*
X144256671Y-77922737D01*
X144270776Y-77916714D01*
X144305888Y-77911538D01*
X144357627Y-77907288D01*
X144421612Y-77904043D01*
X144493463Y-77901879D01*
X144568799Y-77900877D01*
X144643240Y-77901115D01*
X144712404Y-77902670D01*
X144771911Y-77905621D01*
X144817381Y-77910047D01*
X144831650Y-77912448D01*
X144880653Y-77922132D01*
X144926131Y-77930487D01*
X144949125Y-77934291D01*
X144977190Y-77940991D01*
X144990276Y-77949027D01*
X144990400Y-77949768D01*
X145001741Y-77957115D01*
X145031150Y-77966683D01*
X145063425Y-77974447D01*
X145122930Y-77991948D01*
X145195283Y-78020654D01*
X145272805Y-78056815D01*
X145347817Y-78096678D01*
X145412639Y-78136492D01*
X145447600Y-78162129D01*
X145466581Y-78177584D01*
X145498586Y-78203624D01*
X145536934Y-78234809D01*
X145539675Y-78237038D01*
X145575032Y-78267187D01*
X145600967Y-78291976D01*
X145612515Y-78306608D01*
X145612700Y-78307555D01*
X145622814Y-78318413D01*
X145628575Y-78319448D01*
X145643273Y-78329039D01*
X145668299Y-78353268D01*
X145698757Y-78386445D01*
X145729751Y-78422876D01*
X145756386Y-78456870D01*
X145773764Y-78482732D01*
X145777800Y-78492956D01*
X145785908Y-78509111D01*
X145806260Y-78534805D01*
X145815900Y-78545300D01*
X145839517Y-78574166D01*
X145852880Y-78598554D01*
X145854000Y-78604334D01*
X145860695Y-78621311D01*
X145866459Y-78623500D01*
X145878496Y-78634275D01*
X145886885Y-78655250D01*
X145896691Y-78679024D01*
X145906177Y-78687000D01*
X145917082Y-78696793D01*
X145917500Y-78700396D01*
X145922382Y-78718886D01*
X145934784Y-78752148D01*
X145951341Y-78792003D01*
X145968690Y-78830274D01*
X145980577Y-78853711D01*
X145990274Y-78879531D01*
X145999489Y-78916498D01*
X146000838Y-78923561D01*
X146009001Y-78958503D01*
X146017974Y-78982742D01*
X146019781Y-78985575D01*
X146026285Y-79004145D01*
X146033317Y-79039938D01*
X146038830Y-79080825D01*
X146045177Y-79125671D01*
X146052842Y-79161047D01*
X146059444Y-79177960D01*
X146063566Y-79196203D01*
X146065989Y-79235191D01*
X146066847Y-79290335D01*
X146066272Y-79357046D01*
X146064395Y-79430736D01*
X146061350Y-79506814D01*
X146057268Y-79580693D01*
X146052282Y-79647783D01*
X146046523Y-79703495D01*
X146043715Y-79723635D01*
X146035835Y-79783090D01*
X146034132Y-79826796D01*
X146038595Y-79863638D01*
X146043532Y-79883690D01*
X146055216Y-79917834D01*
X146071256Y-79939495D01*
X146099244Y-79956489D01*
X146125248Y-79967830D01*
X146177742Y-79986796D01*
X146217296Y-79992844D01*
X146252477Y-79986566D01*
X146273100Y-79978058D01*
X146326655Y-79948451D01*
X146355763Y-79921510D01*
X146362000Y-79903145D01*
X146367601Y-79884222D01*
X146373922Y-79880800D01*
X146382532Y-79869457D01*
X146391085Y-79840588D01*
X146394735Y-79820475D01*
X146402726Y-79783094D01*
X146412870Y-79756968D01*
X146417738Y-79751081D01*
X146422102Y-79736014D01*
X146425710Y-79699602D01*
X146428561Y-79645889D01*
X146430656Y-79578916D01*
X146431996Y-79502726D01*
X146432580Y-79421361D01*
X146432409Y-79338864D01*
X146431483Y-79259278D01*
X146429802Y-79186644D01*
X146427367Y-79125005D01*
X146424178Y-79078403D01*
X146420234Y-79050881D01*
X146417694Y-79045308D01*
X146408545Y-79028593D01*
X146399658Y-78994847D01*
X146394580Y-78963425D01*
X146387821Y-78922751D01*
X146379654Y-78893267D01*
X146373812Y-78883300D01*
X146364131Y-78866071D01*
X146361570Y-78848175D01*
X146355857Y-78819482D01*
X146342110Y-78781642D01*
X146336600Y-78769550D01*
X146321279Y-78733235D01*
X146312445Y-78703439D01*
X146311631Y-78696710D01*
X146305979Y-78676941D01*
X146291814Y-78642440D01*
X146272742Y-78600796D01*
X146252373Y-78559598D01*
X146234314Y-78526436D01*
X146222494Y-78509200D01*
X146211747Y-78494025D01*
X146202058Y-78477450D01*
X146173969Y-78427327D01*
X146153811Y-78394664D01*
X146138272Y-78374142D01*
X146136575Y-78372258D01*
X146122945Y-78351400D01*
X146120700Y-78342656D01*
X146120163Y-78335815D01*
X146116582Y-78327553D01*
X146107004Y-78313855D01*
X146088476Y-78290703D01*
X146058046Y-78254082D01*
X146037724Y-78229800D01*
X145992349Y-78176831D01*
X145945043Y-78123696D01*
X145899126Y-78073888D01*
X145857917Y-78030904D01*
X145824736Y-77998240D01*
X145802904Y-77979389D01*
X145796850Y-77976168D01*
X145780562Y-77967763D01*
X145753540Y-77947492D01*
X145737971Y-77934230D01*
X145703893Y-77905258D01*
X145672661Y-77880736D01*
X145663476Y-77874200D01*
X145630622Y-77851112D01*
X145606053Y-77832925D01*
X145580292Y-77816652D01*
X145563072Y-77810700D01*
X145549809Y-77801714D01*
X145549200Y-77798000D01*
X145538980Y-77786582D01*
X145531058Y-77785300D01*
X145507305Y-77776938D01*
X145495207Y-77767592D01*
X145473589Y-77752259D01*
X145438763Y-77733157D01*
X145399754Y-77714611D01*
X145365589Y-77700948D01*
X145346697Y-77696400D01*
X145333796Y-77688148D01*
X145333300Y-77685113D01*
X145322204Y-77675591D01*
X145294896Y-77666726D01*
X145288850Y-77665487D01*
X145259547Y-77657157D01*
X145244813Y-77647422D01*
X145244400Y-77645802D01*
X145233096Y-77637353D01*
X145204481Y-77629000D01*
X145187250Y-77625886D01*
X145153235Y-77618712D01*
X145132775Y-77610399D01*
X145130100Y-77606836D01*
X145118761Y-77599097D01*
X145089899Y-77591141D01*
X145069775Y-77587626D01*
X145031218Y-77580304D01*
X145002798Y-77571783D01*
X144995806Y-77568093D01*
X144977076Y-77561648D01*
X144940633Y-77554855D01*
X144894106Y-77549114D01*
X144890630Y-77548785D01*
X144844947Y-77543221D01*
X144810045Y-77536507D01*
X144792867Y-77530008D01*
X144792400Y-77529439D01*
X144777873Y-77525536D01*
X144743083Y-77522528D01*
X144693151Y-77520410D01*
X144633199Y-77519177D01*
X144568348Y-77518826D01*
X144503719Y-77519354D01*
X144444434Y-77520755D01*
X144395613Y-77523026D01*
X144362379Y-77526164D01*
X144349989Y-77529782D01*
X144334981Y-77535848D01*
X144300936Y-77542358D01*
X144254171Y-77548203D01*
X144234939Y-77549972D01*
X144186144Y-77555288D01*
X144148795Y-77561740D01*
X144128704Y-77568223D01*
X144126800Y-77570540D01*
X144116535Y-77580881D01*
X144108285Y-77582100D01*
X144089246Y-77590346D01*
X144060272Y-77611517D01*
X144039585Y-77629840D01*
X143997019Y-77684180D01*
X143979272Y-77741230D01*
X143979272Y-77741230D01*
G37*
X143979272Y-77741230D02*
X143986188Y-77799069D01*
X144017611Y-77855777D01*
X144061500Y-77900040D01*
X144093489Y-77922836D01*
X144124922Y-77934126D01*
X144167388Y-77937612D01*
X144179436Y-77937700D01*
X144224323Y-77935135D01*
X144251269Y-77928053D01*
X144256671Y-77922737D01*
X144270776Y-77916714D01*
X144305888Y-77911538D01*
X144357627Y-77907288D01*
X144421612Y-77904043D01*
X144493463Y-77901879D01*
X144568799Y-77900877D01*
X144643240Y-77901115D01*
X144712404Y-77902670D01*
X144771911Y-77905621D01*
X144817381Y-77910047D01*
X144831650Y-77912448D01*
X144880653Y-77922132D01*
X144926131Y-77930487D01*
X144949125Y-77934291D01*
X144977190Y-77940991D01*
X144990276Y-77949027D01*
X144990400Y-77949768D01*
X145001741Y-77957115D01*
X145031150Y-77966683D01*
X145063425Y-77974447D01*
X145122930Y-77991948D01*
X145195283Y-78020654D01*
X145272805Y-78056815D01*
X145347817Y-78096678D01*
X145412639Y-78136492D01*
X145447600Y-78162129D01*
X145466581Y-78177584D01*
X145498586Y-78203624D01*
X145536934Y-78234809D01*
X145539675Y-78237038D01*
X145575032Y-78267187D01*
X145600967Y-78291976D01*
X145612515Y-78306608D01*
X145612700Y-78307555D01*
X145622814Y-78318413D01*
X145628575Y-78319448D01*
X145643273Y-78329039D01*
X145668299Y-78353268D01*
X145698757Y-78386445D01*
X145729751Y-78422876D01*
X145756386Y-78456870D01*
X145773764Y-78482732D01*
X145777800Y-78492956D01*
X145785908Y-78509111D01*
X145806260Y-78534805D01*
X145815900Y-78545300D01*
X145839517Y-78574166D01*
X145852880Y-78598554D01*
X145854000Y-78604334D01*
X145860695Y-78621311D01*
X145866459Y-78623500D01*
X145878496Y-78634275D01*
X145886885Y-78655250D01*
X145896691Y-78679024D01*
X145906177Y-78687000D01*
X145917082Y-78696793D01*
X145917500Y-78700396D01*
X145922382Y-78718886D01*
X145934784Y-78752148D01*
X145951341Y-78792003D01*
X145968690Y-78830274D01*
X145980577Y-78853711D01*
X145990274Y-78879531D01*
X145999489Y-78916498D01*
X146000838Y-78923561D01*
X146009001Y-78958503D01*
X146017974Y-78982742D01*
X146019781Y-78985575D01*
X146026285Y-79004145D01*
X146033317Y-79039938D01*
X146038830Y-79080825D01*
X146045177Y-79125671D01*
X146052842Y-79161047D01*
X146059444Y-79177960D01*
X146063566Y-79196203D01*
X146065989Y-79235191D01*
X146066847Y-79290335D01*
X146066272Y-79357046D01*
X146064395Y-79430736D01*
X146061350Y-79506814D01*
X146057268Y-79580693D01*
X146052282Y-79647783D01*
X146046523Y-79703495D01*
X146043715Y-79723635D01*
X146035835Y-79783090D01*
X146034132Y-79826796D01*
X146038595Y-79863638D01*
X146043532Y-79883690D01*
X146055216Y-79917834D01*
X146071256Y-79939495D01*
X146099244Y-79956489D01*
X146125248Y-79967830D01*
X146177742Y-79986796D01*
X146217296Y-79992844D01*
X146252477Y-79986566D01*
X146273100Y-79978058D01*
X146326655Y-79948451D01*
X146355763Y-79921510D01*
X146362000Y-79903145D01*
X146367601Y-79884222D01*
X146373922Y-79880800D01*
X146382532Y-79869457D01*
X146391085Y-79840588D01*
X146394735Y-79820475D01*
X146402726Y-79783094D01*
X146412870Y-79756968D01*
X146417738Y-79751081D01*
X146422102Y-79736014D01*
X146425710Y-79699602D01*
X146428561Y-79645889D01*
X146430656Y-79578916D01*
X146431996Y-79502726D01*
X146432580Y-79421361D01*
X146432409Y-79338864D01*
X146431483Y-79259278D01*
X146429802Y-79186644D01*
X146427367Y-79125005D01*
X146424178Y-79078403D01*
X146420234Y-79050881D01*
X146417694Y-79045308D01*
X146408545Y-79028593D01*
X146399658Y-78994847D01*
X146394580Y-78963425D01*
X146387821Y-78922751D01*
X146379654Y-78893267D01*
X146373812Y-78883300D01*
X146364131Y-78866071D01*
X146361570Y-78848175D01*
X146355857Y-78819482D01*
X146342110Y-78781642D01*
X146336600Y-78769550D01*
X146321279Y-78733235D01*
X146312445Y-78703439D01*
X146311631Y-78696710D01*
X146305979Y-78676941D01*
X146291814Y-78642440D01*
X146272742Y-78600796D01*
X146252373Y-78559598D01*
X146234314Y-78526436D01*
X146222494Y-78509200D01*
X146211747Y-78494025D01*
X146202058Y-78477450D01*
X146173969Y-78427327D01*
X146153811Y-78394664D01*
X146138272Y-78374142D01*
X146136575Y-78372258D01*
X146122945Y-78351400D01*
X146120700Y-78342656D01*
X146120163Y-78335815D01*
X146116582Y-78327553D01*
X146107004Y-78313855D01*
X146088476Y-78290703D01*
X146058046Y-78254082D01*
X146037724Y-78229800D01*
X145992349Y-78176831D01*
X145945043Y-78123696D01*
X145899126Y-78073888D01*
X145857917Y-78030904D01*
X145824736Y-77998240D01*
X145802904Y-77979389D01*
X145796850Y-77976168D01*
X145780562Y-77967763D01*
X145753540Y-77947492D01*
X145737971Y-77934230D01*
X145703893Y-77905258D01*
X145672661Y-77880736D01*
X145663476Y-77874200D01*
X145630622Y-77851112D01*
X145606053Y-77832925D01*
X145580292Y-77816652D01*
X145563072Y-77810700D01*
X145549809Y-77801714D01*
X145549200Y-77798000D01*
X145538980Y-77786582D01*
X145531058Y-77785300D01*
X145507305Y-77776938D01*
X145495207Y-77767592D01*
X145473589Y-77752259D01*
X145438763Y-77733157D01*
X145399754Y-77714611D01*
X145365589Y-77700948D01*
X145346697Y-77696400D01*
X145333796Y-77688148D01*
X145333300Y-77685113D01*
X145322204Y-77675591D01*
X145294896Y-77666726D01*
X145288850Y-77665487D01*
X145259547Y-77657157D01*
X145244813Y-77647422D01*
X145244400Y-77645802D01*
X145233096Y-77637353D01*
X145204481Y-77629000D01*
X145187250Y-77625886D01*
X145153235Y-77618712D01*
X145132775Y-77610399D01*
X145130100Y-77606836D01*
X145118761Y-77599097D01*
X145089899Y-77591141D01*
X145069775Y-77587626D01*
X145031218Y-77580304D01*
X145002798Y-77571783D01*
X144995806Y-77568093D01*
X144977076Y-77561648D01*
X144940633Y-77554855D01*
X144894106Y-77549114D01*
X144890630Y-77548785D01*
X144844947Y-77543221D01*
X144810045Y-77536507D01*
X144792867Y-77530008D01*
X144792400Y-77529439D01*
X144777873Y-77525536D01*
X144743083Y-77522528D01*
X144693151Y-77520410D01*
X144633199Y-77519177D01*
X144568348Y-77518826D01*
X144503719Y-77519354D01*
X144444434Y-77520755D01*
X144395613Y-77523026D01*
X144362379Y-77526164D01*
X144349989Y-77529782D01*
X144334981Y-77535848D01*
X144300936Y-77542358D01*
X144254171Y-77548203D01*
X144234939Y-77549972D01*
X144186144Y-77555288D01*
X144148795Y-77561740D01*
X144128704Y-77568223D01*
X144126800Y-77570540D01*
X144116535Y-77580881D01*
X144108285Y-77582100D01*
X144089246Y-77590346D01*
X144060272Y-77611517D01*
X144039585Y-77629840D01*
X143997019Y-77684180D01*
X143979272Y-77741230D01*
G36*
X143683760Y-76644342D02*
X143692460Y-76657539D01*
X143705640Y-76682771D01*
X143707700Y-76696910D01*
X143716935Y-76721089D01*
X143739833Y-76751621D01*
X143769190Y-76781040D01*
X143797799Y-76801884D01*
X143814380Y-76807400D01*
X143832081Y-76813881D01*
X143834700Y-76820100D01*
X143845464Y-76828473D01*
X143870789Y-76832295D01*
X143900231Y-76831456D01*
X143923342Y-76825845D01*
X143929335Y-76821096D01*
X143944775Y-76813963D01*
X143978267Y-76806548D01*
X144022159Y-76800504D01*
X144068449Y-76793929D01*
X144105904Y-76785420D01*
X144125585Y-76777282D01*
X144143314Y-76773083D01*
X144182782Y-76769561D01*
X144240358Y-76766713D01*
X144312414Y-76764535D01*
X144395318Y-76763020D01*
X144485440Y-76762165D01*
X144579150Y-76761965D01*
X144672818Y-76762415D01*
X144762814Y-76763512D01*
X144845507Y-76765249D01*
X144917268Y-76767622D01*
X144974466Y-76770628D01*
X145013471Y-76774260D01*
X145030564Y-76778439D01*
X145052835Y-76788209D01*
X145090998Y-76797360D01*
X145124587Y-76802395D01*
X145167146Y-76808497D01*
X145199705Y-76815576D01*
X145212650Y-76820642D01*
X145231891Y-76828097D01*
X145266641Y-76836116D01*
X145288439Y-76839817D01*
X145328732Y-76848618D01*
X145359788Y-76860356D01*
X145368721Y-76866406D01*
X145392704Y-76878275D01*
X145427371Y-76883580D01*
X145429458Y-76883600D01*
X145458475Y-76886851D01*
X145472707Y-76894825D01*
X145473000Y-76896300D01*
X145483493Y-76907041D01*
X145495414Y-76909000D01*
X145520413Y-76914787D01*
X145555035Y-76929197D01*
X145565218Y-76934400D01*
X145601253Y-76950571D01*
X145632118Y-76959302D01*
X145638054Y-76959800D01*
X145658723Y-76964692D01*
X145663500Y-76971490D01*
X145674449Y-76982076D01*
X145700860Y-76991385D01*
X145701600Y-76991549D01*
X145728254Y-77000471D01*
X145739693Y-77010382D01*
X145739700Y-77010599D01*
X145750640Y-77020475D01*
X145777032Y-77029479D01*
X145777800Y-77029650D01*
X145804454Y-77038571D01*
X145815893Y-77048482D01*
X145815900Y-77048700D01*
X145826840Y-77058575D01*
X145853232Y-77067579D01*
X145854000Y-77067750D01*
X145880663Y-77076965D01*
X145892093Y-77087580D01*
X145892100Y-77087809D01*
X145902049Y-77098840D01*
X145906955Y-77099500D01*
X145924183Y-77106856D01*
X145960504Y-77128323D01*
X146014520Y-77163000D01*
X146084835Y-77209985D01*
X146170052Y-77268376D01*
X146190550Y-77282586D01*
X146225642Y-77309643D01*
X146256577Y-77337581D01*
X146256619Y-77337625D01*
X146277920Y-77357528D01*
X146290794Y-77366187D01*
X146290993Y-77366200D01*
X146303001Y-77374647D01*
X146328785Y-77397417D01*
X146364414Y-77430655D01*
X146405955Y-77470503D01*
X146449478Y-77513107D01*
X146491052Y-77554609D01*
X146526745Y-77591154D01*
X146552627Y-77618885D01*
X146564765Y-77633946D01*
X146565200Y-77635171D01*
X146573449Y-77650656D01*
X146593895Y-77674875D01*
X146600125Y-77681266D01*
X146632436Y-77715630D01*
X146665952Y-77754712D01*
X146696296Y-77792949D01*
X146719086Y-77824773D01*
X146729946Y-77844620D01*
X146730300Y-77846704D01*
X146738107Y-77862644D01*
X146739825Y-77863616D01*
X146755145Y-77878131D01*
X146775972Y-77906283D01*
X146796301Y-77939070D01*
X146810127Y-77967488D01*
X146811210Y-77970631D01*
X146826417Y-78000365D01*
X146842794Y-78021735D01*
X146858352Y-78040224D01*
X146874061Y-78063768D01*
X146892973Y-78097605D01*
X146918135Y-78146974D01*
X146931903Y-78174824D01*
X146952865Y-78217111D01*
X146972171Y-78255493D01*
X146979528Y-78269859D01*
X146992347Y-78301123D01*
X146997000Y-78323834D01*
X147003208Y-78341505D01*
X147009125Y-78344100D01*
X147019193Y-78355204D01*
X147028345Y-78382540D01*
X147029615Y-78388690D01*
X147037790Y-78420015D01*
X147046902Y-78438529D01*
X147048135Y-78439556D01*
X147056495Y-78455016D01*
X147064846Y-78485823D01*
X147066862Y-78496566D01*
X147074458Y-78528272D01*
X147083044Y-78545968D01*
X147085575Y-78547300D01*
X147093318Y-78558596D01*
X147101232Y-78587175D01*
X147104242Y-78604153D01*
X147111579Y-78639797D01*
X147120152Y-78663463D01*
X147123544Y-78667668D01*
X147131180Y-78683072D01*
X147139106Y-78715369D01*
X147143283Y-78740989D01*
X147150157Y-78781118D01*
X147157969Y-78811062D01*
X147162254Y-78820350D01*
X147168039Y-78838306D01*
X147174427Y-78874570D01*
X147180237Y-78922115D01*
X147181436Y-78934650D01*
X147187308Y-78985836D01*
X147194552Y-79029355D01*
X147201781Y-79057182D01*
X147203120Y-79060191D01*
X147206872Y-79079800D01*
X147209943Y-79120171D01*
X147212334Y-79177117D01*
X147214044Y-79246450D01*
X147215074Y-79323984D01*
X147215422Y-79405530D01*
X147215090Y-79486901D01*
X147214076Y-79563909D01*
X147212382Y-79632367D01*
X147210007Y-79688086D01*
X147206951Y-79726880D01*
X147203214Y-79744561D01*
X147203126Y-79744678D01*
X147195804Y-79764498D01*
X147188316Y-79801646D01*
X147182271Y-79848110D01*
X147182233Y-79848498D01*
X147176114Y-79895020D01*
X147168386Y-79932299D01*
X147160716Y-79952317D01*
X147160662Y-79952382D01*
X147153683Y-79972716D01*
X147148887Y-80009288D01*
X147146396Y-80054488D01*
X147146331Y-80100703D01*
X147148814Y-80140322D01*
X147153966Y-80165733D01*
X147157182Y-80170500D01*
X147172645Y-80189202D01*
X147178503Y-80201475D01*
X147194557Y-80220280D01*
X147206152Y-80223700D01*
X147223312Y-80230123D01*
X147225600Y-80235803D01*
X147236589Y-80246565D01*
X147263906Y-80258309D01*
X147273225Y-80261132D01*
X147305439Y-80269815D01*
X147325131Y-80272362D01*
X147344387Y-80268935D01*
X147366398Y-80262362D01*
X147424818Y-80236525D01*
X147469217Y-80197093D01*
X147501483Y-80141130D01*
X147523504Y-80065696D01*
X147533530Y-80002268D01*
X147540724Y-79950820D01*
X147548329Y-79909576D01*
X147555140Y-79884600D01*
X147557790Y-79880160D01*
X147562233Y-79865551D01*
X147567091Y-79830490D01*
X147571833Y-79779908D01*
X147575927Y-79718737D01*
X147576652Y-79705061D01*
X147580569Y-79642337D01*
X147585290Y-79589212D01*
X147590273Y-79550602D01*
X147594978Y-79531424D01*
X147595881Y-79530326D01*
X147600625Y-79515373D01*
X147603952Y-79481641D01*
X147605864Y-79435713D01*
X147606360Y-79384170D01*
X147605441Y-79333595D01*
X147603107Y-79290569D01*
X147599358Y-79261675D01*
X147595861Y-79253361D01*
X147591167Y-79238854D01*
X147586061Y-79203994D01*
X147581123Y-79153808D01*
X147576933Y-79093324D01*
X147576489Y-79085250D01*
X147572415Y-79023024D01*
X147567524Y-78969679D01*
X147562402Y-78930527D01*
X147557634Y-78910881D01*
X147557176Y-78910163D01*
X147551044Y-78892256D01*
X147543399Y-78855418D01*
X147535451Y-78805971D01*
X147531417Y-78775900D01*
X147523694Y-78722454D01*
X147515387Y-78678390D01*
X147507764Y-78649933D01*
X147504320Y-78643185D01*
X147494511Y-78621573D01*
X147492300Y-78603361D01*
X147486445Y-78572126D01*
X147473329Y-78539226D01*
X147459799Y-78506897D01*
X147454279Y-78481374D01*
X147448167Y-78458803D01*
X147442606Y-78452732D01*
X147433312Y-78436650D01*
X147424452Y-78405427D01*
X147422439Y-78394833D01*
X147414884Y-78363128D01*
X147406398Y-78345432D01*
X147403907Y-78344100D01*
X147395890Y-78332887D01*
X147387934Y-78304861D01*
X147385824Y-78293300D01*
X147377972Y-78261540D01*
X147368209Y-78243826D01*
X147365150Y-78242500D01*
X147353073Y-78232739D01*
X147352600Y-78229103D01*
X147347032Y-78208970D01*
X147331997Y-78171596D01*
X147310006Y-78122138D01*
X147283565Y-78065755D01*
X147255183Y-78007606D01*
X147227368Y-77952850D01*
X147202628Y-77906644D01*
X147183472Y-77874149D01*
X147173874Y-77861509D01*
X147162430Y-77845548D01*
X147157393Y-77836100D01*
X147132469Y-77790938D01*
X147096425Y-77733590D01*
X147054302Y-77671463D01*
X147011142Y-77611964D01*
X146971986Y-77562502D01*
X146968055Y-77557894D01*
X146941540Y-77522196D01*
X146921534Y-77486739D01*
X146918207Y-77478519D01*
X146904909Y-77452923D01*
X146890844Y-77442400D01*
X146874129Y-77433243D01*
X146850911Y-77410481D01*
X146844461Y-77402746D01*
X146827499Y-77382918D01*
X146802257Y-77355944D01*
X146766726Y-77319817D01*
X146718897Y-77272529D01*
X146656761Y-77212073D01*
X146578310Y-77136442D01*
X146569602Y-77128075D01*
X146542658Y-77103658D01*
X146523367Y-77088848D01*
X146518801Y-77086800D01*
X146505720Y-77078400D01*
X146484204Y-77057892D01*
X146481538Y-77055049D01*
X146458887Y-77033507D01*
X146442928Y-77023356D01*
X146441982Y-77023241D01*
X146427279Y-77015226D01*
X146402289Y-76995141D01*
X146391264Y-76985141D01*
X146363537Y-76961808D01*
X146342094Y-76948380D01*
X146337289Y-76947100D01*
X146324524Y-76937041D01*
X146323407Y-76931225D01*
X146312576Y-76917314D01*
X146285210Y-76898314D01*
X146259907Y-76884676D01*
X146225224Y-76866029D01*
X146202340Y-76850346D01*
X146196900Y-76843401D01*
X146186724Y-76833720D01*
X146179756Y-76832800D01*
X146159768Y-76825898D01*
X146128852Y-76808428D01*
X146113081Y-76797875D01*
X146070845Y-76771733D01*
X146005000Y-76736224D01*
X145915550Y-76691350D01*
X145802494Y-76637110D01*
X145763709Y-76618888D01*
X145725672Y-76602930D01*
X145694576Y-76593058D01*
X145684334Y-76591500D01*
X145666319Y-76585158D01*
X145663500Y-76578800D01*
X145652904Y-76568357D01*
X145639008Y-76566100D01*
X145609242Y-76557514D01*
X145597321Y-76548906D01*
X145574899Y-76536750D01*
X145538281Y-76526050D01*
X145520510Y-76522772D01*
X145483990Y-76515394D01*
X145459305Y-76506869D01*
X145454232Y-76503056D01*
X145438768Y-76495257D01*
X145406674Y-76487278D01*
X145384086Y-76483548D01*
X145347934Y-76476807D01*
X145324941Y-76469122D01*
X145320600Y-76464948D01*
X145309075Y-76458535D01*
X145279011Y-76451568D01*
X145241351Y-76446114D01*
X145197620Y-76439725D01*
X145163682Y-76432138D01*
X145148767Y-76426081D01*
X145130850Y-76420296D01*
X145094044Y-76414082D01*
X145044819Y-76408427D01*
X145018467Y-76406185D01*
X144967524Y-76401247D01*
X144927808Y-76395317D01*
X144904908Y-76389338D01*
X144901500Y-76386477D01*
X144889722Y-76381803D01*
X144858064Y-76378135D01*
X144812040Y-76375970D01*
X144780850Y-76375600D01*
X144723942Y-76374333D01*
X144683066Y-76370806D01*
X144662123Y-76365431D01*
X144660200Y-76362900D01*
X144648537Y-76356263D01*
X144617640Y-76351719D01*
X144577650Y-76350200D01*
X144534513Y-76351994D01*
X144504979Y-76356747D01*
X144495100Y-76362900D01*
X144483031Y-76368810D01*
X144449279Y-76373080D01*
X144397532Y-76375338D01*
X144368850Y-76375600D01*
X144314783Y-76376632D01*
X144270835Y-76379414D01*
X144242788Y-76383470D01*
X144235847Y-76386525D01*
X144220945Y-76392385D01*
X144186890Y-76398721D01*
X144139885Y-76404485D01*
X144117836Y-76406478D01*
X144066295Y-76411632D01*
X144024165Y-76417647D01*
X143998093Y-76423501D01*
X143993664Y-76425557D01*
X143974511Y-76432532D01*
X143939239Y-76439625D01*
X143911857Y-76443368D01*
X143872275Y-76449730D01*
X143844011Y-76457808D01*
X143835530Y-76463157D01*
X143818562Y-76475168D01*
X143796290Y-76483169D01*
X143768094Y-76499528D01*
X143738892Y-76529722D01*
X143716248Y-76564381D01*
X143707700Y-76592920D01*
X143699301Y-76618196D01*
X143692460Y-76627060D01*
X143683760Y-76644342D01*
X143683760Y-76644342D01*
G37*
X143683760Y-76644342D02*
X143692460Y-76657539D01*
X143705640Y-76682771D01*
X143707700Y-76696910D01*
X143716935Y-76721089D01*
X143739833Y-76751621D01*
X143769190Y-76781040D01*
X143797799Y-76801884D01*
X143814380Y-76807400D01*
X143832081Y-76813881D01*
X143834700Y-76820100D01*
X143845464Y-76828473D01*
X143870789Y-76832295D01*
X143900231Y-76831456D01*
X143923342Y-76825845D01*
X143929335Y-76821096D01*
X143944775Y-76813963D01*
X143978267Y-76806548D01*
X144022159Y-76800504D01*
X144068449Y-76793929D01*
X144105904Y-76785420D01*
X144125585Y-76777282D01*
X144143314Y-76773083D01*
X144182782Y-76769561D01*
X144240358Y-76766713D01*
X144312414Y-76764535D01*
X144395318Y-76763020D01*
X144485440Y-76762165D01*
X144579150Y-76761965D01*
X144672818Y-76762415D01*
X144762814Y-76763512D01*
X144845507Y-76765249D01*
X144917268Y-76767622D01*
X144974466Y-76770628D01*
X145013471Y-76774260D01*
X145030564Y-76778439D01*
X145052835Y-76788209D01*
X145090998Y-76797360D01*
X145124587Y-76802395D01*
X145167146Y-76808497D01*
X145199705Y-76815576D01*
X145212650Y-76820642D01*
X145231891Y-76828097D01*
X145266641Y-76836116D01*
X145288439Y-76839817D01*
X145328732Y-76848618D01*
X145359788Y-76860356D01*
X145368721Y-76866406D01*
X145392704Y-76878275D01*
X145427371Y-76883580D01*
X145429458Y-76883600D01*
X145458475Y-76886851D01*
X145472707Y-76894825D01*
X145473000Y-76896300D01*
X145483493Y-76907041D01*
X145495414Y-76909000D01*
X145520413Y-76914787D01*
X145555035Y-76929197D01*
X145565218Y-76934400D01*
X145601253Y-76950571D01*
X145632118Y-76959302D01*
X145638054Y-76959800D01*
X145658723Y-76964692D01*
X145663500Y-76971490D01*
X145674449Y-76982076D01*
X145700860Y-76991385D01*
X145701600Y-76991549D01*
X145728254Y-77000471D01*
X145739693Y-77010382D01*
X145739700Y-77010599D01*
X145750640Y-77020475D01*
X145777032Y-77029479D01*
X145777800Y-77029650D01*
X145804454Y-77038571D01*
X145815893Y-77048482D01*
X145815900Y-77048700D01*
X145826840Y-77058575D01*
X145853232Y-77067579D01*
X145854000Y-77067750D01*
X145880663Y-77076965D01*
X145892093Y-77087580D01*
X145892100Y-77087809D01*
X145902049Y-77098840D01*
X145906955Y-77099500D01*
X145924183Y-77106856D01*
X145960504Y-77128323D01*
X146014520Y-77163000D01*
X146084835Y-77209985D01*
X146170052Y-77268376D01*
X146190550Y-77282586D01*
X146225642Y-77309643D01*
X146256577Y-77337581D01*
X146256619Y-77337625D01*
X146277920Y-77357528D01*
X146290794Y-77366187D01*
X146290993Y-77366200D01*
X146303001Y-77374647D01*
X146328785Y-77397417D01*
X146364414Y-77430655D01*
X146405955Y-77470503D01*
X146449478Y-77513107D01*
X146491052Y-77554609D01*
X146526745Y-77591154D01*
X146552627Y-77618885D01*
X146564765Y-77633946D01*
X146565200Y-77635171D01*
X146573449Y-77650656D01*
X146593895Y-77674875D01*
X146600125Y-77681266D01*
X146632436Y-77715630D01*
X146665952Y-77754712D01*
X146696296Y-77792949D01*
X146719086Y-77824773D01*
X146729946Y-77844620D01*
X146730300Y-77846704D01*
X146738107Y-77862644D01*
X146739825Y-77863616D01*
X146755145Y-77878131D01*
X146775972Y-77906283D01*
X146796301Y-77939070D01*
X146810127Y-77967488D01*
X146811210Y-77970631D01*
X146826417Y-78000365D01*
X146842794Y-78021735D01*
X146858352Y-78040224D01*
X146874061Y-78063768D01*
X146892973Y-78097605D01*
X146918135Y-78146974D01*
X146931903Y-78174824D01*
X146952865Y-78217111D01*
X146972171Y-78255493D01*
X146979528Y-78269859D01*
X146992347Y-78301123D01*
X146997000Y-78323834D01*
X147003208Y-78341505D01*
X147009125Y-78344100D01*
X147019193Y-78355204D01*
X147028345Y-78382540D01*
X147029615Y-78388690D01*
X147037790Y-78420015D01*
X147046902Y-78438529D01*
X147048135Y-78439556D01*
X147056495Y-78455016D01*
X147064846Y-78485823D01*
X147066862Y-78496566D01*
X147074458Y-78528272D01*
X147083044Y-78545968D01*
X147085575Y-78547300D01*
X147093318Y-78558596D01*
X147101232Y-78587175D01*
X147104242Y-78604153D01*
X147111579Y-78639797D01*
X147120152Y-78663463D01*
X147123544Y-78667668D01*
X147131180Y-78683072D01*
X147139106Y-78715369D01*
X147143283Y-78740989D01*
X147150157Y-78781118D01*
X147157969Y-78811062D01*
X147162254Y-78820350D01*
X147168039Y-78838306D01*
X147174427Y-78874570D01*
X147180237Y-78922115D01*
X147181436Y-78934650D01*
X147187308Y-78985836D01*
X147194552Y-79029355D01*
X147201781Y-79057182D01*
X147203120Y-79060191D01*
X147206872Y-79079800D01*
X147209943Y-79120171D01*
X147212334Y-79177117D01*
X147214044Y-79246450D01*
X147215074Y-79323984D01*
X147215422Y-79405530D01*
X147215090Y-79486901D01*
X147214076Y-79563909D01*
X147212382Y-79632367D01*
X147210007Y-79688086D01*
X147206951Y-79726880D01*
X147203214Y-79744561D01*
X147203126Y-79744678D01*
X147195804Y-79764498D01*
X147188316Y-79801646D01*
X147182271Y-79848110D01*
X147182233Y-79848498D01*
X147176114Y-79895020D01*
X147168386Y-79932299D01*
X147160716Y-79952317D01*
X147160662Y-79952382D01*
X147153683Y-79972716D01*
X147148887Y-80009288D01*
X147146396Y-80054488D01*
X147146331Y-80100703D01*
X147148814Y-80140322D01*
X147153966Y-80165733D01*
X147157182Y-80170500D01*
X147172645Y-80189202D01*
X147178503Y-80201475D01*
X147194557Y-80220280D01*
X147206152Y-80223700D01*
X147223312Y-80230123D01*
X147225600Y-80235803D01*
X147236589Y-80246565D01*
X147263906Y-80258309D01*
X147273225Y-80261132D01*
X147305439Y-80269815D01*
X147325131Y-80272362D01*
X147344387Y-80268935D01*
X147366398Y-80262362D01*
X147424818Y-80236525D01*
X147469217Y-80197093D01*
X147501483Y-80141130D01*
X147523504Y-80065696D01*
X147533530Y-80002268D01*
X147540724Y-79950820D01*
X147548329Y-79909576D01*
X147555140Y-79884600D01*
X147557790Y-79880160D01*
X147562233Y-79865551D01*
X147567091Y-79830490D01*
X147571833Y-79779908D01*
X147575927Y-79718737D01*
X147576652Y-79705061D01*
X147580569Y-79642337D01*
X147585290Y-79589212D01*
X147590273Y-79550602D01*
X147594978Y-79531424D01*
X147595881Y-79530326D01*
X147600625Y-79515373D01*
X147603952Y-79481641D01*
X147605864Y-79435713D01*
X147606360Y-79384170D01*
X147605441Y-79333595D01*
X147603107Y-79290569D01*
X147599358Y-79261675D01*
X147595861Y-79253361D01*
X147591167Y-79238854D01*
X147586061Y-79203994D01*
X147581123Y-79153808D01*
X147576933Y-79093324D01*
X147576489Y-79085250D01*
X147572415Y-79023024D01*
X147567524Y-78969679D01*
X147562402Y-78930527D01*
X147557634Y-78910881D01*
X147557176Y-78910163D01*
X147551044Y-78892256D01*
X147543399Y-78855418D01*
X147535451Y-78805971D01*
X147531417Y-78775900D01*
X147523694Y-78722454D01*
X147515387Y-78678390D01*
X147507764Y-78649933D01*
X147504320Y-78643185D01*
X147494511Y-78621573D01*
X147492300Y-78603361D01*
X147486445Y-78572126D01*
X147473329Y-78539226D01*
X147459799Y-78506897D01*
X147454279Y-78481374D01*
X147448167Y-78458803D01*
X147442606Y-78452732D01*
X147433312Y-78436650D01*
X147424452Y-78405427D01*
X147422439Y-78394833D01*
X147414884Y-78363128D01*
X147406398Y-78345432D01*
X147403907Y-78344100D01*
X147395890Y-78332887D01*
X147387934Y-78304861D01*
X147385824Y-78293300D01*
X147377972Y-78261540D01*
X147368209Y-78243826D01*
X147365150Y-78242500D01*
X147353073Y-78232739D01*
X147352600Y-78229103D01*
X147347032Y-78208970D01*
X147331997Y-78171596D01*
X147310006Y-78122138D01*
X147283565Y-78065755D01*
X147255183Y-78007606D01*
X147227368Y-77952850D01*
X147202628Y-77906644D01*
X147183472Y-77874149D01*
X147173874Y-77861509D01*
X147162430Y-77845548D01*
X147157393Y-77836100D01*
X147132469Y-77790938D01*
X147096425Y-77733590D01*
X147054302Y-77671463D01*
X147011142Y-77611964D01*
X146971986Y-77562502D01*
X146968055Y-77557894D01*
X146941540Y-77522196D01*
X146921534Y-77486739D01*
X146918207Y-77478519D01*
X146904909Y-77452923D01*
X146890844Y-77442400D01*
X146874129Y-77433243D01*
X146850911Y-77410481D01*
X146844461Y-77402746D01*
X146827499Y-77382918D01*
X146802257Y-77355944D01*
X146766726Y-77319817D01*
X146718897Y-77272529D01*
X146656761Y-77212073D01*
X146578310Y-77136442D01*
X146569602Y-77128075D01*
X146542658Y-77103658D01*
X146523367Y-77088848D01*
X146518801Y-77086800D01*
X146505720Y-77078400D01*
X146484204Y-77057892D01*
X146481538Y-77055049D01*
X146458887Y-77033507D01*
X146442928Y-77023356D01*
X146441982Y-77023241D01*
X146427279Y-77015226D01*
X146402289Y-76995141D01*
X146391264Y-76985141D01*
X146363537Y-76961808D01*
X146342094Y-76948380D01*
X146337289Y-76947100D01*
X146324524Y-76937041D01*
X146323407Y-76931225D01*
X146312576Y-76917314D01*
X146285210Y-76898314D01*
X146259907Y-76884676D01*
X146225224Y-76866029D01*
X146202340Y-76850346D01*
X146196900Y-76843401D01*
X146186724Y-76833720D01*
X146179756Y-76832800D01*
X146159768Y-76825898D01*
X146128852Y-76808428D01*
X146113081Y-76797875D01*
X146070845Y-76771733D01*
X146005000Y-76736224D01*
X145915550Y-76691350D01*
X145802494Y-76637110D01*
X145763709Y-76618888D01*
X145725672Y-76602930D01*
X145694576Y-76593058D01*
X145684334Y-76591500D01*
X145666319Y-76585158D01*
X145663500Y-76578800D01*
X145652904Y-76568357D01*
X145639008Y-76566100D01*
X145609242Y-76557514D01*
X145597321Y-76548906D01*
X145574899Y-76536750D01*
X145538281Y-76526050D01*
X145520510Y-76522772D01*
X145483990Y-76515394D01*
X145459305Y-76506869D01*
X145454232Y-76503056D01*
X145438768Y-76495257D01*
X145406674Y-76487278D01*
X145384086Y-76483548D01*
X145347934Y-76476807D01*
X145324941Y-76469122D01*
X145320600Y-76464948D01*
X145309075Y-76458535D01*
X145279011Y-76451568D01*
X145241351Y-76446114D01*
X145197620Y-76439725D01*
X145163682Y-76432138D01*
X145148767Y-76426081D01*
X145130850Y-76420296D01*
X145094044Y-76414082D01*
X145044819Y-76408427D01*
X145018467Y-76406185D01*
X144967524Y-76401247D01*
X144927808Y-76395317D01*
X144904908Y-76389338D01*
X144901500Y-76386477D01*
X144889722Y-76381803D01*
X144858064Y-76378135D01*
X144812040Y-76375970D01*
X144780850Y-76375600D01*
X144723942Y-76374333D01*
X144683066Y-76370806D01*
X144662123Y-76365431D01*
X144660200Y-76362900D01*
X144648537Y-76356263D01*
X144617640Y-76351719D01*
X144577650Y-76350200D01*
X144534513Y-76351994D01*
X144504979Y-76356747D01*
X144495100Y-76362900D01*
X144483031Y-76368810D01*
X144449279Y-76373080D01*
X144397532Y-76375338D01*
X144368850Y-76375600D01*
X144314783Y-76376632D01*
X144270835Y-76379414D01*
X144242788Y-76383470D01*
X144235847Y-76386525D01*
X144220945Y-76392385D01*
X144186890Y-76398721D01*
X144139885Y-76404485D01*
X144117836Y-76406478D01*
X144066295Y-76411632D01*
X144024165Y-76417647D01*
X143998093Y-76423501D01*
X143993664Y-76425557D01*
X143974511Y-76432532D01*
X143939239Y-76439625D01*
X143911857Y-76443368D01*
X143872275Y-76449730D01*
X143844011Y-76457808D01*
X143835530Y-76463157D01*
X143818562Y-76475168D01*
X143796290Y-76483169D01*
X143768094Y-76499528D01*
X143738892Y-76529722D01*
X143716248Y-76564381D01*
X143707700Y-76592920D01*
X143699301Y-76618196D01*
X143692460Y-76627060D01*
X143683760Y-76644342D01*
G36*
X142694576Y-79373624D02*
X142696245Y-79399738D01*
X142700519Y-79441860D01*
X142706320Y-79500216D01*
X142712750Y-79565757D01*
X142716765Y-79607124D01*
X142723121Y-79663932D01*
X142730007Y-79710874D01*
X142736516Y-79742488D01*
X142740983Y-79753174D01*
X142748342Y-79768702D01*
X142755965Y-79801392D01*
X142760457Y-79830862D01*
X142768778Y-79877798D01*
X142780463Y-79919844D01*
X142787575Y-79937088D01*
X142800899Y-79970219D01*
X142806000Y-79996551D01*
X142811606Y-80016387D01*
X142818700Y-80020500D01*
X142829508Y-80030986D01*
X142831479Y-80042725D01*
X142837252Y-80069972D01*
X142849332Y-80099019D01*
X142865659Y-80138070D01*
X142875663Y-80172044D01*
X142884600Y-80199059D01*
X142894486Y-80210971D01*
X142894900Y-80211000D01*
X142904714Y-80221954D01*
X142913804Y-80248467D01*
X142914139Y-80249958D01*
X142925410Y-80279456D01*
X142940514Y-80295753D01*
X142940548Y-80295766D01*
X142956583Y-80307779D01*
X142958400Y-80313048D01*
X142965164Y-80332042D01*
X142982729Y-80365088D01*
X143007002Y-80405663D01*
X143033893Y-80447243D01*
X143059310Y-80483303D01*
X143079162Y-80507320D01*
X143081821Y-80509854D01*
X143102357Y-80531231D01*
X143110800Y-80546097D01*
X143119421Y-80560778D01*
X143142800Y-80589053D01*
X143177214Y-80627091D01*
X143218941Y-80671062D01*
X143264257Y-80717136D01*
X143309440Y-80761483D01*
X143350765Y-80800272D01*
X143384509Y-80829674D01*
X143392970Y-80836377D01*
X143422098Y-80858932D01*
X143443871Y-80876299D01*
X143445615Y-80877750D01*
X143471974Y-80898238D01*
X143502988Y-80920192D01*
X143530836Y-80938324D01*
X143547696Y-80947350D01*
X143548972Y-80947600D01*
X143564796Y-80955448D01*
X143595260Y-80979858D01*
X143619711Y-81001575D01*
X143645392Y-81018639D01*
X143663250Y-81023800D01*
X143680159Y-81030121D01*
X143682300Y-81035490D01*
X143693249Y-81046076D01*
X143719660Y-81055385D01*
X143720400Y-81055550D01*
X143747058Y-81064597D01*
X143758493Y-81074811D01*
X143758500Y-81075033D01*
X143769596Y-81084442D01*
X143796902Y-81093249D01*
X143802950Y-81094487D01*
X143832254Y-81102802D01*
X143846988Y-81112500D01*
X143847400Y-81114113D01*
X143857917Y-81123899D01*
X143869625Y-81125830D01*
X143894467Y-81131433D01*
X143929913Y-81144944D01*
X143942650Y-81150800D01*
X143980856Y-81166280D01*
X144014405Y-81175058D01*
X144022025Y-81175769D01*
X144044346Y-81180346D01*
X144050600Y-81187436D01*
X144062074Y-81194894D01*
X144091797Y-81202677D01*
X144123625Y-81207775D01*
X144164276Y-81214495D01*
X144193678Y-81222435D01*
X144203607Y-81228057D01*
X144218452Y-81233512D01*
X144252968Y-81239337D01*
X144301453Y-81244709D01*
X144340132Y-81247726D01*
X144394001Y-81252240D01*
X144436918Y-81257705D01*
X144463568Y-81263333D01*
X144469700Y-81267009D01*
X144481206Y-81272132D01*
X144511053Y-81275573D01*
X144552239Y-81277331D01*
X144597764Y-81277406D01*
X144640624Y-81275799D01*
X144673817Y-81272509D01*
X144690342Y-81267537D01*
X144690773Y-81267004D01*
X144705538Y-81261553D01*
X144739828Y-81255671D01*
X144787801Y-81250231D01*
X144820907Y-81247530D01*
X144875285Y-81242742D01*
X144920461Y-81236970D01*
X144950175Y-81231106D01*
X144957860Y-81228011D01*
X144978133Y-81219295D01*
X145012505Y-81210617D01*
X145025325Y-81208269D01*
X145058210Y-81200610D01*
X145077332Y-81191830D01*
X145079300Y-81188639D01*
X145089763Y-81176656D01*
X145104700Y-81169850D01*
X145125286Y-81156126D01*
X145130100Y-81144501D01*
X145138435Y-81122512D01*
X145151553Y-81105761D01*
X145165464Y-81077721D01*
X145171771Y-81035982D01*
X145170332Y-80991126D01*
X145160998Y-80953733D01*
X145153809Y-80941705D01*
X145111964Y-80896816D01*
X145076139Y-80868203D01*
X145050855Y-80858700D01*
X145031933Y-80852740D01*
X145028500Y-80846000D01*
X145017823Y-80837349D01*
X144992855Y-80833705D01*
X144964197Y-80835004D01*
X144942448Y-80841184D01*
X144937303Y-80846542D01*
X144923480Y-80852735D01*
X144889371Y-80858936D01*
X144840077Y-80864386D01*
X144796096Y-80867531D01*
X144739753Y-80871629D01*
X144693379Y-80876711D01*
X144662491Y-80882065D01*
X144652652Y-80886038D01*
X144637613Y-80892380D01*
X144608099Y-80895851D01*
X144573099Y-80896452D01*
X144541602Y-80894182D01*
X144522596Y-80889042D01*
X144520500Y-80886042D01*
X144508636Y-80881213D01*
X144476345Y-80876053D01*
X144428586Y-80871187D01*
X144371376Y-80867293D01*
X144311739Y-80863071D01*
X144262973Y-80857652D01*
X144230028Y-80851714D01*
X144217917Y-80846300D01*
X144203520Y-80836907D01*
X144177292Y-80833300D01*
X144148564Y-80829558D01*
X144133683Y-80821462D01*
X144118107Y-80812366D01*
X144085673Y-80801403D01*
X144056734Y-80794041D01*
X144018832Y-80783920D01*
X143993541Y-80774027D01*
X143987100Y-80768354D01*
X143976012Y-80759615D01*
X143948721Y-80751145D01*
X143942650Y-80749912D01*
X143913358Y-80741944D01*
X143898617Y-80733095D01*
X143898200Y-80731663D01*
X143887454Y-80721550D01*
X143866450Y-80713784D01*
X143842675Y-80703935D01*
X143834700Y-80694367D01*
X143823754Y-80683951D01*
X143797348Y-80674716D01*
X143796600Y-80674550D01*
X143769946Y-80665584D01*
X143758508Y-80655565D01*
X143758500Y-80655346D01*
X143748167Y-80642797D01*
X143736275Y-80637183D01*
X143713312Y-80624498D01*
X143682333Y-80601459D01*
X143671055Y-80591878D01*
X143642854Y-80568948D01*
X143621898Y-80555433D01*
X143617080Y-80553900D01*
X143607332Y-80543588D01*
X143606100Y-80534850D01*
X143599493Y-80517945D01*
X143593873Y-80515800D01*
X143576926Y-80506791D01*
X143548306Y-80482905D01*
X143512514Y-80448851D01*
X143474051Y-80409337D01*
X143437415Y-80369073D01*
X143407108Y-80332766D01*
X143387629Y-80305127D01*
X143383156Y-80295302D01*
X143366812Y-80263433D01*
X143339309Y-80234347D01*
X143337827Y-80233228D01*
X143313416Y-80210887D01*
X143301525Y-80191573D01*
X143301300Y-80189561D01*
X143293746Y-80174252D01*
X143288842Y-80172900D01*
X143276805Y-80162124D01*
X143268416Y-80141150D01*
X143258610Y-80117375D01*
X143249124Y-80109400D01*
X143238381Y-80099482D01*
X143237800Y-80094916D01*
X143232776Y-80075699D01*
X143219967Y-80042826D01*
X143210674Y-80021891D01*
X143178516Y-79946405D01*
X143150529Y-79869180D01*
X143128647Y-79796534D01*
X143114803Y-79734785D01*
X143110800Y-79695569D01*
X143106988Y-79665941D01*
X143097733Y-79650025D01*
X143096956Y-79649701D01*
X143091747Y-79635872D01*
X143087676Y-79601373D01*
X143084732Y-79550911D01*
X143082905Y-79489191D01*
X143082186Y-79420919D01*
X143082564Y-79350799D01*
X143084030Y-79283538D01*
X143086573Y-79223840D01*
X143090183Y-79176411D01*
X143094850Y-79145957D01*
X143098048Y-79137912D01*
X143105518Y-79117044D01*
X143111021Y-79079457D01*
X143114380Y-79032342D01*
X143115413Y-78982889D01*
X143113944Y-78938290D01*
X143109791Y-78905734D01*
X143104157Y-78892996D01*
X143088520Y-78876394D01*
X143069328Y-78849518D01*
X143035247Y-78818165D01*
X142999772Y-78806411D01*
X142966300Y-78797258D01*
X142944559Y-78785858D01*
X142942525Y-78783593D01*
X142930573Y-78776746D01*
X142923456Y-78784244D01*
X142905555Y-78797048D01*
X142874277Y-78809072D01*
X142869481Y-78810376D01*
X142826860Y-78831903D01*
X142808483Y-78856007D01*
X142793350Y-78880319D01*
X142780686Y-78890200D01*
X142772510Y-78901542D01*
X142764283Y-78930411D01*
X142760727Y-78950525D01*
X142753339Y-78989180D01*
X142744660Y-79017786D01*
X142740892Y-79024858D01*
X142735299Y-79043047D01*
X142729531Y-79080173D01*
X142724481Y-79129797D01*
X142722446Y-79158208D01*
X142717858Y-79213737D01*
X142711749Y-79262024D01*
X142705139Y-79295734D01*
X142702132Y-79304488D01*
X142695993Y-79332271D01*
X142694576Y-79373624D01*
X142694576Y-79373624D01*
G37*
X142694576Y-79373624D02*
X142696245Y-79399738D01*
X142700519Y-79441860D01*
X142706320Y-79500216D01*
X142712750Y-79565757D01*
X142716765Y-79607124D01*
X142723121Y-79663932D01*
X142730007Y-79710874D01*
X142736516Y-79742488D01*
X142740983Y-79753174D01*
X142748342Y-79768702D01*
X142755965Y-79801392D01*
X142760457Y-79830862D01*
X142768778Y-79877798D01*
X142780463Y-79919844D01*
X142787575Y-79937088D01*
X142800899Y-79970219D01*
X142806000Y-79996551D01*
X142811606Y-80016387D01*
X142818700Y-80020500D01*
X142829508Y-80030986D01*
X142831479Y-80042725D01*
X142837252Y-80069972D01*
X142849332Y-80099019D01*
X142865659Y-80138070D01*
X142875663Y-80172044D01*
X142884600Y-80199059D01*
X142894486Y-80210971D01*
X142894900Y-80211000D01*
X142904714Y-80221954D01*
X142913804Y-80248467D01*
X142914139Y-80249958D01*
X142925410Y-80279456D01*
X142940514Y-80295753D01*
X142940548Y-80295766D01*
X142956583Y-80307779D01*
X142958400Y-80313048D01*
X142965164Y-80332042D01*
X142982729Y-80365088D01*
X143007002Y-80405663D01*
X143033893Y-80447243D01*
X143059310Y-80483303D01*
X143079162Y-80507320D01*
X143081821Y-80509854D01*
X143102357Y-80531231D01*
X143110800Y-80546097D01*
X143119421Y-80560778D01*
X143142800Y-80589053D01*
X143177214Y-80627091D01*
X143218941Y-80671062D01*
X143264257Y-80717136D01*
X143309440Y-80761483D01*
X143350765Y-80800272D01*
X143384509Y-80829674D01*
X143392970Y-80836377D01*
X143422098Y-80858932D01*
X143443871Y-80876299D01*
X143445615Y-80877750D01*
X143471974Y-80898238D01*
X143502988Y-80920192D01*
X143530836Y-80938324D01*
X143547696Y-80947350D01*
X143548972Y-80947600D01*
X143564796Y-80955448D01*
X143595260Y-80979858D01*
X143619711Y-81001575D01*
X143645392Y-81018639D01*
X143663250Y-81023800D01*
X143680159Y-81030121D01*
X143682300Y-81035490D01*
X143693249Y-81046076D01*
X143719660Y-81055385D01*
X143720400Y-81055550D01*
X143747058Y-81064597D01*
X143758493Y-81074811D01*
X143758500Y-81075033D01*
X143769596Y-81084442D01*
X143796902Y-81093249D01*
X143802950Y-81094487D01*
X143832254Y-81102802D01*
X143846988Y-81112500D01*
X143847400Y-81114113D01*
X143857917Y-81123899D01*
X143869625Y-81125830D01*
X143894467Y-81131433D01*
X143929913Y-81144944D01*
X143942650Y-81150800D01*
X143980856Y-81166280D01*
X144014405Y-81175058D01*
X144022025Y-81175769D01*
X144044346Y-81180346D01*
X144050600Y-81187436D01*
X144062074Y-81194894D01*
X144091797Y-81202677D01*
X144123625Y-81207775D01*
X144164276Y-81214495D01*
X144193678Y-81222435D01*
X144203607Y-81228057D01*
X144218452Y-81233512D01*
X144252968Y-81239337D01*
X144301453Y-81244709D01*
X144340132Y-81247726D01*
X144394001Y-81252240D01*
X144436918Y-81257705D01*
X144463568Y-81263333D01*
X144469700Y-81267009D01*
X144481206Y-81272132D01*
X144511053Y-81275573D01*
X144552239Y-81277331D01*
X144597764Y-81277406D01*
X144640624Y-81275799D01*
X144673817Y-81272509D01*
X144690342Y-81267537D01*
X144690773Y-81267004D01*
X144705538Y-81261553D01*
X144739828Y-81255671D01*
X144787801Y-81250231D01*
X144820907Y-81247530D01*
X144875285Y-81242742D01*
X144920461Y-81236970D01*
X144950175Y-81231106D01*
X144957860Y-81228011D01*
X144978133Y-81219295D01*
X145012505Y-81210617D01*
X145025325Y-81208269D01*
X145058210Y-81200610D01*
X145077332Y-81191830D01*
X145079300Y-81188639D01*
X145089763Y-81176656D01*
X145104700Y-81169850D01*
X145125286Y-81156126D01*
X145130100Y-81144501D01*
X145138435Y-81122512D01*
X145151553Y-81105761D01*
X145165464Y-81077721D01*
X145171771Y-81035982D01*
X145170332Y-80991126D01*
X145160998Y-80953733D01*
X145153809Y-80941705D01*
X145111964Y-80896816D01*
X145076139Y-80868203D01*
X145050855Y-80858700D01*
X145031933Y-80852740D01*
X145028500Y-80846000D01*
X145017823Y-80837349D01*
X144992855Y-80833705D01*
X144964197Y-80835004D01*
X144942448Y-80841184D01*
X144937303Y-80846542D01*
X144923480Y-80852735D01*
X144889371Y-80858936D01*
X144840077Y-80864386D01*
X144796096Y-80867531D01*
X144739753Y-80871629D01*
X144693379Y-80876711D01*
X144662491Y-80882065D01*
X144652652Y-80886038D01*
X144637613Y-80892380D01*
X144608099Y-80895851D01*
X144573099Y-80896452D01*
X144541602Y-80894182D01*
X144522596Y-80889042D01*
X144520500Y-80886042D01*
X144508636Y-80881213D01*
X144476345Y-80876053D01*
X144428586Y-80871187D01*
X144371376Y-80867293D01*
X144311739Y-80863071D01*
X144262973Y-80857652D01*
X144230028Y-80851714D01*
X144217917Y-80846300D01*
X144203520Y-80836907D01*
X144177292Y-80833300D01*
X144148564Y-80829558D01*
X144133683Y-80821462D01*
X144118107Y-80812366D01*
X144085673Y-80801403D01*
X144056734Y-80794041D01*
X144018832Y-80783920D01*
X143993541Y-80774027D01*
X143987100Y-80768354D01*
X143976012Y-80759615D01*
X143948721Y-80751145D01*
X143942650Y-80749912D01*
X143913358Y-80741944D01*
X143898617Y-80733095D01*
X143898200Y-80731663D01*
X143887454Y-80721550D01*
X143866450Y-80713784D01*
X143842675Y-80703935D01*
X143834700Y-80694367D01*
X143823754Y-80683951D01*
X143797348Y-80674716D01*
X143796600Y-80674550D01*
X143769946Y-80665584D01*
X143758508Y-80655565D01*
X143758500Y-80655346D01*
X143748167Y-80642797D01*
X143736275Y-80637183D01*
X143713312Y-80624498D01*
X143682333Y-80601459D01*
X143671055Y-80591878D01*
X143642854Y-80568948D01*
X143621898Y-80555433D01*
X143617080Y-80553900D01*
X143607332Y-80543588D01*
X143606100Y-80534850D01*
X143599493Y-80517945D01*
X143593873Y-80515800D01*
X143576926Y-80506791D01*
X143548306Y-80482905D01*
X143512514Y-80448851D01*
X143474051Y-80409337D01*
X143437415Y-80369073D01*
X143407108Y-80332766D01*
X143387629Y-80305127D01*
X143383156Y-80295302D01*
X143366812Y-80263433D01*
X143339309Y-80234347D01*
X143337827Y-80233228D01*
X143313416Y-80210887D01*
X143301525Y-80191573D01*
X143301300Y-80189561D01*
X143293746Y-80174252D01*
X143288842Y-80172900D01*
X143276805Y-80162124D01*
X143268416Y-80141150D01*
X143258610Y-80117375D01*
X143249124Y-80109400D01*
X143238381Y-80099482D01*
X143237800Y-80094916D01*
X143232776Y-80075699D01*
X143219967Y-80042826D01*
X143210674Y-80021891D01*
X143178516Y-79946405D01*
X143150529Y-79869180D01*
X143128647Y-79796534D01*
X143114803Y-79734785D01*
X143110800Y-79695569D01*
X143106988Y-79665941D01*
X143097733Y-79650025D01*
X143096956Y-79649701D01*
X143091747Y-79635872D01*
X143087676Y-79601373D01*
X143084732Y-79550911D01*
X143082905Y-79489191D01*
X143082186Y-79420919D01*
X143082564Y-79350799D01*
X143084030Y-79283538D01*
X143086573Y-79223840D01*
X143090183Y-79176411D01*
X143094850Y-79145957D01*
X143098048Y-79137912D01*
X143105518Y-79117044D01*
X143111021Y-79079457D01*
X143114380Y-79032342D01*
X143115413Y-78982889D01*
X143113944Y-78938290D01*
X143109791Y-78905734D01*
X143104157Y-78892996D01*
X143088520Y-78876394D01*
X143069328Y-78849518D01*
X143035247Y-78818165D01*
X142999772Y-78806411D01*
X142966300Y-78797258D01*
X142944559Y-78785858D01*
X142942525Y-78783593D01*
X142930573Y-78776746D01*
X142923456Y-78784244D01*
X142905555Y-78797048D01*
X142874277Y-78809072D01*
X142869481Y-78810376D01*
X142826860Y-78831903D01*
X142808483Y-78856007D01*
X142793350Y-78880319D01*
X142780686Y-78890200D01*
X142772510Y-78901542D01*
X142764283Y-78930411D01*
X142760727Y-78950525D01*
X142753339Y-78989180D01*
X142744660Y-79017786D01*
X142740892Y-79024858D01*
X142735299Y-79043047D01*
X142729531Y-79080173D01*
X142724481Y-79129797D01*
X142722446Y-79158208D01*
X142717858Y-79213737D01*
X142711749Y-79262024D01*
X142705139Y-79295734D01*
X142702132Y-79304488D01*
X142695993Y-79332271D01*
X142694576Y-79373624D01*
G36*
X141548700Y-79385500D02*
X141549377Y-79451793D01*
X141551240Y-79508053D01*
X141554042Y-79549890D01*
X141557536Y-79572914D01*
X141559465Y-79576000D01*
X141564351Y-79587860D01*
X141569632Y-79620127D01*
X141574662Y-79667829D01*
X141578690Y-79724134D01*
X141582938Y-79783742D01*
X141588123Y-79834396D01*
X141593566Y-79870487D01*
X141598261Y-79886059D01*
X141605337Y-79905163D01*
X141612824Y-79941382D01*
X141618550Y-79982400D01*
X141624714Y-80026858D01*
X141631746Y-80061465D01*
X141637579Y-80077650D01*
X141645469Y-80097188D01*
X141653770Y-80131478D01*
X141656650Y-80147500D01*
X141664235Y-80184834D01*
X141672505Y-80211733D01*
X141675463Y-80217350D01*
X141682493Y-80235601D01*
X141691660Y-80271171D01*
X141700865Y-80315775D01*
X141710174Y-80358489D01*
X141719596Y-80389200D01*
X141727145Y-80401482D01*
X141727363Y-80401500D01*
X141736488Y-80412592D01*
X141745152Y-80439891D01*
X141746388Y-80445950D01*
X141754703Y-80475253D01*
X141764401Y-80489987D01*
X141766014Y-80490400D01*
X141774501Y-80501276D01*
X141777300Y-80522150D01*
X141781305Y-80546022D01*
X141788991Y-80553900D01*
X141799577Y-80564848D01*
X141808886Y-80591259D01*
X141809050Y-80592000D01*
X141818266Y-80618662D01*
X141828881Y-80630092D01*
X141829110Y-80630100D01*
X141840034Y-80640116D01*
X141840800Y-80645632D01*
X141846217Y-80663541D01*
X141860281Y-80696916D01*
X141879711Y-80738996D01*
X141901225Y-80783019D01*
X141921545Y-80822224D01*
X141937389Y-80849851D01*
X141944249Y-80858827D01*
X141953613Y-80874834D01*
X141961590Y-80899183D01*
X141973916Y-80926721D01*
X141987997Y-80939932D01*
X142004093Y-80957066D01*
X142005900Y-80966251D01*
X142012636Y-80983406D01*
X142018600Y-80985700D01*
X142029318Y-80996201D01*
X142031300Y-81008277D01*
X142040141Y-81034397D01*
X142053525Y-81051284D01*
X142084866Y-81084575D01*
X142108845Y-81118175D01*
X142119978Y-81144206D01*
X142120200Y-81147033D01*
X142127656Y-81162208D01*
X142132365Y-81163500D01*
X142145148Y-81173577D01*
X142164688Y-81199394D01*
X142178022Y-81220650D01*
X142198972Y-81252943D01*
X142216302Y-81273664D01*
X142223007Y-81277800D01*
X142234334Y-81286890D01*
X142234500Y-81288749D01*
X142243454Y-81306490D01*
X142268332Y-81338242D01*
X142306158Y-81381050D01*
X142353957Y-81431956D01*
X142408753Y-81488003D01*
X142467571Y-81546233D01*
X142527434Y-81603690D01*
X142585367Y-81657416D01*
X142638395Y-81704455D01*
X142683542Y-81741848D01*
X142710599Y-81761893D01*
X142738065Y-81782634D01*
X142753727Y-81798405D01*
X142755114Y-81801675D01*
X142765303Y-81810527D01*
X142771196Y-81811200D01*
X142789825Y-81820918D01*
X142803053Y-81836600D01*
X142820571Y-81856482D01*
X142832355Y-81862000D01*
X142850213Y-81869156D01*
X142878261Y-81886998D01*
X142887422Y-81893750D01*
X142916510Y-81913752D01*
X142938084Y-81924761D01*
X142941781Y-81925500D01*
X142952878Y-81928675D01*
X142970986Y-81940293D01*
X143000532Y-81963488D01*
X143030338Y-81988249D01*
X143053557Y-82000765D01*
X143077963Y-82008911D01*
X143102229Y-82018265D01*
X143110800Y-82027100D01*
X143121547Y-82037240D01*
X143142550Y-82045015D01*
X143166336Y-82055213D01*
X143174300Y-82065441D01*
X143184635Y-82076390D01*
X143194009Y-82077900D01*
X143215960Y-82083599D01*
X143248845Y-82097694D01*
X143283835Y-82115676D01*
X143312106Y-82133039D01*
X143324584Y-82144575D01*
X143339133Y-82152630D01*
X143352252Y-82154100D01*
X143381271Y-82162712D01*
X143392577Y-82170990D01*
X143415663Y-82183959D01*
X143451159Y-82194473D01*
X143459131Y-82195940D01*
X143492607Y-82203782D01*
X143513875Y-82213219D01*
X143516173Y-82215554D01*
X143532635Y-82225924D01*
X143562751Y-82235591D01*
X143565681Y-82236251D01*
X143607002Y-82248483D01*
X143641881Y-82263168D01*
X143676360Y-82276377D01*
X143703776Y-82281021D01*
X143728957Y-82285645D01*
X143738533Y-82292315D01*
X143754048Y-82299962D01*
X143786680Y-82307798D01*
X143815483Y-82312279D01*
X143853732Y-82318774D01*
X143879163Y-82326381D01*
X143885500Y-82331524D01*
X143897099Y-82337858D01*
X143927628Y-82344671D01*
X143970687Y-82350567D01*
X143974400Y-82350950D01*
X144018169Y-82356660D01*
X144049910Y-82363308D01*
X144063223Y-82369525D01*
X144063300Y-82369954D01*
X144074484Y-82378077D01*
X144102226Y-82385615D01*
X144110925Y-82387070D01*
X144151931Y-82393527D01*
X144202702Y-82402038D01*
X144228400Y-82406527D01*
X144265649Y-82411024D01*
X144318931Y-82414620D01*
X144384034Y-82417311D01*
X144456745Y-82419095D01*
X144532853Y-82419971D01*
X144608145Y-82419936D01*
X144678409Y-82418987D01*
X144739433Y-82417123D01*
X144787004Y-82414341D01*
X144816911Y-82410638D01*
X144825300Y-82406853D01*
X144835919Y-82399382D01*
X144868725Y-82398713D01*
X144901500Y-82401750D01*
X144949047Y-82405324D01*
X144973505Y-82402158D01*
X144977700Y-82396646D01*
X144989239Y-82387945D01*
X145019413Y-82383156D01*
X145034850Y-82382700D01*
X145068936Y-82380392D01*
X145089380Y-82374553D01*
X145092000Y-82371083D01*
X145103641Y-82364444D01*
X145134438Y-82357452D01*
X145178202Y-82351441D01*
X145187250Y-82350541D01*
X145232733Y-82345104D01*
X145266401Y-82338839D01*
X145282069Y-82332952D01*
X145282500Y-82331995D01*
X145293475Y-82323121D01*
X145320025Y-82314876D01*
X145321425Y-82314590D01*
X145355054Y-82300583D01*
X145391243Y-82275188D01*
X145400800Y-82266354D01*
X145422611Y-82242423D01*
X145434762Y-82219962D01*
X145440044Y-82190254D01*
X145441247Y-82144580D01*
X145441250Y-82139994D01*
X145440413Y-82093318D01*
X145435931Y-82063576D01*
X145424851Y-82042313D01*
X145404219Y-82021073D01*
X145397632Y-82015142D01*
X145361313Y-81988206D01*
X145323949Y-81968546D01*
X145314220Y-81965212D01*
X145276522Y-81960583D01*
X145228945Y-81962040D01*
X145182673Y-81968547D01*
X145148886Y-81979068D01*
X145145774Y-81980812D01*
X145126556Y-81986872D01*
X145089445Y-81994412D01*
X145041779Y-82001979D01*
X145031938Y-82003327D01*
X144977685Y-82010578D01*
X144927275Y-82017349D01*
X144890936Y-82022267D01*
X144888800Y-82022559D01*
X144830400Y-82028264D01*
X144753689Y-82032503D01*
X144665722Y-82035200D01*
X144573549Y-82036281D01*
X144484224Y-82035670D01*
X144404799Y-82033291D01*
X144342327Y-82029071D01*
X144336350Y-82028443D01*
X144230465Y-82014891D01*
X144121508Y-81997735D01*
X144019856Y-81978717D01*
X143955350Y-81964448D01*
X143882935Y-81946747D01*
X143831813Y-81933662D01*
X143798503Y-81924198D01*
X143779527Y-81917363D01*
X143771405Y-81912164D01*
X143771200Y-81911901D01*
X143755604Y-81903759D01*
X143725644Y-81895039D01*
X143720400Y-81893879D01*
X143687047Y-81884949D01*
X143664605Y-81875637D01*
X143663250Y-81874700D01*
X143642924Y-81865571D01*
X143610282Y-81856333D01*
X143606517Y-81855501D01*
X143570889Y-81846185D01*
X143544179Y-81836374D01*
X143543017Y-81835781D01*
X143520852Y-81824806D01*
X143485166Y-81807839D01*
X143460050Y-81796133D01*
X143422761Y-81776962D01*
X143395220Y-81759273D01*
X143386394Y-81750886D01*
X143366824Y-81738381D01*
X143346178Y-81735000D01*
X143321283Y-81731466D01*
X143311884Y-81725475D01*
X143298932Y-81714945D01*
X143270309Y-81698260D01*
X143247325Y-81686484D01*
X143213473Y-81667942D01*
X143191586Y-81652102D01*
X143187000Y-81645451D01*
X143176235Y-81634086D01*
X143155250Y-81625915D01*
X143131490Y-81616585D01*
X143123500Y-81608000D01*
X143112860Y-81597444D01*
X143094925Y-81590462D01*
X143067024Y-81577255D01*
X143033833Y-81554081D01*
X143026373Y-81547810D01*
X142993204Y-81520182D01*
X142962573Y-81496924D01*
X142957886Y-81493700D01*
X142926054Y-81470289D01*
X142900468Y-81449250D01*
X142874803Y-81426933D01*
X142839017Y-81396090D01*
X142812136Y-81373050D01*
X142765648Y-81331848D01*
X142722595Y-81291094D01*
X142686933Y-81254812D01*
X142662617Y-81227026D01*
X142653601Y-81211760D01*
X142653600Y-81211741D01*
X142643278Y-81202734D01*
X142634550Y-81201600D01*
X142617658Y-81194226D01*
X142615500Y-81187923D01*
X142607188Y-81171107D01*
X142586381Y-81145513D01*
X142577400Y-81136146D01*
X142553772Y-81109998D01*
X142540414Y-81090329D01*
X142539300Y-81086433D01*
X142530977Y-81070837D01*
X142510312Y-81046591D01*
X142503585Y-81039785D01*
X142476001Y-81009147D01*
X142443641Y-80968216D01*
X142424210Y-80941250D01*
X142399568Y-80906887D01*
X142379939Y-80882173D01*
X142371025Y-80873516D01*
X142361606Y-80858988D01*
X142361500Y-80857140D01*
X142354862Y-80840919D01*
X142337587Y-80810871D01*
X142317050Y-80778993D01*
X142293661Y-80741845D01*
X142277559Y-80711650D01*
X142272600Y-80696944D01*
X142265267Y-80682062D01*
X142260910Y-80680900D01*
X142250324Y-80669951D01*
X142241015Y-80643540D01*
X142240850Y-80642800D01*
X142231803Y-80616142D01*
X142221589Y-80604707D01*
X142221367Y-80604700D01*
X142211929Y-80593611D01*
X142203150Y-80566357D01*
X142201997Y-80560702D01*
X142191545Y-80526643D01*
X142177244Y-80503097D01*
X142176022Y-80501997D01*
X142160818Y-80484111D01*
X142158300Y-80476492D01*
X142153397Y-80459839D01*
X142140724Y-80428019D01*
X142127855Y-80398672D01*
X142108366Y-80351452D01*
X142086798Y-80292670D01*
X142068250Y-80236400D01*
X142053168Y-80189402D01*
X142039703Y-80151418D01*
X142030364Y-80129445D01*
X142029231Y-80127613D01*
X142022578Y-80108373D01*
X142015524Y-80072530D01*
X142010905Y-80038713D01*
X142004540Y-79995772D01*
X141996812Y-79962479D01*
X141991128Y-79948937D01*
X141984322Y-79929642D01*
X141977388Y-79892973D01*
X141971877Y-79847337D01*
X141966032Y-79802367D01*
X141958303Y-79767898D01*
X141950353Y-79751315D01*
X141950262Y-79751254D01*
X141946108Y-79736282D01*
X141942669Y-79699873D01*
X141939944Y-79645980D01*
X141937931Y-79578556D01*
X141936631Y-79501552D01*
X141936041Y-79418923D01*
X141936160Y-79334621D01*
X141936987Y-79252599D01*
X141938521Y-79176809D01*
X141940760Y-79111205D01*
X141943704Y-79059738D01*
X141947351Y-79026363D01*
X141950490Y-79015652D01*
X141958675Y-78994734D01*
X141966787Y-78956694D01*
X141973073Y-78909754D01*
X141973088Y-78909602D01*
X141979152Y-78864452D01*
X141986822Y-78829922D01*
X141994479Y-78813229D01*
X141994765Y-78813033D01*
X142001583Y-78797096D01*
X142006731Y-78763269D01*
X142009010Y-78721498D01*
X142008276Y-78672785D01*
X142002513Y-78639459D01*
X141989098Y-78611619D01*
X141974398Y-78590945D01*
X141947812Y-78561163D01*
X141922886Y-78541271D01*
X141915060Y-78537772D01*
X141895531Y-78527643D01*
X141891600Y-78520418D01*
X141880661Y-78511598D01*
X141852861Y-78509282D01*
X141815728Y-78512880D01*
X141776793Y-78521801D01*
X141751367Y-78531425D01*
X141707319Y-78561860D01*
X141672402Y-78603629D01*
X141652642Y-78648602D01*
X141650300Y-78667771D01*
X141646476Y-78691731D01*
X141639080Y-78699700D01*
X141632240Y-78711276D01*
X141624998Y-78741663D01*
X141618896Y-78784344D01*
X141618781Y-78785425D01*
X141612589Y-78830930D01*
X141605195Y-78866839D01*
X141598426Y-78884940D01*
X141593283Y-78902486D01*
X141587783Y-78939803D01*
X141582607Y-78991283D01*
X141578690Y-79046865D01*
X141574520Y-79104786D01*
X141569473Y-79152095D01*
X141564195Y-79183819D01*
X141559465Y-79195000D01*
X141555719Y-79206967D01*
X141552540Y-79239943D01*
X141550176Y-79289537D01*
X141548875Y-79351361D01*
X141548700Y-79385500D01*
X141548700Y-79385500D01*
G37*
X141548700Y-79385500D02*
X141549377Y-79451793D01*
X141551240Y-79508053D01*
X141554042Y-79549890D01*
X141557536Y-79572914D01*
X141559465Y-79576000D01*
X141564351Y-79587860D01*
X141569632Y-79620127D01*
X141574662Y-79667829D01*
X141578690Y-79724134D01*
X141582938Y-79783742D01*
X141588123Y-79834396D01*
X141593566Y-79870487D01*
X141598261Y-79886059D01*
X141605337Y-79905163D01*
X141612824Y-79941382D01*
X141618550Y-79982400D01*
X141624714Y-80026858D01*
X141631746Y-80061465D01*
X141637579Y-80077650D01*
X141645469Y-80097188D01*
X141653770Y-80131478D01*
X141656650Y-80147500D01*
X141664235Y-80184834D01*
X141672505Y-80211733D01*
X141675463Y-80217350D01*
X141682493Y-80235601D01*
X141691660Y-80271171D01*
X141700865Y-80315775D01*
X141710174Y-80358489D01*
X141719596Y-80389200D01*
X141727145Y-80401482D01*
X141727363Y-80401500D01*
X141736488Y-80412592D01*
X141745152Y-80439891D01*
X141746388Y-80445950D01*
X141754703Y-80475253D01*
X141764401Y-80489987D01*
X141766014Y-80490400D01*
X141774501Y-80501276D01*
X141777300Y-80522150D01*
X141781305Y-80546022D01*
X141788991Y-80553900D01*
X141799577Y-80564848D01*
X141808886Y-80591259D01*
X141809050Y-80592000D01*
X141818266Y-80618662D01*
X141828881Y-80630092D01*
X141829110Y-80630100D01*
X141840034Y-80640116D01*
X141840800Y-80645632D01*
X141846217Y-80663541D01*
X141860281Y-80696916D01*
X141879711Y-80738996D01*
X141901225Y-80783019D01*
X141921545Y-80822224D01*
X141937389Y-80849851D01*
X141944249Y-80858827D01*
X141953613Y-80874834D01*
X141961590Y-80899183D01*
X141973916Y-80926721D01*
X141987997Y-80939932D01*
X142004093Y-80957066D01*
X142005900Y-80966251D01*
X142012636Y-80983406D01*
X142018600Y-80985700D01*
X142029318Y-80996201D01*
X142031300Y-81008277D01*
X142040141Y-81034397D01*
X142053525Y-81051284D01*
X142084866Y-81084575D01*
X142108845Y-81118175D01*
X142119978Y-81144206D01*
X142120200Y-81147033D01*
X142127656Y-81162208D01*
X142132365Y-81163500D01*
X142145148Y-81173577D01*
X142164688Y-81199394D01*
X142178022Y-81220650D01*
X142198972Y-81252943D01*
X142216302Y-81273664D01*
X142223007Y-81277800D01*
X142234334Y-81286890D01*
X142234500Y-81288749D01*
X142243454Y-81306490D01*
X142268332Y-81338242D01*
X142306158Y-81381050D01*
X142353957Y-81431956D01*
X142408753Y-81488003D01*
X142467571Y-81546233D01*
X142527434Y-81603690D01*
X142585367Y-81657416D01*
X142638395Y-81704455D01*
X142683542Y-81741848D01*
X142710599Y-81761893D01*
X142738065Y-81782634D01*
X142753727Y-81798405D01*
X142755114Y-81801675D01*
X142765303Y-81810527D01*
X142771196Y-81811200D01*
X142789825Y-81820918D01*
X142803053Y-81836600D01*
X142820571Y-81856482D01*
X142832355Y-81862000D01*
X142850213Y-81869156D01*
X142878261Y-81886998D01*
X142887422Y-81893750D01*
X142916510Y-81913752D01*
X142938084Y-81924761D01*
X142941781Y-81925500D01*
X142952878Y-81928675D01*
X142970986Y-81940293D01*
X143000532Y-81963488D01*
X143030338Y-81988249D01*
X143053557Y-82000765D01*
X143077963Y-82008911D01*
X143102229Y-82018265D01*
X143110800Y-82027100D01*
X143121547Y-82037240D01*
X143142550Y-82045015D01*
X143166336Y-82055213D01*
X143174300Y-82065441D01*
X143184635Y-82076390D01*
X143194009Y-82077900D01*
X143215960Y-82083599D01*
X143248845Y-82097694D01*
X143283835Y-82115676D01*
X143312106Y-82133039D01*
X143324584Y-82144575D01*
X143339133Y-82152630D01*
X143352252Y-82154100D01*
X143381271Y-82162712D01*
X143392577Y-82170990D01*
X143415663Y-82183959D01*
X143451159Y-82194473D01*
X143459131Y-82195940D01*
X143492607Y-82203782D01*
X143513875Y-82213219D01*
X143516173Y-82215554D01*
X143532635Y-82225924D01*
X143562751Y-82235591D01*
X143565681Y-82236251D01*
X143607002Y-82248483D01*
X143641881Y-82263168D01*
X143676360Y-82276377D01*
X143703776Y-82281021D01*
X143728957Y-82285645D01*
X143738533Y-82292315D01*
X143754048Y-82299962D01*
X143786680Y-82307798D01*
X143815483Y-82312279D01*
X143853732Y-82318774D01*
X143879163Y-82326381D01*
X143885500Y-82331524D01*
X143897099Y-82337858D01*
X143927628Y-82344671D01*
X143970687Y-82350567D01*
X143974400Y-82350950D01*
X144018169Y-82356660D01*
X144049910Y-82363308D01*
X144063223Y-82369525D01*
X144063300Y-82369954D01*
X144074484Y-82378077D01*
X144102226Y-82385615D01*
X144110925Y-82387070D01*
X144151931Y-82393527D01*
X144202702Y-82402038D01*
X144228400Y-82406527D01*
X144265649Y-82411024D01*
X144318931Y-82414620D01*
X144384034Y-82417311D01*
X144456745Y-82419095D01*
X144532853Y-82419971D01*
X144608145Y-82419936D01*
X144678409Y-82418987D01*
X144739433Y-82417123D01*
X144787004Y-82414341D01*
X144816911Y-82410638D01*
X144825300Y-82406853D01*
X144835919Y-82399382D01*
X144868725Y-82398713D01*
X144901500Y-82401750D01*
X144949047Y-82405324D01*
X144973505Y-82402158D01*
X144977700Y-82396646D01*
X144989239Y-82387945D01*
X145019413Y-82383156D01*
X145034850Y-82382700D01*
X145068936Y-82380392D01*
X145089380Y-82374553D01*
X145092000Y-82371083D01*
X145103641Y-82364444D01*
X145134438Y-82357452D01*
X145178202Y-82351441D01*
X145187250Y-82350541D01*
X145232733Y-82345104D01*
X145266401Y-82338839D01*
X145282069Y-82332952D01*
X145282500Y-82331995D01*
X145293475Y-82323121D01*
X145320025Y-82314876D01*
X145321425Y-82314590D01*
X145355054Y-82300583D01*
X145391243Y-82275188D01*
X145400800Y-82266354D01*
X145422611Y-82242423D01*
X145434762Y-82219962D01*
X145440044Y-82190254D01*
X145441247Y-82144580D01*
X145441250Y-82139994D01*
X145440413Y-82093318D01*
X145435931Y-82063576D01*
X145424851Y-82042313D01*
X145404219Y-82021073D01*
X145397632Y-82015142D01*
X145361313Y-81988206D01*
X145323949Y-81968546D01*
X145314220Y-81965212D01*
X145276522Y-81960583D01*
X145228945Y-81962040D01*
X145182673Y-81968547D01*
X145148886Y-81979068D01*
X145145774Y-81980812D01*
X145126556Y-81986872D01*
X145089445Y-81994412D01*
X145041779Y-82001979D01*
X145031938Y-82003327D01*
X144977685Y-82010578D01*
X144927275Y-82017349D01*
X144890936Y-82022267D01*
X144888800Y-82022559D01*
X144830400Y-82028264D01*
X144753689Y-82032503D01*
X144665722Y-82035200D01*
X144573549Y-82036281D01*
X144484224Y-82035670D01*
X144404799Y-82033291D01*
X144342327Y-82029071D01*
X144336350Y-82028443D01*
X144230465Y-82014891D01*
X144121508Y-81997735D01*
X144019856Y-81978717D01*
X143955350Y-81964448D01*
X143882935Y-81946747D01*
X143831813Y-81933662D01*
X143798503Y-81924198D01*
X143779527Y-81917363D01*
X143771405Y-81912164D01*
X143771200Y-81911901D01*
X143755604Y-81903759D01*
X143725644Y-81895039D01*
X143720400Y-81893879D01*
X143687047Y-81884949D01*
X143664605Y-81875637D01*
X143663250Y-81874700D01*
X143642924Y-81865571D01*
X143610282Y-81856333D01*
X143606517Y-81855501D01*
X143570889Y-81846185D01*
X143544179Y-81836374D01*
X143543017Y-81835781D01*
X143520852Y-81824806D01*
X143485166Y-81807839D01*
X143460050Y-81796133D01*
X143422761Y-81776962D01*
X143395220Y-81759273D01*
X143386394Y-81750886D01*
X143366824Y-81738381D01*
X143346178Y-81735000D01*
X143321283Y-81731466D01*
X143311884Y-81725475D01*
X143298932Y-81714945D01*
X143270309Y-81698260D01*
X143247325Y-81686484D01*
X143213473Y-81667942D01*
X143191586Y-81652102D01*
X143187000Y-81645451D01*
X143176235Y-81634086D01*
X143155250Y-81625915D01*
X143131490Y-81616585D01*
X143123500Y-81608000D01*
X143112860Y-81597444D01*
X143094925Y-81590462D01*
X143067024Y-81577255D01*
X143033833Y-81554081D01*
X143026373Y-81547810D01*
X142993204Y-81520182D01*
X142962573Y-81496924D01*
X142957886Y-81493700D01*
X142926054Y-81470289D01*
X142900468Y-81449250D01*
X142874803Y-81426933D01*
X142839017Y-81396090D01*
X142812136Y-81373050D01*
X142765648Y-81331848D01*
X142722595Y-81291094D01*
X142686933Y-81254812D01*
X142662617Y-81227026D01*
X142653601Y-81211760D01*
X142653600Y-81211741D01*
X142643278Y-81202734D01*
X142634550Y-81201600D01*
X142617658Y-81194226D01*
X142615500Y-81187923D01*
X142607188Y-81171107D01*
X142586381Y-81145513D01*
X142577400Y-81136146D01*
X142553772Y-81109998D01*
X142540414Y-81090329D01*
X142539300Y-81086433D01*
X142530977Y-81070837D01*
X142510312Y-81046591D01*
X142503585Y-81039785D01*
X142476001Y-81009147D01*
X142443641Y-80968216D01*
X142424210Y-80941250D01*
X142399568Y-80906887D01*
X142379939Y-80882173D01*
X142371025Y-80873516D01*
X142361606Y-80858988D01*
X142361500Y-80857140D01*
X142354862Y-80840919D01*
X142337587Y-80810871D01*
X142317050Y-80778993D01*
X142293661Y-80741845D01*
X142277559Y-80711650D01*
X142272600Y-80696944D01*
X142265267Y-80682062D01*
X142260910Y-80680900D01*
X142250324Y-80669951D01*
X142241015Y-80643540D01*
X142240850Y-80642800D01*
X142231803Y-80616142D01*
X142221589Y-80604707D01*
X142221367Y-80604700D01*
X142211929Y-80593611D01*
X142203150Y-80566357D01*
X142201997Y-80560702D01*
X142191545Y-80526643D01*
X142177244Y-80503097D01*
X142176022Y-80501997D01*
X142160818Y-80484111D01*
X142158300Y-80476492D01*
X142153397Y-80459839D01*
X142140724Y-80428019D01*
X142127855Y-80398672D01*
X142108366Y-80351452D01*
X142086798Y-80292670D01*
X142068250Y-80236400D01*
X142053168Y-80189402D01*
X142039703Y-80151418D01*
X142030364Y-80129445D01*
X142029231Y-80127613D01*
X142022578Y-80108373D01*
X142015524Y-80072530D01*
X142010905Y-80038713D01*
X142004540Y-79995772D01*
X141996812Y-79962479D01*
X141991128Y-79948937D01*
X141984322Y-79929642D01*
X141977388Y-79892973D01*
X141971877Y-79847337D01*
X141966032Y-79802367D01*
X141958303Y-79767898D01*
X141950353Y-79751315D01*
X141950262Y-79751254D01*
X141946108Y-79736282D01*
X141942669Y-79699873D01*
X141939944Y-79645980D01*
X141937931Y-79578556D01*
X141936631Y-79501552D01*
X141936041Y-79418923D01*
X141936160Y-79334621D01*
X141936987Y-79252599D01*
X141938521Y-79176809D01*
X141940760Y-79111205D01*
X141943704Y-79059738D01*
X141947351Y-79026363D01*
X141950490Y-79015652D01*
X141958675Y-78994734D01*
X141966787Y-78956694D01*
X141973073Y-78909754D01*
X141973088Y-78909602D01*
X141979152Y-78864452D01*
X141986822Y-78829922D01*
X141994479Y-78813229D01*
X141994765Y-78813033D01*
X142001583Y-78797096D01*
X142006731Y-78763269D01*
X142009010Y-78721498D01*
X142008276Y-78672785D01*
X142002513Y-78639459D01*
X141989098Y-78611619D01*
X141974398Y-78590945D01*
X141947812Y-78561163D01*
X141922886Y-78541271D01*
X141915060Y-78537772D01*
X141895531Y-78527643D01*
X141891600Y-78520418D01*
X141880661Y-78511598D01*
X141852861Y-78509282D01*
X141815728Y-78512880D01*
X141776793Y-78521801D01*
X141751367Y-78531425D01*
X141707319Y-78561860D01*
X141672402Y-78603629D01*
X141652642Y-78648602D01*
X141650300Y-78667771D01*
X141646476Y-78691731D01*
X141639080Y-78699700D01*
X141632240Y-78711276D01*
X141624998Y-78741663D01*
X141618896Y-78784344D01*
X141618781Y-78785425D01*
X141612589Y-78830930D01*
X141605195Y-78866839D01*
X141598426Y-78884940D01*
X141593283Y-78902486D01*
X141587783Y-78939803D01*
X141582607Y-78991283D01*
X141578690Y-79046865D01*
X141574520Y-79104786D01*
X141569473Y-79152095D01*
X141564195Y-79183819D01*
X141559465Y-79195000D01*
X141555719Y-79206967D01*
X141552540Y-79239943D01*
X141550176Y-79289537D01*
X141548875Y-79351361D01*
X141548700Y-79385500D01*
G36*
X142721528Y-83009143D02*
X142732800Y-83106203D01*
X142761671Y-83188241D01*
X142791271Y-83241988D01*
X142827086Y-83288121D01*
X142872310Y-83328739D01*
X142930139Y-83365939D01*
X143003768Y-83401821D01*
X143096393Y-83438482D01*
X143194568Y-83472530D01*
X143503915Y-83562052D01*
X143823801Y-83628880D01*
X144138105Y-83671265D01*
X144231972Y-83678694D01*
X144340918Y-83684115D01*
X144458632Y-83687483D01*
X144578801Y-83688754D01*
X144695114Y-83687884D01*
X144801260Y-83684827D01*
X144890926Y-83679538D01*
X144920550Y-83676810D01*
X145123177Y-83652625D01*
X145308589Y-83624039D01*
X145484800Y-83589628D01*
X145659821Y-83547970D01*
X145688900Y-83540365D01*
X145737494Y-83526700D01*
X145798639Y-83508334D01*
X145866389Y-83487186D01*
X145934797Y-83465176D01*
X145997915Y-83444222D01*
X146049795Y-83426246D01*
X146084490Y-83413165D01*
X146088950Y-83411258D01*
X146110876Y-83401840D01*
X146150132Y-83385277D01*
X146200587Y-83364147D01*
X146241350Y-83347161D01*
X146518724Y-83218606D01*
X146789638Y-83066893D01*
X147051611Y-82893952D01*
X147302166Y-82701710D01*
X147538823Y-82492097D01*
X147759101Y-82267041D01*
X147960522Y-82028471D01*
X147996071Y-81982281D01*
X148184686Y-81712601D01*
X148351358Y-81430270D01*
X148495910Y-81135725D01*
X148618168Y-80829400D01*
X148717958Y-80511732D01*
X148795103Y-80183158D01*
X148847201Y-79861750D01*
X148857523Y-79758247D01*
X148864861Y-79636298D01*
X148869219Y-79502130D01*
X148870604Y-79361970D01*
X148869020Y-79222047D01*
X148864473Y-79088588D01*
X148856967Y-78967821D01*
X148846509Y-78865973D01*
X148846353Y-78864800D01*
X148804153Y-78596958D01*
X148751173Y-78345331D01*
X148698299Y-78147250D01*
X148678614Y-78083916D01*
X148654805Y-78012001D01*
X148629142Y-77937905D01*
X148603896Y-77868033D01*
X148581337Y-77808787D01*
X148563735Y-77766570D01*
X148561937Y-77762681D01*
X148518305Y-77694672D01*
X148456480Y-77631749D01*
X148383607Y-77580731D01*
X148356838Y-77566961D01*
X148293099Y-77547204D01*
X148216961Y-77538439D01*
X148138481Y-77540726D01*
X148067715Y-77554129D01*
X148038400Y-77565003D01*
X147951938Y-77617675D01*
X147880806Y-77687383D01*
X147827803Y-77770239D01*
X147795731Y-77862356D01*
X147788288Y-77912221D01*
X147786254Y-77952648D01*
X147788369Y-77989360D01*
X147795903Y-78029566D01*
X147810124Y-78080476D01*
X147827430Y-78134550D01*
X147846799Y-78192604D01*
X147864328Y-78243660D01*
X147877935Y-78281736D01*
X147884960Y-78299650D01*
X147896736Y-78332604D01*
X147911866Y-78385407D01*
X147929188Y-78452912D01*
X147947539Y-78529972D01*
X147965756Y-78611441D01*
X147982676Y-78692172D01*
X147997138Y-78767018D01*
X148007977Y-78830832D01*
X148012629Y-78864800D01*
X148027775Y-79000675D01*
X148039031Y-79116839D01*
X148046523Y-79218660D01*
X148050377Y-79311505D01*
X148050720Y-79400744D01*
X148047678Y-79491744D01*
X148041377Y-79589875D01*
X148032240Y-79697298D01*
X148016260Y-79846869D01*
X147996549Y-79981759D01*
X147971282Y-80111301D01*
X147938634Y-80244829D01*
X147896779Y-80391676D01*
X147895734Y-80395150D01*
X147878647Y-80450921D01*
X147863186Y-80499639D01*
X147851438Y-80534815D01*
X147846697Y-80547550D01*
X147836353Y-80573303D01*
X147821161Y-80612691D01*
X147809800Y-80642800D01*
X147754940Y-80776173D01*
X147686812Y-80920273D01*
X147609515Y-81067293D01*
X147527148Y-81209425D01*
X147446478Y-81334950D01*
X147409652Y-81388812D01*
X147383410Y-81426512D01*
X147364132Y-81452939D01*
X147348194Y-81472985D01*
X147331975Y-81491542D01*
X147324225Y-81500050D01*
X147289303Y-81538150D01*
X146260502Y-80509479D01*
X146102827Y-80351815D01*
X145962146Y-80211092D01*
X145837490Y-80086292D01*
X145727890Y-79976397D01*
X145632377Y-79880391D01*
X145549982Y-79797255D01*
X145479735Y-79725972D01*
X145420669Y-79665525D01*
X145371813Y-79614895D01*
X145332200Y-79573066D01*
X145300859Y-79539021D01*
X145276823Y-79511740D01*
X145259121Y-79490207D01*
X145246786Y-79473405D01*
X145238848Y-79460315D01*
X145234337Y-79449921D01*
X145232286Y-79441205D01*
X145231725Y-79433148D01*
X145231700Y-79429136D01*
X145219673Y-79308344D01*
X145185173Y-79195192D01*
X145130576Y-79092075D01*
X145058256Y-79001386D01*
X144970586Y-78925516D01*
X144869942Y-78866858D01*
X144758698Y-78827806D01*
X144639228Y-78810751D01*
X144617513Y-78810206D01*
X144497646Y-78821148D01*
X144385452Y-78854171D01*
X144283107Y-78906812D01*
X144192788Y-78976612D01*
X144116672Y-79061107D01*
X144056936Y-79157837D01*
X144015756Y-79264340D01*
X143995310Y-79378155D01*
X143997773Y-79496819D01*
X143999406Y-79509157D01*
X144028993Y-79628820D01*
X144081112Y-79739783D01*
X144153488Y-79838537D01*
X144243845Y-79921574D01*
X144285550Y-79950256D01*
X144369545Y-79996322D01*
X144450934Y-80025101D01*
X144541257Y-80040400D01*
X144564847Y-80042438D01*
X144666344Y-80049950D01*
X145685622Y-81070341D01*
X145819393Y-81204409D01*
X145948036Y-81333632D01*
X146070421Y-81456860D01*
X146185417Y-81572941D01*
X146291893Y-81680724D01*
X146388718Y-81779057D01*
X146474761Y-81866788D01*
X146548893Y-81942767D01*
X146609981Y-82005842D01*
X146656895Y-82054861D01*
X146688504Y-82088673D01*
X146703678Y-82106127D01*
X146704900Y-82108208D01*
X146695455Y-82125717D01*
X146671553Y-82149918D01*
X146657275Y-82161446D01*
X146627665Y-82184186D01*
X146607436Y-82200658D01*
X146603300Y-82204534D01*
X146587921Y-82217138D01*
X146557777Y-82238447D01*
X146518655Y-82264712D01*
X146476340Y-82292187D01*
X146436620Y-82317125D01*
X146405279Y-82335779D01*
X146388104Y-82344401D01*
X146387022Y-82344600D01*
X146374997Y-82353864D01*
X146374700Y-82356444D01*
X146364150Y-82369059D01*
X146346861Y-82377124D01*
X146322446Y-82388003D01*
X146284558Y-82408258D01*
X146241152Y-82433625D01*
X146238687Y-82435130D01*
X146199195Y-82458873D01*
X146168839Y-82476320D01*
X146153413Y-82484158D01*
X146152755Y-82484300D01*
X146139775Y-82489483D01*
X146108705Y-82503568D01*
X146064304Y-82524359D01*
X146015194Y-82547800D01*
X145961782Y-82572979D01*
X145916323Y-82593435D01*
X145883916Y-82606937D01*
X145870067Y-82611300D01*
X145850376Y-82616761D01*
X145821177Y-82629933D01*
X145820527Y-82630271D01*
X145788876Y-82643753D01*
X145764465Y-82649321D01*
X145739244Y-82656061D01*
X145732715Y-82660557D01*
X145715387Y-82669257D01*
X145680476Y-82682156D01*
X145634899Y-82696739D01*
X145625400Y-82699553D01*
X145576224Y-82714419D01*
X145534029Y-82728053D01*
X145506953Y-82737812D01*
X145504750Y-82738755D01*
X145477452Y-82747873D01*
X145437096Y-82758075D01*
X145415850Y-82762563D01*
X145374262Y-82770949D01*
X145317673Y-82782668D01*
X145255907Y-82795678D01*
X145231934Y-82800790D01*
X145131297Y-82820566D01*
X145033741Y-82835657D01*
X144933608Y-82846552D01*
X144825241Y-82853740D01*
X144702982Y-82857710D01*
X144561174Y-82858949D01*
X144558600Y-82858950D01*
X144348022Y-82855249D01*
X144158933Y-82843957D01*
X143988495Y-82824785D01*
X143833872Y-82797446D01*
X143745800Y-82776556D01*
X143666084Y-82754870D01*
X143581465Y-82730475D01*
X143496810Y-82704911D01*
X143416981Y-82679712D01*
X143346842Y-82656418D01*
X143291258Y-82636564D01*
X143255092Y-82621688D01*
X143253862Y-82621093D01*
X143216037Y-82610858D01*
X143162536Y-82606389D01*
X143102362Y-82607438D01*
X143044516Y-82613758D01*
X142998000Y-82625101D01*
X142989950Y-82628350D01*
X142937378Y-82652695D01*
X142900811Y-82672394D01*
X142872807Y-82692562D01*
X142845921Y-82718311D01*
X142823522Y-82742682D01*
X142767469Y-82823206D01*
X142733277Y-82913418D01*
X142721528Y-83009143D01*
X142721528Y-83009143D01*
G37*
X142721528Y-83009143D02*
X142732800Y-83106203D01*
X142761671Y-83188241D01*
X142791271Y-83241988D01*
X142827086Y-83288121D01*
X142872310Y-83328739D01*
X142930139Y-83365939D01*
X143003768Y-83401821D01*
X143096393Y-83438482D01*
X143194568Y-83472530D01*
X143503915Y-83562052D01*
X143823801Y-83628880D01*
X144138105Y-83671265D01*
X144231972Y-83678694D01*
X144340918Y-83684115D01*
X144458632Y-83687483D01*
X144578801Y-83688754D01*
X144695114Y-83687884D01*
X144801260Y-83684827D01*
X144890926Y-83679538D01*
X144920550Y-83676810D01*
X145123177Y-83652625D01*
X145308589Y-83624039D01*
X145484800Y-83589628D01*
X145659821Y-83547970D01*
X145688900Y-83540365D01*
X145737494Y-83526700D01*
X145798639Y-83508334D01*
X145866389Y-83487186D01*
X145934797Y-83465176D01*
X145997915Y-83444222D01*
X146049795Y-83426246D01*
X146084490Y-83413165D01*
X146088950Y-83411258D01*
X146110876Y-83401840D01*
X146150132Y-83385277D01*
X146200587Y-83364147D01*
X146241350Y-83347161D01*
X146518724Y-83218606D01*
X146789638Y-83066893D01*
X147051611Y-82893952D01*
X147302166Y-82701710D01*
X147538823Y-82492097D01*
X147759101Y-82267041D01*
X147960522Y-82028471D01*
X147996071Y-81982281D01*
X148184686Y-81712601D01*
X148351358Y-81430270D01*
X148495910Y-81135725D01*
X148618168Y-80829400D01*
X148717958Y-80511732D01*
X148795103Y-80183158D01*
X148847201Y-79861750D01*
X148857523Y-79758247D01*
X148864861Y-79636298D01*
X148869219Y-79502130D01*
X148870604Y-79361970D01*
X148869020Y-79222047D01*
X148864473Y-79088588D01*
X148856967Y-78967821D01*
X148846509Y-78865973D01*
X148846353Y-78864800D01*
X148804153Y-78596958D01*
X148751173Y-78345331D01*
X148698299Y-78147250D01*
X148678614Y-78083916D01*
X148654805Y-78012001D01*
X148629142Y-77937905D01*
X148603896Y-77868033D01*
X148581337Y-77808787D01*
X148563735Y-77766570D01*
X148561937Y-77762681D01*
X148518305Y-77694672D01*
X148456480Y-77631749D01*
X148383607Y-77580731D01*
X148356838Y-77566961D01*
X148293099Y-77547204D01*
X148216961Y-77538439D01*
X148138481Y-77540726D01*
X148067715Y-77554129D01*
X148038400Y-77565003D01*
X147951938Y-77617675D01*
X147880806Y-77687383D01*
X147827803Y-77770239D01*
X147795731Y-77862356D01*
X147788288Y-77912221D01*
X147786254Y-77952648D01*
X147788369Y-77989360D01*
X147795903Y-78029566D01*
X147810124Y-78080476D01*
X147827430Y-78134550D01*
X147846799Y-78192604D01*
X147864328Y-78243660D01*
X147877935Y-78281736D01*
X147884960Y-78299650D01*
X147896736Y-78332604D01*
X147911866Y-78385407D01*
X147929188Y-78452912D01*
X147947539Y-78529972D01*
X147965756Y-78611441D01*
X147982676Y-78692172D01*
X147997138Y-78767018D01*
X148007977Y-78830832D01*
X148012629Y-78864800D01*
X148027775Y-79000675D01*
X148039031Y-79116839D01*
X148046523Y-79218660D01*
X148050377Y-79311505D01*
X148050720Y-79400744D01*
X148047678Y-79491744D01*
X148041377Y-79589875D01*
X148032240Y-79697298D01*
X148016260Y-79846869D01*
X147996549Y-79981759D01*
X147971282Y-80111301D01*
X147938634Y-80244829D01*
X147896779Y-80391676D01*
X147895734Y-80395150D01*
X147878647Y-80450921D01*
X147863186Y-80499639D01*
X147851438Y-80534815D01*
X147846697Y-80547550D01*
X147836353Y-80573303D01*
X147821161Y-80612691D01*
X147809800Y-80642800D01*
X147754940Y-80776173D01*
X147686812Y-80920273D01*
X147609515Y-81067293D01*
X147527148Y-81209425D01*
X147446478Y-81334950D01*
X147409652Y-81388812D01*
X147383410Y-81426512D01*
X147364132Y-81452939D01*
X147348194Y-81472985D01*
X147331975Y-81491542D01*
X147324225Y-81500050D01*
X147289303Y-81538150D01*
X146260502Y-80509479D01*
X146102827Y-80351815D01*
X145962146Y-80211092D01*
X145837490Y-80086292D01*
X145727890Y-79976397D01*
X145632377Y-79880391D01*
X145549982Y-79797255D01*
X145479735Y-79725972D01*
X145420669Y-79665525D01*
X145371813Y-79614895D01*
X145332200Y-79573066D01*
X145300859Y-79539021D01*
X145276823Y-79511740D01*
X145259121Y-79490207D01*
X145246786Y-79473405D01*
X145238848Y-79460315D01*
X145234337Y-79449921D01*
X145232286Y-79441205D01*
X145231725Y-79433148D01*
X145231700Y-79429136D01*
X145219673Y-79308344D01*
X145185173Y-79195192D01*
X145130576Y-79092075D01*
X145058256Y-79001386D01*
X144970586Y-78925516D01*
X144869942Y-78866858D01*
X144758698Y-78827806D01*
X144639228Y-78810751D01*
X144617513Y-78810206D01*
X144497646Y-78821148D01*
X144385452Y-78854171D01*
X144283107Y-78906812D01*
X144192788Y-78976612D01*
X144116672Y-79061107D01*
X144056936Y-79157837D01*
X144015756Y-79264340D01*
X143995310Y-79378155D01*
X143997773Y-79496819D01*
X143999406Y-79509157D01*
X144028993Y-79628820D01*
X144081112Y-79739783D01*
X144153488Y-79838537D01*
X144243845Y-79921574D01*
X144285550Y-79950256D01*
X144369545Y-79996322D01*
X144450934Y-80025101D01*
X144541257Y-80040400D01*
X144564847Y-80042438D01*
X144666344Y-80049950D01*
X145685622Y-81070341D01*
X145819393Y-81204409D01*
X145948036Y-81333632D01*
X146070421Y-81456860D01*
X146185417Y-81572941D01*
X146291893Y-81680724D01*
X146388718Y-81779057D01*
X146474761Y-81866788D01*
X146548893Y-81942767D01*
X146609981Y-82005842D01*
X146656895Y-82054861D01*
X146688504Y-82088673D01*
X146703678Y-82106127D01*
X146704900Y-82108208D01*
X146695455Y-82125717D01*
X146671553Y-82149918D01*
X146657275Y-82161446D01*
X146627665Y-82184186D01*
X146607436Y-82200658D01*
X146603300Y-82204534D01*
X146587921Y-82217138D01*
X146557777Y-82238447D01*
X146518655Y-82264712D01*
X146476340Y-82292187D01*
X146436620Y-82317125D01*
X146405279Y-82335779D01*
X146388104Y-82344401D01*
X146387022Y-82344600D01*
X146374997Y-82353864D01*
X146374700Y-82356444D01*
X146364150Y-82369059D01*
X146346861Y-82377124D01*
X146322446Y-82388003D01*
X146284558Y-82408258D01*
X146241152Y-82433625D01*
X146238687Y-82435130D01*
X146199195Y-82458873D01*
X146168839Y-82476320D01*
X146153413Y-82484158D01*
X146152755Y-82484300D01*
X146139775Y-82489483D01*
X146108705Y-82503568D01*
X146064304Y-82524359D01*
X146015194Y-82547800D01*
X145961782Y-82572979D01*
X145916323Y-82593435D01*
X145883916Y-82606937D01*
X145870067Y-82611300D01*
X145850376Y-82616761D01*
X145821177Y-82629933D01*
X145820527Y-82630271D01*
X145788876Y-82643753D01*
X145764465Y-82649321D01*
X145739244Y-82656061D01*
X145732715Y-82660557D01*
X145715387Y-82669257D01*
X145680476Y-82682156D01*
X145634899Y-82696739D01*
X145625400Y-82699553D01*
X145576224Y-82714419D01*
X145534029Y-82728053D01*
X145506953Y-82737812D01*
X145504750Y-82738755D01*
X145477452Y-82747873D01*
X145437096Y-82758075D01*
X145415850Y-82762563D01*
X145374262Y-82770949D01*
X145317673Y-82782668D01*
X145255907Y-82795678D01*
X145231934Y-82800790D01*
X145131297Y-82820566D01*
X145033741Y-82835657D01*
X144933608Y-82846552D01*
X144825241Y-82853740D01*
X144702982Y-82857710D01*
X144561174Y-82858949D01*
X144558600Y-82858950D01*
X144348022Y-82855249D01*
X144158933Y-82843957D01*
X143988495Y-82824785D01*
X143833872Y-82797446D01*
X143745800Y-82776556D01*
X143666084Y-82754870D01*
X143581465Y-82730475D01*
X143496810Y-82704911D01*
X143416981Y-82679712D01*
X143346842Y-82656418D01*
X143291258Y-82636564D01*
X143255092Y-82621688D01*
X143253862Y-82621093D01*
X143216037Y-82610858D01*
X143162536Y-82606389D01*
X143102362Y-82607438D01*
X143044516Y-82613758D01*
X142998000Y-82625101D01*
X142989950Y-82628350D01*
X142937378Y-82652695D01*
X142900811Y-82672394D01*
X142872807Y-82692562D01*
X142845921Y-82718311D01*
X142823522Y-82742682D01*
X142767469Y-82823206D01*
X142733277Y-82913418D01*
X142721528Y-83009143D01*
G36*
X144029839Y-84152045D02*
X144035077Y-84155740D01*
X144061365Y-84164296D01*
X144110328Y-84178775D01*
X144114100Y-84179878D01*
X144339737Y-84236667D01*
X144585738Y-84280985D01*
X144852958Y-84312977D01*
X144930674Y-84319664D01*
X145034611Y-84327472D01*
X145121197Y-84332674D01*
X145197459Y-84335258D01*
X145270422Y-84335210D01*
X145347112Y-84332518D01*
X145434553Y-84327169D01*
X145539773Y-84319150D01*
X145547354Y-84318539D01*
X145671104Y-84307525D01*
X145781566Y-84295140D01*
X145886340Y-84280179D01*
X145993027Y-84261439D01*
X146109230Y-84237713D01*
X146235000Y-84209541D01*
X146277866Y-84199598D01*
X146312629Y-84191214D01*
X146344362Y-84182913D01*
X146378139Y-84173215D01*
X146419031Y-84160642D01*
X146472112Y-84143717D01*
X146542454Y-84120961D01*
X146572964Y-84111062D01*
X146783485Y-84035103D01*
X146998348Y-83943207D01*
X147212427Y-83838182D01*
X147420593Y-83722836D01*
X147617717Y-83599976D01*
X147798673Y-83472411D01*
X147928280Y-83368918D01*
X147953780Y-83347600D01*
X147989344Y-83318284D01*
X148012852Y-83299068D01*
X148048937Y-83267607D01*
X148098371Y-83221621D01*
X148157137Y-83165118D01*
X148221217Y-83102110D01*
X148286596Y-83036607D01*
X148349257Y-82972620D01*
X148405182Y-82914158D01*
X148450355Y-82865234D01*
X148471303Y-82841328D01*
X148504669Y-82802108D01*
X148532683Y-82769456D01*
X148550533Y-82748971D01*
X148553147Y-82746078D01*
X148580644Y-82713246D01*
X148619304Y-82662560D01*
X148666581Y-82597552D01*
X148719930Y-82521752D01*
X148776808Y-82438691D01*
X148805508Y-82395940D01*
X148932527Y-82190475D01*
X149051450Y-81968588D01*
X149159750Y-81736183D01*
X149254900Y-81499164D01*
X149334372Y-81263434D01*
X149395638Y-81034896D01*
X149403798Y-80998400D01*
X149415754Y-80943851D01*
X149427402Y-80891659D01*
X149436259Y-80852944D01*
X149436398Y-80852350D01*
X149459824Y-80731816D01*
X149478814Y-80591289D01*
X149493203Y-80435812D01*
X149502825Y-80270431D01*
X149507515Y-80100190D01*
X149507107Y-79930134D01*
X149501435Y-79765308D01*
X149490334Y-79610755D01*
X149480212Y-79518850D01*
X149470393Y-79449768D01*
X149457690Y-79371819D01*
X149442844Y-79288494D01*
X149426596Y-79203280D01*
X149409688Y-79119666D01*
X149392861Y-79041143D01*
X149376855Y-78971198D01*
X149362414Y-78913321D01*
X149350277Y-78871002D01*
X149341187Y-78847728D01*
X149336966Y-78844701D01*
X149335930Y-78858654D01*
X149336854Y-78893187D01*
X149339520Y-78943570D01*
X149343710Y-79005076D01*
X149345348Y-79026479D01*
X149359594Y-79347488D01*
X149352723Y-79672158D01*
X149325171Y-79995621D01*
X149277375Y-80313008D01*
X149209773Y-80619451D01*
X149198579Y-80661850D01*
X149186652Y-80703249D01*
X149169064Y-80760753D01*
X149147602Y-80828863D01*
X149124058Y-80902079D01*
X149100220Y-80974905D01*
X149077877Y-81041842D01*
X149058819Y-81097390D01*
X149044835Y-81136053D01*
X149041523Y-81144450D01*
X149022097Y-81191675D01*
X149008000Y-81226104D01*
X148994875Y-81258420D01*
X148978367Y-81299308D01*
X148976798Y-81303200D01*
X148953844Y-81355688D01*
X148920878Y-81425117D01*
X148880546Y-81506405D01*
X148835495Y-81594472D01*
X148788372Y-81684238D01*
X148741823Y-81770620D01*
X148698495Y-81848540D01*
X148661035Y-81912916D01*
X148648600Y-81933233D01*
X148598691Y-82010991D01*
X148542245Y-82095297D01*
X148483397Y-82180260D01*
X148426278Y-82259990D01*
X148375022Y-82328597D01*
X148341401Y-82371048D01*
X148310097Y-82409077D01*
X148270702Y-82457013D01*
X148231224Y-82505112D01*
X148227462Y-82509700D01*
X148189057Y-82553943D01*
X148135983Y-82611454D01*
X148072206Y-82678240D01*
X148001693Y-82750310D01*
X147928410Y-82823671D01*
X147856323Y-82894334D01*
X147789400Y-82958304D01*
X147731606Y-83011592D01*
X147708200Y-83032266D01*
X147445245Y-83243164D01*
X147165772Y-83434836D01*
X146870007Y-83607154D01*
X146558180Y-83759990D01*
X146230515Y-83893215D01*
X146088950Y-83943049D01*
X146025497Y-83964040D01*
X145965916Y-83983095D01*
X145916963Y-83998095D01*
X145885750Y-84006832D01*
X145845576Y-84016761D01*
X145793597Y-84029681D01*
X145752400Y-84039962D01*
X145642557Y-84065274D01*
X145516486Y-84090758D01*
X145383296Y-84114783D01*
X145252096Y-84135720D01*
X145131995Y-84151937D01*
X145117400Y-84153645D01*
X145004712Y-84163717D01*
X144872898Y-84170768D01*
X144728053Y-84174791D01*
X144576271Y-84175778D01*
X144423647Y-84173721D01*
X144276276Y-84168612D01*
X144140252Y-84160444D01*
X144076000Y-84154981D01*
X144044022Y-84152146D01*
X144029839Y-84152045D01*
X144029839Y-84152045D01*
G37*
X144029839Y-84152045D02*
X144035077Y-84155740D01*
X144061365Y-84164296D01*
X144110328Y-84178775D01*
X144114100Y-84179878D01*
X144339737Y-84236667D01*
X144585738Y-84280985D01*
X144852958Y-84312977D01*
X144930674Y-84319664D01*
X145034611Y-84327472D01*
X145121197Y-84332674D01*
X145197459Y-84335258D01*
X145270422Y-84335210D01*
X145347112Y-84332518D01*
X145434553Y-84327169D01*
X145539773Y-84319150D01*
X145547354Y-84318539D01*
X145671104Y-84307525D01*
X145781566Y-84295140D01*
X145886340Y-84280179D01*
X145993027Y-84261439D01*
X146109230Y-84237713D01*
X146235000Y-84209541D01*
X146277866Y-84199598D01*
X146312629Y-84191214D01*
X146344362Y-84182913D01*
X146378139Y-84173215D01*
X146419031Y-84160642D01*
X146472112Y-84143717D01*
X146542454Y-84120961D01*
X146572964Y-84111062D01*
X146783485Y-84035103D01*
X146998348Y-83943207D01*
X147212427Y-83838182D01*
X147420593Y-83722836D01*
X147617717Y-83599976D01*
X147798673Y-83472411D01*
X147928280Y-83368918D01*
X147953780Y-83347600D01*
X147989344Y-83318284D01*
X148012852Y-83299068D01*
X148048937Y-83267607D01*
X148098371Y-83221621D01*
X148157137Y-83165118D01*
X148221217Y-83102110D01*
X148286596Y-83036607D01*
X148349257Y-82972620D01*
X148405182Y-82914158D01*
X148450355Y-82865234D01*
X148471303Y-82841328D01*
X148504669Y-82802108D01*
X148532683Y-82769456D01*
X148550533Y-82748971D01*
X148553147Y-82746078D01*
X148580644Y-82713246D01*
X148619304Y-82662560D01*
X148666581Y-82597552D01*
X148719930Y-82521752D01*
X148776808Y-82438691D01*
X148805508Y-82395940D01*
X148932527Y-82190475D01*
X149051450Y-81968588D01*
X149159750Y-81736183D01*
X149254900Y-81499164D01*
X149334372Y-81263434D01*
X149395638Y-81034896D01*
X149403798Y-80998400D01*
X149415754Y-80943851D01*
X149427402Y-80891659D01*
X149436259Y-80852944D01*
X149436398Y-80852350D01*
X149459824Y-80731816D01*
X149478814Y-80591289D01*
X149493203Y-80435812D01*
X149502825Y-80270431D01*
X149507515Y-80100190D01*
X149507107Y-79930134D01*
X149501435Y-79765308D01*
X149490334Y-79610755D01*
X149480212Y-79518850D01*
X149470393Y-79449768D01*
X149457690Y-79371819D01*
X149442844Y-79288494D01*
X149426596Y-79203280D01*
X149409688Y-79119666D01*
X149392861Y-79041143D01*
X149376855Y-78971198D01*
X149362414Y-78913321D01*
X149350277Y-78871002D01*
X149341187Y-78847728D01*
X149336966Y-78844701D01*
X149335930Y-78858654D01*
X149336854Y-78893187D01*
X149339520Y-78943570D01*
X149343710Y-79005076D01*
X149345348Y-79026479D01*
X149359594Y-79347488D01*
X149352723Y-79672158D01*
X149325171Y-79995621D01*
X149277375Y-80313008D01*
X149209773Y-80619451D01*
X149198579Y-80661850D01*
X149186652Y-80703249D01*
X149169064Y-80760753D01*
X149147602Y-80828863D01*
X149124058Y-80902079D01*
X149100220Y-80974905D01*
X149077877Y-81041842D01*
X149058819Y-81097390D01*
X149044835Y-81136053D01*
X149041523Y-81144450D01*
X149022097Y-81191675D01*
X149008000Y-81226104D01*
X148994875Y-81258420D01*
X148978367Y-81299308D01*
X148976798Y-81303200D01*
X148953844Y-81355688D01*
X148920878Y-81425117D01*
X148880546Y-81506405D01*
X148835495Y-81594472D01*
X148788372Y-81684238D01*
X148741823Y-81770620D01*
X148698495Y-81848540D01*
X148661035Y-81912916D01*
X148648600Y-81933233D01*
X148598691Y-82010991D01*
X148542245Y-82095297D01*
X148483397Y-82180260D01*
X148426278Y-82259990D01*
X148375022Y-82328597D01*
X148341401Y-82371048D01*
X148310097Y-82409077D01*
X148270702Y-82457013D01*
X148231224Y-82505112D01*
X148227462Y-82509700D01*
X148189057Y-82553943D01*
X148135983Y-82611454D01*
X148072206Y-82678240D01*
X148001693Y-82750310D01*
X147928410Y-82823671D01*
X147856323Y-82894334D01*
X147789400Y-82958304D01*
X147731606Y-83011592D01*
X147708200Y-83032266D01*
X147445245Y-83243164D01*
X147165772Y-83434836D01*
X146870007Y-83607154D01*
X146558180Y-83759990D01*
X146230515Y-83893215D01*
X146088950Y-83943049D01*
X146025497Y-83964040D01*
X145965916Y-83983095D01*
X145916963Y-83998095D01*
X145885750Y-84006832D01*
X145845576Y-84016761D01*
X145793597Y-84029681D01*
X145752400Y-84039962D01*
X145642557Y-84065274D01*
X145516486Y-84090758D01*
X145383296Y-84114783D01*
X145252096Y-84135720D01*
X145131995Y-84151937D01*
X145117400Y-84153645D01*
X145004712Y-84163717D01*
X144872898Y-84170768D01*
X144728053Y-84174791D01*
X144576271Y-84175778D01*
X144423647Y-84173721D01*
X144276276Y-84168612D01*
X144140252Y-84160444D01*
X144076000Y-84154981D01*
X144044022Y-84152146D01*
X144029839Y-84152045D01*
G36*
X144076000Y-84712046D02*
X144087132Y-84747723D01*
X144115789Y-84773945D01*
X144154866Y-84787456D01*
X144197255Y-84785000D01*
X144217370Y-84776823D01*
X144252066Y-84747164D01*
X144263367Y-84712789D01*
X144251347Y-84678687D01*
X144216084Y-84649850D01*
X144215431Y-84649510D01*
X144179898Y-84634111D01*
X144153106Y-84633940D01*
X144122938Y-84649866D01*
X144112886Y-84656864D01*
X144085152Y-84685322D01*
X144076000Y-84712046D01*
X144076000Y-84712046D01*
G37*
X144076000Y-84712046D02*
X144087132Y-84747723D01*
X144115789Y-84773945D01*
X144154866Y-84787456D01*
X144197255Y-84785000D01*
X144217370Y-84776823D01*
X144252066Y-84747164D01*
X144263367Y-84712789D01*
X144251347Y-84678687D01*
X144216084Y-84649850D01*
X144215431Y-84649510D01*
X144179898Y-84634111D01*
X144153106Y-84633940D01*
X144122938Y-84649866D01*
X144112886Y-84656864D01*
X144085152Y-84685322D01*
X144076000Y-84712046D01*
G36*
X141497304Y-85114377D02*
X141497768Y-85195202D01*
X141499235Y-85268928D01*
X141501534Y-85331201D01*
X141504495Y-85377670D01*
X141507949Y-85403980D01*
X141508698Y-85406477D01*
X141540294Y-85453602D01*
X141595614Y-85491892D01*
X141674558Y-85521318D01*
X141777024Y-85541852D01*
X141902914Y-85553465D01*
X142042228Y-85556226D01*
X142110303Y-85555350D01*
X142170845Y-85553943D01*
X142218565Y-85552176D01*
X142248172Y-85550218D01*
X142253550Y-85549463D01*
X142338661Y-85529054D01*
X142401602Y-85507650D01*
X142434833Y-85491141D01*
X142459526Y-85474944D01*
X142478548Y-85457217D01*
X142492629Y-85434581D01*
X142502501Y-85403658D01*
X142508892Y-85361068D01*
X142512534Y-85303432D01*
X142514156Y-85227372D01*
X142514488Y-85129508D01*
X142514483Y-85122552D01*
X142514208Y-85032060D01*
X142513402Y-84963653D01*
X142511813Y-84914019D01*
X142509185Y-84879842D01*
X142505265Y-84857811D01*
X142499798Y-84844612D01*
X142492590Y-84836975D01*
X142452066Y-84821980D01*
X142406889Y-84830291D01*
X142398766Y-84834246D01*
X142390338Y-84840236D01*
X142384085Y-84850216D01*
X142379680Y-84867657D01*
X142376797Y-84896028D01*
X142375110Y-84938799D01*
X142374294Y-84999439D01*
X142374022Y-85081417D01*
X142374006Y-85097771D01*
X142373489Y-85175585D01*
X142372163Y-85245058D01*
X142370176Y-85302055D01*
X142367679Y-85342441D01*
X142364820Y-85362080D01*
X142364444Y-85362872D01*
X142347569Y-85376368D01*
X142316352Y-85392728D01*
X142302769Y-85398523D01*
X142281094Y-85405701D01*
X142254664Y-85410910D01*
X142219676Y-85414354D01*
X142172325Y-85416236D01*
X142108808Y-85416757D01*
X142025321Y-85416120D01*
X141983023Y-85415551D01*
X141893337Y-85414088D01*
X141825401Y-85412423D01*
X141775567Y-85410187D01*
X141740186Y-85407012D01*
X141715609Y-85402527D01*
X141698186Y-85396365D01*
X141684270Y-85388156D01*
X141679768Y-85384892D01*
X141643950Y-85358135D01*
X141640500Y-85106461D01*
X141638469Y-85010501D01*
X141635333Y-84933919D01*
X141631201Y-84878407D01*
X141626182Y-84845658D01*
X141623070Y-84837943D01*
X141597574Y-84824261D01*
X141561476Y-84822339D01*
X141526746Y-84832290D01*
X141519226Y-84836975D01*
X141511876Y-84844812D01*
X141506375Y-84858293D01*
X141502457Y-84880785D01*
X141499855Y-84915657D01*
X141498305Y-84966276D01*
X141497539Y-85036011D01*
X141497304Y-85114377D01*
X141497304Y-85114377D01*
G37*
X141497304Y-85114377D02*
X141497768Y-85195202D01*
X141499235Y-85268928D01*
X141501534Y-85331201D01*
X141504495Y-85377670D01*
X141507949Y-85403980D01*
X141508698Y-85406477D01*
X141540294Y-85453602D01*
X141595614Y-85491892D01*
X141674558Y-85521318D01*
X141777024Y-85541852D01*
X141902914Y-85553465D01*
X142042228Y-85556226D01*
X142110303Y-85555350D01*
X142170845Y-85553943D01*
X142218565Y-85552176D01*
X142248172Y-85550218D01*
X142253550Y-85549463D01*
X142338661Y-85529054D01*
X142401602Y-85507650D01*
X142434833Y-85491141D01*
X142459526Y-85474944D01*
X142478548Y-85457217D01*
X142492629Y-85434581D01*
X142502501Y-85403658D01*
X142508892Y-85361068D01*
X142512534Y-85303432D01*
X142514156Y-85227372D01*
X142514488Y-85129508D01*
X142514483Y-85122552D01*
X142514208Y-85032060D01*
X142513402Y-84963653D01*
X142511813Y-84914019D01*
X142509185Y-84879842D01*
X142505265Y-84857811D01*
X142499798Y-84844612D01*
X142492590Y-84836975D01*
X142452066Y-84821980D01*
X142406889Y-84830291D01*
X142398766Y-84834246D01*
X142390338Y-84840236D01*
X142384085Y-84850216D01*
X142379680Y-84867657D01*
X142376797Y-84896028D01*
X142375110Y-84938799D01*
X142374294Y-84999439D01*
X142374022Y-85081417D01*
X142374006Y-85097771D01*
X142373489Y-85175585D01*
X142372163Y-85245058D01*
X142370176Y-85302055D01*
X142367679Y-85342441D01*
X142364820Y-85362080D01*
X142364444Y-85362872D01*
X142347569Y-85376368D01*
X142316352Y-85392728D01*
X142302769Y-85398523D01*
X142281094Y-85405701D01*
X142254664Y-85410910D01*
X142219676Y-85414354D01*
X142172325Y-85416236D01*
X142108808Y-85416757D01*
X142025321Y-85416120D01*
X141983023Y-85415551D01*
X141893337Y-85414088D01*
X141825401Y-85412423D01*
X141775567Y-85410187D01*
X141740186Y-85407012D01*
X141715609Y-85402527D01*
X141698186Y-85396365D01*
X141684270Y-85388156D01*
X141679768Y-85384892D01*
X141643950Y-85358135D01*
X141640500Y-85106461D01*
X141638469Y-85010501D01*
X141635333Y-84933919D01*
X141631201Y-84878407D01*
X141626182Y-84845658D01*
X141623070Y-84837943D01*
X141597574Y-84824261D01*
X141561476Y-84822339D01*
X141526746Y-84832290D01*
X141519226Y-84836975D01*
X141511876Y-84844812D01*
X141506375Y-84858293D01*
X141502457Y-84880785D01*
X141499855Y-84915657D01*
X141498305Y-84966276D01*
X141497539Y-85036011D01*
X141497304Y-85114377D01*
G36*
X142655634Y-84990249D02*
X142656232Y-85109014D01*
X142656290Y-85115777D01*
X142657318Y-85233235D01*
X142658427Y-85327782D01*
X142660072Y-85401901D01*
X142662704Y-85458077D01*
X142666777Y-85498796D01*
X142672743Y-85526543D01*
X142681055Y-85543802D01*
X142692166Y-85553059D01*
X142706529Y-85556799D01*
X142724597Y-85557506D01*
X142736785Y-85557505D01*
X142769470Y-85552925D01*
X142790760Y-85542459D01*
X142795380Y-85525365D01*
X142799240Y-85486497D01*
X142802347Y-85429470D01*
X142804708Y-85357898D01*
X142806330Y-85275395D01*
X142807220Y-85185577D01*
X142807386Y-85092058D01*
X142806834Y-84998452D01*
X142805572Y-84908374D01*
X142803606Y-84825438D01*
X142800944Y-84753259D01*
X142797593Y-84695452D01*
X142793560Y-84655631D01*
X142788984Y-84637582D01*
X142763233Y-84621227D01*
X142728472Y-84620443D01*
X142693968Y-84633167D01*
X142668992Y-84657335D01*
X142665241Y-84665136D01*
X142661775Y-84687534D01*
X142659041Y-84733283D01*
X142657080Y-84800344D01*
X142655930Y-84886679D01*
X142655634Y-84990249D01*
X142655634Y-84990249D01*
G37*
X142655634Y-84990249D02*
X142656232Y-85109014D01*
X142656290Y-85115777D01*
X142657318Y-85233235D01*
X142658427Y-85327782D01*
X142660072Y-85401901D01*
X142662704Y-85458077D01*
X142666777Y-85498796D01*
X142672743Y-85526543D01*
X142681055Y-85543802D01*
X142692166Y-85553059D01*
X142706529Y-85556799D01*
X142724597Y-85557506D01*
X142736785Y-85557505D01*
X142769470Y-85552925D01*
X142790760Y-85542459D01*
X142795380Y-85525365D01*
X142799240Y-85486497D01*
X142802347Y-85429470D01*
X142804708Y-85357898D01*
X142806330Y-85275395D01*
X142807220Y-85185577D01*
X142807386Y-85092058D01*
X142806834Y-84998452D01*
X142805572Y-84908374D01*
X142803606Y-84825438D01*
X142800944Y-84753259D01*
X142797593Y-84695452D01*
X142793560Y-84655631D01*
X142788984Y-84637582D01*
X142763233Y-84621227D01*
X142728472Y-84620443D01*
X142693968Y-84633167D01*
X142668992Y-84657335D01*
X142665241Y-84665136D01*
X142661775Y-84687534D01*
X142659041Y-84733283D01*
X142657080Y-84800344D01*
X142655930Y-84886679D01*
X142655634Y-84990249D01*
G36*
X142933000Y-85182411D02*
X142934582Y-85273497D01*
X142939942Y-85343228D01*
X142950006Y-85395491D01*
X142965699Y-85434169D01*
X142987945Y-85463148D01*
X143002902Y-85476050D01*
X143036560Y-85499537D01*
X143070799Y-85517548D01*
X143086728Y-85523003D01*
X143086728Y-85273937D01*
X143087250Y-85207439D01*
X143088073Y-85170350D01*
X143091750Y-85017950D01*
X143136200Y-84995744D01*
X143153021Y-84988715D01*
X143174032Y-84983317D01*
X143202580Y-84979343D01*
X143242017Y-84976586D01*
X143295691Y-84974838D01*
X143366952Y-84973892D01*
X143459149Y-84973540D01*
X143494975Y-84973519D01*
X143809300Y-84973500D01*
X143809300Y-85156742D01*
X143808737Y-85235579D01*
X143806225Y-85292862D01*
X143800536Y-85332429D01*
X143790439Y-85358117D01*
X143774706Y-85373763D01*
X143752105Y-85383202D01*
X143735387Y-85387341D01*
X143695950Y-85397424D01*
X143669600Y-85405408D01*
X143646797Y-85408930D01*
X143603446Y-85412075D01*
X143544398Y-85414622D01*
X143474504Y-85416350D01*
X143413976Y-85416997D01*
X143324837Y-85416842D01*
X143257305Y-85415301D01*
X143207616Y-85412121D01*
X143172001Y-85407048D01*
X143146695Y-85399831D01*
X143144324Y-85398872D01*
X143121372Y-85387729D01*
X143105158Y-85373813D01*
X143094660Y-85352975D01*
X143088857Y-85321066D01*
X143086728Y-85273937D01*
X143086728Y-85523003D01*
X143109697Y-85530870D01*
X143157331Y-85540288D01*
X143217778Y-85546588D01*
X143295113Y-85550554D01*
X143393415Y-85552974D01*
X143402900Y-85553134D01*
X143493595Y-85554264D01*
X143563416Y-85554108D01*
X143616872Y-85552410D01*
X143658467Y-85548912D01*
X143692709Y-85543359D01*
X143724104Y-85535493D01*
X143726891Y-85534678D01*
X143815618Y-85502290D01*
X143883380Y-85464058D01*
X143928374Y-85421084D01*
X143938212Y-85405498D01*
X143945268Y-85390171D01*
X143950764Y-85371834D01*
X143954893Y-85347312D01*
X143957844Y-85313429D01*
X143959809Y-85267009D01*
X143960980Y-85204876D01*
X143961547Y-85123855D01*
X143961700Y-85020769D01*
X143961700Y-85014973D01*
X143961624Y-84912025D01*
X143961253Y-84831450D01*
X143960374Y-84770221D01*
X143958776Y-84725311D01*
X143956245Y-84693692D01*
X143952569Y-84672338D01*
X143947536Y-84658220D01*
X143940933Y-84648313D01*
X143935552Y-84642551D01*
X143899342Y-84621858D01*
X143868877Y-84620326D01*
X143828350Y-84624250D01*
X143824641Y-84722675D01*
X143820932Y-84821100D01*
X143556430Y-84821100D01*
X143417132Y-84822656D01*
X143300838Y-84827684D01*
X143205322Y-84836722D01*
X143128357Y-84850309D01*
X143067717Y-84868985D01*
X143021176Y-84893286D01*
X142986507Y-84923753D01*
X142961485Y-84960924D01*
X142959136Y-84965630D01*
X142947891Y-84992504D01*
X142940344Y-85021889D01*
X142935806Y-85059502D01*
X142933588Y-85111057D01*
X142933001Y-85182270D01*
X142933000Y-85182411D01*
X142933000Y-85182411D01*
G37*
X142933000Y-85182411D02*
X142934582Y-85273497D01*
X142939942Y-85343228D01*
X142950006Y-85395491D01*
X142965699Y-85434169D01*
X142987945Y-85463148D01*
X143002902Y-85476050D01*
X143036560Y-85499537D01*
X143070799Y-85517548D01*
X143086728Y-85523003D01*
X143086728Y-85273937D01*
X143087250Y-85207439D01*
X143088073Y-85170350D01*
X143091750Y-85017950D01*
X143136200Y-84995744D01*
X143153021Y-84988715D01*
X143174032Y-84983317D01*
X143202580Y-84979343D01*
X143242017Y-84976586D01*
X143295691Y-84974838D01*
X143366952Y-84973892D01*
X143459149Y-84973540D01*
X143494975Y-84973519D01*
X143809300Y-84973500D01*
X143809300Y-85156742D01*
X143808737Y-85235579D01*
X143806225Y-85292862D01*
X143800536Y-85332429D01*
X143790439Y-85358117D01*
X143774706Y-85373763D01*
X143752105Y-85383202D01*
X143735387Y-85387341D01*
X143695950Y-85397424D01*
X143669600Y-85405408D01*
X143646797Y-85408930D01*
X143603446Y-85412075D01*
X143544398Y-85414622D01*
X143474504Y-85416350D01*
X143413976Y-85416997D01*
X143324837Y-85416842D01*
X143257305Y-85415301D01*
X143207616Y-85412121D01*
X143172001Y-85407048D01*
X143146695Y-85399831D01*
X143144324Y-85398872D01*
X143121372Y-85387729D01*
X143105158Y-85373813D01*
X143094660Y-85352975D01*
X143088857Y-85321066D01*
X143086728Y-85273937D01*
X143086728Y-85523003D01*
X143109697Y-85530870D01*
X143157331Y-85540288D01*
X143217778Y-85546588D01*
X143295113Y-85550554D01*
X143393415Y-85552974D01*
X143402900Y-85553134D01*
X143493595Y-85554264D01*
X143563416Y-85554108D01*
X143616872Y-85552410D01*
X143658467Y-85548912D01*
X143692709Y-85543359D01*
X143724104Y-85535493D01*
X143726891Y-85534678D01*
X143815618Y-85502290D01*
X143883380Y-85464058D01*
X143928374Y-85421084D01*
X143938212Y-85405498D01*
X143945268Y-85390171D01*
X143950764Y-85371834D01*
X143954893Y-85347312D01*
X143957844Y-85313429D01*
X143959809Y-85267009D01*
X143960980Y-85204876D01*
X143961547Y-85123855D01*
X143961700Y-85020769D01*
X143961700Y-85014973D01*
X143961624Y-84912025D01*
X143961253Y-84831450D01*
X143960374Y-84770221D01*
X143958776Y-84725311D01*
X143956245Y-84693692D01*
X143952569Y-84672338D01*
X143947536Y-84658220D01*
X143940933Y-84648313D01*
X143935552Y-84642551D01*
X143899342Y-84621858D01*
X143868877Y-84620326D01*
X143828350Y-84624250D01*
X143824641Y-84722675D01*
X143820932Y-84821100D01*
X143556430Y-84821100D01*
X143417132Y-84822656D01*
X143300838Y-84827684D01*
X143205322Y-84836722D01*
X143128357Y-84850309D01*
X143067717Y-84868985D01*
X143021176Y-84893286D01*
X142986507Y-84923753D01*
X142961485Y-84960924D01*
X142959136Y-84965630D01*
X142947891Y-84992504D01*
X142940344Y-85021889D01*
X142935806Y-85059502D01*
X142933588Y-85111057D01*
X142933001Y-85182270D01*
X142933000Y-85182411D01*
G36*
X144088700Y-85185049D02*
X144089200Y-85272682D01*
X144090604Y-85353330D01*
X144092766Y-85423034D01*
X144095544Y-85477831D01*
X144098792Y-85513763D01*
X144101086Y-85525123D01*
X144113587Y-85546778D01*
X144134792Y-85556044D01*
X144164139Y-85557700D01*
X144203104Y-85553296D01*
X144224720Y-85538345D01*
X144227954Y-85533134D01*
X144232215Y-85512230D01*
X144235746Y-85468228D01*
X144238457Y-85403421D01*
X144240259Y-85320102D01*
X144241065Y-85220566D01*
X144241100Y-85193060D01*
X144240834Y-85086035D01*
X144239667Y-85001716D01*
X144237049Y-84937411D01*
X144232427Y-84890428D01*
X144225251Y-84858075D01*
X144214968Y-84837660D01*
X144201028Y-84826493D01*
X144182879Y-84821879D01*
X144164900Y-84821100D01*
X144142756Y-84822458D01*
X144125360Y-84828348D01*
X144112143Y-84841487D01*
X144102536Y-84864595D01*
X144095968Y-84900390D01*
X144091872Y-84951592D01*
X144089678Y-85020918D01*
X144088816Y-85111090D01*
X144088700Y-85185049D01*
X144088700Y-85185049D01*
G37*
X144088700Y-85185049D02*
X144089200Y-85272682D01*
X144090604Y-85353330D01*
X144092766Y-85423034D01*
X144095544Y-85477831D01*
X144098792Y-85513763D01*
X144101086Y-85525123D01*
X144113587Y-85546778D01*
X144134792Y-85556044D01*
X144164139Y-85557700D01*
X144203104Y-85553296D01*
X144224720Y-85538345D01*
X144227954Y-85533134D01*
X144232215Y-85512230D01*
X144235746Y-85468228D01*
X144238457Y-85403421D01*
X144240259Y-85320102D01*
X144241065Y-85220566D01*
X144241100Y-85193060D01*
X144240834Y-85086035D01*
X144239667Y-85001716D01*
X144237049Y-84937411D01*
X144232427Y-84890428D01*
X144225251Y-84858075D01*
X144214968Y-84837660D01*
X144201028Y-84826493D01*
X144182879Y-84821879D01*
X144164900Y-84821100D01*
X144142756Y-84822458D01*
X144125360Y-84828348D01*
X144112143Y-84841487D01*
X144102536Y-84864595D01*
X144095968Y-84900390D01*
X144091872Y-84951592D01*
X144089678Y-85020918D01*
X144088816Y-85111090D01*
X144088700Y-85185049D01*
G36*
X144393500Y-85252289D02*
X144394157Y-85341216D01*
X144396027Y-85417084D01*
X144398960Y-85476683D01*
X144402806Y-85516805D01*
X144406647Y-85533134D01*
X144425229Y-85550883D01*
X144459598Y-85557484D01*
X144470462Y-85557700D01*
X144505185Y-85554956D01*
X144523920Y-85543587D01*
X144533515Y-85525123D01*
X144537436Y-85502397D01*
X144540847Y-85458921D01*
X144543535Y-85399343D01*
X144545290Y-85328311D01*
X144545900Y-85252366D01*
X144545900Y-85012185D01*
X144580218Y-84989667D01*
X144595355Y-84981766D01*
X144615901Y-84975757D01*
X144645519Y-84971305D01*
X144687874Y-84968074D01*
X144746628Y-84965729D01*
X144825445Y-84963934D01*
X144869116Y-84963205D01*
X144976063Y-84962301D01*
X145060453Y-84963554D01*
X145125068Y-84967373D01*
X145172689Y-84974169D01*
X145206098Y-84984352D01*
X145228078Y-84998331D01*
X145241412Y-85016516D01*
X145242190Y-85018169D01*
X145246862Y-85041089D01*
X145250839Y-85085533D01*
X145253912Y-85147628D01*
X145255876Y-85223502D01*
X145256490Y-85285656D01*
X145257632Y-85382925D01*
X145260241Y-85457907D01*
X145264260Y-85509666D01*
X145269635Y-85537270D01*
X145271481Y-85540675D01*
X145295992Y-85553706D01*
X145331536Y-85557066D01*
X145365705Y-85550866D01*
X145383254Y-85539670D01*
X145388626Y-85524158D01*
X145392375Y-85491305D01*
X145394575Y-85439196D01*
X145395298Y-85365916D01*
X145394616Y-85269549D01*
X145394334Y-85248463D01*
X145392896Y-85157738D01*
X145391268Y-85088811D01*
X145389094Y-85038083D01*
X145386017Y-85001953D01*
X145381680Y-84976822D01*
X145375726Y-84959088D01*
X145367799Y-84945152D01*
X145363723Y-84939468D01*
X145333038Y-84907010D01*
X145299481Y-84881676D01*
X145246685Y-84859977D01*
X145173992Y-84843111D01*
X145086440Y-84831086D01*
X144989070Y-84823913D01*
X144886922Y-84821600D01*
X144785035Y-84824157D01*
X144688449Y-84831592D01*
X144602204Y-84843916D01*
X144531340Y-84861138D01*
X144486000Y-84880181D01*
X144452726Y-84907158D01*
X144423288Y-84943428D01*
X144419526Y-84949702D01*
X144410614Y-84967412D01*
X144403993Y-84986958D01*
X144399327Y-85012244D01*
X144396281Y-85047176D01*
X144394519Y-85095658D01*
X144393704Y-85161596D01*
X144393501Y-85248895D01*
X144393500Y-85252289D01*
X144393500Y-85252289D01*
G37*
X144393500Y-85252289D02*
X144394157Y-85341216D01*
X144396027Y-85417084D01*
X144398960Y-85476683D01*
X144402806Y-85516805D01*
X144406647Y-85533134D01*
X144425229Y-85550883D01*
X144459598Y-85557484D01*
X144470462Y-85557700D01*
X144505185Y-85554956D01*
X144523920Y-85543587D01*
X144533515Y-85525123D01*
X144537436Y-85502397D01*
X144540847Y-85458921D01*
X144543535Y-85399343D01*
X144545290Y-85328311D01*
X144545900Y-85252366D01*
X144545900Y-85012185D01*
X144580218Y-84989667D01*
X144595355Y-84981766D01*
X144615901Y-84975757D01*
X144645519Y-84971305D01*
X144687874Y-84968074D01*
X144746628Y-84965729D01*
X144825445Y-84963934D01*
X144869116Y-84963205D01*
X144976063Y-84962301D01*
X145060453Y-84963554D01*
X145125068Y-84967373D01*
X145172689Y-84974169D01*
X145206098Y-84984352D01*
X145228078Y-84998331D01*
X145241412Y-85016516D01*
X145242190Y-85018169D01*
X145246862Y-85041089D01*
X145250839Y-85085533D01*
X145253912Y-85147628D01*
X145255876Y-85223502D01*
X145256490Y-85285656D01*
X145257632Y-85382925D01*
X145260241Y-85457907D01*
X145264260Y-85509666D01*
X145269635Y-85537270D01*
X145271481Y-85540675D01*
X145295992Y-85553706D01*
X145331536Y-85557066D01*
X145365705Y-85550866D01*
X145383254Y-85539670D01*
X145388626Y-85524158D01*
X145392375Y-85491305D01*
X145394575Y-85439196D01*
X145395298Y-85365916D01*
X145394616Y-85269549D01*
X145394334Y-85248463D01*
X145392896Y-85157738D01*
X145391268Y-85088811D01*
X145389094Y-85038083D01*
X145386017Y-85001953D01*
X145381680Y-84976822D01*
X145375726Y-84959088D01*
X145367799Y-84945152D01*
X145363723Y-84939468D01*
X145333038Y-84907010D01*
X145299481Y-84881676D01*
X145246685Y-84859977D01*
X145173992Y-84843111D01*
X145086440Y-84831086D01*
X144989070Y-84823913D01*
X144886922Y-84821600D01*
X144785035Y-84824157D01*
X144688449Y-84831592D01*
X144602204Y-84843916D01*
X144531340Y-84861138D01*
X144486000Y-84880181D01*
X144452726Y-84907158D01*
X144423288Y-84943428D01*
X144419526Y-84949702D01*
X144410614Y-84967412D01*
X144403993Y-84986958D01*
X144399327Y-85012244D01*
X144396281Y-85047176D01*
X144394519Y-85095658D01*
X144393704Y-85161596D01*
X144393501Y-85248895D01*
X144393500Y-85252289D01*
G36*
X146667530Y-85162320D02*
X146670479Y-85267765D01*
X146676443Y-85341076D01*
X146687406Y-85401068D01*
X146705701Y-85449029D01*
X146733659Y-85486244D01*
X146773612Y-85514001D01*
X146820659Y-85530976D01*
X146820659Y-85310647D01*
X146821625Y-85252221D01*
X146825550Y-85183050D01*
X147151030Y-85179663D01*
X147251562Y-85178748D01*
X147330162Y-85178478D01*
X147390292Y-85179049D01*
X147435415Y-85180658D01*
X147468994Y-85183500D01*
X147494493Y-85187772D01*
X147515374Y-85193671D01*
X147535100Y-85201392D01*
X147535205Y-85201437D01*
X147593900Y-85226597D01*
X147593900Y-85297419D01*
X147593900Y-85368241D01*
X147539925Y-85392223D01*
X147519654Y-85400101D01*
X147496491Y-85406091D01*
X147466757Y-85410460D01*
X147426768Y-85413476D01*
X147372844Y-85415403D01*
X147301303Y-85416510D01*
X147208463Y-85417063D01*
X147196395Y-85417102D01*
X147098494Y-85417109D01*
X147022728Y-85416325D01*
X146965841Y-85414567D01*
X146924576Y-85411652D01*
X146895675Y-85407396D01*
X146875882Y-85401617D01*
X146869554Y-85398719D01*
X146842737Y-85379418D01*
X146827046Y-85351919D01*
X146820659Y-85310647D01*
X146820659Y-85530976D01*
X146827891Y-85533586D01*
X146898830Y-85546285D01*
X146988759Y-85553385D01*
X147100011Y-85556173D01*
X147193344Y-85556239D01*
X147276143Y-85555386D01*
X147352895Y-85553848D01*
X147419023Y-85551776D01*
X147469953Y-85549320D01*
X147501111Y-85546630D01*
X147505000Y-85545994D01*
X147541475Y-85535673D01*
X147588309Y-85518402D01*
X147620583Y-85504574D01*
X147664484Y-85481686D01*
X147692838Y-85457696D01*
X147714495Y-85424433D01*
X147720661Y-85412145D01*
X147737238Y-85372189D01*
X147744492Y-85334724D01*
X147744268Y-85287923D01*
X147742943Y-85269349D01*
X147733727Y-85206841D01*
X147714692Y-85160575D01*
X147681221Y-85123938D01*
X147628698Y-85090317D01*
X147611737Y-85081450D01*
X147536750Y-85043350D01*
X147177214Y-85039285D01*
X147065738Y-85037744D01*
X146977780Y-85035853D01*
X146911456Y-85033513D01*
X146864886Y-85030621D01*
X146836186Y-85027076D01*
X146823475Y-85022778D01*
X146822552Y-85020235D01*
X146842972Y-84998023D01*
X146887979Y-84980679D01*
X146957214Y-84968301D01*
X147037241Y-84961628D01*
X147093507Y-84957959D01*
X147139986Y-84953634D01*
X147171050Y-84949258D01*
X147180928Y-84946229D01*
X147186941Y-84928925D01*
X147190248Y-84898322D01*
X147190299Y-84896711D01*
X147181010Y-84855027D01*
X147152895Y-84828630D01*
X147117434Y-84821100D01*
X147074485Y-84823618D01*
X147018303Y-84830363D01*
X146955631Y-84840116D01*
X146893212Y-84851659D01*
X146837789Y-84863774D01*
X146796106Y-84875243D01*
X146778592Y-84882303D01*
X146736708Y-84912670D01*
X146705489Y-84952901D01*
X146684105Y-85005950D01*
X146671728Y-85074772D01*
X146667530Y-85162320D01*
X146667530Y-85162320D01*
G37*
X146667530Y-85162320D02*
X146670479Y-85267765D01*
X146676443Y-85341076D01*
X146687406Y-85401068D01*
X146705701Y-85449029D01*
X146733659Y-85486244D01*
X146773612Y-85514001D01*
X146820659Y-85530976D01*
X146820659Y-85310647D01*
X146821625Y-85252221D01*
X146825550Y-85183050D01*
X147151030Y-85179663D01*
X147251562Y-85178748D01*
X147330162Y-85178478D01*
X147390292Y-85179049D01*
X147435415Y-85180658D01*
X147468994Y-85183500D01*
X147494493Y-85187772D01*
X147515374Y-85193671D01*
X147535100Y-85201392D01*
X147535205Y-85201437D01*
X147593900Y-85226597D01*
X147593900Y-85297419D01*
X147593900Y-85368241D01*
X147539925Y-85392223D01*
X147519654Y-85400101D01*
X147496491Y-85406091D01*
X147466757Y-85410460D01*
X147426768Y-85413476D01*
X147372844Y-85415403D01*
X147301303Y-85416510D01*
X147208463Y-85417063D01*
X147196395Y-85417102D01*
X147098494Y-85417109D01*
X147022728Y-85416325D01*
X146965841Y-85414567D01*
X146924576Y-85411652D01*
X146895675Y-85407396D01*
X146875882Y-85401617D01*
X146869554Y-85398719D01*
X146842737Y-85379418D01*
X146827046Y-85351919D01*
X146820659Y-85310647D01*
X146820659Y-85530976D01*
X146827891Y-85533586D01*
X146898830Y-85546285D01*
X146988759Y-85553385D01*
X147100011Y-85556173D01*
X147193344Y-85556239D01*
X147276143Y-85555386D01*
X147352895Y-85553848D01*
X147419023Y-85551776D01*
X147469953Y-85549320D01*
X147501111Y-85546630D01*
X147505000Y-85545994D01*
X147541475Y-85535673D01*
X147588309Y-85518402D01*
X147620583Y-85504574D01*
X147664484Y-85481686D01*
X147692838Y-85457696D01*
X147714495Y-85424433D01*
X147720661Y-85412145D01*
X147737238Y-85372189D01*
X147744492Y-85334724D01*
X147744268Y-85287923D01*
X147742943Y-85269349D01*
X147733727Y-85206841D01*
X147714692Y-85160575D01*
X147681221Y-85123938D01*
X147628698Y-85090317D01*
X147611737Y-85081450D01*
X147536750Y-85043350D01*
X147177214Y-85039285D01*
X147065738Y-85037744D01*
X146977780Y-85035853D01*
X146911456Y-85033513D01*
X146864886Y-85030621D01*
X146836186Y-85027076D01*
X146823475Y-85022778D01*
X146822552Y-85020235D01*
X146842972Y-84998023D01*
X146887979Y-84980679D01*
X146957214Y-84968301D01*
X147037241Y-84961628D01*
X147093507Y-84957959D01*
X147139986Y-84953634D01*
X147171050Y-84949258D01*
X147180928Y-84946229D01*
X147186941Y-84928925D01*
X147190248Y-84898322D01*
X147190299Y-84896711D01*
X147181010Y-84855027D01*
X147152895Y-84828630D01*
X147117434Y-84821100D01*
X147074485Y-84823618D01*
X147018303Y-84830363D01*
X146955631Y-84840116D01*
X146893212Y-84851659D01*
X146837789Y-84863774D01*
X146796106Y-84875243D01*
X146778592Y-84882303D01*
X146736708Y-84912670D01*
X146705489Y-84952901D01*
X146684105Y-85005950D01*
X146671728Y-85074772D01*
X146667530Y-85162320D01*
G36*
X147872278Y-85325473D02*
X147873528Y-85396265D01*
X147876102Y-85458027D01*
X147880021Y-85506105D01*
X147885309Y-85535848D01*
X147888541Y-85542459D01*
X147912847Y-85554238D01*
X147946838Y-85557849D01*
X147980138Y-85553723D01*
X148002372Y-85542292D01*
X148005292Y-85537611D01*
X148007730Y-85518987D01*
X148009852Y-85479347D01*
X148011524Y-85423075D01*
X148012618Y-85354555D01*
X148013000Y-85279688D01*
X148013480Y-85189200D01*
X148015052Y-85121113D01*
X148017912Y-85072446D01*
X148022259Y-85040215D01*
X148028290Y-85021439D01*
X148030312Y-85018180D01*
X148061235Y-84994343D01*
X148110637Y-84976845D01*
X148172681Y-84965711D01*
X148241532Y-84960971D01*
X148311356Y-84962651D01*
X148376317Y-84970781D01*
X148430580Y-84985389D01*
X148468309Y-85006501D01*
X148476958Y-85016036D01*
X148483854Y-85031073D01*
X148488913Y-85055898D01*
X148492373Y-85093890D01*
X148494473Y-85148431D01*
X148495452Y-85222901D01*
X148495600Y-85280087D01*
X148495999Y-85356298D01*
X148497106Y-85424559D01*
X148498791Y-85480482D01*
X148500923Y-85519679D01*
X148503309Y-85537611D01*
X148520629Y-85551718D01*
X148551878Y-85557641D01*
X148586919Y-85555320D01*
X148615618Y-85544694D01*
X148622879Y-85538314D01*
X148629260Y-85521381D01*
X148634337Y-85486377D01*
X148638254Y-85431401D01*
X148641152Y-85354555D01*
X148642923Y-85270416D01*
X148645317Y-85168991D01*
X148648875Y-85091157D01*
X148653559Y-85037449D01*
X148659332Y-85008404D01*
X148661514Y-85004269D01*
X148691049Y-84985195D01*
X148739495Y-84971632D01*
X148800966Y-84963576D01*
X148869581Y-84961021D01*
X148939454Y-84963962D01*
X149004703Y-84972393D01*
X149059444Y-84986310D01*
X149096432Y-85004663D01*
X149104366Y-85012779D01*
X149110354Y-85025948D01*
X149114737Y-85047644D01*
X149117853Y-85081340D01*
X149120041Y-85130511D01*
X149121640Y-85198630D01*
X149122800Y-85274720D01*
X149124288Y-85352952D01*
X149126451Y-85422878D01*
X149129095Y-85480380D01*
X149132025Y-85521338D01*
X149135044Y-85541633D01*
X149135493Y-85542641D01*
X149153176Y-85552327D01*
X149185345Y-85557455D01*
X149194403Y-85557700D01*
X149232275Y-85553387D01*
X149253776Y-85538279D01*
X149258079Y-85531405D01*
X149263680Y-85506414D01*
X149267282Y-85456114D01*
X149268885Y-85380516D01*
X149268489Y-85279631D01*
X149268051Y-85248830D01*
X149266413Y-85160262D01*
X149264468Y-85093266D01*
X149261839Y-85044015D01*
X149258148Y-85008681D01*
X149253018Y-84983437D01*
X149246071Y-84964455D01*
X149238660Y-84950720D01*
X149203715Y-84908711D01*
X149153744Y-84876330D01*
X149084803Y-84851405D01*
X149037847Y-84840188D01*
X148906538Y-84821571D01*
X148785888Y-84823581D01*
X148671308Y-84846530D01*
X148605678Y-84869617D01*
X148570617Y-84881339D01*
X148546960Y-84880838D01*
X148531040Y-84873185D01*
X148472750Y-84847799D01*
X148396265Y-84830953D01*
X148307479Y-84823136D01*
X148212286Y-84824837D01*
X148116580Y-84836543D01*
X148108060Y-84838120D01*
X148028651Y-84857121D01*
X147970255Y-84881041D01*
X147928585Y-84912520D01*
X147899359Y-84954196D01*
X147891302Y-84971618D01*
X147885086Y-84998892D01*
X147880058Y-85045050D01*
X147876241Y-85105439D01*
X147873657Y-85175408D01*
X147872328Y-85250303D01*
X147872278Y-85325473D01*
X147872278Y-85325473D01*
G37*
X147872278Y-85325473D02*
X147873528Y-85396265D01*
X147876102Y-85458027D01*
X147880021Y-85506105D01*
X147885309Y-85535848D01*
X147888541Y-85542459D01*
X147912847Y-85554238D01*
X147946838Y-85557849D01*
X147980138Y-85553723D01*
X148002372Y-85542292D01*
X148005292Y-85537611D01*
X148007730Y-85518987D01*
X148009852Y-85479347D01*
X148011524Y-85423075D01*
X148012618Y-85354555D01*
X148013000Y-85279688D01*
X148013480Y-85189200D01*
X148015052Y-85121113D01*
X148017912Y-85072446D01*
X148022259Y-85040215D01*
X148028290Y-85021439D01*
X148030312Y-85018180D01*
X148061235Y-84994343D01*
X148110637Y-84976845D01*
X148172681Y-84965711D01*
X148241532Y-84960971D01*
X148311356Y-84962651D01*
X148376317Y-84970781D01*
X148430580Y-84985389D01*
X148468309Y-85006501D01*
X148476958Y-85016036D01*
X148483854Y-85031073D01*
X148488913Y-85055898D01*
X148492373Y-85093890D01*
X148494473Y-85148431D01*
X148495452Y-85222901D01*
X148495600Y-85280087D01*
X148495999Y-85356298D01*
X148497106Y-85424559D01*
X148498791Y-85480482D01*
X148500923Y-85519679D01*
X148503309Y-85537611D01*
X148520629Y-85551718D01*
X148551878Y-85557641D01*
X148586919Y-85555320D01*
X148615618Y-85544694D01*
X148622879Y-85538314D01*
X148629260Y-85521381D01*
X148634337Y-85486377D01*
X148638254Y-85431401D01*
X148641152Y-85354555D01*
X148642923Y-85270416D01*
X148645317Y-85168991D01*
X148648875Y-85091157D01*
X148653559Y-85037449D01*
X148659332Y-85008404D01*
X148661514Y-85004269D01*
X148691049Y-84985195D01*
X148739495Y-84971632D01*
X148800966Y-84963576D01*
X148869581Y-84961021D01*
X148939454Y-84963962D01*
X149004703Y-84972393D01*
X149059444Y-84986310D01*
X149096432Y-85004663D01*
X149104366Y-85012779D01*
X149110354Y-85025948D01*
X149114737Y-85047644D01*
X149117853Y-85081340D01*
X149120041Y-85130511D01*
X149121640Y-85198630D01*
X149122800Y-85274720D01*
X149124288Y-85352952D01*
X149126451Y-85422878D01*
X149129095Y-85480380D01*
X149132025Y-85521338D01*
X149135044Y-85541633D01*
X149135493Y-85542641D01*
X149153176Y-85552327D01*
X149185345Y-85557455D01*
X149194403Y-85557700D01*
X149232275Y-85553387D01*
X149253776Y-85538279D01*
X149258079Y-85531405D01*
X149263680Y-85506414D01*
X149267282Y-85456114D01*
X149268885Y-85380516D01*
X149268489Y-85279631D01*
X149268051Y-85248830D01*
X149266413Y-85160262D01*
X149264468Y-85093266D01*
X149261839Y-85044015D01*
X149258148Y-85008681D01*
X149253018Y-84983437D01*
X149246071Y-84964455D01*
X149238660Y-84950720D01*
X149203715Y-84908711D01*
X149153744Y-84876330D01*
X149084803Y-84851405D01*
X149037847Y-84840188D01*
X148906538Y-84821571D01*
X148785888Y-84823581D01*
X148671308Y-84846530D01*
X148605678Y-84869617D01*
X148570617Y-84881339D01*
X148546960Y-84880838D01*
X148531040Y-84873185D01*
X148472750Y-84847799D01*
X148396265Y-84830953D01*
X148307479Y-84823136D01*
X148212286Y-84824837D01*
X148116580Y-84836543D01*
X148108060Y-84838120D01*
X148028651Y-84857121D01*
X147970255Y-84881041D01*
X147928585Y-84912520D01*
X147899359Y-84954196D01*
X147891302Y-84971618D01*
X147885086Y-84998892D01*
X147880058Y-85045050D01*
X147876241Y-85105439D01*
X147873657Y-85175408D01*
X147872328Y-85250303D01*
X147872278Y-85325473D01*
G36*
X145524202Y-85308449D02*
X145524899Y-85386466D01*
X145526622Y-85458619D01*
X145529368Y-85519703D01*
X145533134Y-85564509D01*
X145536491Y-85583821D01*
X145565427Y-85642108D01*
X145616628Y-85688623D01*
X145678128Y-85717707D01*
X145678128Y-85151753D01*
X145680028Y-85093833D01*
X145686290Y-85053240D01*
X145698477Y-85025952D01*
X145718152Y-85007947D01*
X145746877Y-84995204D01*
X145773801Y-84987095D01*
X145808938Y-84981226D01*
X145862774Y-84976956D01*
X145930158Y-84974243D01*
X146005934Y-84973042D01*
X146084951Y-84973311D01*
X146162054Y-84975006D01*
X146232091Y-84978083D01*
X146289908Y-84982499D01*
X146330353Y-84988210D01*
X146343358Y-84991901D01*
X146387400Y-85010303D01*
X146387400Y-85180846D01*
X146387200Y-85245294D01*
X146384884Y-85296726D01*
X146377881Y-85336591D01*
X146363621Y-85366338D01*
X146339532Y-85387416D01*
X146303043Y-85401273D01*
X146251584Y-85409358D01*
X146182583Y-85413121D01*
X146093469Y-85414009D01*
X145981671Y-85413471D01*
X145974650Y-85413428D01*
X145682550Y-85411650D01*
X145679029Y-85231021D01*
X145678128Y-85151753D01*
X145678128Y-85717707D01*
X145690175Y-85723405D01*
X145786150Y-85746492D01*
X145900263Y-85757729D01*
X145962116Y-85760318D01*
X146003448Y-85760808D01*
X146029093Y-85758586D01*
X146043888Y-85753042D01*
X146052666Y-85743563D01*
X146055838Y-85738046D01*
X146070625Y-85693971D01*
X146062881Y-85661059D01*
X146033476Y-85640608D01*
X145985729Y-85633900D01*
X145940446Y-85631899D01*
X145885217Y-85626596D01*
X145827291Y-85619038D01*
X145773919Y-85610272D01*
X145732349Y-85601344D01*
X145711466Y-85594283D01*
X145693965Y-85582904D01*
X145690330Y-85574054D01*
X145702461Y-85567446D01*
X145732256Y-85562794D01*
X145781613Y-85559809D01*
X145852433Y-85558208D01*
X145946613Y-85557701D01*
X145953867Y-85557700D01*
X146064029Y-85557061D01*
X146152857Y-85554820D01*
X146224392Y-85550489D01*
X146282676Y-85543579D01*
X146331751Y-85533604D01*
X146375656Y-85520075D01*
X146418435Y-85502505D01*
X146421063Y-85501308D01*
X146462048Y-85480567D01*
X146492404Y-85458509D01*
X146513702Y-85431071D01*
X146527515Y-85394190D01*
X146535412Y-85343803D01*
X146538967Y-85275846D01*
X146539753Y-85194453D01*
X146539512Y-85119799D01*
X146538364Y-85065834D01*
X146535735Y-85027850D01*
X146531051Y-85001137D01*
X146523738Y-84980987D01*
X146513224Y-84962691D01*
X146511127Y-84959503D01*
X146468512Y-84915995D01*
X146403726Y-84880925D01*
X146316002Y-84853954D01*
X146238071Y-84839340D01*
X146080358Y-84823521D01*
X145932667Y-84825726D01*
X145815900Y-84840573D01*
X145717778Y-84862877D01*
X145642385Y-84891849D01*
X145587627Y-84928778D01*
X145551410Y-84974951D01*
X145536197Y-85012657D01*
X145531725Y-85041886D01*
X145528292Y-85091287D01*
X145525896Y-85155652D01*
X145524534Y-85229775D01*
X145524202Y-85308449D01*
X145524202Y-85308449D01*
G37*
X145524202Y-85308449D02*
X145524899Y-85386466D01*
X145526622Y-85458619D01*
X145529368Y-85519703D01*
X145533134Y-85564509D01*
X145536491Y-85583821D01*
X145565427Y-85642108D01*
X145616628Y-85688623D01*
X145678128Y-85717707D01*
X145678128Y-85151753D01*
X145680028Y-85093833D01*
X145686290Y-85053240D01*
X145698477Y-85025952D01*
X145718152Y-85007947D01*
X145746877Y-84995204D01*
X145773801Y-84987095D01*
X145808938Y-84981226D01*
X145862774Y-84976956D01*
X145930158Y-84974243D01*
X146005934Y-84973042D01*
X146084951Y-84973311D01*
X146162054Y-84975006D01*
X146232091Y-84978083D01*
X146289908Y-84982499D01*
X146330353Y-84988210D01*
X146343358Y-84991901D01*
X146387400Y-85010303D01*
X146387400Y-85180846D01*
X146387200Y-85245294D01*
X146384884Y-85296726D01*
X146377881Y-85336591D01*
X146363621Y-85366338D01*
X146339532Y-85387416D01*
X146303043Y-85401273D01*
X146251584Y-85409358D01*
X146182583Y-85413121D01*
X146093469Y-85414009D01*
X145981671Y-85413471D01*
X145974650Y-85413428D01*
X145682550Y-85411650D01*
X145679029Y-85231021D01*
X145678128Y-85151753D01*
X145678128Y-85717707D01*
X145690175Y-85723405D01*
X145786150Y-85746492D01*
X145900263Y-85757729D01*
X145962116Y-85760318D01*
X146003448Y-85760808D01*
X146029093Y-85758586D01*
X146043888Y-85753042D01*
X146052666Y-85743563D01*
X146055838Y-85738046D01*
X146070625Y-85693971D01*
X146062881Y-85661059D01*
X146033476Y-85640608D01*
X145985729Y-85633900D01*
X145940446Y-85631899D01*
X145885217Y-85626596D01*
X145827291Y-85619038D01*
X145773919Y-85610272D01*
X145732349Y-85601344D01*
X145711466Y-85594283D01*
X145693965Y-85582904D01*
X145690330Y-85574054D01*
X145702461Y-85567446D01*
X145732256Y-85562794D01*
X145781613Y-85559809D01*
X145852433Y-85558208D01*
X145946613Y-85557701D01*
X145953867Y-85557700D01*
X146064029Y-85557061D01*
X146152857Y-85554820D01*
X146224392Y-85550489D01*
X146282676Y-85543579D01*
X146331751Y-85533604D01*
X146375656Y-85520075D01*
X146418435Y-85502505D01*
X146421063Y-85501308D01*
X146462048Y-85480567D01*
X146492404Y-85458509D01*
X146513702Y-85431071D01*
X146527515Y-85394190D01*
X146535412Y-85343803D01*
X146538967Y-85275846D01*
X146539753Y-85194453D01*
X146539512Y-85119799D01*
X146538364Y-85065834D01*
X146535735Y-85027850D01*
X146531051Y-85001137D01*
X146523738Y-84980987D01*
X146513224Y-84962691D01*
X146511127Y-84959503D01*
X146468512Y-84915995D01*
X146403726Y-84880925D01*
X146316002Y-84853954D01*
X146238071Y-84839340D01*
X146080358Y-84823521D01*
X145932667Y-84825726D01*
X145815900Y-84840573D01*
X145717778Y-84862877D01*
X145642385Y-84891849D01*
X145587627Y-84928778D01*
X145551410Y-84974951D01*
X145536197Y-85012657D01*
X145531725Y-85041886D01*
X145528292Y-85091287D01*
X145525896Y-85155652D01*
X145524534Y-85229775D01*
X145524202Y-85308449D01*
G04 #@! TD*
M02*
