G04 #@! TF.GenerationSoftware,KiCad,Pcbnew,5.0.2-bee76a0~70~ubuntu16.04.1*
G04 #@! TF.CreationDate,2019-03-06T23:45:18+01:00*
G04 #@! TF.ProjectId,24VDC_to_USB_voltage_converter,32345644-435f-4746-9f5f-5553425f766f,rev?*
G04 #@! TF.SameCoordinates,Original*
G04 #@! TF.FileFunction,Legend,Top*
G04 #@! TF.FilePolarity,Positive*
%FSLAX46Y46*%
G04 Gerber Fmt 4.6, Leading zero omitted, Abs format (unit mm)*
G04 Created by KiCad (PCBNEW 5.0.2-bee76a0~70~ubuntu16.04.1) date Wed 06 Mar 2019 11:45:18 PM CET*
%MOMM*%
%LPD*%
G01*
G04 APERTURE LIST*
%ADD10C,0.250000*%
%ADD11C,0.200000*%
%ADD12C,0.300000*%
%ADD13C,0.500000*%
%ADD14C,0.120000*%
%ADD15C,0.100000*%
%ADD16C,0.150000*%
G04 APERTURE END LIST*
D10*
X57966666Y-44052380D02*
X58300000Y-45052380D01*
X58633333Y-44052380D01*
X59300000Y-44528571D02*
X59442857Y-44576190D01*
X59490476Y-44623809D01*
X59538095Y-44719047D01*
X59538095Y-44861904D01*
X59490476Y-44957142D01*
X59442857Y-45004761D01*
X59347619Y-45052380D01*
X58966666Y-45052380D01*
X58966666Y-44052380D01*
X59300000Y-44052380D01*
X59395238Y-44100000D01*
X59442857Y-44147619D01*
X59490476Y-44242857D01*
X59490476Y-44338095D01*
X59442857Y-44433333D01*
X59395238Y-44480952D01*
X59300000Y-44528571D01*
X58966666Y-44528571D01*
X59966666Y-44052380D02*
X59966666Y-44861904D01*
X60014285Y-44957142D01*
X60061904Y-45004761D01*
X60157142Y-45052380D01*
X60347619Y-45052380D01*
X60442857Y-45004761D01*
X60490476Y-44957142D01*
X60538095Y-44861904D01*
X60538095Y-44052380D01*
X60966666Y-45004761D02*
X61109523Y-45052380D01*
X61347619Y-45052380D01*
X61442857Y-45004761D01*
X61490476Y-44957142D01*
X61538095Y-44861904D01*
X61538095Y-44766666D01*
X61490476Y-44671428D01*
X61442857Y-44623809D01*
X61347619Y-44576190D01*
X61157142Y-44528571D01*
X61061904Y-44480952D01*
X61014285Y-44433333D01*
X60966666Y-44338095D01*
X60966666Y-44242857D01*
X61014285Y-44147619D01*
X61061904Y-44100000D01*
X61157142Y-44052380D01*
X61395238Y-44052380D01*
X61538095Y-44100000D01*
X49642857Y-43328571D02*
X49309523Y-43328571D01*
X49309523Y-43852380D02*
X49309523Y-42852380D01*
X49785714Y-42852380D01*
X50500000Y-43328571D02*
X50642857Y-43376190D01*
X50690476Y-43423809D01*
X50738095Y-43519047D01*
X50738095Y-43661904D01*
X50690476Y-43757142D01*
X50642857Y-43804761D01*
X50547619Y-43852380D01*
X50166666Y-43852380D01*
X50166666Y-42852380D01*
X50500000Y-42852380D01*
X50595238Y-42900000D01*
X50642857Y-42947619D01*
X50690476Y-43042857D01*
X50690476Y-43138095D01*
X50642857Y-43233333D01*
X50595238Y-43280952D01*
X50500000Y-43328571D01*
X50166666Y-43328571D01*
X54542857Y-31004761D02*
X54685714Y-31052380D01*
X54923809Y-31052380D01*
X55019047Y-31004761D01*
X55066666Y-30957142D01*
X55114285Y-30861904D01*
X55114285Y-30766666D01*
X55066666Y-30671428D01*
X55019047Y-30623809D01*
X54923809Y-30576190D01*
X54733333Y-30528571D01*
X54638095Y-30480952D01*
X54590476Y-30433333D01*
X54542857Y-30338095D01*
X54542857Y-30242857D01*
X54590476Y-30147619D01*
X54638095Y-30100000D01*
X54733333Y-30052380D01*
X54971428Y-30052380D01*
X55114285Y-30100000D01*
X55447619Y-30052380D02*
X55685714Y-31052380D01*
X55876190Y-30338095D01*
X56066666Y-31052380D01*
X56304761Y-30052380D01*
D11*
X56200000Y-34600000D02*
G75*
G03X56200000Y-34600000I-250000J0D01*
G01*
X56303553Y-34600000D02*
G75*
G03X56303553Y-34600000I-353553J0D01*
G01*
X46700000Y-41100000D02*
G75*
G03X46700000Y-41100000I-250000J0D01*
G01*
X46803553Y-41100000D02*
G75*
G03X46803553Y-41100000I-353553J0D01*
G01*
D12*
X35745238Y-48878571D02*
X35992857Y-48878571D01*
X36116666Y-48807142D01*
X36178571Y-48735714D01*
X36302380Y-48521428D01*
X36364285Y-48235714D01*
X36364285Y-47664285D01*
X36302380Y-47521428D01*
X36240476Y-47450000D01*
X36116666Y-47378571D01*
X35869047Y-47378571D01*
X35745238Y-47450000D01*
X35683333Y-47521428D01*
X35621428Y-47664285D01*
X35621428Y-48021428D01*
X35683333Y-48164285D01*
X35745238Y-48235714D01*
X35869047Y-48307142D01*
X36116666Y-48307142D01*
X36240476Y-48235714D01*
X36302380Y-48164285D01*
X36364285Y-48021428D01*
X36921428Y-48307142D02*
X37911904Y-48307142D01*
X38469047Y-47521428D02*
X38530952Y-47450000D01*
X38654761Y-47378571D01*
X38964285Y-47378571D01*
X39088095Y-47450000D01*
X39150000Y-47521428D01*
X39211904Y-47664285D01*
X39211904Y-47807142D01*
X39150000Y-48021428D01*
X38407142Y-48878571D01*
X39211904Y-48878571D01*
X39954761Y-48021428D02*
X39830952Y-47950000D01*
X39769047Y-47878571D01*
X39707142Y-47735714D01*
X39707142Y-47664285D01*
X39769047Y-47521428D01*
X39830952Y-47450000D01*
X39954761Y-47378571D01*
X40202380Y-47378571D01*
X40326190Y-47450000D01*
X40388095Y-47521428D01*
X40450000Y-47664285D01*
X40450000Y-47735714D01*
X40388095Y-47878571D01*
X40326190Y-47950000D01*
X40202380Y-48021428D01*
X39954761Y-48021428D01*
X39830952Y-48092857D01*
X39769047Y-48164285D01*
X39707142Y-48307142D01*
X39707142Y-48592857D01*
X39769047Y-48735714D01*
X39830952Y-48807142D01*
X39954761Y-48878571D01*
X40202380Y-48878571D01*
X40326190Y-48807142D01*
X40388095Y-48735714D01*
X40450000Y-48592857D01*
X40450000Y-48307142D01*
X40388095Y-48164285D01*
X40326190Y-48092857D01*
X40202380Y-48021428D01*
X40821428Y-47378571D02*
X41254761Y-48878571D01*
X41688095Y-47378571D01*
X42121428Y-48878571D02*
X42121428Y-47378571D01*
X42430952Y-47378571D01*
X42616666Y-47450000D01*
X42740476Y-47592857D01*
X42802380Y-47735714D01*
X42864285Y-48021428D01*
X42864285Y-48235714D01*
X42802380Y-48521428D01*
X42740476Y-48664285D01*
X42616666Y-48807142D01*
X42430952Y-48878571D01*
X42121428Y-48878571D01*
X44164285Y-48735714D02*
X44102380Y-48807142D01*
X43916666Y-48878571D01*
X43792857Y-48878571D01*
X43607142Y-48807142D01*
X43483333Y-48664285D01*
X43421428Y-48521428D01*
X43359523Y-48235714D01*
X43359523Y-48021428D01*
X43421428Y-47735714D01*
X43483333Y-47592857D01*
X43607142Y-47450000D01*
X43792857Y-47378571D01*
X43916666Y-47378571D01*
X44102380Y-47450000D01*
X44164285Y-47521428D01*
X45959523Y-47378571D02*
X46083333Y-47378571D01*
X46207142Y-47450000D01*
X46269047Y-47521428D01*
X46330952Y-47664285D01*
X46392857Y-47950000D01*
X46392857Y-48307142D01*
X46330952Y-48592857D01*
X46269047Y-48735714D01*
X46207142Y-48807142D01*
X46083333Y-48878571D01*
X45959523Y-48878571D01*
X45835714Y-48807142D01*
X45773809Y-48735714D01*
X45711904Y-48592857D01*
X45650000Y-48307142D01*
X45650000Y-47950000D01*
X45711904Y-47664285D01*
X45773809Y-47521428D01*
X45835714Y-47450000D01*
X45959523Y-47378571D01*
X46950000Y-48735714D02*
X47011904Y-48807142D01*
X46950000Y-48878571D01*
X46888095Y-48807142D01*
X46950000Y-48735714D01*
X46950000Y-48878571D01*
X47754761Y-48021428D02*
X47630952Y-47950000D01*
X47569047Y-47878571D01*
X47507142Y-47735714D01*
X47507142Y-47664285D01*
X47569047Y-47521428D01*
X47630952Y-47450000D01*
X47754761Y-47378571D01*
X48002380Y-47378571D01*
X48126190Y-47450000D01*
X48188095Y-47521428D01*
X48250000Y-47664285D01*
X48250000Y-47735714D01*
X48188095Y-47878571D01*
X48126190Y-47950000D01*
X48002380Y-48021428D01*
X47754761Y-48021428D01*
X47630952Y-48092857D01*
X47569047Y-48164285D01*
X47507142Y-48307142D01*
X47507142Y-48592857D01*
X47569047Y-48735714D01*
X47630952Y-48807142D01*
X47754761Y-48878571D01*
X48002380Y-48878571D01*
X48126190Y-48807142D01*
X48188095Y-48735714D01*
X48250000Y-48592857D01*
X48250000Y-48307142D01*
X48188095Y-48164285D01*
X48126190Y-48092857D01*
X48002380Y-48021428D01*
X48745238Y-48450000D02*
X49364285Y-48450000D01*
X48621428Y-48878571D02*
X49054761Y-47378571D01*
X49488095Y-48878571D01*
X50911904Y-48878571D02*
X50911904Y-47878571D01*
X50911904Y-47378571D02*
X50850000Y-47450000D01*
X50911904Y-47521428D01*
X50973809Y-47450000D01*
X50911904Y-47378571D01*
X50911904Y-47521428D01*
X51530952Y-47878571D02*
X51530952Y-48878571D01*
X51530952Y-48021428D02*
X51592857Y-47950000D01*
X51716666Y-47878571D01*
X51902380Y-47878571D01*
X52026190Y-47950000D01*
X52088095Y-48092857D01*
X52088095Y-48878571D01*
X52707142Y-47878571D02*
X52707142Y-49378571D01*
X52707142Y-47950000D02*
X52830952Y-47878571D01*
X53078571Y-47878571D01*
X53202380Y-47950000D01*
X53264285Y-48021428D01*
X53326190Y-48164285D01*
X53326190Y-48592857D01*
X53264285Y-48735714D01*
X53202380Y-48807142D01*
X53078571Y-48878571D01*
X52830952Y-48878571D01*
X52707142Y-48807142D01*
X54440476Y-47878571D02*
X54440476Y-48878571D01*
X53883333Y-47878571D02*
X53883333Y-48664285D01*
X53945238Y-48807142D01*
X54069047Y-48878571D01*
X54254761Y-48878571D01*
X54378571Y-48807142D01*
X54440476Y-48735714D01*
X54873809Y-47878571D02*
X55369047Y-47878571D01*
X55059523Y-47378571D02*
X55059523Y-48664285D01*
X55121428Y-48807142D01*
X55245238Y-48878571D01*
X55369047Y-48878571D01*
X57721428Y-47307142D02*
X56607142Y-49235714D01*
X59330952Y-48878571D02*
X59207142Y-48807142D01*
X59145238Y-48735714D01*
X59083333Y-48592857D01*
X59083333Y-48164285D01*
X59145238Y-48021428D01*
X59207142Y-47950000D01*
X59330952Y-47878571D01*
X59516666Y-47878571D01*
X59640476Y-47950000D01*
X59702380Y-48021428D01*
X59764285Y-48164285D01*
X59764285Y-48592857D01*
X59702380Y-48735714D01*
X59640476Y-48807142D01*
X59516666Y-48878571D01*
X59330952Y-48878571D01*
X60878571Y-47878571D02*
X60878571Y-48878571D01*
X60321428Y-47878571D02*
X60321428Y-48664285D01*
X60383333Y-48807142D01*
X60507142Y-48878571D01*
X60692857Y-48878571D01*
X60816666Y-48807142D01*
X60878571Y-48735714D01*
X61311904Y-47878571D02*
X61807142Y-47878571D01*
X61497619Y-47378571D02*
X61497619Y-48664285D01*
X61559523Y-48807142D01*
X61683333Y-48878571D01*
X61807142Y-48878571D01*
X62240476Y-47878571D02*
X62240476Y-49378571D01*
X62240476Y-47950000D02*
X62364285Y-47878571D01*
X62611904Y-47878571D01*
X62735714Y-47950000D01*
X62797619Y-48021428D01*
X62859523Y-48164285D01*
X62859523Y-48592857D01*
X62797619Y-48735714D01*
X62735714Y-48807142D01*
X62611904Y-48878571D01*
X62364285Y-48878571D01*
X62240476Y-48807142D01*
X63973809Y-47878571D02*
X63973809Y-48878571D01*
X63416666Y-47878571D02*
X63416666Y-48664285D01*
X63478571Y-48807142D01*
X63602380Y-48878571D01*
X63788095Y-48878571D01*
X63911904Y-48807142D01*
X63973809Y-48735714D01*
X64407142Y-47878571D02*
X64902380Y-47878571D01*
X64592857Y-47378571D02*
X64592857Y-48664285D01*
X64654761Y-48807142D01*
X64778571Y-48878571D01*
X64902380Y-48878571D01*
X66945238Y-47378571D02*
X66326190Y-47378571D01*
X66264285Y-48092857D01*
X66326190Y-48021428D01*
X66450000Y-47950000D01*
X66759523Y-47950000D01*
X66883333Y-48021428D01*
X66945238Y-48092857D01*
X67007142Y-48235714D01*
X67007142Y-48592857D01*
X66945238Y-48735714D01*
X66883333Y-48807142D01*
X66759523Y-48878571D01*
X66450000Y-48878571D01*
X66326190Y-48807142D01*
X66264285Y-48735714D01*
X67564285Y-48735714D02*
X67626190Y-48807142D01*
X67564285Y-48878571D01*
X67502380Y-48807142D01*
X67564285Y-48735714D01*
X67564285Y-48878571D01*
X68430952Y-47378571D02*
X68554761Y-47378571D01*
X68678571Y-47450000D01*
X68740476Y-47521428D01*
X68802380Y-47664285D01*
X68864285Y-47950000D01*
X68864285Y-48307142D01*
X68802380Y-48592857D01*
X68740476Y-48735714D01*
X68678571Y-48807142D01*
X68554761Y-48878571D01*
X68430952Y-48878571D01*
X68307142Y-48807142D01*
X68245238Y-48735714D01*
X68183333Y-48592857D01*
X68121428Y-48307142D01*
X68121428Y-47950000D01*
X68183333Y-47664285D01*
X68245238Y-47521428D01*
X68307142Y-47450000D01*
X68430952Y-47378571D01*
X69235714Y-47378571D02*
X69669047Y-48878571D01*
X70102380Y-47378571D01*
X72207142Y-48878571D02*
X71464285Y-48878571D01*
X71835714Y-48878571D02*
X71835714Y-47378571D01*
X71711904Y-47592857D01*
X71588095Y-47735714D01*
X71464285Y-47807142D01*
X72764285Y-48735714D02*
X72826190Y-48807142D01*
X72764285Y-48878571D01*
X72702380Y-48807142D01*
X72764285Y-48735714D01*
X72764285Y-48878571D01*
X73630952Y-47378571D02*
X73754761Y-47378571D01*
X73878571Y-47450000D01*
X73940476Y-47521428D01*
X74002380Y-47664285D01*
X74064285Y-47950000D01*
X74064285Y-48307142D01*
X74002380Y-48592857D01*
X73940476Y-48735714D01*
X73878571Y-48807142D01*
X73754761Y-48878571D01*
X73630952Y-48878571D01*
X73507142Y-48807142D01*
X73445238Y-48735714D01*
X73383333Y-48592857D01*
X73321428Y-48307142D01*
X73321428Y-47950000D01*
X73383333Y-47664285D01*
X73445238Y-47521428D01*
X73507142Y-47450000D01*
X73630952Y-47378571D01*
X74559523Y-48450000D02*
X75178571Y-48450000D01*
X74435714Y-48878571D02*
X74869047Y-47378571D01*
X75302380Y-48878571D01*
X28119047Y-39195238D02*
X28214285Y-39100000D01*
X28404761Y-39004761D01*
X28880952Y-39004761D01*
X29071428Y-39100000D01*
X29166666Y-39195238D01*
X29261904Y-39385714D01*
X29261904Y-39576190D01*
X29166666Y-39861904D01*
X28023809Y-41004761D01*
X29261904Y-41004761D01*
X30404761Y-39861904D02*
X30214285Y-39766666D01*
X30119047Y-39671428D01*
X30023809Y-39480952D01*
X30023809Y-39385714D01*
X30119047Y-39195238D01*
X30214285Y-39100000D01*
X30404761Y-39004761D01*
X30785714Y-39004761D01*
X30976190Y-39100000D01*
X31071428Y-39195238D01*
X31166666Y-39385714D01*
X31166666Y-39480952D01*
X31071428Y-39671428D01*
X30976190Y-39766666D01*
X30785714Y-39861904D01*
X30404761Y-39861904D01*
X30214285Y-39957142D01*
X30119047Y-40052380D01*
X30023809Y-40242857D01*
X30023809Y-40623809D01*
X30119047Y-40814285D01*
X30214285Y-40909523D01*
X30404761Y-41004761D01*
X30785714Y-41004761D01*
X30976190Y-40909523D01*
X31071428Y-40814285D01*
X31166666Y-40623809D01*
X31166666Y-40242857D01*
X31071428Y-40052380D01*
X30976190Y-39957142D01*
X30785714Y-39861904D01*
X31738095Y-39004761D02*
X32404761Y-41004761D01*
X33071428Y-39004761D01*
X33738095Y-41004761D02*
X33738095Y-39004761D01*
X34214285Y-39004761D01*
X34500000Y-39100000D01*
X34690476Y-39290476D01*
X34785714Y-39480952D01*
X34880952Y-39861904D01*
X34880952Y-40147619D01*
X34785714Y-40528571D01*
X34690476Y-40719047D01*
X34500000Y-40909523D01*
X34214285Y-41004761D01*
X33738095Y-41004761D01*
X36880952Y-40814285D02*
X36785714Y-40909523D01*
X36500000Y-41004761D01*
X36309523Y-41004761D01*
X36023809Y-40909523D01*
X35833333Y-40719047D01*
X35738095Y-40528571D01*
X35642857Y-40147619D01*
X35642857Y-39861904D01*
X35738095Y-39480952D01*
X35833333Y-39290476D01*
X36023809Y-39100000D01*
X36309523Y-39004761D01*
X36500000Y-39004761D01*
X36785714Y-39100000D01*
X36880952Y-39195238D01*
D13*
X24600000Y-34800000D02*
X26600000Y-34800000D01*
X27308801Y-34800000D02*
G75*
G03X27308801Y-34800000I-1708801J0D01*
G01*
X25600000Y-41000000D02*
X25600000Y-39000000D01*
X27308801Y-40000000D02*
G75*
G03X27308801Y-40000000I-1708801J0D01*
G01*
X24600000Y-40000000D02*
X26600000Y-40000000D01*
D12*
X30532142Y-26932142D02*
X30746428Y-27003571D01*
X31103571Y-27003571D01*
X31246428Y-26932142D01*
X31317857Y-26860714D01*
X31389285Y-26717857D01*
X31389285Y-26575000D01*
X31317857Y-26432142D01*
X31246428Y-26360714D01*
X31103571Y-26289285D01*
X30817857Y-26217857D01*
X30674999Y-26146428D01*
X30603571Y-26075000D01*
X30532142Y-25932142D01*
X30532142Y-25789285D01*
X30603571Y-25646428D01*
X30674999Y-25575000D01*
X30817857Y-25503571D01*
X31174999Y-25503571D01*
X31389285Y-25575000D01*
X32032142Y-27003571D02*
X32032142Y-26003571D01*
X32032142Y-26146428D02*
X32103571Y-26075000D01*
X32246428Y-26003571D01*
X32460714Y-26003571D01*
X32603571Y-26075000D01*
X32674999Y-26217857D01*
X32674999Y-27003571D01*
X32674999Y-26217857D02*
X32746428Y-26075000D01*
X32889285Y-26003571D01*
X33103571Y-26003571D01*
X33246428Y-26075000D01*
X33317857Y-26217857D01*
X33317857Y-27003571D01*
X34674999Y-27003571D02*
X34674999Y-26217857D01*
X34603571Y-26075000D01*
X34460714Y-26003571D01*
X34174999Y-26003571D01*
X34032142Y-26075000D01*
X34674999Y-26932142D02*
X34532142Y-27003571D01*
X34174999Y-27003571D01*
X34032142Y-26932142D01*
X33960714Y-26789285D01*
X33960714Y-26646428D01*
X34032142Y-26503571D01*
X34174999Y-26432142D01*
X34532142Y-26432142D01*
X34674999Y-26360714D01*
X35389285Y-27003571D02*
X35389285Y-26003571D01*
X35389285Y-26289285D02*
X35460714Y-26146428D01*
X35532142Y-26075000D01*
X35674999Y-26003571D01*
X35817857Y-26003571D01*
X36103571Y-26003571D02*
X36675000Y-26003571D01*
X36317857Y-25503571D02*
X36317857Y-26789285D01*
X36389285Y-26932142D01*
X36532142Y-27003571D01*
X36675000Y-27003571D01*
X38317857Y-27003571D02*
X38317857Y-25503571D01*
X39175000Y-27003571D01*
X39175000Y-25503571D01*
X40532142Y-27003571D02*
X40532142Y-26217857D01*
X40460714Y-26075000D01*
X40317857Y-26003571D01*
X40032142Y-26003571D01*
X39889285Y-26075000D01*
X40532142Y-26932142D02*
X40389285Y-27003571D01*
X40032142Y-27003571D01*
X39889285Y-26932142D01*
X39817857Y-26789285D01*
X39817857Y-26646428D01*
X39889285Y-26503571D01*
X40032142Y-26432142D01*
X40389285Y-26432142D01*
X40532142Y-26360714D01*
X41103571Y-26003571D02*
X41460714Y-27003571D01*
X41817857Y-26003571D01*
X42389285Y-27003571D02*
X42389285Y-26003571D01*
X42389285Y-25503571D02*
X42317857Y-25575000D01*
X42389285Y-25646428D01*
X42460714Y-25575000D01*
X42389285Y-25503571D01*
X42389285Y-25646428D01*
X43746428Y-26003571D02*
X43746428Y-27217857D01*
X43674999Y-27360714D01*
X43603571Y-27432142D01*
X43460714Y-27503571D01*
X43246428Y-27503571D01*
X43103571Y-27432142D01*
X43746428Y-26932142D02*
X43603571Y-27003571D01*
X43317857Y-27003571D01*
X43174999Y-26932142D01*
X43103571Y-26860714D01*
X43032142Y-26717857D01*
X43032142Y-26289285D01*
X43103571Y-26146428D01*
X43174999Y-26075000D01*
X43317857Y-26003571D01*
X43603571Y-26003571D01*
X43746428Y-26075000D01*
X45103571Y-27003571D02*
X45103571Y-26217857D01*
X45032142Y-26075000D01*
X44889285Y-26003571D01*
X44603571Y-26003571D01*
X44460714Y-26075000D01*
X45103571Y-26932142D02*
X44960714Y-27003571D01*
X44603571Y-27003571D01*
X44460714Y-26932142D01*
X44389285Y-26789285D01*
X44389285Y-26646428D01*
X44460714Y-26503571D01*
X44603571Y-26432142D01*
X44960714Y-26432142D01*
X45103571Y-26360714D01*
X45603571Y-26003571D02*
X46174999Y-26003571D01*
X45817857Y-25503571D02*
X45817857Y-26789285D01*
X45889285Y-26932142D01*
X46032142Y-27003571D01*
X46174999Y-27003571D01*
X46674999Y-27003571D02*
X46674999Y-26003571D01*
X46674999Y-25503571D02*
X46603571Y-25575000D01*
X46674999Y-25646428D01*
X46746428Y-25575000D01*
X46674999Y-25503571D01*
X46674999Y-25646428D01*
X47603571Y-27003571D02*
X47460714Y-26932142D01*
X47389285Y-26860714D01*
X47317857Y-26717857D01*
X47317857Y-26289285D01*
X47389285Y-26146428D01*
X47460714Y-26075000D01*
X47603571Y-26003571D01*
X47817857Y-26003571D01*
X47960714Y-26075000D01*
X48032142Y-26146428D01*
X48103571Y-26289285D01*
X48103571Y-26717857D01*
X48032142Y-26860714D01*
X47960714Y-26932142D01*
X47817857Y-27003571D01*
X47603571Y-27003571D01*
X48746428Y-26003571D02*
X48746428Y-27003571D01*
X48746428Y-26146428D02*
X48817857Y-26075000D01*
X48960714Y-26003571D01*
X49174999Y-26003571D01*
X49317857Y-26075000D01*
X49389285Y-26217857D01*
X49389285Y-27003571D01*
X51174999Y-26932142D02*
X51389285Y-27003571D01*
X51746428Y-27003571D01*
X51889285Y-26932142D01*
X51960714Y-26860714D01*
X52032142Y-26717857D01*
X52032142Y-26575000D01*
X51960714Y-26432142D01*
X51889285Y-26360714D01*
X51746428Y-26289285D01*
X51460714Y-26217857D01*
X51317857Y-26146428D01*
X51246428Y-26075000D01*
X51174999Y-25932142D01*
X51174999Y-25789285D01*
X51246428Y-25646428D01*
X51317857Y-25575000D01*
X51460714Y-25503571D01*
X51817857Y-25503571D01*
X52032142Y-25575000D01*
X52532142Y-26003571D02*
X52889285Y-27003571D01*
X53246428Y-26003571D02*
X52889285Y-27003571D01*
X52746428Y-27360714D01*
X52674999Y-27432142D01*
X52532142Y-27503571D01*
X53746428Y-26932142D02*
X53889285Y-27003571D01*
X54174999Y-27003571D01*
X54317857Y-26932142D01*
X54389285Y-26789285D01*
X54389285Y-26717857D01*
X54317857Y-26575000D01*
X54174999Y-26503571D01*
X53960714Y-26503571D01*
X53817857Y-26432142D01*
X53746428Y-26289285D01*
X53746428Y-26217857D01*
X53817857Y-26075000D01*
X53960714Y-26003571D01*
X54174999Y-26003571D01*
X54317857Y-26075000D01*
X54817857Y-26003571D02*
X55389285Y-26003571D01*
X55032142Y-25503571D02*
X55032142Y-26789285D01*
X55103571Y-26932142D01*
X55246428Y-27003571D01*
X55389285Y-27003571D01*
X56460714Y-26932142D02*
X56317857Y-27003571D01*
X56032142Y-27003571D01*
X55889285Y-26932142D01*
X55817857Y-26789285D01*
X55817857Y-26217857D01*
X55889285Y-26075000D01*
X56032142Y-26003571D01*
X56317857Y-26003571D01*
X56460714Y-26075000D01*
X56532142Y-26217857D01*
X56532142Y-26360714D01*
X55817857Y-26503571D01*
X57174999Y-27003571D02*
X57174999Y-26003571D01*
X57174999Y-26146428D02*
X57246428Y-26075000D01*
X57389285Y-26003571D01*
X57603571Y-26003571D01*
X57746428Y-26075000D01*
X57817857Y-26217857D01*
X57817857Y-27003571D01*
X57817857Y-26217857D02*
X57889285Y-26075000D01*
X58032142Y-26003571D01*
X58246428Y-26003571D01*
X58389285Y-26075000D01*
X58460714Y-26217857D01*
X58460714Y-27003571D01*
X59103571Y-26932142D02*
X59246428Y-27003571D01*
X59532142Y-27003571D01*
X59674999Y-26932142D01*
X59746428Y-26789285D01*
X59746428Y-26717857D01*
X59674999Y-26575000D01*
X59532142Y-26503571D01*
X59317857Y-26503571D01*
X59174999Y-26432142D01*
X59103571Y-26289285D01*
X59103571Y-26217857D01*
X59174999Y-26075000D01*
X59317857Y-26003571D01*
X59532142Y-26003571D01*
X59674999Y-26075000D01*
X62174999Y-27003571D02*
X62174999Y-25503571D01*
X62174999Y-26932142D02*
X62032142Y-27003571D01*
X61746428Y-27003571D01*
X61603571Y-26932142D01*
X61532142Y-26860714D01*
X61460714Y-26717857D01*
X61460714Y-26289285D01*
X61532142Y-26146428D01*
X61603571Y-26075000D01*
X61746428Y-26003571D01*
X62032142Y-26003571D01*
X62174999Y-26075000D01*
X62889285Y-26860714D02*
X62960714Y-26932142D01*
X62889285Y-27003571D01*
X62817857Y-26932142D01*
X62889285Y-26860714D01*
X62889285Y-27003571D01*
X63817857Y-27003571D02*
X63674999Y-26932142D01*
X63603571Y-26860714D01*
X63532142Y-26717857D01*
X63532142Y-26289285D01*
X63603571Y-26146428D01*
X63674999Y-26075000D01*
X63817857Y-26003571D01*
X64032142Y-26003571D01*
X64174999Y-26075000D01*
X64246428Y-26146428D01*
X64317857Y-26289285D01*
X64317857Y-26717857D01*
X64246428Y-26860714D01*
X64174999Y-26932142D01*
X64032142Y-27003571D01*
X63817857Y-27003571D01*
X64960714Y-26860714D02*
X65032142Y-26932142D01*
X64960714Y-27003571D01*
X64889285Y-26932142D01*
X64960714Y-26860714D01*
X64960714Y-27003571D01*
X65889285Y-27003571D02*
X65746428Y-26932142D01*
X65674999Y-26860714D01*
X65603571Y-26717857D01*
X65603571Y-26289285D01*
X65674999Y-26146428D01*
X65746428Y-26075000D01*
X65889285Y-26003571D01*
X66103571Y-26003571D01*
X66246428Y-26075000D01*
X66317857Y-26146428D01*
X66389285Y-26289285D01*
X66389285Y-26717857D01*
X66317857Y-26860714D01*
X66246428Y-26932142D01*
X66103571Y-27003571D01*
X65889285Y-27003571D01*
X67103571Y-26932142D02*
X67103571Y-27003571D01*
X67032142Y-27146428D01*
X66960714Y-27217857D01*
X69746428Y-26860714D02*
X69675000Y-26932142D01*
X69460714Y-27003571D01*
X69317857Y-27003571D01*
X69103571Y-26932142D01*
X68960714Y-26789285D01*
X68889285Y-26646428D01*
X68817857Y-26360714D01*
X68817857Y-26146428D01*
X68889285Y-25860714D01*
X68960714Y-25717857D01*
X69103571Y-25575000D01*
X69317857Y-25503571D01*
X69460714Y-25503571D01*
X69675000Y-25575000D01*
X69746428Y-25646428D01*
X70389285Y-27003571D02*
X70389285Y-26003571D01*
X70389285Y-26289285D02*
X70460714Y-26146428D01*
X70532142Y-26075000D01*
X70675000Y-26003571D01*
X70817857Y-26003571D01*
X71532142Y-27003571D02*
X71389285Y-26932142D01*
X71317857Y-26860714D01*
X71246428Y-26717857D01*
X71246428Y-26289285D01*
X71317857Y-26146428D01*
X71389285Y-26075000D01*
X71532142Y-26003571D01*
X71746428Y-26003571D01*
X71889285Y-26075000D01*
X71960714Y-26146428D01*
X72032142Y-26289285D01*
X72032142Y-26717857D01*
X71960714Y-26860714D01*
X71889285Y-26932142D01*
X71746428Y-27003571D01*
X71532142Y-27003571D01*
X73317857Y-27003571D02*
X73317857Y-26217857D01*
X73246428Y-26075000D01*
X73103571Y-26003571D01*
X72817857Y-26003571D01*
X72675000Y-26075000D01*
X73317857Y-26932142D02*
X73175000Y-27003571D01*
X72817857Y-27003571D01*
X72675000Y-26932142D01*
X72603571Y-26789285D01*
X72603571Y-26646428D01*
X72675000Y-26503571D01*
X72817857Y-26432142D01*
X73175000Y-26432142D01*
X73317857Y-26360714D01*
X73817857Y-26003571D02*
X74389285Y-26003571D01*
X74032142Y-25503571D02*
X74032142Y-26789285D01*
X74103571Y-26932142D01*
X74246428Y-27003571D01*
X74389285Y-27003571D01*
X74889285Y-27003571D02*
X74889285Y-26003571D01*
X74889285Y-25503571D02*
X74817857Y-25575000D01*
X74889285Y-25646428D01*
X74960714Y-25575000D01*
X74889285Y-25503571D01*
X74889285Y-25646428D01*
X76246428Y-27003571D02*
X76246428Y-26217857D01*
X76175000Y-26075000D01*
X76032142Y-26003571D01*
X75746428Y-26003571D01*
X75603571Y-26075000D01*
X76246428Y-26932142D02*
X76103571Y-27003571D01*
X75746428Y-27003571D01*
X75603571Y-26932142D01*
X75532142Y-26789285D01*
X75532142Y-26646428D01*
X75603571Y-26503571D01*
X75746428Y-26432142D01*
X76103571Y-26432142D01*
X76246428Y-26360714D01*
D14*
G04 #@! TO.C,U1*
X56560000Y-38500000D02*
X56560000Y-35550000D01*
X53340000Y-36700000D02*
X53340000Y-38500000D01*
G04 #@! TO.C,C4*
X55440000Y-42262779D02*
X55440000Y-41937221D01*
X56460000Y-42262779D02*
X56460000Y-41937221D01*
G04 #@! TO.C,C8*
X67579587Y-32821307D02*
X67254029Y-32821307D01*
X67579587Y-33841307D02*
X67254029Y-33841307D01*
G04 #@! TO.C,C2*
X50360000Y-34452064D02*
X50360000Y-33247936D01*
X48540000Y-34452064D02*
X48540000Y-33247936D01*
G04 #@! TO.C,C3*
X51040000Y-34452064D02*
X51040000Y-33247936D01*
X52860000Y-34452064D02*
X52860000Y-33247936D01*
G04 #@! TO.C,C1*
X47860000Y-34452064D02*
X47860000Y-33247936D01*
X46040000Y-34452064D02*
X46040000Y-33247936D01*
G04 #@! TO.C,L1*
X57650000Y-35750000D02*
X57650000Y-34900000D01*
X65250000Y-35750000D02*
X65250000Y-34950000D01*
D15*
G04 #@! TO.C,J2*
X76200000Y-36550000D02*
G75*
G02X76200000Y-36050000I0J250000D01*
G01*
X76200000Y-33550000D02*
G75*
G02X76200000Y-33050000I0J250000D01*
G01*
X76200000Y-39050000D02*
G75*
G02X76200000Y-38550000I0J250000D01*
G01*
X76200000Y-42050000D02*
G75*
G02X76200000Y-41550000I0J250000D01*
G01*
X80700000Y-34550000D02*
X76200000Y-33550000D01*
X80700000Y-35050000D02*
X80700000Y-34550000D01*
X76200000Y-36050000D02*
X80700000Y-35050000D01*
X80700000Y-40050000D02*
X76200000Y-39050000D01*
X80700000Y-40550000D02*
X80700000Y-40050000D01*
X76200000Y-41550000D02*
X80700000Y-40550000D01*
X81200000Y-34050000D02*
X76200000Y-33050000D01*
X81200000Y-35550000D02*
X81200000Y-34050000D01*
X76200000Y-36550000D02*
X81200000Y-35550000D01*
X81200000Y-39550000D02*
X76200000Y-38550000D01*
X81200000Y-41050000D02*
X81200000Y-39550000D01*
X76200000Y-42050000D02*
X81200000Y-41050000D01*
X83200000Y-43800000D02*
X83200000Y-44800000D01*
X83200000Y-31300000D02*
X83200000Y-30300000D01*
X69200000Y-31300000D02*
X70750000Y-31300000D01*
X83200000Y-31300000D02*
X75200000Y-31300000D01*
X83200000Y-43800000D02*
X75200000Y-43800000D01*
X69200000Y-43800000D02*
X70750000Y-43800000D01*
X83200000Y-43800000D02*
X83200000Y-31300000D01*
X69200000Y-43800000D02*
X69200000Y-31300000D01*
G04 #@! TO.C,D1*
X42300000Y-36550000D02*
X42300000Y-36250000D01*
X42200000Y-36550000D02*
X42300000Y-36550000D01*
X42200000Y-36250000D02*
X42200000Y-36550000D01*
X44200000Y-36550000D02*
X42300000Y-36550000D01*
X44200000Y-36450000D02*
X44200000Y-36550000D01*
X42300000Y-36450000D02*
X44200000Y-36450000D01*
X42300000Y-36350000D02*
X42300000Y-36450000D01*
X44200000Y-36350000D02*
X42300000Y-36350000D01*
X44200000Y-36250000D02*
X44200000Y-36350000D01*
X42300000Y-36250000D02*
X44200000Y-36250000D01*
X43200000Y-32450000D02*
X43200000Y-31850000D01*
X43800000Y-32450000D02*
X43200000Y-33250000D01*
X42600000Y-32450000D02*
X43800000Y-32450000D01*
X43200000Y-33350000D02*
X42600000Y-32450000D01*
X42600000Y-33350000D02*
X43800000Y-33350000D01*
X43200000Y-33850000D02*
X43200000Y-33450000D01*
X44400000Y-30850000D02*
X44200000Y-30850000D01*
X44400000Y-34650000D02*
X44400000Y-30850000D01*
X44200000Y-34650000D02*
X44400000Y-34650000D01*
X42000000Y-34650000D02*
X42200000Y-34650000D01*
X42000000Y-30850000D02*
X42000000Y-34650000D01*
X42200000Y-30850000D02*
X42000000Y-30850000D01*
G04 #@! TO.C,F1*
X42500000Y-44350000D02*
X45100000Y-44350000D01*
X45100000Y-43850000D02*
X45100000Y-44850000D01*
X42500000Y-43850000D02*
X42500000Y-44850000D01*
X47700000Y-42450000D02*
X39900000Y-42450000D01*
X47700000Y-46250000D02*
X47700000Y-42450000D01*
X39900000Y-46250000D02*
X47700000Y-46250000D01*
X39900000Y-42450000D02*
X39900000Y-46250000D01*
G04 #@! TO.C,J1*
X39450000Y-46600000D02*
X39450000Y-42100000D01*
X39450000Y-42100000D02*
X29950000Y-42100000D01*
X29950000Y-42100000D02*
X29950000Y-46600000D01*
X29950000Y-46600000D02*
X39450000Y-46600000D01*
X29900000Y-44750000D02*
X24100000Y-44750000D01*
X24100000Y-44750000D02*
X24100000Y-43950000D01*
X24100000Y-43950000D02*
X29900000Y-43950000D01*
G04 #@! TO.C,J3*
X24100000Y-29950000D02*
X29900000Y-29950000D01*
X24100000Y-30750000D02*
X24100000Y-29950000D01*
X29900000Y-30750000D02*
X24100000Y-30750000D01*
X29950000Y-32600000D02*
X39450000Y-32600000D01*
X29950000Y-28100000D02*
X29950000Y-32600000D01*
X39450000Y-28100000D02*
X29950000Y-28100000D01*
X39450000Y-32600000D02*
X39450000Y-28100000D01*
D14*
G04 #@! TO.C,Q1*
X44050000Y-40460000D02*
X47000000Y-40460000D01*
X45850000Y-37240000D02*
X44050000Y-37240000D01*
G04 #@! TO.C,R1*
X48960000Y-38687221D02*
X48960000Y-39012779D01*
X47940000Y-38687221D02*
X47940000Y-39012779D01*
G04 #@! TO.C,R2*
X54210000Y-42262779D02*
X54210000Y-41937221D01*
X53190000Y-42262779D02*
X53190000Y-41937221D01*
G04 #@! TO.C,R3*
X52460000Y-41937221D02*
X52460000Y-42262779D01*
X51440000Y-41937221D02*
X51440000Y-42262779D01*
G04 #@! TO.C,R4*
X67579587Y-31321307D02*
X67254029Y-31321307D01*
X67579587Y-32341307D02*
X67254029Y-32341307D01*
G04 #@! TO.C,R5*
X52460000Y-38687221D02*
X52460000Y-39012779D01*
X51440000Y-38687221D02*
X51440000Y-39012779D01*
G04 #@! TO.C,R6*
X50710000Y-39012779D02*
X50710000Y-38687221D01*
X49690000Y-39012779D02*
X49690000Y-38687221D01*
G04 #@! TO.C,C7*
X61990000Y-41666421D02*
X61990000Y-42183577D01*
X63410000Y-41666421D02*
X63410000Y-42183577D01*
G04 #@! TO.C,C6*
X65660000Y-41666421D02*
X65660000Y-42183577D01*
X64240000Y-41666421D02*
X64240000Y-42183577D01*
G04 #@! TO.C,C5*
X66490000Y-41666421D02*
X66490000Y-42183577D01*
X67910000Y-41666421D02*
X67910000Y-42183577D01*
G04 #@! TO.C,TP3*
X56400000Y-32600000D02*
G75*
G03X56400000Y-32600000I-950000J0D01*
G01*
G04 #@! TO.C,TP1*
X60950000Y-42800000D02*
G75*
G03X60950000Y-42800000I-950000J0D01*
G01*
G04 #@! TO.C,TP2*
X50950000Y-41600000D02*
G75*
G03X50950000Y-41600000I-950000J0D01*
G01*
G04 #@! TO.C,U1*
D16*
X53788095Y-34052380D02*
X53788095Y-34861904D01*
X53835714Y-34957142D01*
X53883333Y-35004761D01*
X53978571Y-35052380D01*
X54169047Y-35052380D01*
X54264285Y-35004761D01*
X54311904Y-34957142D01*
X54359523Y-34861904D01*
X54359523Y-34052380D01*
X55359523Y-35052380D02*
X54788095Y-35052380D01*
X55073809Y-35052380D02*
X55073809Y-34052380D01*
X54978571Y-34195238D01*
X54883333Y-34290476D01*
X54788095Y-34338095D01*
G04 #@! TO.C,C4*
X56307142Y-44766666D02*
X56354761Y-44814285D01*
X56402380Y-44957142D01*
X56402380Y-45052380D01*
X56354761Y-45195238D01*
X56259523Y-45290476D01*
X56164285Y-45338095D01*
X55973809Y-45385714D01*
X55830952Y-45385714D01*
X55640476Y-45338095D01*
X55545238Y-45290476D01*
X55450000Y-45195238D01*
X55402380Y-45052380D01*
X55402380Y-44957142D01*
X55450000Y-44814285D01*
X55497619Y-44766666D01*
X55735714Y-43909523D02*
X56402380Y-43909523D01*
X55354761Y-44147619D02*
X56069047Y-44385714D01*
X56069047Y-43766666D01*
G04 #@! TO.C,C8*
X67250141Y-35118449D02*
X67202522Y-35166068D01*
X67059665Y-35213687D01*
X66964427Y-35213687D01*
X66821569Y-35166068D01*
X66726331Y-35070830D01*
X66678712Y-34975592D01*
X66631093Y-34785116D01*
X66631093Y-34642259D01*
X66678712Y-34451783D01*
X66726331Y-34356545D01*
X66821569Y-34261307D01*
X66964427Y-34213687D01*
X67059665Y-34213687D01*
X67202522Y-34261307D01*
X67250141Y-34308926D01*
X67821569Y-34642259D02*
X67726331Y-34594640D01*
X67678712Y-34547021D01*
X67631093Y-34451783D01*
X67631093Y-34404164D01*
X67678712Y-34308926D01*
X67726331Y-34261307D01*
X67821569Y-34213687D01*
X68012046Y-34213687D01*
X68107284Y-34261307D01*
X68154903Y-34308926D01*
X68202522Y-34404164D01*
X68202522Y-34451783D01*
X68154903Y-34547021D01*
X68107284Y-34594640D01*
X68012046Y-34642259D01*
X67821569Y-34642259D01*
X67726331Y-34689878D01*
X67678712Y-34737497D01*
X67631093Y-34832735D01*
X67631093Y-35023211D01*
X67678712Y-35118449D01*
X67726331Y-35166068D01*
X67821569Y-35213687D01*
X68012046Y-35213687D01*
X68107284Y-35166068D01*
X68154903Y-35118449D01*
X68202522Y-35023211D01*
X68202522Y-34832735D01*
X68154903Y-34737497D01*
X68107284Y-34689878D01*
X68012046Y-34642259D01*
G04 #@! TO.C,C2*
X49807142Y-30766666D02*
X49854761Y-30814285D01*
X49902380Y-30957142D01*
X49902380Y-31052380D01*
X49854761Y-31195238D01*
X49759523Y-31290476D01*
X49664285Y-31338095D01*
X49473809Y-31385714D01*
X49330952Y-31385714D01*
X49140476Y-31338095D01*
X49045238Y-31290476D01*
X48950000Y-31195238D01*
X48902380Y-31052380D01*
X48902380Y-30957142D01*
X48950000Y-30814285D01*
X48997619Y-30766666D01*
X48997619Y-30385714D02*
X48950000Y-30338095D01*
X48902380Y-30242857D01*
X48902380Y-30004761D01*
X48950000Y-29909523D01*
X48997619Y-29861904D01*
X49092857Y-29814285D01*
X49188095Y-29814285D01*
X49330952Y-29861904D01*
X49902380Y-30433333D01*
X49902380Y-29814285D01*
G04 #@! TO.C,C3*
X52307142Y-30766666D02*
X52354761Y-30814285D01*
X52402380Y-30957142D01*
X52402380Y-31052380D01*
X52354761Y-31195238D01*
X52259523Y-31290476D01*
X52164285Y-31338095D01*
X51973809Y-31385714D01*
X51830952Y-31385714D01*
X51640476Y-31338095D01*
X51545238Y-31290476D01*
X51450000Y-31195238D01*
X51402380Y-31052380D01*
X51402380Y-30957142D01*
X51450000Y-30814285D01*
X51497619Y-30766666D01*
X51402380Y-30433333D02*
X51402380Y-29814285D01*
X51783333Y-30147619D01*
X51783333Y-30004761D01*
X51830952Y-29909523D01*
X51878571Y-29861904D01*
X51973809Y-29814285D01*
X52211904Y-29814285D01*
X52307142Y-29861904D01*
X52354761Y-29909523D01*
X52402380Y-30004761D01*
X52402380Y-30290476D01*
X52354761Y-30385714D01*
X52307142Y-30433333D01*
G04 #@! TO.C,C1*
X47307142Y-30766666D02*
X47354761Y-30814285D01*
X47402380Y-30957142D01*
X47402380Y-31052380D01*
X47354761Y-31195238D01*
X47259523Y-31290476D01*
X47164285Y-31338095D01*
X46973809Y-31385714D01*
X46830952Y-31385714D01*
X46640476Y-31338095D01*
X46545238Y-31290476D01*
X46450000Y-31195238D01*
X46402380Y-31052380D01*
X46402380Y-30957142D01*
X46450000Y-30814285D01*
X46497619Y-30766666D01*
X47402380Y-29814285D02*
X47402380Y-30385714D01*
X47402380Y-30100000D02*
X46402380Y-30100000D01*
X46545238Y-30195238D01*
X46640476Y-30290476D01*
X46688095Y-30385714D01*
G04 #@! TO.C,L1*
X61902380Y-35516666D02*
X61902380Y-35992857D01*
X60902380Y-35992857D01*
X61902380Y-34659523D02*
X61902380Y-35230952D01*
X61902380Y-34945238D02*
X60902380Y-34945238D01*
X61045238Y-35040476D01*
X61140476Y-35135714D01*
X61188095Y-35230952D01*
G04 #@! TO.C,D1*
X41352380Y-33488095D02*
X40352380Y-33488095D01*
X40352380Y-33250000D01*
X40400000Y-33107142D01*
X40495238Y-33011904D01*
X40590476Y-32964285D01*
X40780952Y-32916666D01*
X40923809Y-32916666D01*
X41114285Y-32964285D01*
X41209523Y-33011904D01*
X41304761Y-33107142D01*
X41352380Y-33250000D01*
X41352380Y-33488095D01*
X41352380Y-31964285D02*
X41352380Y-32535714D01*
X41352380Y-32250000D02*
X40352380Y-32250000D01*
X40495238Y-32345238D01*
X40590476Y-32440476D01*
X40638095Y-32535714D01*
G04 #@! TO.C,F1*
X48266666Y-45328571D02*
X47933333Y-45328571D01*
X47933333Y-45852380D02*
X47933333Y-44852380D01*
X48409523Y-44852380D01*
X49314285Y-45852380D02*
X48742857Y-45852380D01*
X49028571Y-45852380D02*
X49028571Y-44852380D01*
X48933333Y-44995238D01*
X48838095Y-45090476D01*
X48742857Y-45138095D01*
G04 #@! TO.C,Q1*
X41354761Y-39397619D02*
X41259523Y-39350000D01*
X41164285Y-39254761D01*
X41021428Y-39111904D01*
X40926190Y-39064285D01*
X40830952Y-39064285D01*
X40878571Y-39302380D02*
X40783333Y-39254761D01*
X40688095Y-39159523D01*
X40640476Y-38969047D01*
X40640476Y-38635714D01*
X40688095Y-38445238D01*
X40783333Y-38350000D01*
X40878571Y-38302380D01*
X41069047Y-38302380D01*
X41164285Y-38350000D01*
X41259523Y-38445238D01*
X41307142Y-38635714D01*
X41307142Y-38969047D01*
X41259523Y-39159523D01*
X41164285Y-39254761D01*
X41069047Y-39302380D01*
X40878571Y-39302380D01*
X42259523Y-39302380D02*
X41688095Y-39302380D01*
X41973809Y-39302380D02*
X41973809Y-38302380D01*
X41878571Y-38445238D01*
X41783333Y-38540476D01*
X41688095Y-38588095D01*
G04 #@! TO.C,R1*
X48233333Y-37252380D02*
X47900000Y-36776190D01*
X47661904Y-37252380D02*
X47661904Y-36252380D01*
X48042857Y-36252380D01*
X48138095Y-36300000D01*
X48185714Y-36347619D01*
X48233333Y-36442857D01*
X48233333Y-36585714D01*
X48185714Y-36680952D01*
X48138095Y-36728571D01*
X48042857Y-36776190D01*
X47661904Y-36776190D01*
X49185714Y-37252380D02*
X48614285Y-37252380D01*
X48900000Y-37252380D02*
X48900000Y-36252380D01*
X48804761Y-36395238D01*
X48709523Y-36490476D01*
X48614285Y-36538095D01*
G04 #@! TO.C,R2*
X54152380Y-44716666D02*
X53676190Y-45050000D01*
X54152380Y-45288095D02*
X53152380Y-45288095D01*
X53152380Y-44907142D01*
X53200000Y-44811904D01*
X53247619Y-44764285D01*
X53342857Y-44716666D01*
X53485714Y-44716666D01*
X53580952Y-44764285D01*
X53628571Y-44811904D01*
X53676190Y-44907142D01*
X53676190Y-45288095D01*
X53247619Y-44335714D02*
X53200000Y-44288095D01*
X53152380Y-44192857D01*
X53152380Y-43954761D01*
X53200000Y-43859523D01*
X53247619Y-43811904D01*
X53342857Y-43764285D01*
X53438095Y-43764285D01*
X53580952Y-43811904D01*
X54152380Y-44383333D01*
X54152380Y-43764285D01*
G04 #@! TO.C,R3*
X52477380Y-44716666D02*
X52001190Y-45050000D01*
X52477380Y-45288095D02*
X51477380Y-45288095D01*
X51477380Y-44907142D01*
X51525000Y-44811904D01*
X51572619Y-44764285D01*
X51667857Y-44716666D01*
X51810714Y-44716666D01*
X51905952Y-44764285D01*
X51953571Y-44811904D01*
X52001190Y-44907142D01*
X52001190Y-45288095D01*
X51477380Y-44383333D02*
X51477380Y-43764285D01*
X51858333Y-44097619D01*
X51858333Y-43954761D01*
X51905952Y-43859523D01*
X51953571Y-43811904D01*
X52048809Y-43764285D01*
X52286904Y-43764285D01*
X52382142Y-43811904D01*
X52429761Y-43859523D01*
X52477380Y-43954761D01*
X52477380Y-44240476D01*
X52429761Y-44335714D01*
X52382142Y-44383333D01*
G04 #@! TO.C,R4*
X67075141Y-30733687D02*
X66741808Y-30257497D01*
X66503712Y-30733687D02*
X66503712Y-29733687D01*
X66884665Y-29733687D01*
X66979903Y-29781307D01*
X67027522Y-29828926D01*
X67075141Y-29924164D01*
X67075141Y-30067021D01*
X67027522Y-30162259D01*
X66979903Y-30209878D01*
X66884665Y-30257497D01*
X66503712Y-30257497D01*
X67932284Y-30067021D02*
X67932284Y-30733687D01*
X67694188Y-29686068D02*
X67456093Y-30400354D01*
X68075141Y-30400354D01*
G04 #@! TO.C,R5*
X51858333Y-37252380D02*
X51525000Y-36776190D01*
X51286904Y-37252380D02*
X51286904Y-36252380D01*
X51667857Y-36252380D01*
X51763095Y-36300000D01*
X51810714Y-36347619D01*
X51858333Y-36442857D01*
X51858333Y-36585714D01*
X51810714Y-36680952D01*
X51763095Y-36728571D01*
X51667857Y-36776190D01*
X51286904Y-36776190D01*
X52763095Y-36252380D02*
X52286904Y-36252380D01*
X52239285Y-36728571D01*
X52286904Y-36680952D01*
X52382142Y-36633333D01*
X52620238Y-36633333D01*
X52715476Y-36680952D01*
X52763095Y-36728571D01*
X52810714Y-36823809D01*
X52810714Y-37061904D01*
X52763095Y-37157142D01*
X52715476Y-37204761D01*
X52620238Y-37252380D01*
X52382142Y-37252380D01*
X52286904Y-37204761D01*
X52239285Y-37157142D01*
G04 #@! TO.C,R6*
X50033333Y-37252380D02*
X49700000Y-36776190D01*
X49461904Y-37252380D02*
X49461904Y-36252380D01*
X49842857Y-36252380D01*
X49938095Y-36300000D01*
X49985714Y-36347619D01*
X50033333Y-36442857D01*
X50033333Y-36585714D01*
X49985714Y-36680952D01*
X49938095Y-36728571D01*
X49842857Y-36776190D01*
X49461904Y-36776190D01*
X50890476Y-36252380D02*
X50700000Y-36252380D01*
X50604761Y-36300000D01*
X50557142Y-36347619D01*
X50461904Y-36490476D01*
X50414285Y-36680952D01*
X50414285Y-37061904D01*
X50461904Y-37157142D01*
X50509523Y-37204761D01*
X50604761Y-37252380D01*
X50795238Y-37252380D01*
X50890476Y-37204761D01*
X50938095Y-37157142D01*
X50985714Y-37061904D01*
X50985714Y-36823809D01*
X50938095Y-36728571D01*
X50890476Y-36680952D01*
X50795238Y-36633333D01*
X50604761Y-36633333D01*
X50509523Y-36680952D01*
X50461904Y-36728571D01*
X50414285Y-36823809D01*
G04 #@! TO.C,C7*
X63107142Y-44766666D02*
X63154761Y-44814285D01*
X63202380Y-44957142D01*
X63202380Y-45052380D01*
X63154761Y-45195238D01*
X63059523Y-45290476D01*
X62964285Y-45338095D01*
X62773809Y-45385714D01*
X62630952Y-45385714D01*
X62440476Y-45338095D01*
X62345238Y-45290476D01*
X62250000Y-45195238D01*
X62202380Y-45052380D01*
X62202380Y-44957142D01*
X62250000Y-44814285D01*
X62297619Y-44766666D01*
X62202380Y-44433333D02*
X62202380Y-43766666D01*
X63202380Y-44195238D01*
G04 #@! TO.C,C6*
X65307142Y-44766666D02*
X65354761Y-44814285D01*
X65402380Y-44957142D01*
X65402380Y-45052380D01*
X65354761Y-45195238D01*
X65259523Y-45290476D01*
X65164285Y-45338095D01*
X64973809Y-45385714D01*
X64830952Y-45385714D01*
X64640476Y-45338095D01*
X64545238Y-45290476D01*
X64450000Y-45195238D01*
X64402380Y-45052380D01*
X64402380Y-44957142D01*
X64450000Y-44814285D01*
X64497619Y-44766666D01*
X64402380Y-43909523D02*
X64402380Y-44100000D01*
X64450000Y-44195238D01*
X64497619Y-44242857D01*
X64640476Y-44338095D01*
X64830952Y-44385714D01*
X65211904Y-44385714D01*
X65307142Y-44338095D01*
X65354761Y-44290476D01*
X65402380Y-44195238D01*
X65402380Y-44004761D01*
X65354761Y-43909523D01*
X65307142Y-43861904D01*
X65211904Y-43814285D01*
X64973809Y-43814285D01*
X64878571Y-43861904D01*
X64830952Y-43909523D01*
X64783333Y-44004761D01*
X64783333Y-44195238D01*
X64830952Y-44290476D01*
X64878571Y-44338095D01*
X64973809Y-44385714D01*
G04 #@! TO.C,C5*
X67557142Y-44766666D02*
X67604761Y-44814285D01*
X67652380Y-44957142D01*
X67652380Y-45052380D01*
X67604761Y-45195238D01*
X67509523Y-45290476D01*
X67414285Y-45338095D01*
X67223809Y-45385714D01*
X67080952Y-45385714D01*
X66890476Y-45338095D01*
X66795238Y-45290476D01*
X66700000Y-45195238D01*
X66652380Y-45052380D01*
X66652380Y-44957142D01*
X66700000Y-44814285D01*
X66747619Y-44766666D01*
X66652380Y-43861904D02*
X66652380Y-44338095D01*
X67128571Y-44385714D01*
X67080952Y-44338095D01*
X67033333Y-44242857D01*
X67033333Y-44004761D01*
X67080952Y-43909523D01*
X67128571Y-43861904D01*
X67223809Y-43814285D01*
X67461904Y-43814285D01*
X67557142Y-43861904D01*
X67604761Y-43909523D01*
X67652380Y-44004761D01*
X67652380Y-44242857D01*
X67604761Y-44338095D01*
X67557142Y-44385714D01*
G04 #@! TD*
D12*
G36*
X32574409Y-42251151D02*
X32700514Y-42376614D01*
X32752640Y-42567896D01*
X32797337Y-51328401D01*
X32746522Y-51521321D01*
X32620288Y-51648202D01*
X32427629Y-51700000D01*
X22719748Y-51700000D01*
X22527645Y-51648526D01*
X22401474Y-51522355D01*
X22350000Y-51330252D01*
X22350000Y-42569748D01*
X22401474Y-42377645D01*
X22527645Y-42251474D01*
X22719748Y-42200000D01*
X32382861Y-42200000D01*
X32574409Y-42251151D01*
X32574409Y-42251151D01*
G37*
X32574409Y-42251151D02*
X32700514Y-42376614D01*
X32752640Y-42567896D01*
X32797337Y-51328401D01*
X32746522Y-51521321D01*
X32620288Y-51648202D01*
X32427629Y-51700000D01*
X22719748Y-51700000D01*
X22527645Y-51648526D01*
X22401474Y-51522355D01*
X22350000Y-51330252D01*
X22350000Y-42569748D01*
X22401474Y-42377645D01*
X22527645Y-42251474D01*
X22719748Y-42200000D01*
X32382861Y-42200000D01*
X32574409Y-42251151D01*
M02*
