G04 #@! TF.GenerationSoftware,KiCad,Pcbnew,5.0.2-bee76a0~70~ubuntu16.04.1*
G04 #@! TF.CreationDate,2019-02-28T19:01:00+01:00*
G04 #@! TF.ProjectId,24VDC_to_USB_voltage_converter,32345644-435f-4746-9f5f-5553425f766f,rev?*
G04 #@! TF.SameCoordinates,Original*
G04 #@! TF.FileFunction,Copper,L2,Bot*
G04 #@! TF.FilePolarity,Positive*
%FSLAX46Y46*%
G04 Gerber Fmt 4.6, Leading zero omitted, Abs format (unit mm)*
G04 Created by KiCad (PCBNEW 5.0.2-bee76a0~70~ubuntu16.04.1) date Thu 28 Feb 2019 07:01:00 PM CET*
%MOMM*%
%LPD*%
G01*
G04 APERTURE LIST*
G04 #@! TA.AperFunction,ComponentPad*
%ADD10C,4.000000*%
G04 #@! TD*
G04 #@! TA.AperFunction,Conductor*
%ADD11C,0.100000*%
G04 #@! TD*
G04 #@! TA.AperFunction,ComponentPad*
%ADD12C,1.800000*%
G04 #@! TD*
G04 #@! TA.AperFunction,ComponentPad*
%ADD13C,1.600000*%
G04 #@! TD*
G04 #@! TA.AperFunction,ViaPad*
%ADD14C,0.800000*%
G04 #@! TD*
G04 #@! TA.AperFunction,Conductor*
%ADD15C,0.800000*%
G04 #@! TD*
G04 #@! TA.AperFunction,Conductor*
%ADD16C,0.254000*%
G04 #@! TD*
G04 APERTURE END LIST*
D10*
G04 #@! TO.P,J2,5*
G04 #@! TO.N,/SHIELD*
X154800000Y-94520000D03*
X154800000Y-81380000D03*
D11*
G04 #@! TD*
G04 #@! TO.N,/VBUS*
G04 #@! TO.C,J2*
G36*
X152846465Y-90551300D02*
X152872674Y-90555188D01*
X152898377Y-90561626D01*
X152923325Y-90570553D01*
X152947277Y-90581881D01*
X152970004Y-90595503D01*
X152991286Y-90611287D01*
X153010919Y-90629081D01*
X153028713Y-90648714D01*
X153044497Y-90669996D01*
X153058119Y-90692723D01*
X153069447Y-90716675D01*
X153078374Y-90741623D01*
X153084812Y-90767326D01*
X153088700Y-90793535D01*
X153090000Y-90820000D01*
X153090000Y-92080000D01*
X153088700Y-92106465D01*
X153084812Y-92132674D01*
X153078374Y-92158377D01*
X153069447Y-92183325D01*
X153058119Y-92207277D01*
X153044497Y-92230004D01*
X153028713Y-92251286D01*
X153010919Y-92270919D01*
X152991286Y-92288713D01*
X152970004Y-92304497D01*
X152947277Y-92318119D01*
X152923325Y-92329447D01*
X152898377Y-92338374D01*
X152872674Y-92344812D01*
X152846465Y-92348700D01*
X152820000Y-92350000D01*
X151360000Y-92350000D01*
X151333535Y-92348700D01*
X151307326Y-92344812D01*
X151281623Y-92338374D01*
X151256675Y-92329447D01*
X151232723Y-92318119D01*
X151209996Y-92304497D01*
X151188714Y-92288713D01*
X151169081Y-92270919D01*
X151151287Y-92251286D01*
X151135503Y-92230004D01*
X151121881Y-92207277D01*
X151110553Y-92183325D01*
X151101626Y-92158377D01*
X151095188Y-92132674D01*
X151091300Y-92106465D01*
X151090000Y-92080000D01*
X151090000Y-90820000D01*
X151091300Y-90793535D01*
X151095188Y-90767326D01*
X151101626Y-90741623D01*
X151110553Y-90716675D01*
X151121881Y-90692723D01*
X151135503Y-90669996D01*
X151151287Y-90648714D01*
X151169081Y-90629081D01*
X151188714Y-90611287D01*
X151209996Y-90595503D01*
X151232723Y-90581881D01*
X151256675Y-90570553D01*
X151281623Y-90561626D01*
X151307326Y-90555188D01*
X151333535Y-90551300D01*
X151360000Y-90550000D01*
X152820000Y-90550000D01*
X152846465Y-90551300D01*
X152846465Y-90551300D01*
G37*
D12*
G04 #@! TO.P,J2,1*
G04 #@! TO.N,/VBUS*
X152090000Y-91450000D03*
D11*
G04 #@! TD*
G04 #@! TO.N,Net-(J2-Pad2)*
G04 #@! TO.C,J2*
G36*
X152673524Y-88151156D02*
X152696822Y-88154612D01*
X152719668Y-88160334D01*
X152741844Y-88168269D01*
X152763135Y-88178339D01*
X152783337Y-88190447D01*
X152802254Y-88204477D01*
X152819706Y-88220294D01*
X152835523Y-88237746D01*
X152849553Y-88256663D01*
X152861661Y-88276865D01*
X152871731Y-88298156D01*
X152879666Y-88320332D01*
X152885388Y-88343178D01*
X152888844Y-88366476D01*
X152890000Y-88390000D01*
X152890000Y-89510000D01*
X152888844Y-89533524D01*
X152885388Y-89556822D01*
X152879666Y-89579668D01*
X152871731Y-89601844D01*
X152861661Y-89623135D01*
X152849553Y-89643337D01*
X152835523Y-89662254D01*
X152819706Y-89679706D01*
X152802254Y-89695523D01*
X152783337Y-89709553D01*
X152763135Y-89721661D01*
X152741844Y-89731731D01*
X152719668Y-89739666D01*
X152696822Y-89745388D01*
X152673524Y-89748844D01*
X152650000Y-89750000D01*
X151530000Y-89750000D01*
X151506476Y-89748844D01*
X151483178Y-89745388D01*
X151460332Y-89739666D01*
X151438156Y-89731731D01*
X151416865Y-89721661D01*
X151396663Y-89709553D01*
X151377746Y-89695523D01*
X151360294Y-89679706D01*
X151344477Y-89662254D01*
X151330447Y-89643337D01*
X151318339Y-89623135D01*
X151308269Y-89601844D01*
X151300334Y-89579668D01*
X151294612Y-89556822D01*
X151291156Y-89533524D01*
X151290000Y-89510000D01*
X151290000Y-88390000D01*
X151291156Y-88366476D01*
X151294612Y-88343178D01*
X151300334Y-88320332D01*
X151308269Y-88298156D01*
X151318339Y-88276865D01*
X151330447Y-88256663D01*
X151344477Y-88237746D01*
X151360294Y-88220294D01*
X151377746Y-88204477D01*
X151396663Y-88190447D01*
X151416865Y-88178339D01*
X151438156Y-88168269D01*
X151460332Y-88160334D01*
X151483178Y-88154612D01*
X151506476Y-88151156D01*
X151530000Y-88150000D01*
X152650000Y-88150000D01*
X152673524Y-88151156D01*
X152673524Y-88151156D01*
G37*
D13*
G04 #@! TO.P,J2,2*
G04 #@! TO.N,Net-(J2-Pad2)*
X152090000Y-88950000D03*
D11*
G04 #@! TD*
G04 #@! TO.N,Net-(J2-Pad3)*
G04 #@! TO.C,J2*
G36*
X152673524Y-86151156D02*
X152696822Y-86154612D01*
X152719668Y-86160334D01*
X152741844Y-86168269D01*
X152763135Y-86178339D01*
X152783337Y-86190447D01*
X152802254Y-86204477D01*
X152819706Y-86220294D01*
X152835523Y-86237746D01*
X152849553Y-86256663D01*
X152861661Y-86276865D01*
X152871731Y-86298156D01*
X152879666Y-86320332D01*
X152885388Y-86343178D01*
X152888844Y-86366476D01*
X152890000Y-86390000D01*
X152890000Y-87510000D01*
X152888844Y-87533524D01*
X152885388Y-87556822D01*
X152879666Y-87579668D01*
X152871731Y-87601844D01*
X152861661Y-87623135D01*
X152849553Y-87643337D01*
X152835523Y-87662254D01*
X152819706Y-87679706D01*
X152802254Y-87695523D01*
X152783337Y-87709553D01*
X152763135Y-87721661D01*
X152741844Y-87731731D01*
X152719668Y-87739666D01*
X152696822Y-87745388D01*
X152673524Y-87748844D01*
X152650000Y-87750000D01*
X151530000Y-87750000D01*
X151506476Y-87748844D01*
X151483178Y-87745388D01*
X151460332Y-87739666D01*
X151438156Y-87731731D01*
X151416865Y-87721661D01*
X151396663Y-87709553D01*
X151377746Y-87695523D01*
X151360294Y-87679706D01*
X151344477Y-87662254D01*
X151330447Y-87643337D01*
X151318339Y-87623135D01*
X151308269Y-87601844D01*
X151300334Y-87579668D01*
X151294612Y-87556822D01*
X151291156Y-87533524D01*
X151290000Y-87510000D01*
X151290000Y-86390000D01*
X151291156Y-86366476D01*
X151294612Y-86343178D01*
X151300334Y-86320332D01*
X151308269Y-86298156D01*
X151318339Y-86276865D01*
X151330447Y-86256663D01*
X151344477Y-86237746D01*
X151360294Y-86220294D01*
X151377746Y-86204477D01*
X151396663Y-86190447D01*
X151416865Y-86178339D01*
X151438156Y-86168269D01*
X151460332Y-86160334D01*
X151483178Y-86154612D01*
X151506476Y-86151156D01*
X151530000Y-86150000D01*
X152650000Y-86150000D01*
X152673524Y-86151156D01*
X152673524Y-86151156D01*
G37*
D13*
G04 #@! TO.P,J2,3*
G04 #@! TO.N,Net-(J2-Pad3)*
X152090000Y-86950000D03*
D11*
G04 #@! TD*
G04 #@! TO.N,GND*
G04 #@! TO.C,J2*
G36*
X152846465Y-83551300D02*
X152872674Y-83555188D01*
X152898377Y-83561626D01*
X152923325Y-83570553D01*
X152947277Y-83581881D01*
X152970004Y-83595503D01*
X152991286Y-83611287D01*
X153010919Y-83629081D01*
X153028713Y-83648714D01*
X153044497Y-83669996D01*
X153058119Y-83692723D01*
X153069447Y-83716675D01*
X153078374Y-83741623D01*
X153084812Y-83767326D01*
X153088700Y-83793535D01*
X153090000Y-83820000D01*
X153090000Y-85080000D01*
X153088700Y-85106465D01*
X153084812Y-85132674D01*
X153078374Y-85158377D01*
X153069447Y-85183325D01*
X153058119Y-85207277D01*
X153044497Y-85230004D01*
X153028713Y-85251286D01*
X153010919Y-85270919D01*
X152991286Y-85288713D01*
X152970004Y-85304497D01*
X152947277Y-85318119D01*
X152923325Y-85329447D01*
X152898377Y-85338374D01*
X152872674Y-85344812D01*
X152846465Y-85348700D01*
X152820000Y-85350000D01*
X151360000Y-85350000D01*
X151333535Y-85348700D01*
X151307326Y-85344812D01*
X151281623Y-85338374D01*
X151256675Y-85329447D01*
X151232723Y-85318119D01*
X151209996Y-85304497D01*
X151188714Y-85288713D01*
X151169081Y-85270919D01*
X151151287Y-85251286D01*
X151135503Y-85230004D01*
X151121881Y-85207277D01*
X151110553Y-85183325D01*
X151101626Y-85158377D01*
X151095188Y-85132674D01*
X151091300Y-85106465D01*
X151090000Y-85080000D01*
X151090000Y-83820000D01*
X151091300Y-83793535D01*
X151095188Y-83767326D01*
X151101626Y-83741623D01*
X151110553Y-83716675D01*
X151121881Y-83692723D01*
X151135503Y-83669996D01*
X151151287Y-83648714D01*
X151169081Y-83629081D01*
X151188714Y-83611287D01*
X151209996Y-83595503D01*
X151232723Y-83581881D01*
X151256675Y-83570553D01*
X151281623Y-83561626D01*
X151307326Y-83555188D01*
X151333535Y-83551300D01*
X151360000Y-83550000D01*
X152820000Y-83550000D01*
X152846465Y-83551300D01*
X152846465Y-83551300D01*
G37*
D12*
G04 #@! TO.P,J2,4*
G04 #@! TO.N,GND*
X152090000Y-84450000D03*
G04 #@! TD*
D11*
G04 #@! TO.N,+24V*
G04 #@! TO.C,J1*
G36*
X115639207Y-92751926D02*
X115678036Y-92757686D01*
X115716114Y-92767224D01*
X115753073Y-92780448D01*
X115788559Y-92797231D01*
X115822228Y-92817412D01*
X115853757Y-92840796D01*
X115882843Y-92867157D01*
X115909204Y-92896243D01*
X115932588Y-92927772D01*
X115952769Y-92961441D01*
X115969552Y-92996927D01*
X115982776Y-93033886D01*
X115992314Y-93071964D01*
X115998074Y-93110793D01*
X116000000Y-93150000D01*
X116000000Y-96350000D01*
X115998074Y-96389207D01*
X115992314Y-96428036D01*
X115982776Y-96466114D01*
X115969552Y-96503073D01*
X115952769Y-96538559D01*
X115932588Y-96572228D01*
X115909204Y-96603757D01*
X115882843Y-96632843D01*
X115853757Y-96659204D01*
X115822228Y-96682588D01*
X115788559Y-96702769D01*
X115753073Y-96719552D01*
X115716114Y-96732776D01*
X115678036Y-96742314D01*
X115639207Y-96748074D01*
X115600000Y-96750000D01*
X112400000Y-96750000D01*
X112360793Y-96748074D01*
X112321964Y-96742314D01*
X112283886Y-96732776D01*
X112246927Y-96719552D01*
X112211441Y-96702769D01*
X112177772Y-96682588D01*
X112146243Y-96659204D01*
X112117157Y-96632843D01*
X112090796Y-96603757D01*
X112067412Y-96572228D01*
X112047231Y-96538559D01*
X112030448Y-96503073D01*
X112017224Y-96466114D01*
X112007686Y-96428036D01*
X112001926Y-96389207D01*
X112000000Y-96350000D01*
X112000000Y-93150000D01*
X112001926Y-93110793D01*
X112007686Y-93071964D01*
X112017224Y-93033886D01*
X112030448Y-92996927D01*
X112047231Y-92961441D01*
X112067412Y-92927772D01*
X112090796Y-92896243D01*
X112117157Y-92867157D01*
X112146243Y-92840796D01*
X112177772Y-92817412D01*
X112211441Y-92797231D01*
X112246927Y-92780448D01*
X112283886Y-92767224D01*
X112321964Y-92757686D01*
X112360793Y-92751926D01*
X112400000Y-92750000D01*
X115600000Y-92750000D01*
X115639207Y-92751926D01*
X115639207Y-92751926D01*
G37*
D10*
G04 #@! TD*
G04 #@! TO.P,J1,2*
G04 #@! TO.N,+24V*
X114000000Y-94750000D03*
D11*
G04 #@! TO.N,+24V*
G04 #@! TO.C,J1*
G36*
X120639207Y-92751926D02*
X120678036Y-92757686D01*
X120716114Y-92767224D01*
X120753073Y-92780448D01*
X120788559Y-92797231D01*
X120822228Y-92817412D01*
X120853757Y-92840796D01*
X120882843Y-92867157D01*
X120909204Y-92896243D01*
X120932588Y-92927772D01*
X120952769Y-92961441D01*
X120969552Y-92996927D01*
X120982776Y-93033886D01*
X120992314Y-93071964D01*
X120998074Y-93110793D01*
X121000000Y-93150000D01*
X121000000Y-96350000D01*
X120998074Y-96389207D01*
X120992314Y-96428036D01*
X120982776Y-96466114D01*
X120969552Y-96503073D01*
X120952769Y-96538559D01*
X120932588Y-96572228D01*
X120909204Y-96603757D01*
X120882843Y-96632843D01*
X120853757Y-96659204D01*
X120822228Y-96682588D01*
X120788559Y-96702769D01*
X120753073Y-96719552D01*
X120716114Y-96732776D01*
X120678036Y-96742314D01*
X120639207Y-96748074D01*
X120600000Y-96750000D01*
X117400000Y-96750000D01*
X117360793Y-96748074D01*
X117321964Y-96742314D01*
X117283886Y-96732776D01*
X117246927Y-96719552D01*
X117211441Y-96702769D01*
X117177772Y-96682588D01*
X117146243Y-96659204D01*
X117117157Y-96632843D01*
X117090796Y-96603757D01*
X117067412Y-96572228D01*
X117047231Y-96538559D01*
X117030448Y-96503073D01*
X117017224Y-96466114D01*
X117007686Y-96428036D01*
X117001926Y-96389207D01*
X117000000Y-96350000D01*
X117000000Y-93150000D01*
X117001926Y-93110793D01*
X117007686Y-93071964D01*
X117017224Y-93033886D01*
X117030448Y-92996927D01*
X117047231Y-92961441D01*
X117067412Y-92927772D01*
X117090796Y-92896243D01*
X117117157Y-92867157D01*
X117146243Y-92840796D01*
X117177772Y-92817412D01*
X117211441Y-92797231D01*
X117246927Y-92780448D01*
X117283886Y-92767224D01*
X117321964Y-92757686D01*
X117360793Y-92751926D01*
X117400000Y-92750000D01*
X120600000Y-92750000D01*
X120639207Y-92751926D01*
X120639207Y-92751926D01*
G37*
D10*
G04 #@! TD*
G04 #@! TO.P,J1,1*
G04 #@! TO.N,+24V*
X119000000Y-94750000D03*
D11*
G04 #@! TO.N,GND*
G04 #@! TO.C,J3*
G36*
X120639207Y-78751926D02*
X120678036Y-78757686D01*
X120716114Y-78767224D01*
X120753073Y-78780448D01*
X120788559Y-78797231D01*
X120822228Y-78817412D01*
X120853757Y-78840796D01*
X120882843Y-78867157D01*
X120909204Y-78896243D01*
X120932588Y-78927772D01*
X120952769Y-78961441D01*
X120969552Y-78996927D01*
X120982776Y-79033886D01*
X120992314Y-79071964D01*
X120998074Y-79110793D01*
X121000000Y-79150000D01*
X121000000Y-82350000D01*
X120998074Y-82389207D01*
X120992314Y-82428036D01*
X120982776Y-82466114D01*
X120969552Y-82503073D01*
X120952769Y-82538559D01*
X120932588Y-82572228D01*
X120909204Y-82603757D01*
X120882843Y-82632843D01*
X120853757Y-82659204D01*
X120822228Y-82682588D01*
X120788559Y-82702769D01*
X120753073Y-82719552D01*
X120716114Y-82732776D01*
X120678036Y-82742314D01*
X120639207Y-82748074D01*
X120600000Y-82750000D01*
X117400000Y-82750000D01*
X117360793Y-82748074D01*
X117321964Y-82742314D01*
X117283886Y-82732776D01*
X117246927Y-82719552D01*
X117211441Y-82702769D01*
X117177772Y-82682588D01*
X117146243Y-82659204D01*
X117117157Y-82632843D01*
X117090796Y-82603757D01*
X117067412Y-82572228D01*
X117047231Y-82538559D01*
X117030448Y-82503073D01*
X117017224Y-82466114D01*
X117007686Y-82428036D01*
X117001926Y-82389207D01*
X117000000Y-82350000D01*
X117000000Y-79150000D01*
X117001926Y-79110793D01*
X117007686Y-79071964D01*
X117017224Y-79033886D01*
X117030448Y-78996927D01*
X117047231Y-78961441D01*
X117067412Y-78927772D01*
X117090796Y-78896243D01*
X117117157Y-78867157D01*
X117146243Y-78840796D01*
X117177772Y-78817412D01*
X117211441Y-78797231D01*
X117246927Y-78780448D01*
X117283886Y-78767224D01*
X117321964Y-78757686D01*
X117360793Y-78751926D01*
X117400000Y-78750000D01*
X120600000Y-78750000D01*
X120639207Y-78751926D01*
X120639207Y-78751926D01*
G37*
D10*
G04 #@! TD*
G04 #@! TO.P,J3,1*
G04 #@! TO.N,GND*
X119000000Y-80750000D03*
D11*
G04 #@! TO.N,GND*
G04 #@! TO.C,J3*
G36*
X115639207Y-78751926D02*
X115678036Y-78757686D01*
X115716114Y-78767224D01*
X115753073Y-78780448D01*
X115788559Y-78797231D01*
X115822228Y-78817412D01*
X115853757Y-78840796D01*
X115882843Y-78867157D01*
X115909204Y-78896243D01*
X115932588Y-78927772D01*
X115952769Y-78961441D01*
X115969552Y-78996927D01*
X115982776Y-79033886D01*
X115992314Y-79071964D01*
X115998074Y-79110793D01*
X116000000Y-79150000D01*
X116000000Y-82350000D01*
X115998074Y-82389207D01*
X115992314Y-82428036D01*
X115982776Y-82466114D01*
X115969552Y-82503073D01*
X115952769Y-82538559D01*
X115932588Y-82572228D01*
X115909204Y-82603757D01*
X115882843Y-82632843D01*
X115853757Y-82659204D01*
X115822228Y-82682588D01*
X115788559Y-82702769D01*
X115753073Y-82719552D01*
X115716114Y-82732776D01*
X115678036Y-82742314D01*
X115639207Y-82748074D01*
X115600000Y-82750000D01*
X112400000Y-82750000D01*
X112360793Y-82748074D01*
X112321964Y-82742314D01*
X112283886Y-82732776D01*
X112246927Y-82719552D01*
X112211441Y-82702769D01*
X112177772Y-82682588D01*
X112146243Y-82659204D01*
X112117157Y-82632843D01*
X112090796Y-82603757D01*
X112067412Y-82572228D01*
X112047231Y-82538559D01*
X112030448Y-82503073D01*
X112017224Y-82466114D01*
X112007686Y-82428036D01*
X112001926Y-82389207D01*
X112000000Y-82350000D01*
X112000000Y-79150000D01*
X112001926Y-79110793D01*
X112007686Y-79071964D01*
X112017224Y-79033886D01*
X112030448Y-78996927D01*
X112047231Y-78961441D01*
X112067412Y-78927772D01*
X112090796Y-78896243D01*
X112117157Y-78867157D01*
X112146243Y-78840796D01*
X112177772Y-78817412D01*
X112211441Y-78797231D01*
X112246927Y-78780448D01*
X112283886Y-78767224D01*
X112321964Y-78757686D01*
X112360793Y-78751926D01*
X112400000Y-78750000D01*
X115600000Y-78750000D01*
X115639207Y-78751926D01*
X115639207Y-78751926D01*
G37*
D10*
G04 #@! TD*
G04 #@! TO.P,J3,2*
G04 #@! TO.N,GND*
X114000000Y-80750000D03*
D14*
G04 #@! TO.N,/SW*
X139000000Y-93200000D03*
X138500000Y-84500000D03*
G04 #@! TO.N,GND*
X132000000Y-87500000D03*
X130200000Y-91000000D03*
X138650000Y-86050000D03*
X138650000Y-87100000D03*
G04 #@! TD*
D15*
G04 #@! TO.N,/SW*
X137600000Y-85400000D02*
X138500000Y-84500000D01*
X139000000Y-93200000D02*
X137600000Y-91800000D01*
X137600000Y-91800000D02*
X137600000Y-85400000D01*
G04 #@! TD*
D16*
G04 #@! TO.N,GND*
G36*
X162525708Y-75526100D02*
X163023212Y-75706685D01*
X163465835Y-75996881D01*
X163829823Y-76381116D01*
X164095658Y-76838784D01*
X164251892Y-77354629D01*
X164290001Y-77781629D01*
X164290000Y-81569925D01*
X164290001Y-81569930D01*
X164290000Y-97708752D01*
X164223900Y-98275708D01*
X164043315Y-98773212D01*
X163753118Y-99215834D01*
X163368884Y-99579823D01*
X162911216Y-99845658D01*
X162395371Y-100001892D01*
X161968382Y-100040000D01*
X129627000Y-100040000D01*
X129627000Y-97375050D01*
X160115000Y-97375050D01*
X160115000Y-98124950D01*
X160401974Y-98817767D01*
X160932233Y-99348026D01*
X161625050Y-99635000D01*
X162374950Y-99635000D01*
X163067767Y-99348026D01*
X163598026Y-98817767D01*
X163885000Y-98124950D01*
X163885000Y-97375050D01*
X163598026Y-96682233D01*
X163067767Y-96151974D01*
X162374950Y-95865000D01*
X161625050Y-95865000D01*
X160932233Y-96151974D01*
X160401974Y-96682233D01*
X160115000Y-97375050D01*
X129627000Y-97375050D01*
X129627000Y-89300000D01*
X129617333Y-89251399D01*
X129589803Y-89210197D01*
X129548601Y-89182667D01*
X129500000Y-89173000D01*
X105710000Y-89173000D01*
X105710000Y-85400000D01*
X136544724Y-85400000D01*
X136565001Y-85501939D01*
X136565000Y-91698066D01*
X136544724Y-91800000D01*
X136604907Y-92102560D01*
X136625052Y-92203836D01*
X136853807Y-92546193D01*
X136940227Y-92603937D01*
X138122569Y-93786280D01*
X138413720Y-94077431D01*
X138509747Y-94117207D01*
X138596163Y-94174948D01*
X138698098Y-94195224D01*
X138794126Y-94235000D01*
X138898065Y-94235000D01*
X139000000Y-94255276D01*
X139101934Y-94235000D01*
X139205874Y-94235000D01*
X139301902Y-94195224D01*
X139403836Y-94174948D01*
X139490250Y-94117208D01*
X139586280Y-94077431D01*
X139659780Y-94003931D01*
X139746192Y-93946192D01*
X139803931Y-93859780D01*
X139877431Y-93786280D01*
X139917208Y-93690250D01*
X139974948Y-93603836D01*
X139995224Y-93501902D01*
X140035000Y-93405874D01*
X140035000Y-93301934D01*
X140055276Y-93200000D01*
X140035000Y-93098065D01*
X140035000Y-92994126D01*
X139995224Y-92898098D01*
X139974948Y-92796163D01*
X139917207Y-92709747D01*
X139877431Y-92613720D01*
X139586280Y-92322569D01*
X138635000Y-91371290D01*
X138635000Y-90820000D01*
X150442560Y-90820000D01*
X150442560Y-92080000D01*
X150512396Y-92431089D01*
X150711272Y-92728728D01*
X151008911Y-92927604D01*
X151360000Y-92997440D01*
X152596107Y-92997440D01*
X152566155Y-93027392D01*
X152165000Y-93995866D01*
X152165000Y-95044134D01*
X152566155Y-96012608D01*
X153307392Y-96753845D01*
X154275866Y-97155000D01*
X155324134Y-97155000D01*
X156292608Y-96753845D01*
X157033845Y-96012608D01*
X157435000Y-95044134D01*
X157435000Y-93995866D01*
X157033845Y-93027392D01*
X156292608Y-92286155D01*
X155324134Y-91885000D01*
X154275866Y-91885000D01*
X153731365Y-92110540D01*
X153737440Y-92080000D01*
X153737440Y-90820000D01*
X153667604Y-90468911D01*
X153468728Y-90171272D01*
X153320941Y-90072524D01*
X153469888Y-89849609D01*
X153537440Y-89510000D01*
X153537440Y-88390000D01*
X153469888Y-88050391D01*
X153402809Y-87950000D01*
X153469888Y-87849609D01*
X153537440Y-87510000D01*
X153537440Y-86390000D01*
X153469888Y-86050391D01*
X153380698Y-85916908D01*
X153449699Y-85888327D01*
X153628327Y-85709698D01*
X153725000Y-85476309D01*
X153725000Y-84735750D01*
X153566250Y-84577000D01*
X152217000Y-84577000D01*
X152217000Y-84597000D01*
X151963000Y-84597000D01*
X151963000Y-84577000D01*
X150613750Y-84577000D01*
X150455000Y-84735750D01*
X150455000Y-85476309D01*
X150551673Y-85709698D01*
X150730301Y-85888327D01*
X150799302Y-85916908D01*
X150710112Y-86050391D01*
X150642560Y-86390000D01*
X150642560Y-87510000D01*
X150710112Y-87849609D01*
X150777191Y-87950000D01*
X150710112Y-88050391D01*
X150642560Y-88390000D01*
X150642560Y-89510000D01*
X150710112Y-89849609D01*
X150859059Y-90072524D01*
X150711272Y-90171272D01*
X150512396Y-90468911D01*
X150442560Y-90820000D01*
X138635000Y-90820000D01*
X138635000Y-85828710D01*
X139303934Y-85159777D01*
X139377431Y-85086280D01*
X139417207Y-84990253D01*
X139474948Y-84903837D01*
X139495224Y-84801901D01*
X139535000Y-84705874D01*
X139535000Y-84601935D01*
X139555276Y-84500001D01*
X139535000Y-84398066D01*
X139535000Y-84294126D01*
X139495224Y-84198098D01*
X139474948Y-84096164D01*
X139417208Y-84009750D01*
X139377431Y-83913720D01*
X139303931Y-83840220D01*
X139246192Y-83753808D01*
X139159780Y-83696069D01*
X139086280Y-83622569D01*
X138990250Y-83582792D01*
X138903836Y-83525052D01*
X138801902Y-83504776D01*
X138705874Y-83465000D01*
X138601934Y-83465000D01*
X138499999Y-83444724D01*
X138398065Y-83465000D01*
X138294126Y-83465000D01*
X138198099Y-83504776D01*
X138096163Y-83525052D01*
X138009747Y-83582793D01*
X137913720Y-83622569D01*
X137840223Y-83696066D01*
X136940225Y-84596065D01*
X136853808Y-84653807D01*
X136796066Y-84740224D01*
X136625052Y-84996164D01*
X136544724Y-85400000D01*
X105710000Y-85400000D01*
X105710000Y-83423691D01*
X150455000Y-83423691D01*
X150455000Y-84164250D01*
X150613750Y-84323000D01*
X151963000Y-84323000D01*
X151963000Y-83073750D01*
X151804250Y-82915000D01*
X150963690Y-82915000D01*
X150730301Y-83011673D01*
X150551673Y-83190302D01*
X150455000Y-83423691D01*
X105710000Y-83423691D01*
X105710000Y-80855866D01*
X152165000Y-80855866D01*
X152165000Y-81904134D01*
X152566155Y-82872608D01*
X152608547Y-82915000D01*
X152375750Y-82915000D01*
X152217000Y-83073750D01*
X152217000Y-84323000D01*
X153566250Y-84323000D01*
X153725000Y-84164250D01*
X153725000Y-83786824D01*
X154275866Y-84015000D01*
X155324134Y-84015000D01*
X156292608Y-83613845D01*
X157033845Y-82872608D01*
X157435000Y-81904134D01*
X157435000Y-80855866D01*
X157033845Y-79887392D01*
X156292608Y-79146155D01*
X155324134Y-78745000D01*
X154275866Y-78745000D01*
X153307392Y-79146155D01*
X152566155Y-79887392D01*
X152165000Y-80855866D01*
X105710000Y-80855866D01*
X105710000Y-77791247D01*
X105758523Y-77375050D01*
X106115000Y-77375050D01*
X106115000Y-78124950D01*
X106401974Y-78817767D01*
X106932233Y-79348026D01*
X107625050Y-79635000D01*
X108374950Y-79635000D01*
X109067767Y-79348026D01*
X109598026Y-78817767D01*
X109885000Y-78124950D01*
X109885000Y-77375050D01*
X160115000Y-77375050D01*
X160115000Y-78124950D01*
X160401974Y-78817767D01*
X160932233Y-79348026D01*
X161625050Y-79635000D01*
X162374950Y-79635000D01*
X163067767Y-79348026D01*
X163598026Y-78817767D01*
X163885000Y-78124950D01*
X163885000Y-77375050D01*
X163598026Y-76682233D01*
X163067767Y-76151974D01*
X162374950Y-75865000D01*
X161625050Y-75865000D01*
X160932233Y-76151974D01*
X160401974Y-76682233D01*
X160115000Y-77375050D01*
X109885000Y-77375050D01*
X109598026Y-76682233D01*
X109067767Y-76151974D01*
X108374950Y-75865000D01*
X107625050Y-75865000D01*
X106932233Y-76151974D01*
X106401974Y-76682233D01*
X106115000Y-77375050D01*
X105758523Y-77375050D01*
X105776100Y-77224292D01*
X105956685Y-76726788D01*
X106246881Y-76284165D01*
X106631116Y-75920177D01*
X107088784Y-75654342D01*
X107604629Y-75498108D01*
X108031618Y-75460000D01*
X161958753Y-75460000D01*
X162525708Y-75526100D01*
X162525708Y-75526100D01*
G37*
X162525708Y-75526100D02*
X163023212Y-75706685D01*
X163465835Y-75996881D01*
X163829823Y-76381116D01*
X164095658Y-76838784D01*
X164251892Y-77354629D01*
X164290001Y-77781629D01*
X164290000Y-81569925D01*
X164290001Y-81569930D01*
X164290000Y-97708752D01*
X164223900Y-98275708D01*
X164043315Y-98773212D01*
X163753118Y-99215834D01*
X163368884Y-99579823D01*
X162911216Y-99845658D01*
X162395371Y-100001892D01*
X161968382Y-100040000D01*
X129627000Y-100040000D01*
X129627000Y-97375050D01*
X160115000Y-97375050D01*
X160115000Y-98124950D01*
X160401974Y-98817767D01*
X160932233Y-99348026D01*
X161625050Y-99635000D01*
X162374950Y-99635000D01*
X163067767Y-99348026D01*
X163598026Y-98817767D01*
X163885000Y-98124950D01*
X163885000Y-97375050D01*
X163598026Y-96682233D01*
X163067767Y-96151974D01*
X162374950Y-95865000D01*
X161625050Y-95865000D01*
X160932233Y-96151974D01*
X160401974Y-96682233D01*
X160115000Y-97375050D01*
X129627000Y-97375050D01*
X129627000Y-89300000D01*
X129617333Y-89251399D01*
X129589803Y-89210197D01*
X129548601Y-89182667D01*
X129500000Y-89173000D01*
X105710000Y-89173000D01*
X105710000Y-85400000D01*
X136544724Y-85400000D01*
X136565001Y-85501939D01*
X136565000Y-91698066D01*
X136544724Y-91800000D01*
X136604907Y-92102560D01*
X136625052Y-92203836D01*
X136853807Y-92546193D01*
X136940227Y-92603937D01*
X138122569Y-93786280D01*
X138413720Y-94077431D01*
X138509747Y-94117207D01*
X138596163Y-94174948D01*
X138698098Y-94195224D01*
X138794126Y-94235000D01*
X138898065Y-94235000D01*
X139000000Y-94255276D01*
X139101934Y-94235000D01*
X139205874Y-94235000D01*
X139301902Y-94195224D01*
X139403836Y-94174948D01*
X139490250Y-94117208D01*
X139586280Y-94077431D01*
X139659780Y-94003931D01*
X139746192Y-93946192D01*
X139803931Y-93859780D01*
X139877431Y-93786280D01*
X139917208Y-93690250D01*
X139974948Y-93603836D01*
X139995224Y-93501902D01*
X140035000Y-93405874D01*
X140035000Y-93301934D01*
X140055276Y-93200000D01*
X140035000Y-93098065D01*
X140035000Y-92994126D01*
X139995224Y-92898098D01*
X139974948Y-92796163D01*
X139917207Y-92709747D01*
X139877431Y-92613720D01*
X139586280Y-92322569D01*
X138635000Y-91371290D01*
X138635000Y-90820000D01*
X150442560Y-90820000D01*
X150442560Y-92080000D01*
X150512396Y-92431089D01*
X150711272Y-92728728D01*
X151008911Y-92927604D01*
X151360000Y-92997440D01*
X152596107Y-92997440D01*
X152566155Y-93027392D01*
X152165000Y-93995866D01*
X152165000Y-95044134D01*
X152566155Y-96012608D01*
X153307392Y-96753845D01*
X154275866Y-97155000D01*
X155324134Y-97155000D01*
X156292608Y-96753845D01*
X157033845Y-96012608D01*
X157435000Y-95044134D01*
X157435000Y-93995866D01*
X157033845Y-93027392D01*
X156292608Y-92286155D01*
X155324134Y-91885000D01*
X154275866Y-91885000D01*
X153731365Y-92110540D01*
X153737440Y-92080000D01*
X153737440Y-90820000D01*
X153667604Y-90468911D01*
X153468728Y-90171272D01*
X153320941Y-90072524D01*
X153469888Y-89849609D01*
X153537440Y-89510000D01*
X153537440Y-88390000D01*
X153469888Y-88050391D01*
X153402809Y-87950000D01*
X153469888Y-87849609D01*
X153537440Y-87510000D01*
X153537440Y-86390000D01*
X153469888Y-86050391D01*
X153380698Y-85916908D01*
X153449699Y-85888327D01*
X153628327Y-85709698D01*
X153725000Y-85476309D01*
X153725000Y-84735750D01*
X153566250Y-84577000D01*
X152217000Y-84577000D01*
X152217000Y-84597000D01*
X151963000Y-84597000D01*
X151963000Y-84577000D01*
X150613750Y-84577000D01*
X150455000Y-84735750D01*
X150455000Y-85476309D01*
X150551673Y-85709698D01*
X150730301Y-85888327D01*
X150799302Y-85916908D01*
X150710112Y-86050391D01*
X150642560Y-86390000D01*
X150642560Y-87510000D01*
X150710112Y-87849609D01*
X150777191Y-87950000D01*
X150710112Y-88050391D01*
X150642560Y-88390000D01*
X150642560Y-89510000D01*
X150710112Y-89849609D01*
X150859059Y-90072524D01*
X150711272Y-90171272D01*
X150512396Y-90468911D01*
X150442560Y-90820000D01*
X138635000Y-90820000D01*
X138635000Y-85828710D01*
X139303934Y-85159777D01*
X139377431Y-85086280D01*
X139417207Y-84990253D01*
X139474948Y-84903837D01*
X139495224Y-84801901D01*
X139535000Y-84705874D01*
X139535000Y-84601935D01*
X139555276Y-84500001D01*
X139535000Y-84398066D01*
X139535000Y-84294126D01*
X139495224Y-84198098D01*
X139474948Y-84096164D01*
X139417208Y-84009750D01*
X139377431Y-83913720D01*
X139303931Y-83840220D01*
X139246192Y-83753808D01*
X139159780Y-83696069D01*
X139086280Y-83622569D01*
X138990250Y-83582792D01*
X138903836Y-83525052D01*
X138801902Y-83504776D01*
X138705874Y-83465000D01*
X138601934Y-83465000D01*
X138499999Y-83444724D01*
X138398065Y-83465000D01*
X138294126Y-83465000D01*
X138198099Y-83504776D01*
X138096163Y-83525052D01*
X138009747Y-83582793D01*
X137913720Y-83622569D01*
X137840223Y-83696066D01*
X136940225Y-84596065D01*
X136853808Y-84653807D01*
X136796066Y-84740224D01*
X136625052Y-84996164D01*
X136544724Y-85400000D01*
X105710000Y-85400000D01*
X105710000Y-83423691D01*
X150455000Y-83423691D01*
X150455000Y-84164250D01*
X150613750Y-84323000D01*
X151963000Y-84323000D01*
X151963000Y-83073750D01*
X151804250Y-82915000D01*
X150963690Y-82915000D01*
X150730301Y-83011673D01*
X150551673Y-83190302D01*
X150455000Y-83423691D01*
X105710000Y-83423691D01*
X105710000Y-80855866D01*
X152165000Y-80855866D01*
X152165000Y-81904134D01*
X152566155Y-82872608D01*
X152608547Y-82915000D01*
X152375750Y-82915000D01*
X152217000Y-83073750D01*
X152217000Y-84323000D01*
X153566250Y-84323000D01*
X153725000Y-84164250D01*
X153725000Y-83786824D01*
X154275866Y-84015000D01*
X155324134Y-84015000D01*
X156292608Y-83613845D01*
X157033845Y-82872608D01*
X157435000Y-81904134D01*
X157435000Y-80855866D01*
X157033845Y-79887392D01*
X156292608Y-79146155D01*
X155324134Y-78745000D01*
X154275866Y-78745000D01*
X153307392Y-79146155D01*
X152566155Y-79887392D01*
X152165000Y-80855866D01*
X105710000Y-80855866D01*
X105710000Y-77791247D01*
X105758523Y-77375050D01*
X106115000Y-77375050D01*
X106115000Y-78124950D01*
X106401974Y-78817767D01*
X106932233Y-79348026D01*
X107625050Y-79635000D01*
X108374950Y-79635000D01*
X109067767Y-79348026D01*
X109598026Y-78817767D01*
X109885000Y-78124950D01*
X109885000Y-77375050D01*
X160115000Y-77375050D01*
X160115000Y-78124950D01*
X160401974Y-78817767D01*
X160932233Y-79348026D01*
X161625050Y-79635000D01*
X162374950Y-79635000D01*
X163067767Y-79348026D01*
X163598026Y-78817767D01*
X163885000Y-78124950D01*
X163885000Y-77375050D01*
X163598026Y-76682233D01*
X163067767Y-76151974D01*
X162374950Y-75865000D01*
X161625050Y-75865000D01*
X160932233Y-76151974D01*
X160401974Y-76682233D01*
X160115000Y-77375050D01*
X109885000Y-77375050D01*
X109598026Y-76682233D01*
X109067767Y-76151974D01*
X108374950Y-75865000D01*
X107625050Y-75865000D01*
X106932233Y-76151974D01*
X106401974Y-76682233D01*
X106115000Y-77375050D01*
X105758523Y-77375050D01*
X105776100Y-77224292D01*
X105956685Y-76726788D01*
X106246881Y-76284165D01*
X106631116Y-75920177D01*
X107088784Y-75654342D01*
X107604629Y-75498108D01*
X108031618Y-75460000D01*
X161958753Y-75460000D01*
X162525708Y-75526100D01*
G04 #@! TD*
M02*
