G04 #@! TF.GenerationSoftware,KiCad,Pcbnew,5.0.2-bee76a0~70~ubuntu16.04.1*
G04 #@! TF.CreationDate,2019-02-21T23:56:22+01:00*
G04 #@! TF.ProjectId,24VDC_to_USB_voltage_converter,32345644-435f-4746-9f5f-5553425f766f,rev?*
G04 #@! TF.SameCoordinates,Original*
G04 #@! TF.FileFunction,Soldermask,Top*
G04 #@! TF.FilePolarity,Negative*
%FSLAX46Y46*%
G04 Gerber Fmt 4.6, Leading zero omitted, Abs format (unit mm)*
G04 Created by KiCad (PCBNEW 5.0.2-bee76a0~70~ubuntu16.04.1) date Thu 21 Feb 2019 11:56:22 PM CET*
%MOMM*%
%LPD*%
G01*
G04 APERTURE LIST*
%ADD10C,0.100000*%
G04 APERTURE END LIST*
D10*
G36*
X108379485Y-96498996D02*
X108379487Y-96498997D01*
X108379488Y-96498997D01*
X108497253Y-96547777D01*
X108616255Y-96597069D01*
X108829342Y-96739449D01*
X109010551Y-96920658D01*
X109152931Y-97133745D01*
X109251004Y-97370515D01*
X109301000Y-97621861D01*
X109301000Y-97878139D01*
X109251004Y-98129485D01*
X109152931Y-98366255D01*
X109010551Y-98579342D01*
X108829342Y-98760551D01*
X108829339Y-98760553D01*
X108616255Y-98902931D01*
X108379488Y-99001003D01*
X108379487Y-99001003D01*
X108379485Y-99001004D01*
X108128139Y-99051000D01*
X107871861Y-99051000D01*
X107620515Y-99001004D01*
X107620513Y-99001003D01*
X107620512Y-99001003D01*
X107383745Y-98902931D01*
X107170661Y-98760553D01*
X107170658Y-98760551D01*
X106989449Y-98579342D01*
X106847069Y-98366255D01*
X106748996Y-98129485D01*
X106699000Y-97878139D01*
X106699000Y-97621861D01*
X106748996Y-97370515D01*
X106847069Y-97133745D01*
X106989449Y-96920658D01*
X107170658Y-96739449D01*
X107383745Y-96597069D01*
X107502747Y-96547777D01*
X107620512Y-96498997D01*
X107620513Y-96498997D01*
X107620515Y-96498996D01*
X107871861Y-96449000D01*
X108128139Y-96449000D01*
X108379485Y-96498996D01*
X108379485Y-96498996D01*
G37*
G36*
X162379485Y-96498996D02*
X162379487Y-96498997D01*
X162379488Y-96498997D01*
X162497253Y-96547777D01*
X162616255Y-96597069D01*
X162829342Y-96739449D01*
X163010551Y-96920658D01*
X163152931Y-97133745D01*
X163251004Y-97370515D01*
X163301000Y-97621861D01*
X163301000Y-97878139D01*
X163251004Y-98129485D01*
X163152931Y-98366255D01*
X163010551Y-98579342D01*
X162829342Y-98760551D01*
X162829339Y-98760553D01*
X162616255Y-98902931D01*
X162379488Y-99001003D01*
X162379487Y-99001003D01*
X162379485Y-99001004D01*
X162128139Y-99051000D01*
X161871861Y-99051000D01*
X161620515Y-99001004D01*
X161620513Y-99001003D01*
X161620512Y-99001003D01*
X161383745Y-98902931D01*
X161170661Y-98760553D01*
X161170658Y-98760551D01*
X160989449Y-98579342D01*
X160847069Y-98366255D01*
X160748996Y-98129485D01*
X160699000Y-97878139D01*
X160699000Y-97621861D01*
X160748996Y-97370515D01*
X160847069Y-97133745D01*
X160989449Y-96920658D01*
X161170658Y-96739449D01*
X161383745Y-96597069D01*
X161502747Y-96547777D01*
X161620512Y-96498997D01*
X161620513Y-96498997D01*
X161620515Y-96498996D01*
X161871861Y-96449000D01*
X162128139Y-96449000D01*
X162379485Y-96498996D01*
X162379485Y-96498996D01*
G37*
G36*
X120801200Y-92705553D02*
X120859273Y-92723170D01*
X120912805Y-92751783D01*
X120959717Y-92790283D01*
X120998217Y-92837195D01*
X121026830Y-92890727D01*
X121044447Y-92948800D01*
X121051000Y-93015340D01*
X121051000Y-96484660D01*
X121044447Y-96551200D01*
X121026830Y-96609273D01*
X120998217Y-96662805D01*
X120959717Y-96709717D01*
X120912805Y-96748217D01*
X120859273Y-96776830D01*
X120801200Y-96794447D01*
X120734660Y-96801000D01*
X117265340Y-96801000D01*
X117198800Y-96794447D01*
X117140727Y-96776830D01*
X117087195Y-96748217D01*
X117040283Y-96709717D01*
X117001783Y-96662805D01*
X116973170Y-96609273D01*
X116955553Y-96551200D01*
X116949000Y-96484660D01*
X116949000Y-93015340D01*
X116955553Y-92948800D01*
X116973170Y-92890727D01*
X117001783Y-92837195D01*
X117040283Y-92790283D01*
X117087195Y-92751783D01*
X117140727Y-92723170D01*
X117198800Y-92705553D01*
X117265340Y-92699000D01*
X120734660Y-92699000D01*
X120801200Y-92705553D01*
X120801200Y-92705553D01*
G37*
G36*
X115801200Y-92705553D02*
X115859273Y-92723170D01*
X115912805Y-92751783D01*
X115959717Y-92790283D01*
X115998217Y-92837195D01*
X116026830Y-92890727D01*
X116044447Y-92948800D01*
X116051000Y-93015340D01*
X116051000Y-96484660D01*
X116044447Y-96551200D01*
X116026830Y-96609273D01*
X115998217Y-96662805D01*
X115959717Y-96709717D01*
X115912805Y-96748217D01*
X115859273Y-96776830D01*
X115801200Y-96794447D01*
X115734660Y-96801000D01*
X112265340Y-96801000D01*
X112198800Y-96794447D01*
X112140727Y-96776830D01*
X112087195Y-96748217D01*
X112040283Y-96709717D01*
X112001783Y-96662805D01*
X111973170Y-96609273D01*
X111955553Y-96551200D01*
X111949000Y-96484660D01*
X111949000Y-93015340D01*
X111955553Y-92948800D01*
X111973170Y-92890727D01*
X112001783Y-92837195D01*
X112040283Y-92790283D01*
X112087195Y-92751783D01*
X112140727Y-92723170D01*
X112198800Y-92705553D01*
X112265340Y-92699000D01*
X115734660Y-92699000D01*
X115801200Y-92705553D01*
X115801200Y-92705553D01*
G37*
G36*
X155398252Y-92547818D02*
X155398254Y-92547819D01*
X155398255Y-92547819D01*
X155771513Y-92702427D01*
X156023110Y-92870539D01*
X156107439Y-92926886D01*
X156393114Y-93212561D01*
X156393116Y-93212564D01*
X156617573Y-93548487D01*
X156772181Y-93921745D01*
X156851000Y-94317994D01*
X156851000Y-94722006D01*
X156772181Y-95118255D01*
X156617573Y-95491513D01*
X156617572Y-95491514D01*
X156393114Y-95827439D01*
X156107439Y-96113114D01*
X156107436Y-96113116D01*
X155771513Y-96337573D01*
X155398255Y-96492181D01*
X155398254Y-96492181D01*
X155398252Y-96492182D01*
X155002007Y-96571000D01*
X154597993Y-96571000D01*
X154201748Y-96492182D01*
X154201746Y-96492181D01*
X154201745Y-96492181D01*
X153828487Y-96337573D01*
X153492564Y-96113116D01*
X153492561Y-96113114D01*
X153206886Y-95827439D01*
X152982428Y-95491514D01*
X152982427Y-95491513D01*
X152827819Y-95118255D01*
X152749000Y-94722006D01*
X152749000Y-94317994D01*
X152827819Y-93921745D01*
X152982427Y-93548487D01*
X153206884Y-93212564D01*
X153206886Y-93212561D01*
X153492561Y-92926886D01*
X153576890Y-92870539D01*
X153828487Y-92702427D01*
X154201745Y-92547819D01*
X154201746Y-92547819D01*
X154201748Y-92547818D01*
X154597993Y-92469000D01*
X155002007Y-92469000D01*
X155398252Y-92547818D01*
X155398252Y-92547818D01*
G37*
G36*
X128887965Y-93109450D02*
X128984086Y-93138608D01*
X129072669Y-93185957D01*
X129150318Y-93249682D01*
X129214043Y-93327331D01*
X129261392Y-93415914D01*
X129290550Y-93512035D01*
X129301000Y-93618140D01*
X129301000Y-95881860D01*
X129290550Y-95987965D01*
X129261392Y-96084086D01*
X129214043Y-96172669D01*
X129150318Y-96250318D01*
X129072669Y-96314043D01*
X128984086Y-96361392D01*
X128887965Y-96390550D01*
X128781860Y-96401000D01*
X127518140Y-96401000D01*
X127412035Y-96390550D01*
X127315914Y-96361392D01*
X127227331Y-96314043D01*
X127149682Y-96250318D01*
X127085957Y-96172669D01*
X127038608Y-96084086D01*
X127009450Y-95987965D01*
X126999000Y-95881860D01*
X126999000Y-93618140D01*
X127009450Y-93512035D01*
X127038608Y-93415914D01*
X127085957Y-93327331D01*
X127149682Y-93249682D01*
X127227331Y-93185957D01*
X127315914Y-93138608D01*
X127412035Y-93109450D01*
X127518140Y-93099000D01*
X128781860Y-93099000D01*
X128887965Y-93109450D01*
X128887965Y-93109450D01*
G37*
G36*
X123737965Y-93109450D02*
X123834086Y-93138608D01*
X123922669Y-93185957D01*
X124000318Y-93249682D01*
X124064043Y-93327331D01*
X124111392Y-93415914D01*
X124140550Y-93512035D01*
X124151000Y-93618140D01*
X124151000Y-95881860D01*
X124140550Y-95987965D01*
X124111392Y-96084086D01*
X124064043Y-96172669D01*
X124000318Y-96250318D01*
X123922669Y-96314043D01*
X123834086Y-96361392D01*
X123737965Y-96390550D01*
X123631860Y-96401000D01*
X122368140Y-96401000D01*
X122262035Y-96390550D01*
X122165914Y-96361392D01*
X122077331Y-96314043D01*
X121999682Y-96250318D01*
X121935957Y-96172669D01*
X121888608Y-96084086D01*
X121859450Y-95987965D01*
X121849000Y-95881860D01*
X121849000Y-93618140D01*
X121859450Y-93512035D01*
X121888608Y-93415914D01*
X121935957Y-93327331D01*
X121999682Y-93249682D01*
X122077331Y-93185957D01*
X122165914Y-93138608D01*
X122262035Y-93109450D01*
X122368140Y-93099000D01*
X123631860Y-93099000D01*
X123737965Y-93109450D01*
X123737965Y-93109450D01*
G37*
G36*
X149584466Y-92728564D02*
X149623137Y-92740295D01*
X149658779Y-92759347D01*
X149690017Y-92784982D01*
X149715652Y-92816220D01*
X149734704Y-92851862D01*
X149746435Y-92890533D01*
X149751000Y-92936887D01*
X149751000Y-93588111D01*
X149746435Y-93634465D01*
X149734704Y-93673136D01*
X149715652Y-93708778D01*
X149690017Y-93740016D01*
X149658779Y-93765651D01*
X149623137Y-93784703D01*
X149584466Y-93796434D01*
X149538112Y-93800999D01*
X148461888Y-93800999D01*
X148415534Y-93796434D01*
X148376863Y-93784703D01*
X148341221Y-93765651D01*
X148309983Y-93740016D01*
X148284348Y-93708778D01*
X148265296Y-93673136D01*
X148253565Y-93634465D01*
X148249000Y-93588111D01*
X148249000Y-92936887D01*
X148253565Y-92890533D01*
X148265296Y-92851862D01*
X148284348Y-92816220D01*
X148309983Y-92784982D01*
X148341221Y-92759347D01*
X148376863Y-92740295D01*
X148415534Y-92728564D01*
X148461888Y-92723999D01*
X149538112Y-92723999D01*
X149584466Y-92728564D01*
X149584466Y-92728564D01*
G37*
G36*
X147334466Y-92728564D02*
X147373137Y-92740295D01*
X147408779Y-92759347D01*
X147440017Y-92784982D01*
X147465652Y-92816220D01*
X147484704Y-92851862D01*
X147496435Y-92890533D01*
X147501000Y-92936887D01*
X147501000Y-93588111D01*
X147496435Y-93634465D01*
X147484704Y-93673136D01*
X147465652Y-93708778D01*
X147440017Y-93740016D01*
X147408779Y-93765651D01*
X147373137Y-93784703D01*
X147334466Y-93796434D01*
X147288112Y-93800999D01*
X146211888Y-93800999D01*
X146165534Y-93796434D01*
X146126863Y-93784703D01*
X146091221Y-93765651D01*
X146059983Y-93740016D01*
X146034348Y-93708778D01*
X146015296Y-93673136D01*
X146003565Y-93634465D01*
X145999000Y-93588111D01*
X145999000Y-92936887D01*
X146003565Y-92890533D01*
X146015296Y-92851862D01*
X146034348Y-92816220D01*
X146059983Y-92784982D01*
X146091221Y-92759347D01*
X146126863Y-92740295D01*
X146165534Y-92728564D01*
X146211888Y-92723999D01*
X147288112Y-92723999D01*
X147334466Y-92728564D01*
X147334466Y-92728564D01*
G37*
G36*
X145084466Y-92728564D02*
X145123137Y-92740295D01*
X145158779Y-92759347D01*
X145190017Y-92784982D01*
X145215652Y-92816220D01*
X145234704Y-92851862D01*
X145246435Y-92890533D01*
X145251000Y-92936887D01*
X145251000Y-93588111D01*
X145246435Y-93634465D01*
X145234704Y-93673136D01*
X145215652Y-93708778D01*
X145190017Y-93740016D01*
X145158779Y-93765651D01*
X145123137Y-93784703D01*
X145084466Y-93796434D01*
X145038112Y-93800999D01*
X143961888Y-93800999D01*
X143915534Y-93796434D01*
X143876863Y-93784703D01*
X143841221Y-93765651D01*
X143809983Y-93740016D01*
X143784348Y-93708778D01*
X143765296Y-93673136D01*
X143753565Y-93634465D01*
X143749000Y-93588111D01*
X143749000Y-92936887D01*
X143753565Y-92890533D01*
X143765296Y-92851862D01*
X143784348Y-92816220D01*
X143809983Y-92784982D01*
X143841221Y-92759347D01*
X143876863Y-92740295D01*
X143915534Y-92728564D01*
X143961888Y-92723999D01*
X145038112Y-92723999D01*
X145084466Y-92728564D01*
X145084466Y-92728564D01*
G37*
G36*
X135879591Y-92803085D02*
X135913569Y-92813393D01*
X135944887Y-92830133D01*
X135972339Y-92852661D01*
X135994867Y-92880113D01*
X136011607Y-92911431D01*
X136021915Y-92945409D01*
X136026000Y-92986890D01*
X136026000Y-93588110D01*
X136021915Y-93629591D01*
X136011607Y-93663569D01*
X135994867Y-93694887D01*
X135972339Y-93722339D01*
X135944887Y-93744867D01*
X135913569Y-93761607D01*
X135879591Y-93771915D01*
X135838110Y-93776000D01*
X135161890Y-93776000D01*
X135120409Y-93771915D01*
X135086431Y-93761607D01*
X135055113Y-93744867D01*
X135027661Y-93722339D01*
X135005133Y-93694887D01*
X134988393Y-93663569D01*
X134978085Y-93629591D01*
X134974000Y-93588110D01*
X134974000Y-92986890D01*
X134978085Y-92945409D01*
X134988393Y-92911431D01*
X135005133Y-92880113D01*
X135027661Y-92852661D01*
X135055113Y-92830133D01*
X135086431Y-92813393D01*
X135120409Y-92803085D01*
X135161890Y-92799000D01*
X135838110Y-92799000D01*
X135879591Y-92803085D01*
X135879591Y-92803085D01*
G37*
G36*
X138129591Y-92803085D02*
X138163569Y-92813393D01*
X138194887Y-92830133D01*
X138222339Y-92852661D01*
X138244867Y-92880113D01*
X138261607Y-92911431D01*
X138271915Y-92945409D01*
X138276000Y-92986890D01*
X138276000Y-93588110D01*
X138271915Y-93629591D01*
X138261607Y-93663569D01*
X138244867Y-93694887D01*
X138222339Y-93722339D01*
X138194887Y-93744867D01*
X138163569Y-93761607D01*
X138129591Y-93771915D01*
X138088110Y-93776000D01*
X137411890Y-93776000D01*
X137370409Y-93771915D01*
X137336431Y-93761607D01*
X137305113Y-93744867D01*
X137277661Y-93722339D01*
X137255133Y-93694887D01*
X137238393Y-93663569D01*
X137228085Y-93629591D01*
X137224000Y-93588110D01*
X137224000Y-92986890D01*
X137228085Y-92945409D01*
X137238393Y-92911431D01*
X137255133Y-92880113D01*
X137277661Y-92852661D01*
X137305113Y-92830133D01*
X137336431Y-92813393D01*
X137370409Y-92803085D01*
X137411890Y-92799000D01*
X138088110Y-92799000D01*
X138129591Y-92803085D01*
X138129591Y-92803085D01*
G37*
G36*
X134129591Y-92803085D02*
X134163569Y-92813393D01*
X134194887Y-92830133D01*
X134222339Y-92852661D01*
X134244867Y-92880113D01*
X134261607Y-92911431D01*
X134271915Y-92945409D01*
X134276000Y-92986890D01*
X134276000Y-93588110D01*
X134271915Y-93629591D01*
X134261607Y-93663569D01*
X134244867Y-93694887D01*
X134222339Y-93722339D01*
X134194887Y-93744867D01*
X134163569Y-93761607D01*
X134129591Y-93771915D01*
X134088110Y-93776000D01*
X133411890Y-93776000D01*
X133370409Y-93771915D01*
X133336431Y-93761607D01*
X133305113Y-93744867D01*
X133277661Y-93722339D01*
X133255133Y-93694887D01*
X133238393Y-93663569D01*
X133228085Y-93629591D01*
X133224000Y-93588110D01*
X133224000Y-92986890D01*
X133228085Y-92945409D01*
X133238393Y-92911431D01*
X133255133Y-92880113D01*
X133277661Y-92852661D01*
X133305113Y-92830133D01*
X133336431Y-92813393D01*
X133370409Y-92803085D01*
X133411890Y-92799000D01*
X134088110Y-92799000D01*
X134129591Y-92803085D01*
X134129591Y-92803085D01*
G37*
G36*
X132033643Y-91229781D02*
X132179415Y-91290162D01*
X132310611Y-91377824D01*
X132422176Y-91489389D01*
X132509838Y-91620585D01*
X132570219Y-91766357D01*
X132601000Y-91921107D01*
X132601000Y-92078893D01*
X132570219Y-92233643D01*
X132509838Y-92379415D01*
X132422176Y-92510611D01*
X132310611Y-92622176D01*
X132179415Y-92709838D01*
X132033643Y-92770219D01*
X131878893Y-92801000D01*
X131721107Y-92801000D01*
X131566357Y-92770219D01*
X131420585Y-92709838D01*
X131289389Y-92622176D01*
X131177824Y-92510611D01*
X131090162Y-92379415D01*
X131029781Y-92233643D01*
X130999000Y-92078893D01*
X130999000Y-91921107D01*
X131029781Y-91766357D01*
X131090162Y-91620585D01*
X131177824Y-91489389D01*
X131289389Y-91377824D01*
X131420585Y-91290162D01*
X131566357Y-91229781D01*
X131721107Y-91199000D01*
X131878893Y-91199000D01*
X132033643Y-91229781D01*
X132033643Y-91229781D01*
G37*
G36*
X152981669Y-90503394D02*
X153018664Y-90514616D01*
X153052754Y-90532838D01*
X153082638Y-90557362D01*
X153107162Y-90587246D01*
X153125384Y-90621336D01*
X153136606Y-90658331D01*
X153141000Y-90702941D01*
X153141000Y-92197059D01*
X153136606Y-92241669D01*
X153125384Y-92278664D01*
X153107162Y-92312754D01*
X153082638Y-92342638D01*
X153052754Y-92367162D01*
X153018664Y-92385384D01*
X152981669Y-92396606D01*
X152937059Y-92401000D01*
X151242941Y-92401000D01*
X151198331Y-92396606D01*
X151161336Y-92385384D01*
X151127246Y-92367162D01*
X151097362Y-92342638D01*
X151072838Y-92312754D01*
X151054616Y-92278664D01*
X151043394Y-92241669D01*
X151039000Y-92197059D01*
X151039000Y-90702941D01*
X151043394Y-90658331D01*
X151054616Y-90621336D01*
X151072838Y-90587246D01*
X151097362Y-90557362D01*
X151127246Y-90532838D01*
X151161336Y-90514616D01*
X151198331Y-90503394D01*
X151242941Y-90499000D01*
X152937059Y-90499000D01*
X152981669Y-90503394D01*
X152981669Y-90503394D01*
G37*
G36*
X134129591Y-91228085D02*
X134163569Y-91238393D01*
X134194887Y-91255133D01*
X134222339Y-91277661D01*
X134244867Y-91305113D01*
X134261607Y-91336431D01*
X134271915Y-91370409D01*
X134276000Y-91411890D01*
X134276000Y-92013110D01*
X134271915Y-92054591D01*
X134261607Y-92088569D01*
X134244867Y-92119887D01*
X134222339Y-92147339D01*
X134194887Y-92169867D01*
X134163569Y-92186607D01*
X134129591Y-92196915D01*
X134088110Y-92201000D01*
X133411890Y-92201000D01*
X133370409Y-92196915D01*
X133336431Y-92186607D01*
X133305113Y-92169867D01*
X133277661Y-92147339D01*
X133255133Y-92119887D01*
X133238393Y-92088569D01*
X133228085Y-92054591D01*
X133224000Y-92013110D01*
X133224000Y-91411890D01*
X133228085Y-91370409D01*
X133238393Y-91336431D01*
X133255133Y-91305113D01*
X133277661Y-91277661D01*
X133305113Y-91255133D01*
X133336431Y-91238393D01*
X133370409Y-91228085D01*
X133411890Y-91224000D01*
X134088110Y-91224000D01*
X134129591Y-91228085D01*
X134129591Y-91228085D01*
G37*
G36*
X142233643Y-90629781D02*
X142379415Y-90690162D01*
X142510611Y-90777824D01*
X142622176Y-90889389D01*
X142709838Y-91020585D01*
X142770219Y-91166357D01*
X142801000Y-91321107D01*
X142801000Y-91478893D01*
X142770219Y-91633643D01*
X142709838Y-91779415D01*
X142622176Y-91910611D01*
X142510611Y-92022176D01*
X142379415Y-92109838D01*
X142233643Y-92170219D01*
X142078893Y-92201000D01*
X141921107Y-92201000D01*
X141766357Y-92170219D01*
X141620585Y-92109838D01*
X141489389Y-92022176D01*
X141377824Y-91910611D01*
X141290162Y-91779415D01*
X141229781Y-91633643D01*
X141199000Y-91478893D01*
X141199000Y-91321107D01*
X141229781Y-91166357D01*
X141290162Y-91020585D01*
X141377824Y-90889389D01*
X141489389Y-90777824D01*
X141620585Y-90690162D01*
X141766357Y-90629781D01*
X141921107Y-90599000D01*
X142078893Y-90599000D01*
X142233643Y-90629781D01*
X142233643Y-90629781D01*
G37*
G36*
X138129591Y-91228085D02*
X138163569Y-91238393D01*
X138194887Y-91255133D01*
X138222339Y-91277661D01*
X138244867Y-91305113D01*
X138261607Y-91336431D01*
X138271915Y-91370409D01*
X138276000Y-91411890D01*
X138276000Y-92013110D01*
X138271915Y-92054591D01*
X138261607Y-92088569D01*
X138244867Y-92119887D01*
X138222339Y-92147339D01*
X138194887Y-92169867D01*
X138163569Y-92186607D01*
X138129591Y-92196915D01*
X138088110Y-92201000D01*
X137411890Y-92201000D01*
X137370409Y-92196915D01*
X137336431Y-92186607D01*
X137305113Y-92169867D01*
X137277661Y-92147339D01*
X137255133Y-92119887D01*
X137238393Y-92088569D01*
X137228085Y-92054591D01*
X137224000Y-92013110D01*
X137224000Y-91411890D01*
X137228085Y-91370409D01*
X137238393Y-91336431D01*
X137255133Y-91305113D01*
X137277661Y-91277661D01*
X137305113Y-91255133D01*
X137336431Y-91238393D01*
X137370409Y-91228085D01*
X137411890Y-91224000D01*
X138088110Y-91224000D01*
X138129591Y-91228085D01*
X138129591Y-91228085D01*
G37*
G36*
X135879591Y-91228085D02*
X135913569Y-91238393D01*
X135944887Y-91255133D01*
X135972339Y-91277661D01*
X135994867Y-91305113D01*
X136011607Y-91336431D01*
X136021915Y-91370409D01*
X136026000Y-91411890D01*
X136026000Y-92013110D01*
X136021915Y-92054591D01*
X136011607Y-92088569D01*
X135994867Y-92119887D01*
X135972339Y-92147339D01*
X135944887Y-92169867D01*
X135913569Y-92186607D01*
X135879591Y-92196915D01*
X135838110Y-92201000D01*
X135161890Y-92201000D01*
X135120409Y-92196915D01*
X135086431Y-92186607D01*
X135055113Y-92169867D01*
X135027661Y-92147339D01*
X135005133Y-92119887D01*
X134988393Y-92088569D01*
X134978085Y-92054591D01*
X134974000Y-92013110D01*
X134974000Y-91411890D01*
X134978085Y-91370409D01*
X134988393Y-91336431D01*
X135005133Y-91305113D01*
X135027661Y-91277661D01*
X135055113Y-91255133D01*
X135086431Y-91238393D01*
X135120409Y-91228085D01*
X135161890Y-91224000D01*
X135838110Y-91224000D01*
X135879591Y-91228085D01*
X135879591Y-91228085D01*
G37*
G36*
X145084466Y-90853564D02*
X145123137Y-90865295D01*
X145158779Y-90884347D01*
X145190017Y-90909982D01*
X145215652Y-90941220D01*
X145234704Y-90976862D01*
X145246435Y-91015533D01*
X145251000Y-91061887D01*
X145251000Y-91713111D01*
X145246435Y-91759465D01*
X145234704Y-91798136D01*
X145215652Y-91833778D01*
X145190017Y-91865016D01*
X145158779Y-91890651D01*
X145123137Y-91909703D01*
X145084466Y-91921434D01*
X145038112Y-91925999D01*
X143961888Y-91925999D01*
X143915534Y-91921434D01*
X143876863Y-91909703D01*
X143841221Y-91890651D01*
X143809983Y-91865016D01*
X143784348Y-91833778D01*
X143765296Y-91798136D01*
X143753565Y-91759465D01*
X143749000Y-91713111D01*
X143749000Y-91061887D01*
X143753565Y-91015533D01*
X143765296Y-90976862D01*
X143784348Y-90941220D01*
X143809983Y-90909982D01*
X143841221Y-90884347D01*
X143876863Y-90865295D01*
X143915534Y-90853564D01*
X143961888Y-90848999D01*
X145038112Y-90848999D01*
X145084466Y-90853564D01*
X145084466Y-90853564D01*
G37*
G36*
X147334466Y-90853564D02*
X147373137Y-90865295D01*
X147408779Y-90884347D01*
X147440017Y-90909982D01*
X147465652Y-90941220D01*
X147484704Y-90976862D01*
X147496435Y-91015533D01*
X147501000Y-91061887D01*
X147501000Y-91713111D01*
X147496435Y-91759465D01*
X147484704Y-91798136D01*
X147465652Y-91833778D01*
X147440017Y-91865016D01*
X147408779Y-91890651D01*
X147373137Y-91909703D01*
X147334466Y-91921434D01*
X147288112Y-91925999D01*
X146211888Y-91925999D01*
X146165534Y-91921434D01*
X146126863Y-91909703D01*
X146091221Y-91890651D01*
X146059983Y-91865016D01*
X146034348Y-91833778D01*
X146015296Y-91798136D01*
X146003565Y-91759465D01*
X145999000Y-91713111D01*
X145999000Y-91061887D01*
X146003565Y-91015533D01*
X146015296Y-90976862D01*
X146034348Y-90941220D01*
X146059983Y-90909982D01*
X146091221Y-90884347D01*
X146126863Y-90865295D01*
X146165534Y-90853564D01*
X146211888Y-90848999D01*
X147288112Y-90848999D01*
X147334466Y-90853564D01*
X147334466Y-90853564D01*
G37*
G36*
X149584466Y-90853564D02*
X149623137Y-90865295D01*
X149658779Y-90884347D01*
X149690017Y-90909982D01*
X149715652Y-90941220D01*
X149734704Y-90976862D01*
X149746435Y-91015533D01*
X149751000Y-91061887D01*
X149751000Y-91713111D01*
X149746435Y-91759465D01*
X149734704Y-91798136D01*
X149715652Y-91833778D01*
X149690017Y-91865016D01*
X149658779Y-91890651D01*
X149623137Y-91909703D01*
X149584466Y-91921434D01*
X149538112Y-91925999D01*
X148461888Y-91925999D01*
X148415534Y-91921434D01*
X148376863Y-91909703D01*
X148341221Y-91890651D01*
X148309983Y-91865016D01*
X148284348Y-91833778D01*
X148265296Y-91798136D01*
X148253565Y-91759465D01*
X148249000Y-91713111D01*
X148249000Y-91061887D01*
X148253565Y-91015533D01*
X148265296Y-90976862D01*
X148284348Y-90941220D01*
X148309983Y-90909982D01*
X148341221Y-90884347D01*
X148376863Y-90865295D01*
X148415534Y-90853564D01*
X148461888Y-90848999D01*
X149538112Y-90848999D01*
X149584466Y-90853564D01*
X149584466Y-90853564D01*
G37*
G36*
X126231000Y-90576000D02*
X124569000Y-90576000D01*
X124569000Y-87924000D01*
X126231000Y-87924000D01*
X126231000Y-90576000D01*
X126231000Y-90576000D01*
G37*
G36*
X128931000Y-90576000D02*
X127269000Y-90576000D01*
X127269000Y-87924000D01*
X128931000Y-87924000D01*
X128931000Y-90576000D01*
X128931000Y-90576000D01*
G37*
G36*
X134129591Y-89553085D02*
X134163569Y-89563393D01*
X134194887Y-89580133D01*
X134222339Y-89602661D01*
X134244867Y-89630113D01*
X134261607Y-89661431D01*
X134271915Y-89695409D01*
X134276000Y-89736890D01*
X134276000Y-90338110D01*
X134271915Y-90379591D01*
X134261607Y-90413569D01*
X134244867Y-90444887D01*
X134222339Y-90472339D01*
X134194887Y-90494867D01*
X134163569Y-90511607D01*
X134129591Y-90521915D01*
X134088110Y-90526000D01*
X133411890Y-90526000D01*
X133370409Y-90521915D01*
X133336431Y-90511607D01*
X133305113Y-90494867D01*
X133277661Y-90472339D01*
X133255133Y-90444887D01*
X133238393Y-90413569D01*
X133228085Y-90379591D01*
X133224000Y-90338110D01*
X133224000Y-89736890D01*
X133228085Y-89695409D01*
X133238393Y-89661431D01*
X133255133Y-89630113D01*
X133277661Y-89602661D01*
X133305113Y-89580133D01*
X133336431Y-89563393D01*
X133370409Y-89553085D01*
X133411890Y-89549000D01*
X134088110Y-89549000D01*
X134129591Y-89553085D01*
X134129591Y-89553085D01*
G37*
G36*
X130629591Y-89553085D02*
X130663569Y-89563393D01*
X130694887Y-89580133D01*
X130722339Y-89602661D01*
X130744867Y-89630113D01*
X130761607Y-89661431D01*
X130771915Y-89695409D01*
X130776000Y-89736890D01*
X130776000Y-90338110D01*
X130771915Y-90379591D01*
X130761607Y-90413569D01*
X130744867Y-90444887D01*
X130722339Y-90472339D01*
X130694887Y-90494867D01*
X130663569Y-90511607D01*
X130629591Y-90521915D01*
X130588110Y-90526000D01*
X129911890Y-90526000D01*
X129870409Y-90521915D01*
X129836431Y-90511607D01*
X129805113Y-90494867D01*
X129777661Y-90472339D01*
X129755133Y-90444887D01*
X129738393Y-90413569D01*
X129728085Y-90379591D01*
X129724000Y-90338110D01*
X129724000Y-89736890D01*
X129728085Y-89695409D01*
X129738393Y-89661431D01*
X129755133Y-89630113D01*
X129777661Y-89602661D01*
X129805113Y-89580133D01*
X129836431Y-89563393D01*
X129870409Y-89553085D01*
X129911890Y-89549000D01*
X130588110Y-89549000D01*
X130629591Y-89553085D01*
X130629591Y-89553085D01*
G37*
G36*
X132379591Y-89553085D02*
X132413569Y-89563393D01*
X132444887Y-89580133D01*
X132472339Y-89602661D01*
X132494867Y-89630113D01*
X132511607Y-89661431D01*
X132521915Y-89695409D01*
X132526000Y-89736890D01*
X132526000Y-90338110D01*
X132521915Y-90379591D01*
X132511607Y-90413569D01*
X132494867Y-90444887D01*
X132472339Y-90472339D01*
X132444887Y-90494867D01*
X132413569Y-90511607D01*
X132379591Y-90521915D01*
X132338110Y-90526000D01*
X131661890Y-90526000D01*
X131620409Y-90521915D01*
X131586431Y-90511607D01*
X131555113Y-90494867D01*
X131527661Y-90472339D01*
X131505133Y-90444887D01*
X131488393Y-90413569D01*
X131478085Y-90379591D01*
X131474000Y-90338110D01*
X131474000Y-89736890D01*
X131478085Y-89695409D01*
X131488393Y-89661431D01*
X131505133Y-89630113D01*
X131527661Y-89602661D01*
X131555113Y-89580133D01*
X131586431Y-89563393D01*
X131620409Y-89553085D01*
X131661890Y-89549000D01*
X132338110Y-89549000D01*
X132379591Y-89553085D01*
X132379591Y-89553085D01*
G37*
G36*
X138076000Y-90181000D02*
X135424000Y-90181000D01*
X135424000Y-88519000D01*
X138076000Y-88519000D01*
X138076000Y-90181000D01*
X138076000Y-90181000D01*
G37*
G36*
X152805816Y-88102817D02*
X152837184Y-88112332D01*
X152866090Y-88127783D01*
X152891425Y-88148575D01*
X152912217Y-88173910D01*
X152927668Y-88202816D01*
X152937183Y-88234184D01*
X152941000Y-88272940D01*
X152941000Y-89627060D01*
X152937183Y-89665816D01*
X152927668Y-89697184D01*
X152912217Y-89726090D01*
X152891425Y-89751425D01*
X152866090Y-89772217D01*
X152837184Y-89787668D01*
X152805816Y-89797183D01*
X152767060Y-89801000D01*
X151412940Y-89801000D01*
X151374184Y-89797183D01*
X151342816Y-89787668D01*
X151313910Y-89772217D01*
X151288575Y-89751425D01*
X151267783Y-89726090D01*
X151252332Y-89697184D01*
X151242817Y-89665816D01*
X151239000Y-89627060D01*
X151239000Y-88272940D01*
X151242817Y-88234184D01*
X151252332Y-88202816D01*
X151267783Y-88173910D01*
X151288575Y-88148575D01*
X151313910Y-88127783D01*
X151342816Y-88112332D01*
X151374184Y-88102817D01*
X151412940Y-88099000D01*
X152767060Y-88099000D01*
X152805816Y-88102817D01*
X152805816Y-88102817D01*
G37*
G36*
X147051000Y-89801000D02*
X139449000Y-89801000D01*
X139449000Y-86699000D01*
X147051000Y-86699000D01*
X147051000Y-89801000D01*
X147051000Y-89801000D01*
G37*
G36*
X130629591Y-87978085D02*
X130663569Y-87988393D01*
X130694887Y-88005133D01*
X130722339Y-88027661D01*
X130744867Y-88055113D01*
X130761607Y-88086431D01*
X130771915Y-88120409D01*
X130776000Y-88161890D01*
X130776000Y-88763110D01*
X130771915Y-88804591D01*
X130761607Y-88838569D01*
X130744867Y-88869887D01*
X130722339Y-88897339D01*
X130694887Y-88919867D01*
X130663569Y-88936607D01*
X130629591Y-88946915D01*
X130588110Y-88951000D01*
X129911890Y-88951000D01*
X129870409Y-88946915D01*
X129836431Y-88936607D01*
X129805113Y-88919867D01*
X129777661Y-88897339D01*
X129755133Y-88869887D01*
X129738393Y-88838569D01*
X129728085Y-88804591D01*
X129724000Y-88763110D01*
X129724000Y-88161890D01*
X129728085Y-88120409D01*
X129738393Y-88086431D01*
X129755133Y-88055113D01*
X129777661Y-88027661D01*
X129805113Y-88005133D01*
X129836431Y-87988393D01*
X129870409Y-87978085D01*
X129911890Y-87974000D01*
X130588110Y-87974000D01*
X130629591Y-87978085D01*
X130629591Y-87978085D01*
G37*
G36*
X132379591Y-87978085D02*
X132413569Y-87988393D01*
X132444887Y-88005133D01*
X132472339Y-88027661D01*
X132494867Y-88055113D01*
X132511607Y-88086431D01*
X132521915Y-88120409D01*
X132526000Y-88161890D01*
X132526000Y-88763110D01*
X132521915Y-88804591D01*
X132511607Y-88838569D01*
X132494867Y-88869887D01*
X132472339Y-88897339D01*
X132444887Y-88919867D01*
X132413569Y-88936607D01*
X132379591Y-88946915D01*
X132338110Y-88951000D01*
X131661890Y-88951000D01*
X131620409Y-88946915D01*
X131586431Y-88936607D01*
X131555113Y-88919867D01*
X131527661Y-88897339D01*
X131505133Y-88869887D01*
X131488393Y-88838569D01*
X131478085Y-88804591D01*
X131474000Y-88763110D01*
X131474000Y-88161890D01*
X131478085Y-88120409D01*
X131488393Y-88086431D01*
X131505133Y-88055113D01*
X131527661Y-88027661D01*
X131555113Y-88005133D01*
X131586431Y-87988393D01*
X131620409Y-87978085D01*
X131661890Y-87974000D01*
X132338110Y-87974000D01*
X132379591Y-87978085D01*
X132379591Y-87978085D01*
G37*
G36*
X134129591Y-87978085D02*
X134163569Y-87988393D01*
X134194887Y-88005133D01*
X134222339Y-88027661D01*
X134244867Y-88055113D01*
X134261607Y-88086431D01*
X134271915Y-88120409D01*
X134276000Y-88161890D01*
X134276000Y-88763110D01*
X134271915Y-88804591D01*
X134261607Y-88838569D01*
X134244867Y-88869887D01*
X134222339Y-88897339D01*
X134194887Y-88919867D01*
X134163569Y-88936607D01*
X134129591Y-88946915D01*
X134088110Y-88951000D01*
X133411890Y-88951000D01*
X133370409Y-88946915D01*
X133336431Y-88936607D01*
X133305113Y-88919867D01*
X133277661Y-88897339D01*
X133255133Y-88869887D01*
X133238393Y-88838569D01*
X133228085Y-88804591D01*
X133224000Y-88763110D01*
X133224000Y-88161890D01*
X133228085Y-88120409D01*
X133238393Y-88086431D01*
X133255133Y-88055113D01*
X133277661Y-88027661D01*
X133305113Y-88005133D01*
X133336431Y-87988393D01*
X133370409Y-87978085D01*
X133411890Y-87974000D01*
X134088110Y-87974000D01*
X134129591Y-87978085D01*
X134129591Y-87978085D01*
G37*
G36*
X152805816Y-86102817D02*
X152837184Y-86112332D01*
X152866090Y-86127783D01*
X152891425Y-86148575D01*
X152912217Y-86173910D01*
X152927668Y-86202816D01*
X152937183Y-86234184D01*
X152941000Y-86272940D01*
X152941000Y-87627060D01*
X152937183Y-87665816D01*
X152927668Y-87697184D01*
X152912217Y-87726090D01*
X152891425Y-87751425D01*
X152866090Y-87772217D01*
X152837184Y-87787668D01*
X152805816Y-87797183D01*
X152767060Y-87801000D01*
X151412940Y-87801000D01*
X151374184Y-87797183D01*
X151342816Y-87787668D01*
X151313910Y-87772217D01*
X151288575Y-87751425D01*
X151267783Y-87726090D01*
X151252332Y-87697184D01*
X151242817Y-87665816D01*
X151239000Y-87627060D01*
X151239000Y-86272940D01*
X151242817Y-86234184D01*
X151252332Y-86202816D01*
X151267783Y-86173910D01*
X151288575Y-86148575D01*
X151313910Y-86127783D01*
X151342816Y-86112332D01*
X151374184Y-86102817D01*
X151412940Y-86099000D01*
X152767060Y-86099000D01*
X152805816Y-86102817D01*
X152805816Y-86102817D01*
G37*
G36*
X138076000Y-87481000D02*
X135424000Y-87481000D01*
X135424000Y-85819000D01*
X138076000Y-85819000D01*
X138076000Y-87481000D01*
X138076000Y-87481000D01*
G37*
G36*
X125878277Y-84501326D02*
X125895087Y-84506425D01*
X125910578Y-84514706D01*
X125924153Y-84525847D01*
X125935294Y-84539422D01*
X125943575Y-84554913D01*
X125948674Y-84571723D01*
X125951000Y-84595340D01*
X125951000Y-86504660D01*
X125948674Y-86528277D01*
X125943575Y-86545087D01*
X125935294Y-86560578D01*
X125924153Y-86574153D01*
X125910578Y-86585294D01*
X125895087Y-86593575D01*
X125878277Y-86598674D01*
X125854660Y-86601000D01*
X124145340Y-86601000D01*
X124121723Y-86598674D01*
X124104913Y-86593575D01*
X124089422Y-86585294D01*
X124075847Y-86574153D01*
X124064706Y-86560578D01*
X124056425Y-86545087D01*
X124051326Y-86528277D01*
X124049000Y-86504660D01*
X124049000Y-84595340D01*
X124051326Y-84571723D01*
X124056425Y-84554913D01*
X124064706Y-84539422D01*
X124075847Y-84525847D01*
X124089422Y-84514706D01*
X124104913Y-84506425D01*
X124121723Y-84501326D01*
X124145340Y-84499000D01*
X125854660Y-84499000D01*
X125878277Y-84501326D01*
X125878277Y-84501326D01*
G37*
G36*
X134518604Y-84978347D02*
X134555145Y-84989432D01*
X134588820Y-85007431D01*
X134618341Y-85031659D01*
X134642569Y-85061180D01*
X134660568Y-85094855D01*
X134671653Y-85131396D01*
X134676000Y-85175538D01*
X134676000Y-86124462D01*
X134671653Y-86168604D01*
X134660568Y-86205145D01*
X134642569Y-86238820D01*
X134618341Y-86268341D01*
X134588820Y-86292569D01*
X134555145Y-86310568D01*
X134518604Y-86321653D01*
X134474462Y-86326000D01*
X133025538Y-86326000D01*
X132981396Y-86321653D01*
X132944855Y-86310568D01*
X132911180Y-86292569D01*
X132881659Y-86268341D01*
X132857431Y-86238820D01*
X132839432Y-86205145D01*
X132828347Y-86168604D01*
X132824000Y-86124462D01*
X132824000Y-85175538D01*
X132828347Y-85131396D01*
X132839432Y-85094855D01*
X132857431Y-85061180D01*
X132881659Y-85031659D01*
X132911180Y-85007431D01*
X132944855Y-84989432D01*
X132981396Y-84978347D01*
X133025538Y-84974000D01*
X134474462Y-84974000D01*
X134518604Y-84978347D01*
X134518604Y-84978347D01*
G37*
G36*
X129518604Y-84978347D02*
X129555145Y-84989432D01*
X129588820Y-85007431D01*
X129618341Y-85031659D01*
X129642569Y-85061180D01*
X129660568Y-85094855D01*
X129671653Y-85131396D01*
X129676000Y-85175538D01*
X129676000Y-86124462D01*
X129671653Y-86168604D01*
X129660568Y-86205145D01*
X129642569Y-86238820D01*
X129618341Y-86268341D01*
X129588820Y-86292569D01*
X129555145Y-86310568D01*
X129518604Y-86321653D01*
X129474462Y-86326000D01*
X128025538Y-86326000D01*
X127981396Y-86321653D01*
X127944855Y-86310568D01*
X127911180Y-86292569D01*
X127881659Y-86268341D01*
X127857431Y-86238820D01*
X127839432Y-86205145D01*
X127828347Y-86168604D01*
X127824000Y-86124462D01*
X127824000Y-85175538D01*
X127828347Y-85131396D01*
X127839432Y-85094855D01*
X127857431Y-85061180D01*
X127881659Y-85031659D01*
X127911180Y-85007431D01*
X127944855Y-84989432D01*
X127981396Y-84978347D01*
X128025538Y-84974000D01*
X129474462Y-84974000D01*
X129518604Y-84978347D01*
X129518604Y-84978347D01*
G37*
G36*
X132018604Y-84978347D02*
X132055145Y-84989432D01*
X132088820Y-85007431D01*
X132118341Y-85031659D01*
X132142569Y-85061180D01*
X132160568Y-85094855D01*
X132171653Y-85131396D01*
X132176000Y-85175538D01*
X132176000Y-86124462D01*
X132171653Y-86168604D01*
X132160568Y-86205145D01*
X132142569Y-86238820D01*
X132118341Y-86268341D01*
X132088820Y-86292569D01*
X132055145Y-86310568D01*
X132018604Y-86321653D01*
X131974462Y-86326000D01*
X130525538Y-86326000D01*
X130481396Y-86321653D01*
X130444855Y-86310568D01*
X130411180Y-86292569D01*
X130381659Y-86268341D01*
X130357431Y-86238820D01*
X130339432Y-86205145D01*
X130328347Y-86168604D01*
X130324000Y-86124462D01*
X130324000Y-85175538D01*
X130328347Y-85131396D01*
X130339432Y-85094855D01*
X130357431Y-85061180D01*
X130381659Y-85031659D01*
X130411180Y-85007431D01*
X130444855Y-84989432D01*
X130481396Y-84978347D01*
X130525538Y-84974000D01*
X131974462Y-84974000D01*
X132018604Y-84978347D01*
X132018604Y-84978347D01*
G37*
G36*
X152981669Y-83503394D02*
X153018664Y-83514616D01*
X153052754Y-83532838D01*
X153082638Y-83557362D01*
X153107162Y-83587246D01*
X153125384Y-83621336D01*
X153136606Y-83658331D01*
X153141000Y-83702941D01*
X153141000Y-85197059D01*
X153136606Y-85241669D01*
X153125384Y-85278664D01*
X153107162Y-85312754D01*
X153082638Y-85342638D01*
X153052754Y-85367162D01*
X153018664Y-85385384D01*
X152981669Y-85396606D01*
X152937059Y-85401000D01*
X151242941Y-85401000D01*
X151198331Y-85396606D01*
X151161336Y-85385384D01*
X151127246Y-85367162D01*
X151097362Y-85342638D01*
X151072838Y-85312754D01*
X151054616Y-85278664D01*
X151043394Y-85241669D01*
X151039000Y-85197059D01*
X151039000Y-83702941D01*
X151043394Y-83658331D01*
X151054616Y-83621336D01*
X151072838Y-83587246D01*
X151097362Y-83557362D01*
X151127246Y-83532838D01*
X151161336Y-83514616D01*
X151198331Y-83503394D01*
X151242941Y-83499000D01*
X152937059Y-83499000D01*
X152981669Y-83503394D01*
X152981669Y-83503394D01*
G37*
G36*
X147051000Y-84801000D02*
X139449000Y-84801000D01*
X139449000Y-81699000D01*
X147051000Y-81699000D01*
X147051000Y-84801000D01*
X147051000Y-84801000D01*
G37*
G36*
X150346399Y-83209392D02*
X150380377Y-83219700D01*
X150411695Y-83236440D01*
X150439147Y-83258968D01*
X150461675Y-83286420D01*
X150478415Y-83317738D01*
X150488723Y-83351716D01*
X150492808Y-83393197D01*
X150492808Y-84069417D01*
X150488723Y-84110898D01*
X150478415Y-84144876D01*
X150461675Y-84176194D01*
X150439147Y-84203646D01*
X150411695Y-84226174D01*
X150380377Y-84242914D01*
X150346399Y-84253222D01*
X150304918Y-84257307D01*
X149703698Y-84257307D01*
X149662217Y-84253222D01*
X149628239Y-84242914D01*
X149596921Y-84226174D01*
X149569469Y-84203646D01*
X149546941Y-84176194D01*
X149530201Y-84144876D01*
X149519893Y-84110898D01*
X149515808Y-84069417D01*
X149515808Y-83393197D01*
X149519893Y-83351716D01*
X149530201Y-83317738D01*
X149546941Y-83286420D01*
X149569469Y-83258968D01*
X149596921Y-83236440D01*
X149628239Y-83219700D01*
X149662217Y-83209392D01*
X149703698Y-83205307D01*
X150304918Y-83205307D01*
X150346399Y-83209392D01*
X150346399Y-83209392D01*
G37*
G36*
X148771399Y-83209392D02*
X148805377Y-83219700D01*
X148836695Y-83236440D01*
X148864147Y-83258968D01*
X148886675Y-83286420D01*
X148903415Y-83317738D01*
X148913723Y-83351716D01*
X148917808Y-83393197D01*
X148917808Y-84069417D01*
X148913723Y-84110898D01*
X148903415Y-84144876D01*
X148886675Y-84176194D01*
X148864147Y-84203646D01*
X148836695Y-84226174D01*
X148805377Y-84242914D01*
X148771399Y-84253222D01*
X148729918Y-84257307D01*
X148128698Y-84257307D01*
X148087217Y-84253222D01*
X148053239Y-84242914D01*
X148021921Y-84226174D01*
X147994469Y-84203646D01*
X147971941Y-84176194D01*
X147955201Y-84144876D01*
X147944893Y-84110898D01*
X147940808Y-84069417D01*
X147940808Y-83393197D01*
X147944893Y-83351716D01*
X147955201Y-83317738D01*
X147971941Y-83286420D01*
X147994469Y-83258968D01*
X148021921Y-83236440D01*
X148053239Y-83219700D01*
X148087217Y-83209392D01*
X148128698Y-83205307D01*
X148729918Y-83205307D01*
X148771399Y-83209392D01*
X148771399Y-83209392D01*
G37*
G36*
X137483643Y-82229781D02*
X137629415Y-82290162D01*
X137760611Y-82377824D01*
X137872176Y-82489389D01*
X137959838Y-82620585D01*
X138020219Y-82766357D01*
X138051000Y-82921107D01*
X138051000Y-83078893D01*
X138020219Y-83233643D01*
X137959838Y-83379415D01*
X137872176Y-83510611D01*
X137760611Y-83622176D01*
X137629415Y-83709838D01*
X137483643Y-83770219D01*
X137328893Y-83801000D01*
X137171107Y-83801000D01*
X137016357Y-83770219D01*
X136870585Y-83709838D01*
X136739389Y-83622176D01*
X136627824Y-83510611D01*
X136540162Y-83379415D01*
X136479781Y-83233643D01*
X136449000Y-83078893D01*
X136449000Y-82921107D01*
X136479781Y-82766357D01*
X136540162Y-82620585D01*
X136627824Y-82489389D01*
X136739389Y-82377824D01*
X136870585Y-82290162D01*
X137016357Y-82229781D01*
X137171107Y-82199000D01*
X137328893Y-82199000D01*
X137483643Y-82229781D01*
X137483643Y-82229781D01*
G37*
G36*
X134518604Y-82178347D02*
X134555145Y-82189432D01*
X134588820Y-82207431D01*
X134618341Y-82231659D01*
X134642569Y-82261180D01*
X134660568Y-82294855D01*
X134671653Y-82331396D01*
X134676000Y-82375538D01*
X134676000Y-83324462D01*
X134671653Y-83368604D01*
X134660568Y-83405145D01*
X134642569Y-83438820D01*
X134618341Y-83468341D01*
X134588820Y-83492569D01*
X134555145Y-83510568D01*
X134518604Y-83521653D01*
X134474462Y-83526000D01*
X133025538Y-83526000D01*
X132981396Y-83521653D01*
X132944855Y-83510568D01*
X132911180Y-83492569D01*
X132881659Y-83468341D01*
X132857431Y-83438820D01*
X132839432Y-83405145D01*
X132828347Y-83368604D01*
X132824000Y-83324462D01*
X132824000Y-82375538D01*
X132828347Y-82331396D01*
X132839432Y-82294855D01*
X132857431Y-82261180D01*
X132881659Y-82231659D01*
X132911180Y-82207431D01*
X132944855Y-82189432D01*
X132981396Y-82178347D01*
X133025538Y-82174000D01*
X134474462Y-82174000D01*
X134518604Y-82178347D01*
X134518604Y-82178347D01*
G37*
G36*
X129518604Y-82178347D02*
X129555145Y-82189432D01*
X129588820Y-82207431D01*
X129618341Y-82231659D01*
X129642569Y-82261180D01*
X129660568Y-82294855D01*
X129671653Y-82331396D01*
X129676000Y-82375538D01*
X129676000Y-83324462D01*
X129671653Y-83368604D01*
X129660568Y-83405145D01*
X129642569Y-83438820D01*
X129618341Y-83468341D01*
X129588820Y-83492569D01*
X129555145Y-83510568D01*
X129518604Y-83521653D01*
X129474462Y-83526000D01*
X128025538Y-83526000D01*
X127981396Y-83521653D01*
X127944855Y-83510568D01*
X127911180Y-83492569D01*
X127881659Y-83468341D01*
X127857431Y-83438820D01*
X127839432Y-83405145D01*
X127828347Y-83368604D01*
X127824000Y-83324462D01*
X127824000Y-82375538D01*
X127828347Y-82331396D01*
X127839432Y-82294855D01*
X127857431Y-82261180D01*
X127881659Y-82231659D01*
X127911180Y-82207431D01*
X127944855Y-82189432D01*
X127981396Y-82178347D01*
X128025538Y-82174000D01*
X129474462Y-82174000D01*
X129518604Y-82178347D01*
X129518604Y-82178347D01*
G37*
G36*
X132018604Y-82178347D02*
X132055145Y-82189432D01*
X132088820Y-82207431D01*
X132118341Y-82231659D01*
X132142569Y-82261180D01*
X132160568Y-82294855D01*
X132171653Y-82331396D01*
X132176000Y-82375538D01*
X132176000Y-83324462D01*
X132171653Y-83368604D01*
X132160568Y-83405145D01*
X132142569Y-83438820D01*
X132118341Y-83468341D01*
X132088820Y-83492569D01*
X132055145Y-83510568D01*
X132018604Y-83521653D01*
X131974462Y-83526000D01*
X130525538Y-83526000D01*
X130481396Y-83521653D01*
X130444855Y-83510568D01*
X130411180Y-83492569D01*
X130381659Y-83468341D01*
X130357431Y-83438820D01*
X130339432Y-83405145D01*
X130328347Y-83368604D01*
X130324000Y-83324462D01*
X130324000Y-82375538D01*
X130328347Y-82331396D01*
X130339432Y-82294855D01*
X130357431Y-82261180D01*
X130381659Y-82231659D01*
X130411180Y-82207431D01*
X130444855Y-82189432D01*
X130481396Y-82178347D01*
X130525538Y-82174000D01*
X131974462Y-82174000D01*
X132018604Y-82178347D01*
X132018604Y-82178347D01*
G37*
G36*
X155398252Y-79407818D02*
X155398254Y-79407819D01*
X155398255Y-79407819D01*
X155771513Y-79562427D01*
X155987021Y-79706425D01*
X156107439Y-79786886D01*
X156393114Y-80072561D01*
X156393116Y-80072564D01*
X156617573Y-80408487D01*
X156772181Y-80781745D01*
X156772182Y-80781748D01*
X156851000Y-81177993D01*
X156851000Y-81582007D01*
X156777890Y-81949557D01*
X156772181Y-81978255D01*
X156617573Y-82351513D01*
X156486433Y-82547777D01*
X156393114Y-82687439D01*
X156107439Y-82973114D01*
X156107436Y-82973116D01*
X155771513Y-83197573D01*
X155398255Y-83352181D01*
X155398254Y-83352181D01*
X155398252Y-83352182D01*
X155002007Y-83431000D01*
X154597993Y-83431000D01*
X154201748Y-83352182D01*
X154201746Y-83352181D01*
X154201745Y-83352181D01*
X153828487Y-83197573D01*
X153492564Y-82973116D01*
X153492561Y-82973114D01*
X153206886Y-82687439D01*
X153113567Y-82547777D01*
X152982427Y-82351513D01*
X152827819Y-81978255D01*
X152822111Y-81949557D01*
X152749000Y-81582007D01*
X152749000Y-81177993D01*
X152827818Y-80781748D01*
X152827819Y-80781745D01*
X152982427Y-80408487D01*
X153206884Y-80072564D01*
X153206886Y-80072561D01*
X153492561Y-79786886D01*
X153612979Y-79706425D01*
X153828487Y-79562427D01*
X154201745Y-79407819D01*
X154201746Y-79407819D01*
X154201748Y-79407818D01*
X154597993Y-79329000D01*
X155002007Y-79329000D01*
X155398252Y-79407818D01*
X155398252Y-79407818D01*
G37*
G36*
X120801200Y-78705553D02*
X120859273Y-78723170D01*
X120912805Y-78751783D01*
X120959717Y-78790283D01*
X120998217Y-78837195D01*
X121026830Y-78890727D01*
X121044447Y-78948800D01*
X121051000Y-79015340D01*
X121051000Y-82484660D01*
X121044447Y-82551200D01*
X121026830Y-82609273D01*
X120998217Y-82662805D01*
X120959717Y-82709717D01*
X120912805Y-82748217D01*
X120859273Y-82776830D01*
X120801200Y-82794447D01*
X120734660Y-82801000D01*
X117265340Y-82801000D01*
X117198800Y-82794447D01*
X117140727Y-82776830D01*
X117087195Y-82748217D01*
X117040283Y-82709717D01*
X117001783Y-82662805D01*
X116973170Y-82609273D01*
X116955553Y-82551200D01*
X116949000Y-82484660D01*
X116949000Y-79015340D01*
X116955553Y-78948800D01*
X116973170Y-78890727D01*
X117001783Y-78837195D01*
X117040283Y-78790283D01*
X117087195Y-78751783D01*
X117140727Y-78723170D01*
X117198800Y-78705553D01*
X117265340Y-78699000D01*
X120734660Y-78699000D01*
X120801200Y-78705553D01*
X120801200Y-78705553D01*
G37*
G36*
X115801200Y-78705553D02*
X115859273Y-78723170D01*
X115912805Y-78751783D01*
X115959717Y-78790283D01*
X115998217Y-78837195D01*
X116026830Y-78890727D01*
X116044447Y-78948800D01*
X116051000Y-79015340D01*
X116051000Y-82484660D01*
X116044447Y-82551200D01*
X116026830Y-82609273D01*
X115998217Y-82662805D01*
X115959717Y-82709717D01*
X115912805Y-82748217D01*
X115859273Y-82776830D01*
X115801200Y-82794447D01*
X115734660Y-82801000D01*
X112265340Y-82801000D01*
X112198800Y-82794447D01*
X112140727Y-82776830D01*
X112087195Y-82748217D01*
X112040283Y-82709717D01*
X112001783Y-82662805D01*
X111973170Y-82609273D01*
X111955553Y-82551200D01*
X111949000Y-82484660D01*
X111949000Y-79015340D01*
X111955553Y-78948800D01*
X111973170Y-78890727D01*
X112001783Y-78837195D01*
X112040283Y-78790283D01*
X112087195Y-78751783D01*
X112140727Y-78723170D01*
X112198800Y-78705553D01*
X112265340Y-78699000D01*
X115734660Y-78699000D01*
X115801200Y-78705553D01*
X115801200Y-78705553D01*
G37*
G36*
X148771399Y-81709392D02*
X148805377Y-81719700D01*
X148836695Y-81736440D01*
X148864147Y-81758968D01*
X148886675Y-81786420D01*
X148903415Y-81817738D01*
X148913723Y-81851716D01*
X148917808Y-81893197D01*
X148917808Y-82569417D01*
X148913723Y-82610898D01*
X148903415Y-82644876D01*
X148886675Y-82676194D01*
X148864147Y-82703646D01*
X148836695Y-82726174D01*
X148805377Y-82742914D01*
X148771399Y-82753222D01*
X148729918Y-82757307D01*
X148128698Y-82757307D01*
X148087217Y-82753222D01*
X148053239Y-82742914D01*
X148021921Y-82726174D01*
X147994469Y-82703646D01*
X147971941Y-82676194D01*
X147955201Y-82644876D01*
X147944893Y-82610898D01*
X147940808Y-82569417D01*
X147940808Y-81893197D01*
X147944893Y-81851716D01*
X147955201Y-81817738D01*
X147971941Y-81786420D01*
X147994469Y-81758968D01*
X148021921Y-81736440D01*
X148053239Y-81719700D01*
X148087217Y-81709392D01*
X148128698Y-81705307D01*
X148729918Y-81705307D01*
X148771399Y-81709392D01*
X148771399Y-81709392D01*
G37*
G36*
X150346399Y-81709392D02*
X150380377Y-81719700D01*
X150411695Y-81736440D01*
X150439147Y-81758968D01*
X150461675Y-81786420D01*
X150478415Y-81817738D01*
X150488723Y-81851716D01*
X150492808Y-81893197D01*
X150492808Y-82569417D01*
X150488723Y-82610898D01*
X150478415Y-82644876D01*
X150461675Y-82676194D01*
X150439147Y-82703646D01*
X150411695Y-82726174D01*
X150380377Y-82742914D01*
X150346399Y-82753222D01*
X150304918Y-82757307D01*
X149703698Y-82757307D01*
X149662217Y-82753222D01*
X149628239Y-82742914D01*
X149596921Y-82726174D01*
X149569469Y-82703646D01*
X149546941Y-82676194D01*
X149530201Y-82644876D01*
X149519893Y-82610898D01*
X149515808Y-82569417D01*
X149515808Y-81893197D01*
X149519893Y-81851716D01*
X149530201Y-81817738D01*
X149546941Y-81786420D01*
X149569469Y-81758968D01*
X149596921Y-81736440D01*
X149628239Y-81719700D01*
X149662217Y-81709392D01*
X149703698Y-81705307D01*
X150304918Y-81705307D01*
X150346399Y-81709392D01*
X150346399Y-81709392D01*
G37*
G36*
X125878277Y-79701326D02*
X125895087Y-79706425D01*
X125910578Y-79714706D01*
X125924153Y-79725847D01*
X125935294Y-79739422D01*
X125943575Y-79754913D01*
X125948674Y-79771723D01*
X125951000Y-79795340D01*
X125951000Y-81704660D01*
X125948674Y-81728277D01*
X125943575Y-81745087D01*
X125935294Y-81760578D01*
X125924153Y-81774153D01*
X125910578Y-81785294D01*
X125895087Y-81793575D01*
X125878277Y-81798674D01*
X125854660Y-81801000D01*
X124145340Y-81801000D01*
X124121723Y-81798674D01*
X124104913Y-81793575D01*
X124089422Y-81785294D01*
X124075847Y-81774153D01*
X124064706Y-81760578D01*
X124056425Y-81745087D01*
X124051326Y-81728277D01*
X124049000Y-81704660D01*
X124049000Y-79795340D01*
X124051326Y-79771723D01*
X124056425Y-79754913D01*
X124064706Y-79739422D01*
X124075847Y-79725847D01*
X124089422Y-79714706D01*
X124104913Y-79706425D01*
X124121723Y-79701326D01*
X124145340Y-79699000D01*
X125854660Y-79699000D01*
X125878277Y-79701326D01*
X125878277Y-79701326D01*
G37*
G36*
X108379485Y-76498996D02*
X108379487Y-76498997D01*
X108379488Y-76498997D01*
X108616255Y-76597069D01*
X108829342Y-76739449D01*
X109010551Y-76920658D01*
X109152931Y-77133745D01*
X109251004Y-77370515D01*
X109301000Y-77621861D01*
X109301000Y-77878139D01*
X109251004Y-78129485D01*
X109152931Y-78366255D01*
X109010551Y-78579342D01*
X108829342Y-78760551D01*
X108829339Y-78760553D01*
X108616255Y-78902931D01*
X108379488Y-79001003D01*
X108379487Y-79001003D01*
X108379485Y-79001004D01*
X108128139Y-79051000D01*
X107871861Y-79051000D01*
X107620515Y-79001004D01*
X107620513Y-79001003D01*
X107620512Y-79001003D01*
X107383745Y-78902931D01*
X107170661Y-78760553D01*
X107170658Y-78760551D01*
X106989449Y-78579342D01*
X106847069Y-78366255D01*
X106748996Y-78129485D01*
X106699000Y-77878139D01*
X106699000Y-77621861D01*
X106748996Y-77370515D01*
X106847069Y-77133745D01*
X106989449Y-76920658D01*
X107170658Y-76739449D01*
X107383745Y-76597069D01*
X107620512Y-76498997D01*
X107620513Y-76498997D01*
X107620515Y-76498996D01*
X107871861Y-76449000D01*
X108128139Y-76449000D01*
X108379485Y-76498996D01*
X108379485Y-76498996D01*
G37*
G36*
X162379485Y-76498996D02*
X162379487Y-76498997D01*
X162379488Y-76498997D01*
X162616255Y-76597069D01*
X162829342Y-76739449D01*
X163010551Y-76920658D01*
X163152931Y-77133745D01*
X163251004Y-77370515D01*
X163301000Y-77621861D01*
X163301000Y-77878139D01*
X163251004Y-78129485D01*
X163152931Y-78366255D01*
X163010551Y-78579342D01*
X162829342Y-78760551D01*
X162829339Y-78760553D01*
X162616255Y-78902931D01*
X162379488Y-79001003D01*
X162379487Y-79001003D01*
X162379485Y-79001004D01*
X162128139Y-79051000D01*
X161871861Y-79051000D01*
X161620515Y-79001004D01*
X161620513Y-79001003D01*
X161620512Y-79001003D01*
X161383745Y-78902931D01*
X161170661Y-78760553D01*
X161170658Y-78760551D01*
X160989449Y-78579342D01*
X160847069Y-78366255D01*
X160748996Y-78129485D01*
X160699000Y-77878139D01*
X160699000Y-77621861D01*
X160748996Y-77370515D01*
X160847069Y-77133745D01*
X160989449Y-76920658D01*
X161170658Y-76739449D01*
X161383745Y-76597069D01*
X161620512Y-76498997D01*
X161620513Y-76498997D01*
X161620515Y-76498996D01*
X161871861Y-76449000D01*
X162128139Y-76449000D01*
X162379485Y-76498996D01*
X162379485Y-76498996D01*
G37*
M02*
