G04 #@! TF.GenerationSoftware,KiCad,Pcbnew,5.0.2-bee76a0~70~ubuntu16.04.1*
G04 #@! TF.CreationDate,2019-03-06T23:45:18+01:00*
G04 #@! TF.ProjectId,24VDC_to_USB_voltage_converter,32345644-435f-4746-9f5f-5553425f766f,rev?*
G04 #@! TF.SameCoordinates,Original*
G04 #@! TF.FileFunction,Soldermask,Top*
G04 #@! TF.FilePolarity,Negative*
%FSLAX46Y46*%
G04 Gerber Fmt 4.6, Leading zero omitted, Abs format (unit mm)*
G04 Created by KiCad (PCBNEW 5.0.2-bee76a0~70~ubuntu16.04.1) date Wed 06 Mar 2019 11:45:18 PM CET*
%MOMM*%
%LPD*%
G01*
G04 APERTURE LIST*
%ADD10C,0.100000*%
G04 APERTURE END LIST*
D10*
G36*
X26579485Y-46098996D02*
X26579487Y-46098997D01*
X26579488Y-46098997D01*
X26697253Y-46147777D01*
X26816255Y-46197069D01*
X27029342Y-46339449D01*
X27210551Y-46520658D01*
X27352931Y-46733745D01*
X27451004Y-46970515D01*
X27501000Y-47221861D01*
X27501000Y-47478139D01*
X27451004Y-47729485D01*
X27352931Y-47966255D01*
X27210551Y-48179342D01*
X27029342Y-48360551D01*
X27029339Y-48360553D01*
X26816255Y-48502931D01*
X26579488Y-48601003D01*
X26579487Y-48601003D01*
X26579485Y-48601004D01*
X26328139Y-48651000D01*
X26071861Y-48651000D01*
X25820515Y-48601004D01*
X25820513Y-48601003D01*
X25820512Y-48601003D01*
X25583745Y-48502931D01*
X25370661Y-48360553D01*
X25370658Y-48360551D01*
X25189449Y-48179342D01*
X25047069Y-47966255D01*
X24948996Y-47729485D01*
X24899000Y-47478139D01*
X24899000Y-47221861D01*
X24948996Y-46970515D01*
X25047069Y-46733745D01*
X25189449Y-46520658D01*
X25370658Y-46339449D01*
X25583745Y-46197069D01*
X25702747Y-46147777D01*
X25820512Y-46098997D01*
X25820513Y-46098997D01*
X25820515Y-46098996D01*
X26071861Y-46049000D01*
X26328139Y-46049000D01*
X26579485Y-46098996D01*
X26579485Y-46098996D01*
G37*
G36*
X80579485Y-46098996D02*
X80579487Y-46098997D01*
X80579488Y-46098997D01*
X80697253Y-46147777D01*
X80816255Y-46197069D01*
X81029342Y-46339449D01*
X81210551Y-46520658D01*
X81352931Y-46733745D01*
X81451004Y-46970515D01*
X81501000Y-47221861D01*
X81501000Y-47478139D01*
X81451004Y-47729485D01*
X81352931Y-47966255D01*
X81210551Y-48179342D01*
X81029342Y-48360551D01*
X81029339Y-48360553D01*
X80816255Y-48502931D01*
X80579488Y-48601003D01*
X80579487Y-48601003D01*
X80579485Y-48601004D01*
X80328139Y-48651000D01*
X80071861Y-48651000D01*
X79820515Y-48601004D01*
X79820513Y-48601003D01*
X79820512Y-48601003D01*
X79583745Y-48502931D01*
X79370661Y-48360553D01*
X79370658Y-48360551D01*
X79189449Y-48179342D01*
X79047069Y-47966255D01*
X78948996Y-47729485D01*
X78899000Y-47478139D01*
X78899000Y-47221861D01*
X78948996Y-46970515D01*
X79047069Y-46733745D01*
X79189449Y-46520658D01*
X79370658Y-46339449D01*
X79583745Y-46197069D01*
X79702747Y-46147777D01*
X79820512Y-46098997D01*
X79820513Y-46098997D01*
X79820515Y-46098996D01*
X80071861Y-46049000D01*
X80328139Y-46049000D01*
X80579485Y-46098996D01*
X80579485Y-46098996D01*
G37*
G36*
X39001200Y-42305553D02*
X39059273Y-42323170D01*
X39112805Y-42351783D01*
X39159717Y-42390283D01*
X39198217Y-42437195D01*
X39226830Y-42490727D01*
X39244447Y-42548800D01*
X39251000Y-42615340D01*
X39251000Y-46084660D01*
X39244447Y-46151200D01*
X39226830Y-46209273D01*
X39198217Y-46262805D01*
X39159717Y-46309717D01*
X39112805Y-46348217D01*
X39059273Y-46376830D01*
X39001200Y-46394447D01*
X38934660Y-46401000D01*
X35465340Y-46401000D01*
X35398800Y-46394447D01*
X35340727Y-46376830D01*
X35287195Y-46348217D01*
X35240283Y-46309717D01*
X35201783Y-46262805D01*
X35173170Y-46209273D01*
X35155553Y-46151200D01*
X35149000Y-46084660D01*
X35149000Y-42615340D01*
X35155553Y-42548800D01*
X35173170Y-42490727D01*
X35201783Y-42437195D01*
X35240283Y-42390283D01*
X35287195Y-42351783D01*
X35340727Y-42323170D01*
X35398800Y-42305553D01*
X35465340Y-42299000D01*
X38934660Y-42299000D01*
X39001200Y-42305553D01*
X39001200Y-42305553D01*
G37*
G36*
X34001200Y-42305553D02*
X34059273Y-42323170D01*
X34112805Y-42351783D01*
X34159717Y-42390283D01*
X34198217Y-42437195D01*
X34226830Y-42490727D01*
X34244447Y-42548800D01*
X34251000Y-42615340D01*
X34251000Y-46084660D01*
X34244447Y-46151200D01*
X34226830Y-46209273D01*
X34198217Y-46262805D01*
X34159717Y-46309717D01*
X34112805Y-46348217D01*
X34059273Y-46376830D01*
X34001200Y-46394447D01*
X33934660Y-46401000D01*
X30465340Y-46401000D01*
X30398800Y-46394447D01*
X30340727Y-46376830D01*
X30287195Y-46348217D01*
X30240283Y-46309717D01*
X30201783Y-46262805D01*
X30173170Y-46209273D01*
X30155553Y-46151200D01*
X30149000Y-46084660D01*
X30149000Y-42615340D01*
X30155553Y-42548800D01*
X30173170Y-42490727D01*
X30201783Y-42437195D01*
X30240283Y-42390283D01*
X30287195Y-42351783D01*
X30340727Y-42323170D01*
X30398800Y-42305553D01*
X30465340Y-42299000D01*
X33934660Y-42299000D01*
X34001200Y-42305553D01*
X34001200Y-42305553D01*
G37*
G36*
X73598252Y-42147818D02*
X73598254Y-42147819D01*
X73598255Y-42147819D01*
X73971513Y-42302427D01*
X74223110Y-42470539D01*
X74307439Y-42526886D01*
X74593114Y-42812561D01*
X74593116Y-42812564D01*
X74817573Y-43148487D01*
X74972181Y-43521745D01*
X75051000Y-43917994D01*
X75051000Y-44322006D01*
X74972181Y-44718255D01*
X74817573Y-45091513D01*
X74817572Y-45091514D01*
X74593114Y-45427439D01*
X74307439Y-45713114D01*
X74307436Y-45713116D01*
X73971513Y-45937573D01*
X73598255Y-46092181D01*
X73598254Y-46092181D01*
X73598252Y-46092182D01*
X73202007Y-46171000D01*
X72797993Y-46171000D01*
X72401748Y-46092182D01*
X72401746Y-46092181D01*
X72401745Y-46092181D01*
X72028487Y-45937573D01*
X71692564Y-45713116D01*
X71692561Y-45713114D01*
X71406886Y-45427439D01*
X71182428Y-45091514D01*
X71182427Y-45091513D01*
X71027819Y-44718255D01*
X70949000Y-44322006D01*
X70949000Y-43917994D01*
X71027819Y-43521745D01*
X71182427Y-43148487D01*
X71406884Y-42812564D01*
X71406886Y-42812561D01*
X71692561Y-42526886D01*
X71776890Y-42470539D01*
X72028487Y-42302427D01*
X72401745Y-42147819D01*
X72401746Y-42147819D01*
X72401748Y-42147818D01*
X72797993Y-42069000D01*
X73202007Y-42069000D01*
X73598252Y-42147818D01*
X73598252Y-42147818D01*
G37*
G36*
X47087965Y-42709450D02*
X47184086Y-42738608D01*
X47272669Y-42785957D01*
X47350318Y-42849682D01*
X47414043Y-42927331D01*
X47461392Y-43015914D01*
X47490550Y-43112035D01*
X47501000Y-43218140D01*
X47501000Y-45481860D01*
X47490550Y-45587965D01*
X47461392Y-45684086D01*
X47414043Y-45772669D01*
X47350318Y-45850318D01*
X47272669Y-45914043D01*
X47184086Y-45961392D01*
X47087965Y-45990550D01*
X46981860Y-46001000D01*
X45718140Y-46001000D01*
X45612035Y-45990550D01*
X45515914Y-45961392D01*
X45427331Y-45914043D01*
X45349682Y-45850318D01*
X45285957Y-45772669D01*
X45238608Y-45684086D01*
X45209450Y-45587965D01*
X45199000Y-45481860D01*
X45199000Y-43218140D01*
X45209450Y-43112035D01*
X45238608Y-43015914D01*
X45285957Y-42927331D01*
X45349682Y-42849682D01*
X45427331Y-42785957D01*
X45515914Y-42738608D01*
X45612035Y-42709450D01*
X45718140Y-42699000D01*
X46981860Y-42699000D01*
X47087965Y-42709450D01*
X47087965Y-42709450D01*
G37*
G36*
X41937965Y-42709450D02*
X42034086Y-42738608D01*
X42122669Y-42785957D01*
X42200318Y-42849682D01*
X42264043Y-42927331D01*
X42311392Y-43015914D01*
X42340550Y-43112035D01*
X42351000Y-43218140D01*
X42351000Y-45481860D01*
X42340550Y-45587965D01*
X42311392Y-45684086D01*
X42264043Y-45772669D01*
X42200318Y-45850318D01*
X42122669Y-45914043D01*
X42034086Y-45961392D01*
X41937965Y-45990550D01*
X41831860Y-46001000D01*
X40568140Y-46001000D01*
X40462035Y-45990550D01*
X40365914Y-45961392D01*
X40277331Y-45914043D01*
X40199682Y-45850318D01*
X40135957Y-45772669D01*
X40088608Y-45684086D01*
X40059450Y-45587965D01*
X40049000Y-45481860D01*
X40049000Y-43218140D01*
X40059450Y-43112035D01*
X40088608Y-43015914D01*
X40135957Y-42927331D01*
X40199682Y-42849682D01*
X40277331Y-42785957D01*
X40365914Y-42738608D01*
X40462035Y-42709450D01*
X40568140Y-42699000D01*
X41831860Y-42699000D01*
X41937965Y-42709450D01*
X41937965Y-42709450D01*
G37*
G36*
X60233643Y-42029781D02*
X60379415Y-42090162D01*
X60510611Y-42177824D01*
X60622176Y-42289389D01*
X60709838Y-42420585D01*
X60770219Y-42566357D01*
X60801000Y-42721107D01*
X60801000Y-42878893D01*
X60770219Y-43033643D01*
X60709838Y-43179415D01*
X60622176Y-43310611D01*
X60510611Y-43422176D01*
X60379415Y-43509838D01*
X60233643Y-43570219D01*
X60078893Y-43601000D01*
X59921107Y-43601000D01*
X59766357Y-43570219D01*
X59620585Y-43509838D01*
X59489389Y-43422176D01*
X59377824Y-43310611D01*
X59290162Y-43179415D01*
X59229781Y-43033643D01*
X59199000Y-42878893D01*
X59199000Y-42721107D01*
X59229781Y-42566357D01*
X59290162Y-42420585D01*
X59377824Y-42289389D01*
X59489389Y-42177824D01*
X59620585Y-42090162D01*
X59766357Y-42029781D01*
X59921107Y-41999000D01*
X60078893Y-41999000D01*
X60233643Y-42029781D01*
X60233643Y-42029781D01*
G37*
G36*
X67784466Y-42328564D02*
X67823137Y-42340295D01*
X67858779Y-42359347D01*
X67890017Y-42384982D01*
X67915652Y-42416220D01*
X67934704Y-42451862D01*
X67946435Y-42490533D01*
X67951000Y-42536887D01*
X67951000Y-43188111D01*
X67946435Y-43234465D01*
X67934704Y-43273136D01*
X67915652Y-43308778D01*
X67890017Y-43340016D01*
X67858779Y-43365651D01*
X67823137Y-43384703D01*
X67784466Y-43396434D01*
X67738112Y-43400999D01*
X66661888Y-43400999D01*
X66615534Y-43396434D01*
X66576863Y-43384703D01*
X66541221Y-43365651D01*
X66509983Y-43340016D01*
X66484348Y-43308778D01*
X66465296Y-43273136D01*
X66453565Y-43234465D01*
X66449000Y-43188111D01*
X66449000Y-42536887D01*
X66453565Y-42490533D01*
X66465296Y-42451862D01*
X66484348Y-42416220D01*
X66509983Y-42384982D01*
X66541221Y-42359347D01*
X66576863Y-42340295D01*
X66615534Y-42328564D01*
X66661888Y-42323999D01*
X67738112Y-42323999D01*
X67784466Y-42328564D01*
X67784466Y-42328564D01*
G37*
G36*
X65534466Y-42328564D02*
X65573137Y-42340295D01*
X65608779Y-42359347D01*
X65640017Y-42384982D01*
X65665652Y-42416220D01*
X65684704Y-42451862D01*
X65696435Y-42490533D01*
X65701000Y-42536887D01*
X65701000Y-43188111D01*
X65696435Y-43234465D01*
X65684704Y-43273136D01*
X65665652Y-43308778D01*
X65640017Y-43340016D01*
X65608779Y-43365651D01*
X65573137Y-43384703D01*
X65534466Y-43396434D01*
X65488112Y-43400999D01*
X64411888Y-43400999D01*
X64365534Y-43396434D01*
X64326863Y-43384703D01*
X64291221Y-43365651D01*
X64259983Y-43340016D01*
X64234348Y-43308778D01*
X64215296Y-43273136D01*
X64203565Y-43234465D01*
X64199000Y-43188111D01*
X64199000Y-42536887D01*
X64203565Y-42490533D01*
X64215296Y-42451862D01*
X64234348Y-42416220D01*
X64259983Y-42384982D01*
X64291221Y-42359347D01*
X64326863Y-42340295D01*
X64365534Y-42328564D01*
X64411888Y-42323999D01*
X65488112Y-42323999D01*
X65534466Y-42328564D01*
X65534466Y-42328564D01*
G37*
G36*
X63284466Y-42328564D02*
X63323137Y-42340295D01*
X63358779Y-42359347D01*
X63390017Y-42384982D01*
X63415652Y-42416220D01*
X63434704Y-42451862D01*
X63446435Y-42490533D01*
X63451000Y-42536887D01*
X63451000Y-43188111D01*
X63446435Y-43234465D01*
X63434704Y-43273136D01*
X63415652Y-43308778D01*
X63390017Y-43340016D01*
X63358779Y-43365651D01*
X63323137Y-43384703D01*
X63284466Y-43396434D01*
X63238112Y-43400999D01*
X62161888Y-43400999D01*
X62115534Y-43396434D01*
X62076863Y-43384703D01*
X62041221Y-43365651D01*
X62009983Y-43340016D01*
X61984348Y-43308778D01*
X61965296Y-43273136D01*
X61953565Y-43234465D01*
X61949000Y-43188111D01*
X61949000Y-42536887D01*
X61953565Y-42490533D01*
X61965296Y-42451862D01*
X61984348Y-42416220D01*
X62009983Y-42384982D01*
X62041221Y-42359347D01*
X62076863Y-42340295D01*
X62115534Y-42328564D01*
X62161888Y-42323999D01*
X63238112Y-42323999D01*
X63284466Y-42328564D01*
X63284466Y-42328564D01*
G37*
G36*
X52329591Y-42403085D02*
X52363569Y-42413393D01*
X52394887Y-42430133D01*
X52422339Y-42452661D01*
X52444867Y-42480113D01*
X52461607Y-42511431D01*
X52471915Y-42545409D01*
X52476000Y-42586890D01*
X52476000Y-43188110D01*
X52471915Y-43229591D01*
X52461607Y-43263569D01*
X52444867Y-43294887D01*
X52422339Y-43322339D01*
X52394887Y-43344867D01*
X52363569Y-43361607D01*
X52329591Y-43371915D01*
X52288110Y-43376000D01*
X51611890Y-43376000D01*
X51570409Y-43371915D01*
X51536431Y-43361607D01*
X51505113Y-43344867D01*
X51477661Y-43322339D01*
X51455133Y-43294887D01*
X51438393Y-43263569D01*
X51428085Y-43229591D01*
X51424000Y-43188110D01*
X51424000Y-42586890D01*
X51428085Y-42545409D01*
X51438393Y-42511431D01*
X51455133Y-42480113D01*
X51477661Y-42452661D01*
X51505113Y-42430133D01*
X51536431Y-42413393D01*
X51570409Y-42403085D01*
X51611890Y-42399000D01*
X52288110Y-42399000D01*
X52329591Y-42403085D01*
X52329591Y-42403085D01*
G37*
G36*
X56329591Y-42403085D02*
X56363569Y-42413393D01*
X56394887Y-42430133D01*
X56422339Y-42452661D01*
X56444867Y-42480113D01*
X56461607Y-42511431D01*
X56471915Y-42545409D01*
X56476000Y-42586890D01*
X56476000Y-43188110D01*
X56471915Y-43229591D01*
X56461607Y-43263569D01*
X56444867Y-43294887D01*
X56422339Y-43322339D01*
X56394887Y-43344867D01*
X56363569Y-43361607D01*
X56329591Y-43371915D01*
X56288110Y-43376000D01*
X55611890Y-43376000D01*
X55570409Y-43371915D01*
X55536431Y-43361607D01*
X55505113Y-43344867D01*
X55477661Y-43322339D01*
X55455133Y-43294887D01*
X55438393Y-43263569D01*
X55428085Y-43229591D01*
X55424000Y-43188110D01*
X55424000Y-42586890D01*
X55428085Y-42545409D01*
X55438393Y-42511431D01*
X55455133Y-42480113D01*
X55477661Y-42452661D01*
X55505113Y-42430133D01*
X55536431Y-42413393D01*
X55570409Y-42403085D01*
X55611890Y-42399000D01*
X56288110Y-42399000D01*
X56329591Y-42403085D01*
X56329591Y-42403085D01*
G37*
G36*
X54079591Y-42403085D02*
X54113569Y-42413393D01*
X54144887Y-42430133D01*
X54172339Y-42452661D01*
X54194867Y-42480113D01*
X54211607Y-42511431D01*
X54221915Y-42545409D01*
X54226000Y-42586890D01*
X54226000Y-43188110D01*
X54221915Y-43229591D01*
X54211607Y-43263569D01*
X54194867Y-43294887D01*
X54172339Y-43322339D01*
X54144887Y-43344867D01*
X54113569Y-43361607D01*
X54079591Y-43371915D01*
X54038110Y-43376000D01*
X53361890Y-43376000D01*
X53320409Y-43371915D01*
X53286431Y-43361607D01*
X53255113Y-43344867D01*
X53227661Y-43322339D01*
X53205133Y-43294887D01*
X53188393Y-43263569D01*
X53178085Y-43229591D01*
X53174000Y-43188110D01*
X53174000Y-42586890D01*
X53178085Y-42545409D01*
X53188393Y-42511431D01*
X53205133Y-42480113D01*
X53227661Y-42452661D01*
X53255113Y-42430133D01*
X53286431Y-42413393D01*
X53320409Y-42403085D01*
X53361890Y-42399000D01*
X54038110Y-42399000D01*
X54079591Y-42403085D01*
X54079591Y-42403085D01*
G37*
G36*
X50233643Y-40829781D02*
X50379415Y-40890162D01*
X50510611Y-40977824D01*
X50622176Y-41089389D01*
X50709838Y-41220585D01*
X50770219Y-41366357D01*
X50801000Y-41521107D01*
X50801000Y-41678893D01*
X50770219Y-41833643D01*
X50709838Y-41979415D01*
X50622176Y-42110611D01*
X50510611Y-42222176D01*
X50379415Y-42309838D01*
X50233643Y-42370219D01*
X50078893Y-42401000D01*
X49921107Y-42401000D01*
X49766357Y-42370219D01*
X49620585Y-42309838D01*
X49489389Y-42222176D01*
X49377824Y-42110611D01*
X49290162Y-41979415D01*
X49229781Y-41833643D01*
X49199000Y-41678893D01*
X49199000Y-41521107D01*
X49229781Y-41366357D01*
X49290162Y-41220585D01*
X49377824Y-41089389D01*
X49489389Y-40977824D01*
X49620585Y-40890162D01*
X49766357Y-40829781D01*
X49921107Y-40799000D01*
X50078893Y-40799000D01*
X50233643Y-40829781D01*
X50233643Y-40829781D01*
G37*
G36*
X71181669Y-40103394D02*
X71218664Y-40114616D01*
X71252754Y-40132838D01*
X71282638Y-40157362D01*
X71307162Y-40187246D01*
X71325384Y-40221336D01*
X71336606Y-40258331D01*
X71341000Y-40302941D01*
X71341000Y-41797059D01*
X71336606Y-41841669D01*
X71325384Y-41878664D01*
X71307162Y-41912754D01*
X71282638Y-41942638D01*
X71252754Y-41967162D01*
X71218664Y-41985384D01*
X71181669Y-41996606D01*
X71137059Y-42001000D01*
X69442941Y-42001000D01*
X69398331Y-41996606D01*
X69361336Y-41985384D01*
X69327246Y-41967162D01*
X69297362Y-41942638D01*
X69272838Y-41912754D01*
X69254616Y-41878664D01*
X69243394Y-41841669D01*
X69239000Y-41797059D01*
X69239000Y-40302941D01*
X69243394Y-40258331D01*
X69254616Y-40221336D01*
X69272838Y-40187246D01*
X69297362Y-40157362D01*
X69327246Y-40132838D01*
X69361336Y-40114616D01*
X69398331Y-40103394D01*
X69442941Y-40099000D01*
X71137059Y-40099000D01*
X71181669Y-40103394D01*
X71181669Y-40103394D01*
G37*
G36*
X52329591Y-40828085D02*
X52363569Y-40838393D01*
X52394887Y-40855133D01*
X52422339Y-40877661D01*
X52444867Y-40905113D01*
X52461607Y-40936431D01*
X52471915Y-40970409D01*
X52476000Y-41011890D01*
X52476000Y-41613110D01*
X52471915Y-41654591D01*
X52461607Y-41688569D01*
X52444867Y-41719887D01*
X52422339Y-41747339D01*
X52394887Y-41769867D01*
X52363569Y-41786607D01*
X52329591Y-41796915D01*
X52288110Y-41801000D01*
X51611890Y-41801000D01*
X51570409Y-41796915D01*
X51536431Y-41786607D01*
X51505113Y-41769867D01*
X51477661Y-41747339D01*
X51455133Y-41719887D01*
X51438393Y-41688569D01*
X51428085Y-41654591D01*
X51424000Y-41613110D01*
X51424000Y-41011890D01*
X51428085Y-40970409D01*
X51438393Y-40936431D01*
X51455133Y-40905113D01*
X51477661Y-40877661D01*
X51505113Y-40855133D01*
X51536431Y-40838393D01*
X51570409Y-40828085D01*
X51611890Y-40824000D01*
X52288110Y-40824000D01*
X52329591Y-40828085D01*
X52329591Y-40828085D01*
G37*
G36*
X54079591Y-40828085D02*
X54113569Y-40838393D01*
X54144887Y-40855133D01*
X54172339Y-40877661D01*
X54194867Y-40905113D01*
X54211607Y-40936431D01*
X54221915Y-40970409D01*
X54226000Y-41011890D01*
X54226000Y-41613110D01*
X54221915Y-41654591D01*
X54211607Y-41688569D01*
X54194867Y-41719887D01*
X54172339Y-41747339D01*
X54144887Y-41769867D01*
X54113569Y-41786607D01*
X54079591Y-41796915D01*
X54038110Y-41801000D01*
X53361890Y-41801000D01*
X53320409Y-41796915D01*
X53286431Y-41786607D01*
X53255113Y-41769867D01*
X53227661Y-41747339D01*
X53205133Y-41719887D01*
X53188393Y-41688569D01*
X53178085Y-41654591D01*
X53174000Y-41613110D01*
X53174000Y-41011890D01*
X53178085Y-40970409D01*
X53188393Y-40936431D01*
X53205133Y-40905113D01*
X53227661Y-40877661D01*
X53255113Y-40855133D01*
X53286431Y-40838393D01*
X53320409Y-40828085D01*
X53361890Y-40824000D01*
X54038110Y-40824000D01*
X54079591Y-40828085D01*
X54079591Y-40828085D01*
G37*
G36*
X56329591Y-40828085D02*
X56363569Y-40838393D01*
X56394887Y-40855133D01*
X56422339Y-40877661D01*
X56444867Y-40905113D01*
X56461607Y-40936431D01*
X56471915Y-40970409D01*
X56476000Y-41011890D01*
X56476000Y-41613110D01*
X56471915Y-41654591D01*
X56461607Y-41688569D01*
X56444867Y-41719887D01*
X56422339Y-41747339D01*
X56394887Y-41769867D01*
X56363569Y-41786607D01*
X56329591Y-41796915D01*
X56288110Y-41801000D01*
X55611890Y-41801000D01*
X55570409Y-41796915D01*
X55536431Y-41786607D01*
X55505113Y-41769867D01*
X55477661Y-41747339D01*
X55455133Y-41719887D01*
X55438393Y-41688569D01*
X55428085Y-41654591D01*
X55424000Y-41613110D01*
X55424000Y-41011890D01*
X55428085Y-40970409D01*
X55438393Y-40936431D01*
X55455133Y-40905113D01*
X55477661Y-40877661D01*
X55505113Y-40855133D01*
X55536431Y-40838393D01*
X55570409Y-40828085D01*
X55611890Y-40824000D01*
X56288110Y-40824000D01*
X56329591Y-40828085D01*
X56329591Y-40828085D01*
G37*
G36*
X65534466Y-40453564D02*
X65573137Y-40465295D01*
X65608779Y-40484347D01*
X65640017Y-40509982D01*
X65665652Y-40541220D01*
X65684704Y-40576862D01*
X65696435Y-40615533D01*
X65701000Y-40661887D01*
X65701000Y-41313111D01*
X65696435Y-41359465D01*
X65684704Y-41398136D01*
X65665652Y-41433778D01*
X65640017Y-41465016D01*
X65608779Y-41490651D01*
X65573137Y-41509703D01*
X65534466Y-41521434D01*
X65488112Y-41525999D01*
X64411888Y-41525999D01*
X64365534Y-41521434D01*
X64326863Y-41509703D01*
X64291221Y-41490651D01*
X64259983Y-41465016D01*
X64234348Y-41433778D01*
X64215296Y-41398136D01*
X64203565Y-41359465D01*
X64199000Y-41313111D01*
X64199000Y-40661887D01*
X64203565Y-40615533D01*
X64215296Y-40576862D01*
X64234348Y-40541220D01*
X64259983Y-40509982D01*
X64291221Y-40484347D01*
X64326863Y-40465295D01*
X64365534Y-40453564D01*
X64411888Y-40448999D01*
X65488112Y-40448999D01*
X65534466Y-40453564D01*
X65534466Y-40453564D01*
G37*
G36*
X63284466Y-40453564D02*
X63323137Y-40465295D01*
X63358779Y-40484347D01*
X63390017Y-40509982D01*
X63415652Y-40541220D01*
X63434704Y-40576862D01*
X63446435Y-40615533D01*
X63451000Y-40661887D01*
X63451000Y-41313111D01*
X63446435Y-41359465D01*
X63434704Y-41398136D01*
X63415652Y-41433778D01*
X63390017Y-41465016D01*
X63358779Y-41490651D01*
X63323137Y-41509703D01*
X63284466Y-41521434D01*
X63238112Y-41525999D01*
X62161888Y-41525999D01*
X62115534Y-41521434D01*
X62076863Y-41509703D01*
X62041221Y-41490651D01*
X62009983Y-41465016D01*
X61984348Y-41433778D01*
X61965296Y-41398136D01*
X61953565Y-41359465D01*
X61949000Y-41313111D01*
X61949000Y-40661887D01*
X61953565Y-40615533D01*
X61965296Y-40576862D01*
X61984348Y-40541220D01*
X62009983Y-40509982D01*
X62041221Y-40484347D01*
X62076863Y-40465295D01*
X62115534Y-40453564D01*
X62161888Y-40448999D01*
X63238112Y-40448999D01*
X63284466Y-40453564D01*
X63284466Y-40453564D01*
G37*
G36*
X67784466Y-40453564D02*
X67823137Y-40465295D01*
X67858779Y-40484347D01*
X67890017Y-40509982D01*
X67915652Y-40541220D01*
X67934704Y-40576862D01*
X67946435Y-40615533D01*
X67951000Y-40661887D01*
X67951000Y-41313111D01*
X67946435Y-41359465D01*
X67934704Y-41398136D01*
X67915652Y-41433778D01*
X67890017Y-41465016D01*
X67858779Y-41490651D01*
X67823137Y-41509703D01*
X67784466Y-41521434D01*
X67738112Y-41525999D01*
X66661888Y-41525999D01*
X66615534Y-41521434D01*
X66576863Y-41509703D01*
X66541221Y-41490651D01*
X66509983Y-41465016D01*
X66484348Y-41433778D01*
X66465296Y-41398136D01*
X66453565Y-41359465D01*
X66449000Y-41313111D01*
X66449000Y-40661887D01*
X66453565Y-40615533D01*
X66465296Y-40576862D01*
X66484348Y-40541220D01*
X66509983Y-40509982D01*
X66541221Y-40484347D01*
X66576863Y-40465295D01*
X66615534Y-40453564D01*
X66661888Y-40448999D01*
X67738112Y-40448999D01*
X67784466Y-40453564D01*
X67784466Y-40453564D01*
G37*
G36*
X47131000Y-40176000D02*
X45469000Y-40176000D01*
X45469000Y-37524000D01*
X47131000Y-37524000D01*
X47131000Y-40176000D01*
X47131000Y-40176000D01*
G37*
G36*
X44431000Y-40176000D02*
X42769000Y-40176000D01*
X42769000Y-37524000D01*
X44431000Y-37524000D01*
X44431000Y-40176000D01*
X44431000Y-40176000D01*
G37*
G36*
X52329591Y-39153085D02*
X52363569Y-39163393D01*
X52394887Y-39180133D01*
X52422339Y-39202661D01*
X52444867Y-39230113D01*
X52461607Y-39261431D01*
X52471915Y-39295409D01*
X52476000Y-39336890D01*
X52476000Y-39938110D01*
X52471915Y-39979591D01*
X52461607Y-40013569D01*
X52444867Y-40044887D01*
X52422339Y-40072339D01*
X52394887Y-40094867D01*
X52363569Y-40111607D01*
X52329591Y-40121915D01*
X52288110Y-40126000D01*
X51611890Y-40126000D01*
X51570409Y-40121915D01*
X51536431Y-40111607D01*
X51505113Y-40094867D01*
X51477661Y-40072339D01*
X51455133Y-40044887D01*
X51438393Y-40013569D01*
X51428085Y-39979591D01*
X51424000Y-39938110D01*
X51424000Y-39336890D01*
X51428085Y-39295409D01*
X51438393Y-39261431D01*
X51455133Y-39230113D01*
X51477661Y-39202661D01*
X51505113Y-39180133D01*
X51536431Y-39163393D01*
X51570409Y-39153085D01*
X51611890Y-39149000D01*
X52288110Y-39149000D01*
X52329591Y-39153085D01*
X52329591Y-39153085D01*
G37*
G36*
X48829591Y-39153085D02*
X48863569Y-39163393D01*
X48894887Y-39180133D01*
X48922339Y-39202661D01*
X48944867Y-39230113D01*
X48961607Y-39261431D01*
X48971915Y-39295409D01*
X48976000Y-39336890D01*
X48976000Y-39938110D01*
X48971915Y-39979591D01*
X48961607Y-40013569D01*
X48944867Y-40044887D01*
X48922339Y-40072339D01*
X48894887Y-40094867D01*
X48863569Y-40111607D01*
X48829591Y-40121915D01*
X48788110Y-40126000D01*
X48111890Y-40126000D01*
X48070409Y-40121915D01*
X48036431Y-40111607D01*
X48005113Y-40094867D01*
X47977661Y-40072339D01*
X47955133Y-40044887D01*
X47938393Y-40013569D01*
X47928085Y-39979591D01*
X47924000Y-39938110D01*
X47924000Y-39336890D01*
X47928085Y-39295409D01*
X47938393Y-39261431D01*
X47955133Y-39230113D01*
X47977661Y-39202661D01*
X48005113Y-39180133D01*
X48036431Y-39163393D01*
X48070409Y-39153085D01*
X48111890Y-39149000D01*
X48788110Y-39149000D01*
X48829591Y-39153085D01*
X48829591Y-39153085D01*
G37*
G36*
X50579591Y-39153085D02*
X50613569Y-39163393D01*
X50644887Y-39180133D01*
X50672339Y-39202661D01*
X50694867Y-39230113D01*
X50711607Y-39261431D01*
X50721915Y-39295409D01*
X50726000Y-39336890D01*
X50726000Y-39938110D01*
X50721915Y-39979591D01*
X50711607Y-40013569D01*
X50694867Y-40044887D01*
X50672339Y-40072339D01*
X50644887Y-40094867D01*
X50613569Y-40111607D01*
X50579591Y-40121915D01*
X50538110Y-40126000D01*
X49861890Y-40126000D01*
X49820409Y-40121915D01*
X49786431Y-40111607D01*
X49755113Y-40094867D01*
X49727661Y-40072339D01*
X49705133Y-40044887D01*
X49688393Y-40013569D01*
X49678085Y-39979591D01*
X49674000Y-39938110D01*
X49674000Y-39336890D01*
X49678085Y-39295409D01*
X49688393Y-39261431D01*
X49705133Y-39230113D01*
X49727661Y-39202661D01*
X49755113Y-39180133D01*
X49786431Y-39163393D01*
X49820409Y-39153085D01*
X49861890Y-39149000D01*
X50538110Y-39149000D01*
X50579591Y-39153085D01*
X50579591Y-39153085D01*
G37*
G36*
X56276000Y-39781000D02*
X53624000Y-39781000D01*
X53624000Y-38119000D01*
X56276000Y-38119000D01*
X56276000Y-39781000D01*
X56276000Y-39781000D01*
G37*
G36*
X71005816Y-37702817D02*
X71037184Y-37712332D01*
X71066090Y-37727783D01*
X71091425Y-37748575D01*
X71112217Y-37773910D01*
X71127668Y-37802816D01*
X71137183Y-37834184D01*
X71141000Y-37872940D01*
X71141000Y-39227060D01*
X71137183Y-39265816D01*
X71127668Y-39297184D01*
X71112217Y-39326090D01*
X71091425Y-39351425D01*
X71066090Y-39372217D01*
X71037184Y-39387668D01*
X71005816Y-39397183D01*
X70967060Y-39401000D01*
X69612940Y-39401000D01*
X69574184Y-39397183D01*
X69542816Y-39387668D01*
X69513910Y-39372217D01*
X69488575Y-39351425D01*
X69467783Y-39326090D01*
X69452332Y-39297184D01*
X69442817Y-39265816D01*
X69439000Y-39227060D01*
X69439000Y-37872940D01*
X69442817Y-37834184D01*
X69452332Y-37802816D01*
X69467783Y-37773910D01*
X69488575Y-37748575D01*
X69513910Y-37727783D01*
X69542816Y-37712332D01*
X69574184Y-37702817D01*
X69612940Y-37699000D01*
X70967060Y-37699000D01*
X71005816Y-37702817D01*
X71005816Y-37702817D01*
G37*
G36*
X65251000Y-39401000D02*
X57649000Y-39401000D01*
X57649000Y-36299000D01*
X65251000Y-36299000D01*
X65251000Y-39401000D01*
X65251000Y-39401000D01*
G37*
G36*
X80866703Y-35861486D02*
X81157883Y-35982097D01*
X81419944Y-36157201D01*
X81642799Y-36380056D01*
X81817903Y-36642117D01*
X81938514Y-36933297D01*
X82000000Y-37242412D01*
X82000000Y-37557588D01*
X81938514Y-37866703D01*
X81817903Y-38157883D01*
X81642799Y-38419944D01*
X81419944Y-38642799D01*
X81157883Y-38817903D01*
X80866703Y-38938514D01*
X80557588Y-39000000D01*
X80242412Y-39000000D01*
X79933297Y-38938514D01*
X79642117Y-38817903D01*
X79380056Y-38642799D01*
X79157201Y-38419944D01*
X78982097Y-38157883D01*
X78861486Y-37866703D01*
X78800000Y-37557588D01*
X78800000Y-37242412D01*
X78861486Y-36933297D01*
X78982097Y-36642117D01*
X79157201Y-36380056D01*
X79380056Y-36157201D01*
X79642117Y-35982097D01*
X79933297Y-35861486D01*
X80242412Y-35800000D01*
X80557588Y-35800000D01*
X80866703Y-35861486D01*
X80866703Y-35861486D01*
G37*
G36*
X52329591Y-37578085D02*
X52363569Y-37588393D01*
X52394887Y-37605133D01*
X52422339Y-37627661D01*
X52444867Y-37655113D01*
X52461607Y-37686431D01*
X52471915Y-37720409D01*
X52476000Y-37761890D01*
X52476000Y-38363110D01*
X52471915Y-38404591D01*
X52461607Y-38438569D01*
X52444867Y-38469887D01*
X52422339Y-38497339D01*
X52394887Y-38519867D01*
X52363569Y-38536607D01*
X52329591Y-38546915D01*
X52288110Y-38551000D01*
X51611890Y-38551000D01*
X51570409Y-38546915D01*
X51536431Y-38536607D01*
X51505113Y-38519867D01*
X51477661Y-38497339D01*
X51455133Y-38469887D01*
X51438393Y-38438569D01*
X51428085Y-38404591D01*
X51424000Y-38363110D01*
X51424000Y-37761890D01*
X51428085Y-37720409D01*
X51438393Y-37686431D01*
X51455133Y-37655113D01*
X51477661Y-37627661D01*
X51505113Y-37605133D01*
X51536431Y-37588393D01*
X51570409Y-37578085D01*
X51611890Y-37574000D01*
X52288110Y-37574000D01*
X52329591Y-37578085D01*
X52329591Y-37578085D01*
G37*
G36*
X48829591Y-37578085D02*
X48863569Y-37588393D01*
X48894887Y-37605133D01*
X48922339Y-37627661D01*
X48944867Y-37655113D01*
X48961607Y-37686431D01*
X48971915Y-37720409D01*
X48976000Y-37761890D01*
X48976000Y-38363110D01*
X48971915Y-38404591D01*
X48961607Y-38438569D01*
X48944867Y-38469887D01*
X48922339Y-38497339D01*
X48894887Y-38519867D01*
X48863569Y-38536607D01*
X48829591Y-38546915D01*
X48788110Y-38551000D01*
X48111890Y-38551000D01*
X48070409Y-38546915D01*
X48036431Y-38536607D01*
X48005113Y-38519867D01*
X47977661Y-38497339D01*
X47955133Y-38469887D01*
X47938393Y-38438569D01*
X47928085Y-38404591D01*
X47924000Y-38363110D01*
X47924000Y-37761890D01*
X47928085Y-37720409D01*
X47938393Y-37686431D01*
X47955133Y-37655113D01*
X47977661Y-37627661D01*
X48005113Y-37605133D01*
X48036431Y-37588393D01*
X48070409Y-37578085D01*
X48111890Y-37574000D01*
X48788110Y-37574000D01*
X48829591Y-37578085D01*
X48829591Y-37578085D01*
G37*
G36*
X50579591Y-37578085D02*
X50613569Y-37588393D01*
X50644887Y-37605133D01*
X50672339Y-37627661D01*
X50694867Y-37655113D01*
X50711607Y-37686431D01*
X50721915Y-37720409D01*
X50726000Y-37761890D01*
X50726000Y-38363110D01*
X50721915Y-38404591D01*
X50711607Y-38438569D01*
X50694867Y-38469887D01*
X50672339Y-38497339D01*
X50644887Y-38519867D01*
X50613569Y-38536607D01*
X50579591Y-38546915D01*
X50538110Y-38551000D01*
X49861890Y-38551000D01*
X49820409Y-38546915D01*
X49786431Y-38536607D01*
X49755113Y-38519867D01*
X49727661Y-38497339D01*
X49705133Y-38469887D01*
X49688393Y-38438569D01*
X49678085Y-38404591D01*
X49674000Y-38363110D01*
X49674000Y-37761890D01*
X49678085Y-37720409D01*
X49688393Y-37686431D01*
X49705133Y-37655113D01*
X49727661Y-37627661D01*
X49755113Y-37605133D01*
X49786431Y-37588393D01*
X49820409Y-37578085D01*
X49861890Y-37574000D01*
X50538110Y-37574000D01*
X50579591Y-37578085D01*
X50579591Y-37578085D01*
G37*
G36*
X71005816Y-35702817D02*
X71037184Y-35712332D01*
X71066090Y-35727783D01*
X71091425Y-35748575D01*
X71112217Y-35773910D01*
X71127668Y-35802816D01*
X71137183Y-35834184D01*
X71141000Y-35872940D01*
X71141000Y-37227060D01*
X71137183Y-37265816D01*
X71127668Y-37297184D01*
X71112217Y-37326090D01*
X71091425Y-37351425D01*
X71066090Y-37372217D01*
X71037184Y-37387668D01*
X71005816Y-37397183D01*
X70967060Y-37401000D01*
X69612940Y-37401000D01*
X69574184Y-37397183D01*
X69542816Y-37387668D01*
X69513910Y-37372217D01*
X69488575Y-37351425D01*
X69467783Y-37326090D01*
X69452332Y-37297184D01*
X69442817Y-37265816D01*
X69439000Y-37227060D01*
X69439000Y-35872940D01*
X69442817Y-35834184D01*
X69452332Y-35802816D01*
X69467783Y-35773910D01*
X69488575Y-35748575D01*
X69513910Y-35727783D01*
X69542816Y-35712332D01*
X69574184Y-35702817D01*
X69612940Y-35699000D01*
X70967060Y-35699000D01*
X71005816Y-35702817D01*
X71005816Y-35702817D01*
G37*
G36*
X56276000Y-37081000D02*
X53624000Y-37081000D01*
X53624000Y-35419000D01*
X56276000Y-35419000D01*
X56276000Y-37081000D01*
X56276000Y-37081000D01*
G37*
G36*
X37666703Y-33261486D02*
X37957883Y-33382097D01*
X38219944Y-33557201D01*
X38442799Y-33780056D01*
X38617903Y-34042117D01*
X38738514Y-34333297D01*
X38800000Y-34642412D01*
X38800000Y-34957588D01*
X38738514Y-35266703D01*
X38617903Y-35557883D01*
X38442799Y-35819944D01*
X38219944Y-36042799D01*
X37957883Y-36217903D01*
X37666703Y-36338514D01*
X37357588Y-36400000D01*
X37042412Y-36400000D01*
X36733297Y-36338514D01*
X36442117Y-36217903D01*
X36180056Y-36042799D01*
X35957201Y-35819944D01*
X35782097Y-35557883D01*
X35661486Y-35266703D01*
X35600000Y-34957588D01*
X35600000Y-34642412D01*
X35661486Y-34333297D01*
X35782097Y-34042117D01*
X35957201Y-33780056D01*
X36180056Y-33557201D01*
X36442117Y-33382097D01*
X36733297Y-33261486D01*
X37042412Y-33200000D01*
X37357588Y-33200000D01*
X37666703Y-33261486D01*
X37666703Y-33261486D01*
G37*
G36*
X44078277Y-34101326D02*
X44095087Y-34106425D01*
X44110578Y-34114706D01*
X44124153Y-34125847D01*
X44135294Y-34139422D01*
X44143575Y-34154913D01*
X44148674Y-34171723D01*
X44151000Y-34195340D01*
X44151000Y-36104660D01*
X44148674Y-36128277D01*
X44143575Y-36145087D01*
X44135294Y-36160578D01*
X44124153Y-36174153D01*
X44110578Y-36185294D01*
X44095087Y-36193575D01*
X44078277Y-36198674D01*
X44054660Y-36201000D01*
X42345340Y-36201000D01*
X42321723Y-36198674D01*
X42304913Y-36193575D01*
X42289422Y-36185294D01*
X42275847Y-36174153D01*
X42264706Y-36160578D01*
X42256425Y-36145087D01*
X42251326Y-36128277D01*
X42249000Y-36104660D01*
X42249000Y-34195340D01*
X42251326Y-34171723D01*
X42256425Y-34154913D01*
X42264706Y-34139422D01*
X42275847Y-34125847D01*
X42289422Y-34114706D01*
X42304913Y-34106425D01*
X42321723Y-34101326D01*
X42345340Y-34099000D01*
X44054660Y-34099000D01*
X44078277Y-34101326D01*
X44078277Y-34101326D01*
G37*
G36*
X50218604Y-34578347D02*
X50255145Y-34589432D01*
X50288820Y-34607431D01*
X50318341Y-34631659D01*
X50342569Y-34661180D01*
X50360568Y-34694855D01*
X50371653Y-34731396D01*
X50376000Y-34775538D01*
X50376000Y-35724462D01*
X50371653Y-35768604D01*
X50360568Y-35805145D01*
X50342569Y-35838820D01*
X50318341Y-35868341D01*
X50288820Y-35892569D01*
X50255145Y-35910568D01*
X50218604Y-35921653D01*
X50174462Y-35926000D01*
X48725538Y-35926000D01*
X48681396Y-35921653D01*
X48644855Y-35910568D01*
X48611180Y-35892569D01*
X48581659Y-35868341D01*
X48557431Y-35838820D01*
X48539432Y-35805145D01*
X48528347Y-35768604D01*
X48524000Y-35724462D01*
X48524000Y-34775538D01*
X48528347Y-34731396D01*
X48539432Y-34694855D01*
X48557431Y-34661180D01*
X48581659Y-34631659D01*
X48611180Y-34607431D01*
X48644855Y-34589432D01*
X48681396Y-34578347D01*
X48725538Y-34574000D01*
X50174462Y-34574000D01*
X50218604Y-34578347D01*
X50218604Y-34578347D01*
G37*
G36*
X52718604Y-34578347D02*
X52755145Y-34589432D01*
X52788820Y-34607431D01*
X52818341Y-34631659D01*
X52842569Y-34661180D01*
X52860568Y-34694855D01*
X52871653Y-34731396D01*
X52876000Y-34775538D01*
X52876000Y-35724462D01*
X52871653Y-35768604D01*
X52860568Y-35805145D01*
X52842569Y-35838820D01*
X52818341Y-35868341D01*
X52788820Y-35892569D01*
X52755145Y-35910568D01*
X52718604Y-35921653D01*
X52674462Y-35926000D01*
X51225538Y-35926000D01*
X51181396Y-35921653D01*
X51144855Y-35910568D01*
X51111180Y-35892569D01*
X51081659Y-35868341D01*
X51057431Y-35838820D01*
X51039432Y-35805145D01*
X51028347Y-35768604D01*
X51024000Y-35724462D01*
X51024000Y-34775538D01*
X51028347Y-34731396D01*
X51039432Y-34694855D01*
X51057431Y-34661180D01*
X51081659Y-34631659D01*
X51111180Y-34607431D01*
X51144855Y-34589432D01*
X51181396Y-34578347D01*
X51225538Y-34574000D01*
X52674462Y-34574000D01*
X52718604Y-34578347D01*
X52718604Y-34578347D01*
G37*
G36*
X47718604Y-34578347D02*
X47755145Y-34589432D01*
X47788820Y-34607431D01*
X47818341Y-34631659D01*
X47842569Y-34661180D01*
X47860568Y-34694855D01*
X47871653Y-34731396D01*
X47876000Y-34775538D01*
X47876000Y-35724462D01*
X47871653Y-35768604D01*
X47860568Y-35805145D01*
X47842569Y-35838820D01*
X47818341Y-35868341D01*
X47788820Y-35892569D01*
X47755145Y-35910568D01*
X47718604Y-35921653D01*
X47674462Y-35926000D01*
X46225538Y-35926000D01*
X46181396Y-35921653D01*
X46144855Y-35910568D01*
X46111180Y-35892569D01*
X46081659Y-35868341D01*
X46057431Y-35838820D01*
X46039432Y-35805145D01*
X46028347Y-35768604D01*
X46024000Y-35724462D01*
X46024000Y-34775538D01*
X46028347Y-34731396D01*
X46039432Y-34694855D01*
X46057431Y-34661180D01*
X46081659Y-34631659D01*
X46111180Y-34607431D01*
X46144855Y-34589432D01*
X46181396Y-34578347D01*
X46225538Y-34574000D01*
X47674462Y-34574000D01*
X47718604Y-34578347D01*
X47718604Y-34578347D01*
G37*
G36*
X71181669Y-33103394D02*
X71218664Y-33114616D01*
X71252754Y-33132838D01*
X71282638Y-33157362D01*
X71307162Y-33187246D01*
X71325384Y-33221336D01*
X71336606Y-33258331D01*
X71341000Y-33302941D01*
X71341000Y-34797059D01*
X71336606Y-34841669D01*
X71325384Y-34878664D01*
X71307162Y-34912754D01*
X71282638Y-34942638D01*
X71252754Y-34967162D01*
X71218664Y-34985384D01*
X71181669Y-34996606D01*
X71137059Y-35001000D01*
X69442941Y-35001000D01*
X69398331Y-34996606D01*
X69361336Y-34985384D01*
X69327246Y-34967162D01*
X69297362Y-34942638D01*
X69272838Y-34912754D01*
X69254616Y-34878664D01*
X69243394Y-34841669D01*
X69239000Y-34797059D01*
X69239000Y-33302941D01*
X69243394Y-33258331D01*
X69254616Y-33221336D01*
X69272838Y-33187246D01*
X69297362Y-33157362D01*
X69327246Y-33132838D01*
X69361336Y-33114616D01*
X69398331Y-33103394D01*
X69442941Y-33099000D01*
X71137059Y-33099000D01*
X71181669Y-33103394D01*
X71181669Y-33103394D01*
G37*
G36*
X65251000Y-34401000D02*
X57649000Y-34401000D01*
X57649000Y-31299000D01*
X65251000Y-31299000D01*
X65251000Y-34401000D01*
X65251000Y-34401000D01*
G37*
G36*
X68546399Y-32809392D02*
X68580377Y-32819700D01*
X68611695Y-32836440D01*
X68639147Y-32858968D01*
X68661675Y-32886420D01*
X68678415Y-32917738D01*
X68688723Y-32951716D01*
X68692808Y-32993197D01*
X68692808Y-33669417D01*
X68688723Y-33710898D01*
X68678415Y-33744876D01*
X68661675Y-33776194D01*
X68639147Y-33803646D01*
X68611695Y-33826174D01*
X68580377Y-33842914D01*
X68546399Y-33853222D01*
X68504918Y-33857307D01*
X67903698Y-33857307D01*
X67862217Y-33853222D01*
X67828239Y-33842914D01*
X67796921Y-33826174D01*
X67769469Y-33803646D01*
X67746941Y-33776194D01*
X67730201Y-33744876D01*
X67719893Y-33710898D01*
X67715808Y-33669417D01*
X67715808Y-32993197D01*
X67719893Y-32951716D01*
X67730201Y-32917738D01*
X67746941Y-32886420D01*
X67769469Y-32858968D01*
X67796921Y-32836440D01*
X67828239Y-32819700D01*
X67862217Y-32809392D01*
X67903698Y-32805307D01*
X68504918Y-32805307D01*
X68546399Y-32809392D01*
X68546399Y-32809392D01*
G37*
G36*
X66971399Y-32809392D02*
X67005377Y-32819700D01*
X67036695Y-32836440D01*
X67064147Y-32858968D01*
X67086675Y-32886420D01*
X67103415Y-32917738D01*
X67113723Y-32951716D01*
X67117808Y-32993197D01*
X67117808Y-33669417D01*
X67113723Y-33710898D01*
X67103415Y-33744876D01*
X67086675Y-33776194D01*
X67064147Y-33803646D01*
X67036695Y-33826174D01*
X67005377Y-33842914D01*
X66971399Y-33853222D01*
X66929918Y-33857307D01*
X66328698Y-33857307D01*
X66287217Y-33853222D01*
X66253239Y-33842914D01*
X66221921Y-33826174D01*
X66194469Y-33803646D01*
X66171941Y-33776194D01*
X66155201Y-33744876D01*
X66144893Y-33710898D01*
X66140808Y-33669417D01*
X66140808Y-32993197D01*
X66144893Y-32951716D01*
X66155201Y-32917738D01*
X66171941Y-32886420D01*
X66194469Y-32858968D01*
X66221921Y-32836440D01*
X66253239Y-32819700D01*
X66287217Y-32809392D01*
X66328698Y-32805307D01*
X66929918Y-32805307D01*
X66971399Y-32809392D01*
X66971399Y-32809392D01*
G37*
G36*
X55683643Y-31829781D02*
X55829415Y-31890162D01*
X55960611Y-31977824D01*
X56072176Y-32089389D01*
X56159838Y-32220585D01*
X56220219Y-32366357D01*
X56251000Y-32521107D01*
X56251000Y-32678893D01*
X56220219Y-32833643D01*
X56159838Y-32979415D01*
X56072176Y-33110611D01*
X55960611Y-33222176D01*
X55829415Y-33309838D01*
X55683643Y-33370219D01*
X55528893Y-33401000D01*
X55371107Y-33401000D01*
X55216357Y-33370219D01*
X55070585Y-33309838D01*
X54939389Y-33222176D01*
X54827824Y-33110611D01*
X54740162Y-32979415D01*
X54679781Y-32833643D01*
X54649000Y-32678893D01*
X54649000Y-32521107D01*
X54679781Y-32366357D01*
X54740162Y-32220585D01*
X54827824Y-32089389D01*
X54939389Y-31977824D01*
X55070585Y-31890162D01*
X55216357Y-31829781D01*
X55371107Y-31799000D01*
X55528893Y-31799000D01*
X55683643Y-31829781D01*
X55683643Y-31829781D01*
G37*
G36*
X50218604Y-31778347D02*
X50255145Y-31789432D01*
X50288820Y-31807431D01*
X50318341Y-31831659D01*
X50342569Y-31861180D01*
X50360568Y-31894855D01*
X50371653Y-31931396D01*
X50376000Y-31975538D01*
X50376000Y-32924462D01*
X50371653Y-32968604D01*
X50360568Y-33005145D01*
X50342569Y-33038820D01*
X50318341Y-33068341D01*
X50288820Y-33092569D01*
X50255145Y-33110568D01*
X50218604Y-33121653D01*
X50174462Y-33126000D01*
X48725538Y-33126000D01*
X48681396Y-33121653D01*
X48644855Y-33110568D01*
X48611180Y-33092569D01*
X48581659Y-33068341D01*
X48557431Y-33038820D01*
X48539432Y-33005145D01*
X48528347Y-32968604D01*
X48524000Y-32924462D01*
X48524000Y-31975538D01*
X48528347Y-31931396D01*
X48539432Y-31894855D01*
X48557431Y-31861180D01*
X48581659Y-31831659D01*
X48611180Y-31807431D01*
X48644855Y-31789432D01*
X48681396Y-31778347D01*
X48725538Y-31774000D01*
X50174462Y-31774000D01*
X50218604Y-31778347D01*
X50218604Y-31778347D01*
G37*
G36*
X52718604Y-31778347D02*
X52755145Y-31789432D01*
X52788820Y-31807431D01*
X52818341Y-31831659D01*
X52842569Y-31861180D01*
X52860568Y-31894855D01*
X52871653Y-31931396D01*
X52876000Y-31975538D01*
X52876000Y-32924462D01*
X52871653Y-32968604D01*
X52860568Y-33005145D01*
X52842569Y-33038820D01*
X52818341Y-33068341D01*
X52788820Y-33092569D01*
X52755145Y-33110568D01*
X52718604Y-33121653D01*
X52674462Y-33126000D01*
X51225538Y-33126000D01*
X51181396Y-33121653D01*
X51144855Y-33110568D01*
X51111180Y-33092569D01*
X51081659Y-33068341D01*
X51057431Y-33038820D01*
X51039432Y-33005145D01*
X51028347Y-32968604D01*
X51024000Y-32924462D01*
X51024000Y-31975538D01*
X51028347Y-31931396D01*
X51039432Y-31894855D01*
X51057431Y-31861180D01*
X51081659Y-31831659D01*
X51111180Y-31807431D01*
X51144855Y-31789432D01*
X51181396Y-31778347D01*
X51225538Y-31774000D01*
X52674462Y-31774000D01*
X52718604Y-31778347D01*
X52718604Y-31778347D01*
G37*
G36*
X47718604Y-31778347D02*
X47755145Y-31789432D01*
X47788820Y-31807431D01*
X47818341Y-31831659D01*
X47842569Y-31861180D01*
X47860568Y-31894855D01*
X47871653Y-31931396D01*
X47876000Y-31975538D01*
X47876000Y-32924462D01*
X47871653Y-32968604D01*
X47860568Y-33005145D01*
X47842569Y-33038820D01*
X47818341Y-33068341D01*
X47788820Y-33092569D01*
X47755145Y-33110568D01*
X47718604Y-33121653D01*
X47674462Y-33126000D01*
X46225538Y-33126000D01*
X46181396Y-33121653D01*
X46144855Y-33110568D01*
X46111180Y-33092569D01*
X46081659Y-33068341D01*
X46057431Y-33038820D01*
X46039432Y-33005145D01*
X46028347Y-32968604D01*
X46024000Y-32924462D01*
X46024000Y-31975538D01*
X46028347Y-31931396D01*
X46039432Y-31894855D01*
X46057431Y-31861180D01*
X46081659Y-31831659D01*
X46111180Y-31807431D01*
X46144855Y-31789432D01*
X46181396Y-31778347D01*
X46225538Y-31774000D01*
X47674462Y-31774000D01*
X47718604Y-31778347D01*
X47718604Y-31778347D01*
G37*
G36*
X73598252Y-29007818D02*
X73598254Y-29007819D01*
X73598255Y-29007819D01*
X73971513Y-29162427D01*
X74187021Y-29306425D01*
X74307439Y-29386886D01*
X74593114Y-29672561D01*
X74593116Y-29672564D01*
X74817573Y-30008487D01*
X74972181Y-30381745D01*
X74972182Y-30381748D01*
X75051000Y-30777993D01*
X75051000Y-31182007D01*
X74977890Y-31549557D01*
X74972181Y-31578255D01*
X74817573Y-31951513D01*
X74686433Y-32147777D01*
X74593114Y-32287439D01*
X74307439Y-32573114D01*
X74307436Y-32573116D01*
X73971513Y-32797573D01*
X73598255Y-32952181D01*
X73598254Y-32952181D01*
X73598252Y-32952182D01*
X73202007Y-33031000D01*
X72797993Y-33031000D01*
X72401748Y-32952182D01*
X72401746Y-32952181D01*
X72401745Y-32952181D01*
X72028487Y-32797573D01*
X71692564Y-32573116D01*
X71692561Y-32573114D01*
X71406886Y-32287439D01*
X71313567Y-32147777D01*
X71182427Y-31951513D01*
X71027819Y-31578255D01*
X71022111Y-31549557D01*
X70949000Y-31182007D01*
X70949000Y-30777993D01*
X71027818Y-30381748D01*
X71027819Y-30381745D01*
X71182427Y-30008487D01*
X71406884Y-29672564D01*
X71406886Y-29672561D01*
X71692561Y-29386886D01*
X71812979Y-29306425D01*
X72028487Y-29162427D01*
X72401745Y-29007819D01*
X72401746Y-29007819D01*
X72401748Y-29007818D01*
X72797993Y-28929000D01*
X73202007Y-28929000D01*
X73598252Y-29007818D01*
X73598252Y-29007818D01*
G37*
G36*
X34001200Y-28305553D02*
X34059273Y-28323170D01*
X34112805Y-28351783D01*
X34159717Y-28390283D01*
X34198217Y-28437195D01*
X34226830Y-28490727D01*
X34244447Y-28548800D01*
X34251000Y-28615340D01*
X34251000Y-32084660D01*
X34244447Y-32151200D01*
X34226830Y-32209273D01*
X34198217Y-32262805D01*
X34159717Y-32309717D01*
X34112805Y-32348217D01*
X34059273Y-32376830D01*
X34001200Y-32394447D01*
X33934660Y-32401000D01*
X30465340Y-32401000D01*
X30398800Y-32394447D01*
X30340727Y-32376830D01*
X30287195Y-32348217D01*
X30240283Y-32309717D01*
X30201783Y-32262805D01*
X30173170Y-32209273D01*
X30155553Y-32151200D01*
X30149000Y-32084660D01*
X30149000Y-28615340D01*
X30155553Y-28548800D01*
X30173170Y-28490727D01*
X30201783Y-28437195D01*
X30240283Y-28390283D01*
X30287195Y-28351783D01*
X30340727Y-28323170D01*
X30398800Y-28305553D01*
X30465340Y-28299000D01*
X33934660Y-28299000D01*
X34001200Y-28305553D01*
X34001200Y-28305553D01*
G37*
G36*
X39001200Y-28305553D02*
X39059273Y-28323170D01*
X39112805Y-28351783D01*
X39159717Y-28390283D01*
X39198217Y-28437195D01*
X39226830Y-28490727D01*
X39244447Y-28548800D01*
X39251000Y-28615340D01*
X39251000Y-32084660D01*
X39244447Y-32151200D01*
X39226830Y-32209273D01*
X39198217Y-32262805D01*
X39159717Y-32309717D01*
X39112805Y-32348217D01*
X39059273Y-32376830D01*
X39001200Y-32394447D01*
X38934660Y-32401000D01*
X35465340Y-32401000D01*
X35398800Y-32394447D01*
X35340727Y-32376830D01*
X35287195Y-32348217D01*
X35240283Y-32309717D01*
X35201783Y-32262805D01*
X35173170Y-32209273D01*
X35155553Y-32151200D01*
X35149000Y-32084660D01*
X35149000Y-28615340D01*
X35155553Y-28548800D01*
X35173170Y-28490727D01*
X35201783Y-28437195D01*
X35240283Y-28390283D01*
X35287195Y-28351783D01*
X35340727Y-28323170D01*
X35398800Y-28305553D01*
X35465340Y-28299000D01*
X38934660Y-28299000D01*
X39001200Y-28305553D01*
X39001200Y-28305553D01*
G37*
G36*
X68546399Y-31309392D02*
X68580377Y-31319700D01*
X68611695Y-31336440D01*
X68639147Y-31358968D01*
X68661675Y-31386420D01*
X68678415Y-31417738D01*
X68688723Y-31451716D01*
X68692808Y-31493197D01*
X68692808Y-32169417D01*
X68688723Y-32210898D01*
X68678415Y-32244876D01*
X68661675Y-32276194D01*
X68639147Y-32303646D01*
X68611695Y-32326174D01*
X68580377Y-32342914D01*
X68546399Y-32353222D01*
X68504918Y-32357307D01*
X67903698Y-32357307D01*
X67862217Y-32353222D01*
X67828239Y-32342914D01*
X67796921Y-32326174D01*
X67769469Y-32303646D01*
X67746941Y-32276194D01*
X67730201Y-32244876D01*
X67719893Y-32210898D01*
X67715808Y-32169417D01*
X67715808Y-31493197D01*
X67719893Y-31451716D01*
X67730201Y-31417738D01*
X67746941Y-31386420D01*
X67769469Y-31358968D01*
X67796921Y-31336440D01*
X67828239Y-31319700D01*
X67862217Y-31309392D01*
X67903698Y-31305307D01*
X68504918Y-31305307D01*
X68546399Y-31309392D01*
X68546399Y-31309392D01*
G37*
G36*
X66971399Y-31309392D02*
X67005377Y-31319700D01*
X67036695Y-31336440D01*
X67064147Y-31358968D01*
X67086675Y-31386420D01*
X67103415Y-31417738D01*
X67113723Y-31451716D01*
X67117808Y-31493197D01*
X67117808Y-32169417D01*
X67113723Y-32210898D01*
X67103415Y-32244876D01*
X67086675Y-32276194D01*
X67064147Y-32303646D01*
X67036695Y-32326174D01*
X67005377Y-32342914D01*
X66971399Y-32353222D01*
X66929918Y-32357307D01*
X66328698Y-32357307D01*
X66287217Y-32353222D01*
X66253239Y-32342914D01*
X66221921Y-32326174D01*
X66194469Y-32303646D01*
X66171941Y-32276194D01*
X66155201Y-32244876D01*
X66144893Y-32210898D01*
X66140808Y-32169417D01*
X66140808Y-31493197D01*
X66144893Y-31451716D01*
X66155201Y-31417738D01*
X66171941Y-31386420D01*
X66194469Y-31358968D01*
X66221921Y-31336440D01*
X66253239Y-31319700D01*
X66287217Y-31309392D01*
X66328698Y-31305307D01*
X66929918Y-31305307D01*
X66971399Y-31309392D01*
X66971399Y-31309392D01*
G37*
G36*
X44078277Y-29301326D02*
X44095087Y-29306425D01*
X44110578Y-29314706D01*
X44124153Y-29325847D01*
X44135294Y-29339422D01*
X44143575Y-29354913D01*
X44148674Y-29371723D01*
X44151000Y-29395340D01*
X44151000Y-31304660D01*
X44148674Y-31328277D01*
X44143575Y-31345087D01*
X44135294Y-31360578D01*
X44124153Y-31374153D01*
X44110578Y-31385294D01*
X44095087Y-31393575D01*
X44078277Y-31398674D01*
X44054660Y-31401000D01*
X42345340Y-31401000D01*
X42321723Y-31398674D01*
X42304913Y-31393575D01*
X42289422Y-31385294D01*
X42275847Y-31374153D01*
X42264706Y-31360578D01*
X42256425Y-31345087D01*
X42251326Y-31328277D01*
X42249000Y-31304660D01*
X42249000Y-29395340D01*
X42251326Y-29371723D01*
X42256425Y-29354913D01*
X42264706Y-29339422D01*
X42275847Y-29325847D01*
X42289422Y-29314706D01*
X42304913Y-29306425D01*
X42321723Y-29301326D01*
X42345340Y-29299000D01*
X44054660Y-29299000D01*
X44078277Y-29301326D01*
X44078277Y-29301326D01*
G37*
G36*
X26579485Y-26098996D02*
X26579487Y-26098997D01*
X26579488Y-26098997D01*
X26816255Y-26197069D01*
X27029342Y-26339449D01*
X27210551Y-26520658D01*
X27352931Y-26733745D01*
X27451004Y-26970515D01*
X27501000Y-27221861D01*
X27501000Y-27478139D01*
X27451004Y-27729485D01*
X27352931Y-27966255D01*
X27210551Y-28179342D01*
X27029342Y-28360551D01*
X27029339Y-28360553D01*
X26816255Y-28502931D01*
X26579488Y-28601003D01*
X26579487Y-28601003D01*
X26579485Y-28601004D01*
X26328139Y-28651000D01*
X26071861Y-28651000D01*
X25820515Y-28601004D01*
X25820513Y-28601003D01*
X25820512Y-28601003D01*
X25583745Y-28502931D01*
X25370661Y-28360553D01*
X25370658Y-28360551D01*
X25189449Y-28179342D01*
X25047069Y-27966255D01*
X24948996Y-27729485D01*
X24899000Y-27478139D01*
X24899000Y-27221861D01*
X24948996Y-26970515D01*
X25047069Y-26733745D01*
X25189449Y-26520658D01*
X25370658Y-26339449D01*
X25583745Y-26197069D01*
X25820512Y-26098997D01*
X25820513Y-26098997D01*
X25820515Y-26098996D01*
X26071861Y-26049000D01*
X26328139Y-26049000D01*
X26579485Y-26098996D01*
X26579485Y-26098996D01*
G37*
G36*
X80579485Y-26098996D02*
X80579487Y-26098997D01*
X80579488Y-26098997D01*
X80816255Y-26197069D01*
X81029342Y-26339449D01*
X81210551Y-26520658D01*
X81352931Y-26733745D01*
X81451004Y-26970515D01*
X81501000Y-27221861D01*
X81501000Y-27478139D01*
X81451004Y-27729485D01*
X81352931Y-27966255D01*
X81210551Y-28179342D01*
X81029342Y-28360551D01*
X81029339Y-28360553D01*
X80816255Y-28502931D01*
X80579488Y-28601003D01*
X80579487Y-28601003D01*
X80579485Y-28601004D01*
X80328139Y-28651000D01*
X80071861Y-28651000D01*
X79820515Y-28601004D01*
X79820513Y-28601003D01*
X79820512Y-28601003D01*
X79583745Y-28502931D01*
X79370661Y-28360553D01*
X79370658Y-28360551D01*
X79189449Y-28179342D01*
X79047069Y-27966255D01*
X78948996Y-27729485D01*
X78899000Y-27478139D01*
X78899000Y-27221861D01*
X78948996Y-26970515D01*
X79047069Y-26733745D01*
X79189449Y-26520658D01*
X79370658Y-26339449D01*
X79583745Y-26197069D01*
X79820512Y-26098997D01*
X79820513Y-26098997D01*
X79820515Y-26098996D01*
X80071861Y-26049000D01*
X80328139Y-26049000D01*
X80579485Y-26098996D01*
X80579485Y-26098996D01*
G37*
M02*
