G04 #@! TF.GenerationSoftware,KiCad,Pcbnew,5.0.2-bee76a0~70~ubuntu16.04.1*
G04 #@! TF.CreationDate,2019-02-21T23:56:22+01:00*
G04 #@! TF.ProjectId,24VDC_to_USB_voltage_converter,32345644-435f-4746-9f5f-5553425f766f,rev?*
G04 #@! TF.SameCoordinates,Original*
G04 #@! TF.FileFunction,Copper,L1,Top*
G04 #@! TF.FilePolarity,Positive*
%FSLAX46Y46*%
G04 Gerber Fmt 4.6, Leading zero omitted, Abs format (unit mm)*
G04 Created by KiCad (PCBNEW 5.0.2-bee76a0~70~ubuntu16.04.1) date Thu 21 Feb 2019 11:56:22 PM CET*
%MOMM*%
%LPD*%
G01*
G04 APERTURE LIST*
G04 #@! TA.AperFunction,SMDPad,CuDef*
%ADD10R,0.650000X1.560000*%
G04 #@! TD*
G04 #@! TA.AperFunction,Conductor*
%ADD11C,0.100000*%
G04 #@! TD*
G04 #@! TA.AperFunction,SMDPad,CuDef*
%ADD12C,0.875000*%
G04 #@! TD*
G04 #@! TA.AperFunction,SMDPad,CuDef*
%ADD13C,1.250000*%
G04 #@! TD*
G04 #@! TA.AperFunction,SMDPad,CuDef*
%ADD14R,7.500000X3.000000*%
G04 #@! TD*
G04 #@! TA.AperFunction,ComponentPad*
%ADD15C,4.000000*%
G04 #@! TD*
G04 #@! TA.AperFunction,ComponentPad*
%ADD16C,1.800000*%
G04 #@! TD*
G04 #@! TA.AperFunction,ComponentPad*
%ADD17C,1.600000*%
G04 #@! TD*
G04 #@! TA.AperFunction,SMDPad,CuDef*
%ADD18C,1.800000*%
G04 #@! TD*
G04 #@! TA.AperFunction,SMDPad,CuDef*
%ADD19C,2.200000*%
G04 #@! TD*
G04 #@! TA.AperFunction,SMDPad,CuDef*
%ADD20R,1.560000X0.650000*%
G04 #@! TD*
G04 #@! TA.AperFunction,SMDPad,CuDef*
%ADD21C,0.975000*%
G04 #@! TD*
G04 #@! TA.AperFunction,BGAPad,CuDef*
%ADD22C,1.500000*%
G04 #@! TD*
G04 #@! TA.AperFunction,ViaPad*
%ADD23C,0.800000*%
G04 #@! TD*
G04 #@! TA.AperFunction,Conductor*
%ADD24C,0.800000*%
G04 #@! TD*
G04 #@! TA.AperFunction,Conductor*
%ADD25C,0.250000*%
G04 #@! TD*
G04 #@! TA.AperFunction,Conductor*
%ADD26C,0.500000*%
G04 #@! TD*
G04 #@! TA.AperFunction,Conductor*
%ADD27C,1.500000*%
G04 #@! TD*
G04 #@! TA.AperFunction,Conductor*
%ADD28C,0.300000*%
G04 #@! TD*
G04 #@! TA.AperFunction,Conductor*
%ADD29C,0.254000*%
G04 #@! TD*
G04 APERTURE END LIST*
D10*
G04 #@! TO.P,U1,1*
G04 #@! TO.N,GND*
X137700000Y-86650000D03*
G04 #@! TO.P,U1,2*
G04 #@! TO.N,/SW*
X136750000Y-86650000D03*
G04 #@! TO.P,U1,3*
G04 #@! TO.N,/PR_INPUT*
X135800000Y-86650000D03*
G04 #@! TO.P,U1,4*
G04 #@! TO.N,/FB*
X135800000Y-89350000D03*
G04 #@! TO.P,U1,6*
G04 #@! TO.N,Net-(C4-Pad2)*
X137700000Y-89350000D03*
G04 #@! TO.P,U1,5*
G04 #@! TO.N,/EN*
X136750000Y-89350000D03*
G04 #@! TD*
D11*
G04 #@! TO.N,Net-(C4-Pad2)*
G04 #@! TO.C,C4*
G36*
X138027691Y-91276053D02*
X138048926Y-91279203D01*
X138069750Y-91284419D01*
X138089962Y-91291651D01*
X138109368Y-91300830D01*
X138127781Y-91311866D01*
X138145024Y-91324654D01*
X138160930Y-91339070D01*
X138175346Y-91354976D01*
X138188134Y-91372219D01*
X138199170Y-91390632D01*
X138208349Y-91410038D01*
X138215581Y-91430250D01*
X138220797Y-91451074D01*
X138223947Y-91472309D01*
X138225000Y-91493750D01*
X138225000Y-91931250D01*
X138223947Y-91952691D01*
X138220797Y-91973926D01*
X138215581Y-91994750D01*
X138208349Y-92014962D01*
X138199170Y-92034368D01*
X138188134Y-92052781D01*
X138175346Y-92070024D01*
X138160930Y-92085930D01*
X138145024Y-92100346D01*
X138127781Y-92113134D01*
X138109368Y-92124170D01*
X138089962Y-92133349D01*
X138069750Y-92140581D01*
X138048926Y-92145797D01*
X138027691Y-92148947D01*
X138006250Y-92150000D01*
X137493750Y-92150000D01*
X137472309Y-92148947D01*
X137451074Y-92145797D01*
X137430250Y-92140581D01*
X137410038Y-92133349D01*
X137390632Y-92124170D01*
X137372219Y-92113134D01*
X137354976Y-92100346D01*
X137339070Y-92085930D01*
X137324654Y-92070024D01*
X137311866Y-92052781D01*
X137300830Y-92034368D01*
X137291651Y-92014962D01*
X137284419Y-91994750D01*
X137279203Y-91973926D01*
X137276053Y-91952691D01*
X137275000Y-91931250D01*
X137275000Y-91493750D01*
X137276053Y-91472309D01*
X137279203Y-91451074D01*
X137284419Y-91430250D01*
X137291651Y-91410038D01*
X137300830Y-91390632D01*
X137311866Y-91372219D01*
X137324654Y-91354976D01*
X137339070Y-91339070D01*
X137354976Y-91324654D01*
X137372219Y-91311866D01*
X137390632Y-91300830D01*
X137410038Y-91291651D01*
X137430250Y-91284419D01*
X137451074Y-91279203D01*
X137472309Y-91276053D01*
X137493750Y-91275000D01*
X138006250Y-91275000D01*
X138027691Y-91276053D01*
X138027691Y-91276053D01*
G37*
D12*
G04 #@! TD*
G04 #@! TO.P,C4,2*
G04 #@! TO.N,Net-(C4-Pad2)*
X137750000Y-91712500D03*
D11*
G04 #@! TO.N,/SW*
G04 #@! TO.C,C4*
G36*
X138027691Y-92851053D02*
X138048926Y-92854203D01*
X138069750Y-92859419D01*
X138089962Y-92866651D01*
X138109368Y-92875830D01*
X138127781Y-92886866D01*
X138145024Y-92899654D01*
X138160930Y-92914070D01*
X138175346Y-92929976D01*
X138188134Y-92947219D01*
X138199170Y-92965632D01*
X138208349Y-92985038D01*
X138215581Y-93005250D01*
X138220797Y-93026074D01*
X138223947Y-93047309D01*
X138225000Y-93068750D01*
X138225000Y-93506250D01*
X138223947Y-93527691D01*
X138220797Y-93548926D01*
X138215581Y-93569750D01*
X138208349Y-93589962D01*
X138199170Y-93609368D01*
X138188134Y-93627781D01*
X138175346Y-93645024D01*
X138160930Y-93660930D01*
X138145024Y-93675346D01*
X138127781Y-93688134D01*
X138109368Y-93699170D01*
X138089962Y-93708349D01*
X138069750Y-93715581D01*
X138048926Y-93720797D01*
X138027691Y-93723947D01*
X138006250Y-93725000D01*
X137493750Y-93725000D01*
X137472309Y-93723947D01*
X137451074Y-93720797D01*
X137430250Y-93715581D01*
X137410038Y-93708349D01*
X137390632Y-93699170D01*
X137372219Y-93688134D01*
X137354976Y-93675346D01*
X137339070Y-93660930D01*
X137324654Y-93645024D01*
X137311866Y-93627781D01*
X137300830Y-93609368D01*
X137291651Y-93589962D01*
X137284419Y-93569750D01*
X137279203Y-93548926D01*
X137276053Y-93527691D01*
X137275000Y-93506250D01*
X137275000Y-93068750D01*
X137276053Y-93047309D01*
X137279203Y-93026074D01*
X137284419Y-93005250D01*
X137291651Y-92985038D01*
X137300830Y-92965632D01*
X137311866Y-92947219D01*
X137324654Y-92929976D01*
X137339070Y-92914070D01*
X137354976Y-92899654D01*
X137372219Y-92886866D01*
X137390632Y-92875830D01*
X137410038Y-92866651D01*
X137430250Y-92859419D01*
X137451074Y-92854203D01*
X137472309Y-92851053D01*
X137493750Y-92850000D01*
X138006250Y-92850000D01*
X138027691Y-92851053D01*
X138027691Y-92851053D01*
G37*
D12*
G04 #@! TD*
G04 #@! TO.P,C4,1*
G04 #@! TO.N,/SW*
X137750000Y-93287500D03*
D11*
G04 #@! TO.N,/SHIELD*
G04 #@! TO.C,C8*
G36*
X150244499Y-83257360D02*
X150265734Y-83260510D01*
X150286558Y-83265726D01*
X150306770Y-83272958D01*
X150326176Y-83282137D01*
X150344589Y-83293173D01*
X150361832Y-83305961D01*
X150377738Y-83320377D01*
X150392154Y-83336283D01*
X150404942Y-83353526D01*
X150415978Y-83371939D01*
X150425157Y-83391345D01*
X150432389Y-83411557D01*
X150437605Y-83432381D01*
X150440755Y-83453616D01*
X150441808Y-83475057D01*
X150441808Y-83987557D01*
X150440755Y-84008998D01*
X150437605Y-84030233D01*
X150432389Y-84051057D01*
X150425157Y-84071269D01*
X150415978Y-84090675D01*
X150404942Y-84109088D01*
X150392154Y-84126331D01*
X150377738Y-84142237D01*
X150361832Y-84156653D01*
X150344589Y-84169441D01*
X150326176Y-84180477D01*
X150306770Y-84189656D01*
X150286558Y-84196888D01*
X150265734Y-84202104D01*
X150244499Y-84205254D01*
X150223058Y-84206307D01*
X149785558Y-84206307D01*
X149764117Y-84205254D01*
X149742882Y-84202104D01*
X149722058Y-84196888D01*
X149701846Y-84189656D01*
X149682440Y-84180477D01*
X149664027Y-84169441D01*
X149646784Y-84156653D01*
X149630878Y-84142237D01*
X149616462Y-84126331D01*
X149603674Y-84109088D01*
X149592638Y-84090675D01*
X149583459Y-84071269D01*
X149576227Y-84051057D01*
X149571011Y-84030233D01*
X149567861Y-84008998D01*
X149566808Y-83987557D01*
X149566808Y-83475057D01*
X149567861Y-83453616D01*
X149571011Y-83432381D01*
X149576227Y-83411557D01*
X149583459Y-83391345D01*
X149592638Y-83371939D01*
X149603674Y-83353526D01*
X149616462Y-83336283D01*
X149630878Y-83320377D01*
X149646784Y-83305961D01*
X149664027Y-83293173D01*
X149682440Y-83282137D01*
X149701846Y-83272958D01*
X149722058Y-83265726D01*
X149742882Y-83260510D01*
X149764117Y-83257360D01*
X149785558Y-83256307D01*
X150223058Y-83256307D01*
X150244499Y-83257360D01*
X150244499Y-83257360D01*
G37*
D12*
G04 #@! TD*
G04 #@! TO.P,C8,1*
G04 #@! TO.N,/SHIELD*
X150004308Y-83731307D03*
D11*
G04 #@! TO.N,GND*
G04 #@! TO.C,C8*
G36*
X148669499Y-83257360D02*
X148690734Y-83260510D01*
X148711558Y-83265726D01*
X148731770Y-83272958D01*
X148751176Y-83282137D01*
X148769589Y-83293173D01*
X148786832Y-83305961D01*
X148802738Y-83320377D01*
X148817154Y-83336283D01*
X148829942Y-83353526D01*
X148840978Y-83371939D01*
X148850157Y-83391345D01*
X148857389Y-83411557D01*
X148862605Y-83432381D01*
X148865755Y-83453616D01*
X148866808Y-83475057D01*
X148866808Y-83987557D01*
X148865755Y-84008998D01*
X148862605Y-84030233D01*
X148857389Y-84051057D01*
X148850157Y-84071269D01*
X148840978Y-84090675D01*
X148829942Y-84109088D01*
X148817154Y-84126331D01*
X148802738Y-84142237D01*
X148786832Y-84156653D01*
X148769589Y-84169441D01*
X148751176Y-84180477D01*
X148731770Y-84189656D01*
X148711558Y-84196888D01*
X148690734Y-84202104D01*
X148669499Y-84205254D01*
X148648058Y-84206307D01*
X148210558Y-84206307D01*
X148189117Y-84205254D01*
X148167882Y-84202104D01*
X148147058Y-84196888D01*
X148126846Y-84189656D01*
X148107440Y-84180477D01*
X148089027Y-84169441D01*
X148071784Y-84156653D01*
X148055878Y-84142237D01*
X148041462Y-84126331D01*
X148028674Y-84109088D01*
X148017638Y-84090675D01*
X148008459Y-84071269D01*
X148001227Y-84051057D01*
X147996011Y-84030233D01*
X147992861Y-84008998D01*
X147991808Y-83987557D01*
X147991808Y-83475057D01*
X147992861Y-83453616D01*
X147996011Y-83432381D01*
X148001227Y-83411557D01*
X148008459Y-83391345D01*
X148017638Y-83371939D01*
X148028674Y-83353526D01*
X148041462Y-83336283D01*
X148055878Y-83320377D01*
X148071784Y-83305961D01*
X148089027Y-83293173D01*
X148107440Y-83282137D01*
X148126846Y-83272958D01*
X148147058Y-83265726D01*
X148167882Y-83260510D01*
X148189117Y-83257360D01*
X148210558Y-83256307D01*
X148648058Y-83256307D01*
X148669499Y-83257360D01*
X148669499Y-83257360D01*
G37*
D12*
G04 #@! TD*
G04 #@! TO.P,C8,2*
G04 #@! TO.N,GND*
X148429308Y-83731307D03*
D11*
G04 #@! TO.N,/PR_INPUT*
G04 #@! TO.C,C2*
G36*
X131899504Y-85026204D02*
X131923773Y-85029804D01*
X131947571Y-85035765D01*
X131970671Y-85044030D01*
X131992849Y-85054520D01*
X132013893Y-85067133D01*
X132033598Y-85081747D01*
X132051777Y-85098223D01*
X132068253Y-85116402D01*
X132082867Y-85136107D01*
X132095480Y-85157151D01*
X132105970Y-85179329D01*
X132114235Y-85202429D01*
X132120196Y-85226227D01*
X132123796Y-85250496D01*
X132125000Y-85275000D01*
X132125000Y-86025000D01*
X132123796Y-86049504D01*
X132120196Y-86073773D01*
X132114235Y-86097571D01*
X132105970Y-86120671D01*
X132095480Y-86142849D01*
X132082867Y-86163893D01*
X132068253Y-86183598D01*
X132051777Y-86201777D01*
X132033598Y-86218253D01*
X132013893Y-86232867D01*
X131992849Y-86245480D01*
X131970671Y-86255970D01*
X131947571Y-86264235D01*
X131923773Y-86270196D01*
X131899504Y-86273796D01*
X131875000Y-86275000D01*
X130625000Y-86275000D01*
X130600496Y-86273796D01*
X130576227Y-86270196D01*
X130552429Y-86264235D01*
X130529329Y-86255970D01*
X130507151Y-86245480D01*
X130486107Y-86232867D01*
X130466402Y-86218253D01*
X130448223Y-86201777D01*
X130431747Y-86183598D01*
X130417133Y-86163893D01*
X130404520Y-86142849D01*
X130394030Y-86120671D01*
X130385765Y-86097571D01*
X130379804Y-86073773D01*
X130376204Y-86049504D01*
X130375000Y-86025000D01*
X130375000Y-85275000D01*
X130376204Y-85250496D01*
X130379804Y-85226227D01*
X130385765Y-85202429D01*
X130394030Y-85179329D01*
X130404520Y-85157151D01*
X130417133Y-85136107D01*
X130431747Y-85116402D01*
X130448223Y-85098223D01*
X130466402Y-85081747D01*
X130486107Y-85067133D01*
X130507151Y-85054520D01*
X130529329Y-85044030D01*
X130552429Y-85035765D01*
X130576227Y-85029804D01*
X130600496Y-85026204D01*
X130625000Y-85025000D01*
X131875000Y-85025000D01*
X131899504Y-85026204D01*
X131899504Y-85026204D01*
G37*
D13*
G04 #@! TD*
G04 #@! TO.P,C2,1*
G04 #@! TO.N,/PR_INPUT*
X131250000Y-85650000D03*
D11*
G04 #@! TO.N,GND*
G04 #@! TO.C,C2*
G36*
X131899504Y-82226204D02*
X131923773Y-82229804D01*
X131947571Y-82235765D01*
X131970671Y-82244030D01*
X131992849Y-82254520D01*
X132013893Y-82267133D01*
X132033598Y-82281747D01*
X132051777Y-82298223D01*
X132068253Y-82316402D01*
X132082867Y-82336107D01*
X132095480Y-82357151D01*
X132105970Y-82379329D01*
X132114235Y-82402429D01*
X132120196Y-82426227D01*
X132123796Y-82450496D01*
X132125000Y-82475000D01*
X132125000Y-83225000D01*
X132123796Y-83249504D01*
X132120196Y-83273773D01*
X132114235Y-83297571D01*
X132105970Y-83320671D01*
X132095480Y-83342849D01*
X132082867Y-83363893D01*
X132068253Y-83383598D01*
X132051777Y-83401777D01*
X132033598Y-83418253D01*
X132013893Y-83432867D01*
X131992849Y-83445480D01*
X131970671Y-83455970D01*
X131947571Y-83464235D01*
X131923773Y-83470196D01*
X131899504Y-83473796D01*
X131875000Y-83475000D01*
X130625000Y-83475000D01*
X130600496Y-83473796D01*
X130576227Y-83470196D01*
X130552429Y-83464235D01*
X130529329Y-83455970D01*
X130507151Y-83445480D01*
X130486107Y-83432867D01*
X130466402Y-83418253D01*
X130448223Y-83401777D01*
X130431747Y-83383598D01*
X130417133Y-83363893D01*
X130404520Y-83342849D01*
X130394030Y-83320671D01*
X130385765Y-83297571D01*
X130379804Y-83273773D01*
X130376204Y-83249504D01*
X130375000Y-83225000D01*
X130375000Y-82475000D01*
X130376204Y-82450496D01*
X130379804Y-82426227D01*
X130385765Y-82402429D01*
X130394030Y-82379329D01*
X130404520Y-82357151D01*
X130417133Y-82336107D01*
X130431747Y-82316402D01*
X130448223Y-82298223D01*
X130466402Y-82281747D01*
X130486107Y-82267133D01*
X130507151Y-82254520D01*
X130529329Y-82244030D01*
X130552429Y-82235765D01*
X130576227Y-82229804D01*
X130600496Y-82226204D01*
X130625000Y-82225000D01*
X131875000Y-82225000D01*
X131899504Y-82226204D01*
X131899504Y-82226204D01*
G37*
D13*
G04 #@! TD*
G04 #@! TO.P,C2,2*
G04 #@! TO.N,GND*
X131250000Y-82850000D03*
D11*
G04 #@! TO.N,GND*
G04 #@! TO.C,C3*
G36*
X134399504Y-82226204D02*
X134423773Y-82229804D01*
X134447571Y-82235765D01*
X134470671Y-82244030D01*
X134492849Y-82254520D01*
X134513893Y-82267133D01*
X134533598Y-82281747D01*
X134551777Y-82298223D01*
X134568253Y-82316402D01*
X134582867Y-82336107D01*
X134595480Y-82357151D01*
X134605970Y-82379329D01*
X134614235Y-82402429D01*
X134620196Y-82426227D01*
X134623796Y-82450496D01*
X134625000Y-82475000D01*
X134625000Y-83225000D01*
X134623796Y-83249504D01*
X134620196Y-83273773D01*
X134614235Y-83297571D01*
X134605970Y-83320671D01*
X134595480Y-83342849D01*
X134582867Y-83363893D01*
X134568253Y-83383598D01*
X134551777Y-83401777D01*
X134533598Y-83418253D01*
X134513893Y-83432867D01*
X134492849Y-83445480D01*
X134470671Y-83455970D01*
X134447571Y-83464235D01*
X134423773Y-83470196D01*
X134399504Y-83473796D01*
X134375000Y-83475000D01*
X133125000Y-83475000D01*
X133100496Y-83473796D01*
X133076227Y-83470196D01*
X133052429Y-83464235D01*
X133029329Y-83455970D01*
X133007151Y-83445480D01*
X132986107Y-83432867D01*
X132966402Y-83418253D01*
X132948223Y-83401777D01*
X132931747Y-83383598D01*
X132917133Y-83363893D01*
X132904520Y-83342849D01*
X132894030Y-83320671D01*
X132885765Y-83297571D01*
X132879804Y-83273773D01*
X132876204Y-83249504D01*
X132875000Y-83225000D01*
X132875000Y-82475000D01*
X132876204Y-82450496D01*
X132879804Y-82426227D01*
X132885765Y-82402429D01*
X132894030Y-82379329D01*
X132904520Y-82357151D01*
X132917133Y-82336107D01*
X132931747Y-82316402D01*
X132948223Y-82298223D01*
X132966402Y-82281747D01*
X132986107Y-82267133D01*
X133007151Y-82254520D01*
X133029329Y-82244030D01*
X133052429Y-82235765D01*
X133076227Y-82229804D01*
X133100496Y-82226204D01*
X133125000Y-82225000D01*
X134375000Y-82225000D01*
X134399504Y-82226204D01*
X134399504Y-82226204D01*
G37*
D13*
G04 #@! TD*
G04 #@! TO.P,C3,2*
G04 #@! TO.N,GND*
X133750000Y-82850000D03*
D11*
G04 #@! TO.N,/PR_INPUT*
G04 #@! TO.C,C3*
G36*
X134399504Y-85026204D02*
X134423773Y-85029804D01*
X134447571Y-85035765D01*
X134470671Y-85044030D01*
X134492849Y-85054520D01*
X134513893Y-85067133D01*
X134533598Y-85081747D01*
X134551777Y-85098223D01*
X134568253Y-85116402D01*
X134582867Y-85136107D01*
X134595480Y-85157151D01*
X134605970Y-85179329D01*
X134614235Y-85202429D01*
X134620196Y-85226227D01*
X134623796Y-85250496D01*
X134625000Y-85275000D01*
X134625000Y-86025000D01*
X134623796Y-86049504D01*
X134620196Y-86073773D01*
X134614235Y-86097571D01*
X134605970Y-86120671D01*
X134595480Y-86142849D01*
X134582867Y-86163893D01*
X134568253Y-86183598D01*
X134551777Y-86201777D01*
X134533598Y-86218253D01*
X134513893Y-86232867D01*
X134492849Y-86245480D01*
X134470671Y-86255970D01*
X134447571Y-86264235D01*
X134423773Y-86270196D01*
X134399504Y-86273796D01*
X134375000Y-86275000D01*
X133125000Y-86275000D01*
X133100496Y-86273796D01*
X133076227Y-86270196D01*
X133052429Y-86264235D01*
X133029329Y-86255970D01*
X133007151Y-86245480D01*
X132986107Y-86232867D01*
X132966402Y-86218253D01*
X132948223Y-86201777D01*
X132931747Y-86183598D01*
X132917133Y-86163893D01*
X132904520Y-86142849D01*
X132894030Y-86120671D01*
X132885765Y-86097571D01*
X132879804Y-86073773D01*
X132876204Y-86049504D01*
X132875000Y-86025000D01*
X132875000Y-85275000D01*
X132876204Y-85250496D01*
X132879804Y-85226227D01*
X132885765Y-85202429D01*
X132894030Y-85179329D01*
X132904520Y-85157151D01*
X132917133Y-85136107D01*
X132931747Y-85116402D01*
X132948223Y-85098223D01*
X132966402Y-85081747D01*
X132986107Y-85067133D01*
X133007151Y-85054520D01*
X133029329Y-85044030D01*
X133052429Y-85035765D01*
X133076227Y-85029804D01*
X133100496Y-85026204D01*
X133125000Y-85025000D01*
X134375000Y-85025000D01*
X134399504Y-85026204D01*
X134399504Y-85026204D01*
G37*
D13*
G04 #@! TD*
G04 #@! TO.P,C3,1*
G04 #@! TO.N,/PR_INPUT*
X133750000Y-85650000D03*
D11*
G04 #@! TO.N,/PR_INPUT*
G04 #@! TO.C,C1*
G36*
X129399504Y-85026204D02*
X129423773Y-85029804D01*
X129447571Y-85035765D01*
X129470671Y-85044030D01*
X129492849Y-85054520D01*
X129513893Y-85067133D01*
X129533598Y-85081747D01*
X129551777Y-85098223D01*
X129568253Y-85116402D01*
X129582867Y-85136107D01*
X129595480Y-85157151D01*
X129605970Y-85179329D01*
X129614235Y-85202429D01*
X129620196Y-85226227D01*
X129623796Y-85250496D01*
X129625000Y-85275000D01*
X129625000Y-86025000D01*
X129623796Y-86049504D01*
X129620196Y-86073773D01*
X129614235Y-86097571D01*
X129605970Y-86120671D01*
X129595480Y-86142849D01*
X129582867Y-86163893D01*
X129568253Y-86183598D01*
X129551777Y-86201777D01*
X129533598Y-86218253D01*
X129513893Y-86232867D01*
X129492849Y-86245480D01*
X129470671Y-86255970D01*
X129447571Y-86264235D01*
X129423773Y-86270196D01*
X129399504Y-86273796D01*
X129375000Y-86275000D01*
X128125000Y-86275000D01*
X128100496Y-86273796D01*
X128076227Y-86270196D01*
X128052429Y-86264235D01*
X128029329Y-86255970D01*
X128007151Y-86245480D01*
X127986107Y-86232867D01*
X127966402Y-86218253D01*
X127948223Y-86201777D01*
X127931747Y-86183598D01*
X127917133Y-86163893D01*
X127904520Y-86142849D01*
X127894030Y-86120671D01*
X127885765Y-86097571D01*
X127879804Y-86073773D01*
X127876204Y-86049504D01*
X127875000Y-86025000D01*
X127875000Y-85275000D01*
X127876204Y-85250496D01*
X127879804Y-85226227D01*
X127885765Y-85202429D01*
X127894030Y-85179329D01*
X127904520Y-85157151D01*
X127917133Y-85136107D01*
X127931747Y-85116402D01*
X127948223Y-85098223D01*
X127966402Y-85081747D01*
X127986107Y-85067133D01*
X128007151Y-85054520D01*
X128029329Y-85044030D01*
X128052429Y-85035765D01*
X128076227Y-85029804D01*
X128100496Y-85026204D01*
X128125000Y-85025000D01*
X129375000Y-85025000D01*
X129399504Y-85026204D01*
X129399504Y-85026204D01*
G37*
D13*
G04 #@! TD*
G04 #@! TO.P,C1,1*
G04 #@! TO.N,/PR_INPUT*
X128750000Y-85650000D03*
D11*
G04 #@! TO.N,GND*
G04 #@! TO.C,C1*
G36*
X129399504Y-82226204D02*
X129423773Y-82229804D01*
X129447571Y-82235765D01*
X129470671Y-82244030D01*
X129492849Y-82254520D01*
X129513893Y-82267133D01*
X129533598Y-82281747D01*
X129551777Y-82298223D01*
X129568253Y-82316402D01*
X129582867Y-82336107D01*
X129595480Y-82357151D01*
X129605970Y-82379329D01*
X129614235Y-82402429D01*
X129620196Y-82426227D01*
X129623796Y-82450496D01*
X129625000Y-82475000D01*
X129625000Y-83225000D01*
X129623796Y-83249504D01*
X129620196Y-83273773D01*
X129614235Y-83297571D01*
X129605970Y-83320671D01*
X129595480Y-83342849D01*
X129582867Y-83363893D01*
X129568253Y-83383598D01*
X129551777Y-83401777D01*
X129533598Y-83418253D01*
X129513893Y-83432867D01*
X129492849Y-83445480D01*
X129470671Y-83455970D01*
X129447571Y-83464235D01*
X129423773Y-83470196D01*
X129399504Y-83473796D01*
X129375000Y-83475000D01*
X128125000Y-83475000D01*
X128100496Y-83473796D01*
X128076227Y-83470196D01*
X128052429Y-83464235D01*
X128029329Y-83455970D01*
X128007151Y-83445480D01*
X127986107Y-83432867D01*
X127966402Y-83418253D01*
X127948223Y-83401777D01*
X127931747Y-83383598D01*
X127917133Y-83363893D01*
X127904520Y-83342849D01*
X127894030Y-83320671D01*
X127885765Y-83297571D01*
X127879804Y-83273773D01*
X127876204Y-83249504D01*
X127875000Y-83225000D01*
X127875000Y-82475000D01*
X127876204Y-82450496D01*
X127879804Y-82426227D01*
X127885765Y-82402429D01*
X127894030Y-82379329D01*
X127904520Y-82357151D01*
X127917133Y-82336107D01*
X127931747Y-82316402D01*
X127948223Y-82298223D01*
X127966402Y-82281747D01*
X127986107Y-82267133D01*
X128007151Y-82254520D01*
X128029329Y-82244030D01*
X128052429Y-82235765D01*
X128076227Y-82229804D01*
X128100496Y-82226204D01*
X128125000Y-82225000D01*
X129375000Y-82225000D01*
X129399504Y-82226204D01*
X129399504Y-82226204D01*
G37*
D13*
G04 #@! TD*
G04 #@! TO.P,C1,2*
G04 #@! TO.N,GND*
X128750000Y-82850000D03*
D14*
G04 #@! TO.P,L1,1*
G04 #@! TO.N,/VBUS*
X143250000Y-88250000D03*
G04 #@! TO.P,L1,2*
G04 #@! TO.N,/SW*
X143250000Y-83250000D03*
G04 #@! TD*
D15*
G04 #@! TO.P,J2,5*
G04 #@! TO.N,/SHIELD*
X154800000Y-94520000D03*
X154800000Y-81380000D03*
D11*
G04 #@! TD*
G04 #@! TO.N,/VBUS*
G04 #@! TO.C,J2*
G36*
X152846465Y-90551300D02*
X152872674Y-90555188D01*
X152898377Y-90561626D01*
X152923325Y-90570553D01*
X152947277Y-90581881D01*
X152970004Y-90595503D01*
X152991286Y-90611287D01*
X153010919Y-90629081D01*
X153028713Y-90648714D01*
X153044497Y-90669996D01*
X153058119Y-90692723D01*
X153069447Y-90716675D01*
X153078374Y-90741623D01*
X153084812Y-90767326D01*
X153088700Y-90793535D01*
X153090000Y-90820000D01*
X153090000Y-92080000D01*
X153088700Y-92106465D01*
X153084812Y-92132674D01*
X153078374Y-92158377D01*
X153069447Y-92183325D01*
X153058119Y-92207277D01*
X153044497Y-92230004D01*
X153028713Y-92251286D01*
X153010919Y-92270919D01*
X152991286Y-92288713D01*
X152970004Y-92304497D01*
X152947277Y-92318119D01*
X152923325Y-92329447D01*
X152898377Y-92338374D01*
X152872674Y-92344812D01*
X152846465Y-92348700D01*
X152820000Y-92350000D01*
X151360000Y-92350000D01*
X151333535Y-92348700D01*
X151307326Y-92344812D01*
X151281623Y-92338374D01*
X151256675Y-92329447D01*
X151232723Y-92318119D01*
X151209996Y-92304497D01*
X151188714Y-92288713D01*
X151169081Y-92270919D01*
X151151287Y-92251286D01*
X151135503Y-92230004D01*
X151121881Y-92207277D01*
X151110553Y-92183325D01*
X151101626Y-92158377D01*
X151095188Y-92132674D01*
X151091300Y-92106465D01*
X151090000Y-92080000D01*
X151090000Y-90820000D01*
X151091300Y-90793535D01*
X151095188Y-90767326D01*
X151101626Y-90741623D01*
X151110553Y-90716675D01*
X151121881Y-90692723D01*
X151135503Y-90669996D01*
X151151287Y-90648714D01*
X151169081Y-90629081D01*
X151188714Y-90611287D01*
X151209996Y-90595503D01*
X151232723Y-90581881D01*
X151256675Y-90570553D01*
X151281623Y-90561626D01*
X151307326Y-90555188D01*
X151333535Y-90551300D01*
X151360000Y-90550000D01*
X152820000Y-90550000D01*
X152846465Y-90551300D01*
X152846465Y-90551300D01*
G37*
D16*
G04 #@! TO.P,J2,1*
G04 #@! TO.N,/VBUS*
X152090000Y-91450000D03*
D11*
G04 #@! TD*
G04 #@! TO.N,Net-(J2-Pad2)*
G04 #@! TO.C,J2*
G36*
X152673524Y-88151156D02*
X152696822Y-88154612D01*
X152719668Y-88160334D01*
X152741844Y-88168269D01*
X152763135Y-88178339D01*
X152783337Y-88190447D01*
X152802254Y-88204477D01*
X152819706Y-88220294D01*
X152835523Y-88237746D01*
X152849553Y-88256663D01*
X152861661Y-88276865D01*
X152871731Y-88298156D01*
X152879666Y-88320332D01*
X152885388Y-88343178D01*
X152888844Y-88366476D01*
X152890000Y-88390000D01*
X152890000Y-89510000D01*
X152888844Y-89533524D01*
X152885388Y-89556822D01*
X152879666Y-89579668D01*
X152871731Y-89601844D01*
X152861661Y-89623135D01*
X152849553Y-89643337D01*
X152835523Y-89662254D01*
X152819706Y-89679706D01*
X152802254Y-89695523D01*
X152783337Y-89709553D01*
X152763135Y-89721661D01*
X152741844Y-89731731D01*
X152719668Y-89739666D01*
X152696822Y-89745388D01*
X152673524Y-89748844D01*
X152650000Y-89750000D01*
X151530000Y-89750000D01*
X151506476Y-89748844D01*
X151483178Y-89745388D01*
X151460332Y-89739666D01*
X151438156Y-89731731D01*
X151416865Y-89721661D01*
X151396663Y-89709553D01*
X151377746Y-89695523D01*
X151360294Y-89679706D01*
X151344477Y-89662254D01*
X151330447Y-89643337D01*
X151318339Y-89623135D01*
X151308269Y-89601844D01*
X151300334Y-89579668D01*
X151294612Y-89556822D01*
X151291156Y-89533524D01*
X151290000Y-89510000D01*
X151290000Y-88390000D01*
X151291156Y-88366476D01*
X151294612Y-88343178D01*
X151300334Y-88320332D01*
X151308269Y-88298156D01*
X151318339Y-88276865D01*
X151330447Y-88256663D01*
X151344477Y-88237746D01*
X151360294Y-88220294D01*
X151377746Y-88204477D01*
X151396663Y-88190447D01*
X151416865Y-88178339D01*
X151438156Y-88168269D01*
X151460332Y-88160334D01*
X151483178Y-88154612D01*
X151506476Y-88151156D01*
X151530000Y-88150000D01*
X152650000Y-88150000D01*
X152673524Y-88151156D01*
X152673524Y-88151156D01*
G37*
D17*
G04 #@! TO.P,J2,2*
G04 #@! TO.N,Net-(J2-Pad2)*
X152090000Y-88950000D03*
D11*
G04 #@! TD*
G04 #@! TO.N,Net-(J2-Pad3)*
G04 #@! TO.C,J2*
G36*
X152673524Y-86151156D02*
X152696822Y-86154612D01*
X152719668Y-86160334D01*
X152741844Y-86168269D01*
X152763135Y-86178339D01*
X152783337Y-86190447D01*
X152802254Y-86204477D01*
X152819706Y-86220294D01*
X152835523Y-86237746D01*
X152849553Y-86256663D01*
X152861661Y-86276865D01*
X152871731Y-86298156D01*
X152879666Y-86320332D01*
X152885388Y-86343178D01*
X152888844Y-86366476D01*
X152890000Y-86390000D01*
X152890000Y-87510000D01*
X152888844Y-87533524D01*
X152885388Y-87556822D01*
X152879666Y-87579668D01*
X152871731Y-87601844D01*
X152861661Y-87623135D01*
X152849553Y-87643337D01*
X152835523Y-87662254D01*
X152819706Y-87679706D01*
X152802254Y-87695523D01*
X152783337Y-87709553D01*
X152763135Y-87721661D01*
X152741844Y-87731731D01*
X152719668Y-87739666D01*
X152696822Y-87745388D01*
X152673524Y-87748844D01*
X152650000Y-87750000D01*
X151530000Y-87750000D01*
X151506476Y-87748844D01*
X151483178Y-87745388D01*
X151460332Y-87739666D01*
X151438156Y-87731731D01*
X151416865Y-87721661D01*
X151396663Y-87709553D01*
X151377746Y-87695523D01*
X151360294Y-87679706D01*
X151344477Y-87662254D01*
X151330447Y-87643337D01*
X151318339Y-87623135D01*
X151308269Y-87601844D01*
X151300334Y-87579668D01*
X151294612Y-87556822D01*
X151291156Y-87533524D01*
X151290000Y-87510000D01*
X151290000Y-86390000D01*
X151291156Y-86366476D01*
X151294612Y-86343178D01*
X151300334Y-86320332D01*
X151308269Y-86298156D01*
X151318339Y-86276865D01*
X151330447Y-86256663D01*
X151344477Y-86237746D01*
X151360294Y-86220294D01*
X151377746Y-86204477D01*
X151396663Y-86190447D01*
X151416865Y-86178339D01*
X151438156Y-86168269D01*
X151460332Y-86160334D01*
X151483178Y-86154612D01*
X151506476Y-86151156D01*
X151530000Y-86150000D01*
X152650000Y-86150000D01*
X152673524Y-86151156D01*
X152673524Y-86151156D01*
G37*
D17*
G04 #@! TO.P,J2,3*
G04 #@! TO.N,Net-(J2-Pad3)*
X152090000Y-86950000D03*
D11*
G04 #@! TD*
G04 #@! TO.N,GND*
G04 #@! TO.C,J2*
G36*
X152846465Y-83551300D02*
X152872674Y-83555188D01*
X152898377Y-83561626D01*
X152923325Y-83570553D01*
X152947277Y-83581881D01*
X152970004Y-83595503D01*
X152991286Y-83611287D01*
X153010919Y-83629081D01*
X153028713Y-83648714D01*
X153044497Y-83669996D01*
X153058119Y-83692723D01*
X153069447Y-83716675D01*
X153078374Y-83741623D01*
X153084812Y-83767326D01*
X153088700Y-83793535D01*
X153090000Y-83820000D01*
X153090000Y-85080000D01*
X153088700Y-85106465D01*
X153084812Y-85132674D01*
X153078374Y-85158377D01*
X153069447Y-85183325D01*
X153058119Y-85207277D01*
X153044497Y-85230004D01*
X153028713Y-85251286D01*
X153010919Y-85270919D01*
X152991286Y-85288713D01*
X152970004Y-85304497D01*
X152947277Y-85318119D01*
X152923325Y-85329447D01*
X152898377Y-85338374D01*
X152872674Y-85344812D01*
X152846465Y-85348700D01*
X152820000Y-85350000D01*
X151360000Y-85350000D01*
X151333535Y-85348700D01*
X151307326Y-85344812D01*
X151281623Y-85338374D01*
X151256675Y-85329447D01*
X151232723Y-85318119D01*
X151209996Y-85304497D01*
X151188714Y-85288713D01*
X151169081Y-85270919D01*
X151151287Y-85251286D01*
X151135503Y-85230004D01*
X151121881Y-85207277D01*
X151110553Y-85183325D01*
X151101626Y-85158377D01*
X151095188Y-85132674D01*
X151091300Y-85106465D01*
X151090000Y-85080000D01*
X151090000Y-83820000D01*
X151091300Y-83793535D01*
X151095188Y-83767326D01*
X151101626Y-83741623D01*
X151110553Y-83716675D01*
X151121881Y-83692723D01*
X151135503Y-83669996D01*
X151151287Y-83648714D01*
X151169081Y-83629081D01*
X151188714Y-83611287D01*
X151209996Y-83595503D01*
X151232723Y-83581881D01*
X151256675Y-83570553D01*
X151281623Y-83561626D01*
X151307326Y-83555188D01*
X151333535Y-83551300D01*
X151360000Y-83550000D01*
X152820000Y-83550000D01*
X152846465Y-83551300D01*
X152846465Y-83551300D01*
G37*
D16*
G04 #@! TO.P,J2,4*
G04 #@! TO.N,GND*
X152090000Y-84450000D03*
G04 #@! TD*
D11*
G04 #@! TO.N,/PR_INPUT*
G04 #@! TO.C,D1*
G36*
X125737643Y-84550867D02*
X125755116Y-84553459D01*
X125772251Y-84557751D01*
X125788883Y-84563702D01*
X125804851Y-84571254D01*
X125820003Y-84580335D01*
X125834191Y-84590858D01*
X125847279Y-84602721D01*
X125859142Y-84615809D01*
X125869665Y-84629997D01*
X125878746Y-84645149D01*
X125886298Y-84661117D01*
X125892249Y-84677749D01*
X125896541Y-84694884D01*
X125899133Y-84712357D01*
X125900000Y-84730000D01*
X125900000Y-86370000D01*
X125899133Y-86387643D01*
X125896541Y-86405116D01*
X125892249Y-86422251D01*
X125886298Y-86438883D01*
X125878746Y-86454851D01*
X125869665Y-86470003D01*
X125859142Y-86484191D01*
X125847279Y-86497279D01*
X125834191Y-86509142D01*
X125820003Y-86519665D01*
X125804851Y-86528746D01*
X125788883Y-86536298D01*
X125772251Y-86542249D01*
X125755116Y-86546541D01*
X125737643Y-86549133D01*
X125720000Y-86550000D01*
X124280000Y-86550000D01*
X124262357Y-86549133D01*
X124244884Y-86546541D01*
X124227749Y-86542249D01*
X124211117Y-86536298D01*
X124195149Y-86528746D01*
X124179997Y-86519665D01*
X124165809Y-86509142D01*
X124152721Y-86497279D01*
X124140858Y-86484191D01*
X124130335Y-86470003D01*
X124121254Y-86454851D01*
X124113702Y-86438883D01*
X124107751Y-86422251D01*
X124103459Y-86405116D01*
X124100867Y-86387643D01*
X124100000Y-86370000D01*
X124100000Y-84730000D01*
X124100867Y-84712357D01*
X124103459Y-84694884D01*
X124107751Y-84677749D01*
X124113702Y-84661117D01*
X124121254Y-84645149D01*
X124130335Y-84629997D01*
X124140858Y-84615809D01*
X124152721Y-84602721D01*
X124165809Y-84590858D01*
X124179997Y-84580335D01*
X124195149Y-84571254D01*
X124211117Y-84563702D01*
X124227749Y-84557751D01*
X124244884Y-84553459D01*
X124262357Y-84550867D01*
X124280000Y-84550000D01*
X125720000Y-84550000D01*
X125737643Y-84550867D01*
X125737643Y-84550867D01*
G37*
D18*
G04 #@! TD*
G04 #@! TO.P,D1,1*
G04 #@! TO.N,/PR_INPUT*
X125000000Y-85550000D03*
D11*
G04 #@! TO.N,GND*
G04 #@! TO.C,D1*
G36*
X125737643Y-79750867D02*
X125755116Y-79753459D01*
X125772251Y-79757751D01*
X125788883Y-79763702D01*
X125804851Y-79771254D01*
X125820003Y-79780335D01*
X125834191Y-79790858D01*
X125847279Y-79802721D01*
X125859142Y-79815809D01*
X125869665Y-79829997D01*
X125878746Y-79845149D01*
X125886298Y-79861117D01*
X125892249Y-79877749D01*
X125896541Y-79894884D01*
X125899133Y-79912357D01*
X125900000Y-79930000D01*
X125900000Y-81570000D01*
X125899133Y-81587643D01*
X125896541Y-81605116D01*
X125892249Y-81622251D01*
X125886298Y-81638883D01*
X125878746Y-81654851D01*
X125869665Y-81670003D01*
X125859142Y-81684191D01*
X125847279Y-81697279D01*
X125834191Y-81709142D01*
X125820003Y-81719665D01*
X125804851Y-81728746D01*
X125788883Y-81736298D01*
X125772251Y-81742249D01*
X125755116Y-81746541D01*
X125737643Y-81749133D01*
X125720000Y-81750000D01*
X124280000Y-81750000D01*
X124262357Y-81749133D01*
X124244884Y-81746541D01*
X124227749Y-81742249D01*
X124211117Y-81736298D01*
X124195149Y-81728746D01*
X124179997Y-81719665D01*
X124165809Y-81709142D01*
X124152721Y-81697279D01*
X124140858Y-81684191D01*
X124130335Y-81670003D01*
X124121254Y-81654851D01*
X124113702Y-81638883D01*
X124107751Y-81622251D01*
X124103459Y-81605116D01*
X124100867Y-81587643D01*
X124100000Y-81570000D01*
X124100000Y-79930000D01*
X124100867Y-79912357D01*
X124103459Y-79894884D01*
X124107751Y-79877749D01*
X124113702Y-79861117D01*
X124121254Y-79845149D01*
X124130335Y-79829997D01*
X124140858Y-79815809D01*
X124152721Y-79802721D01*
X124165809Y-79790858D01*
X124179997Y-79780335D01*
X124195149Y-79771254D01*
X124211117Y-79763702D01*
X124227749Y-79757751D01*
X124244884Y-79753459D01*
X124262357Y-79750867D01*
X124280000Y-79750000D01*
X125720000Y-79750000D01*
X125737643Y-79750867D01*
X125737643Y-79750867D01*
G37*
D18*
G04 #@! TD*
G04 #@! TO.P,D1,2*
G04 #@! TO.N,GND*
X125000000Y-80750000D03*
D11*
G04 #@! TO.N,+24V*
G04 #@! TO.C,F1*
G36*
X123603909Y-93152648D02*
X123657300Y-93160568D01*
X123709657Y-93173683D01*
X123760476Y-93191866D01*
X123809268Y-93214943D01*
X123855564Y-93242692D01*
X123898916Y-93274844D01*
X123938909Y-93311091D01*
X123975156Y-93351084D01*
X124007308Y-93394436D01*
X124035057Y-93440732D01*
X124058134Y-93489524D01*
X124076317Y-93540343D01*
X124089432Y-93592700D01*
X124097352Y-93646091D01*
X124100000Y-93700000D01*
X124100000Y-95800000D01*
X124097352Y-95853909D01*
X124089432Y-95907300D01*
X124076317Y-95959657D01*
X124058134Y-96010476D01*
X124035057Y-96059268D01*
X124007308Y-96105564D01*
X123975156Y-96148916D01*
X123938909Y-96188909D01*
X123898916Y-96225156D01*
X123855564Y-96257308D01*
X123809268Y-96285057D01*
X123760476Y-96308134D01*
X123709657Y-96326317D01*
X123657300Y-96339432D01*
X123603909Y-96347352D01*
X123550000Y-96350000D01*
X122450000Y-96350000D01*
X122396091Y-96347352D01*
X122342700Y-96339432D01*
X122290343Y-96326317D01*
X122239524Y-96308134D01*
X122190732Y-96285057D01*
X122144436Y-96257308D01*
X122101084Y-96225156D01*
X122061091Y-96188909D01*
X122024844Y-96148916D01*
X121992692Y-96105564D01*
X121964943Y-96059268D01*
X121941866Y-96010476D01*
X121923683Y-95959657D01*
X121910568Y-95907300D01*
X121902648Y-95853909D01*
X121900000Y-95800000D01*
X121900000Y-93700000D01*
X121902648Y-93646091D01*
X121910568Y-93592700D01*
X121923683Y-93540343D01*
X121941866Y-93489524D01*
X121964943Y-93440732D01*
X121992692Y-93394436D01*
X122024844Y-93351084D01*
X122061091Y-93311091D01*
X122101084Y-93274844D01*
X122144436Y-93242692D01*
X122190732Y-93214943D01*
X122239524Y-93191866D01*
X122290343Y-93173683D01*
X122342700Y-93160568D01*
X122396091Y-93152648D01*
X122450000Y-93150000D01*
X123550000Y-93150000D01*
X123603909Y-93152648D01*
X123603909Y-93152648D01*
G37*
D19*
G04 #@! TD*
G04 #@! TO.P,F1,1*
G04 #@! TO.N,+24V*
X123000000Y-94750000D03*
D11*
G04 #@! TO.N,/FUSED*
G04 #@! TO.C,F1*
G36*
X128753909Y-93152648D02*
X128807300Y-93160568D01*
X128859657Y-93173683D01*
X128910476Y-93191866D01*
X128959268Y-93214943D01*
X129005564Y-93242692D01*
X129048916Y-93274844D01*
X129088909Y-93311091D01*
X129125156Y-93351084D01*
X129157308Y-93394436D01*
X129185057Y-93440732D01*
X129208134Y-93489524D01*
X129226317Y-93540343D01*
X129239432Y-93592700D01*
X129247352Y-93646091D01*
X129250000Y-93700000D01*
X129250000Y-95800000D01*
X129247352Y-95853909D01*
X129239432Y-95907300D01*
X129226317Y-95959657D01*
X129208134Y-96010476D01*
X129185057Y-96059268D01*
X129157308Y-96105564D01*
X129125156Y-96148916D01*
X129088909Y-96188909D01*
X129048916Y-96225156D01*
X129005564Y-96257308D01*
X128959268Y-96285057D01*
X128910476Y-96308134D01*
X128859657Y-96326317D01*
X128807300Y-96339432D01*
X128753909Y-96347352D01*
X128700000Y-96350000D01*
X127600000Y-96350000D01*
X127546091Y-96347352D01*
X127492700Y-96339432D01*
X127440343Y-96326317D01*
X127389524Y-96308134D01*
X127340732Y-96285057D01*
X127294436Y-96257308D01*
X127251084Y-96225156D01*
X127211091Y-96188909D01*
X127174844Y-96148916D01*
X127142692Y-96105564D01*
X127114943Y-96059268D01*
X127091866Y-96010476D01*
X127073683Y-95959657D01*
X127060568Y-95907300D01*
X127052648Y-95853909D01*
X127050000Y-95800000D01*
X127050000Y-93700000D01*
X127052648Y-93646091D01*
X127060568Y-93592700D01*
X127073683Y-93540343D01*
X127091866Y-93489524D01*
X127114943Y-93440732D01*
X127142692Y-93394436D01*
X127174844Y-93351084D01*
X127211091Y-93311091D01*
X127251084Y-93274844D01*
X127294436Y-93242692D01*
X127340732Y-93214943D01*
X127389524Y-93191866D01*
X127440343Y-93173683D01*
X127492700Y-93160568D01*
X127546091Y-93152648D01*
X127600000Y-93150000D01*
X128700000Y-93150000D01*
X128753909Y-93152648D01*
X128753909Y-93152648D01*
G37*
D19*
G04 #@! TD*
G04 #@! TO.P,F1,2*
G04 #@! TO.N,/FUSED*
X128150000Y-94750000D03*
D11*
G04 #@! TO.N,+24V*
G04 #@! TO.C,J1*
G36*
X115639207Y-92751926D02*
X115678036Y-92757686D01*
X115716114Y-92767224D01*
X115753073Y-92780448D01*
X115788559Y-92797231D01*
X115822228Y-92817412D01*
X115853757Y-92840796D01*
X115882843Y-92867157D01*
X115909204Y-92896243D01*
X115932588Y-92927772D01*
X115952769Y-92961441D01*
X115969552Y-92996927D01*
X115982776Y-93033886D01*
X115992314Y-93071964D01*
X115998074Y-93110793D01*
X116000000Y-93150000D01*
X116000000Y-96350000D01*
X115998074Y-96389207D01*
X115992314Y-96428036D01*
X115982776Y-96466114D01*
X115969552Y-96503073D01*
X115952769Y-96538559D01*
X115932588Y-96572228D01*
X115909204Y-96603757D01*
X115882843Y-96632843D01*
X115853757Y-96659204D01*
X115822228Y-96682588D01*
X115788559Y-96702769D01*
X115753073Y-96719552D01*
X115716114Y-96732776D01*
X115678036Y-96742314D01*
X115639207Y-96748074D01*
X115600000Y-96750000D01*
X112400000Y-96750000D01*
X112360793Y-96748074D01*
X112321964Y-96742314D01*
X112283886Y-96732776D01*
X112246927Y-96719552D01*
X112211441Y-96702769D01*
X112177772Y-96682588D01*
X112146243Y-96659204D01*
X112117157Y-96632843D01*
X112090796Y-96603757D01*
X112067412Y-96572228D01*
X112047231Y-96538559D01*
X112030448Y-96503073D01*
X112017224Y-96466114D01*
X112007686Y-96428036D01*
X112001926Y-96389207D01*
X112000000Y-96350000D01*
X112000000Y-93150000D01*
X112001926Y-93110793D01*
X112007686Y-93071964D01*
X112017224Y-93033886D01*
X112030448Y-92996927D01*
X112047231Y-92961441D01*
X112067412Y-92927772D01*
X112090796Y-92896243D01*
X112117157Y-92867157D01*
X112146243Y-92840796D01*
X112177772Y-92817412D01*
X112211441Y-92797231D01*
X112246927Y-92780448D01*
X112283886Y-92767224D01*
X112321964Y-92757686D01*
X112360793Y-92751926D01*
X112400000Y-92750000D01*
X115600000Y-92750000D01*
X115639207Y-92751926D01*
X115639207Y-92751926D01*
G37*
D15*
G04 #@! TD*
G04 #@! TO.P,J1,2*
G04 #@! TO.N,+24V*
X114000000Y-94750000D03*
D11*
G04 #@! TO.N,+24V*
G04 #@! TO.C,J1*
G36*
X120639207Y-92751926D02*
X120678036Y-92757686D01*
X120716114Y-92767224D01*
X120753073Y-92780448D01*
X120788559Y-92797231D01*
X120822228Y-92817412D01*
X120853757Y-92840796D01*
X120882843Y-92867157D01*
X120909204Y-92896243D01*
X120932588Y-92927772D01*
X120952769Y-92961441D01*
X120969552Y-92996927D01*
X120982776Y-93033886D01*
X120992314Y-93071964D01*
X120998074Y-93110793D01*
X121000000Y-93150000D01*
X121000000Y-96350000D01*
X120998074Y-96389207D01*
X120992314Y-96428036D01*
X120982776Y-96466114D01*
X120969552Y-96503073D01*
X120952769Y-96538559D01*
X120932588Y-96572228D01*
X120909204Y-96603757D01*
X120882843Y-96632843D01*
X120853757Y-96659204D01*
X120822228Y-96682588D01*
X120788559Y-96702769D01*
X120753073Y-96719552D01*
X120716114Y-96732776D01*
X120678036Y-96742314D01*
X120639207Y-96748074D01*
X120600000Y-96750000D01*
X117400000Y-96750000D01*
X117360793Y-96748074D01*
X117321964Y-96742314D01*
X117283886Y-96732776D01*
X117246927Y-96719552D01*
X117211441Y-96702769D01*
X117177772Y-96682588D01*
X117146243Y-96659204D01*
X117117157Y-96632843D01*
X117090796Y-96603757D01*
X117067412Y-96572228D01*
X117047231Y-96538559D01*
X117030448Y-96503073D01*
X117017224Y-96466114D01*
X117007686Y-96428036D01*
X117001926Y-96389207D01*
X117000000Y-96350000D01*
X117000000Y-93150000D01*
X117001926Y-93110793D01*
X117007686Y-93071964D01*
X117017224Y-93033886D01*
X117030448Y-92996927D01*
X117047231Y-92961441D01*
X117067412Y-92927772D01*
X117090796Y-92896243D01*
X117117157Y-92867157D01*
X117146243Y-92840796D01*
X117177772Y-92817412D01*
X117211441Y-92797231D01*
X117246927Y-92780448D01*
X117283886Y-92767224D01*
X117321964Y-92757686D01*
X117360793Y-92751926D01*
X117400000Y-92750000D01*
X120600000Y-92750000D01*
X120639207Y-92751926D01*
X120639207Y-92751926D01*
G37*
D15*
G04 #@! TD*
G04 #@! TO.P,J1,1*
G04 #@! TO.N,+24V*
X119000000Y-94750000D03*
D11*
G04 #@! TO.N,GND*
G04 #@! TO.C,J3*
G36*
X120639207Y-78751926D02*
X120678036Y-78757686D01*
X120716114Y-78767224D01*
X120753073Y-78780448D01*
X120788559Y-78797231D01*
X120822228Y-78817412D01*
X120853757Y-78840796D01*
X120882843Y-78867157D01*
X120909204Y-78896243D01*
X120932588Y-78927772D01*
X120952769Y-78961441D01*
X120969552Y-78996927D01*
X120982776Y-79033886D01*
X120992314Y-79071964D01*
X120998074Y-79110793D01*
X121000000Y-79150000D01*
X121000000Y-82350000D01*
X120998074Y-82389207D01*
X120992314Y-82428036D01*
X120982776Y-82466114D01*
X120969552Y-82503073D01*
X120952769Y-82538559D01*
X120932588Y-82572228D01*
X120909204Y-82603757D01*
X120882843Y-82632843D01*
X120853757Y-82659204D01*
X120822228Y-82682588D01*
X120788559Y-82702769D01*
X120753073Y-82719552D01*
X120716114Y-82732776D01*
X120678036Y-82742314D01*
X120639207Y-82748074D01*
X120600000Y-82750000D01*
X117400000Y-82750000D01*
X117360793Y-82748074D01*
X117321964Y-82742314D01*
X117283886Y-82732776D01*
X117246927Y-82719552D01*
X117211441Y-82702769D01*
X117177772Y-82682588D01*
X117146243Y-82659204D01*
X117117157Y-82632843D01*
X117090796Y-82603757D01*
X117067412Y-82572228D01*
X117047231Y-82538559D01*
X117030448Y-82503073D01*
X117017224Y-82466114D01*
X117007686Y-82428036D01*
X117001926Y-82389207D01*
X117000000Y-82350000D01*
X117000000Y-79150000D01*
X117001926Y-79110793D01*
X117007686Y-79071964D01*
X117017224Y-79033886D01*
X117030448Y-78996927D01*
X117047231Y-78961441D01*
X117067412Y-78927772D01*
X117090796Y-78896243D01*
X117117157Y-78867157D01*
X117146243Y-78840796D01*
X117177772Y-78817412D01*
X117211441Y-78797231D01*
X117246927Y-78780448D01*
X117283886Y-78767224D01*
X117321964Y-78757686D01*
X117360793Y-78751926D01*
X117400000Y-78750000D01*
X120600000Y-78750000D01*
X120639207Y-78751926D01*
X120639207Y-78751926D01*
G37*
D15*
G04 #@! TD*
G04 #@! TO.P,J3,1*
G04 #@! TO.N,GND*
X119000000Y-80750000D03*
D11*
G04 #@! TO.N,GND*
G04 #@! TO.C,J3*
G36*
X115639207Y-78751926D02*
X115678036Y-78757686D01*
X115716114Y-78767224D01*
X115753073Y-78780448D01*
X115788559Y-78797231D01*
X115822228Y-78817412D01*
X115853757Y-78840796D01*
X115882843Y-78867157D01*
X115909204Y-78896243D01*
X115932588Y-78927772D01*
X115952769Y-78961441D01*
X115969552Y-78996927D01*
X115982776Y-79033886D01*
X115992314Y-79071964D01*
X115998074Y-79110793D01*
X116000000Y-79150000D01*
X116000000Y-82350000D01*
X115998074Y-82389207D01*
X115992314Y-82428036D01*
X115982776Y-82466114D01*
X115969552Y-82503073D01*
X115952769Y-82538559D01*
X115932588Y-82572228D01*
X115909204Y-82603757D01*
X115882843Y-82632843D01*
X115853757Y-82659204D01*
X115822228Y-82682588D01*
X115788559Y-82702769D01*
X115753073Y-82719552D01*
X115716114Y-82732776D01*
X115678036Y-82742314D01*
X115639207Y-82748074D01*
X115600000Y-82750000D01*
X112400000Y-82750000D01*
X112360793Y-82748074D01*
X112321964Y-82742314D01*
X112283886Y-82732776D01*
X112246927Y-82719552D01*
X112211441Y-82702769D01*
X112177772Y-82682588D01*
X112146243Y-82659204D01*
X112117157Y-82632843D01*
X112090796Y-82603757D01*
X112067412Y-82572228D01*
X112047231Y-82538559D01*
X112030448Y-82503073D01*
X112017224Y-82466114D01*
X112007686Y-82428036D01*
X112001926Y-82389207D01*
X112000000Y-82350000D01*
X112000000Y-79150000D01*
X112001926Y-79110793D01*
X112007686Y-79071964D01*
X112017224Y-79033886D01*
X112030448Y-78996927D01*
X112047231Y-78961441D01*
X112067412Y-78927772D01*
X112090796Y-78896243D01*
X112117157Y-78867157D01*
X112146243Y-78840796D01*
X112177772Y-78817412D01*
X112211441Y-78797231D01*
X112246927Y-78780448D01*
X112283886Y-78767224D01*
X112321964Y-78757686D01*
X112360793Y-78751926D01*
X112400000Y-78750000D01*
X115600000Y-78750000D01*
X115639207Y-78751926D01*
X115639207Y-78751926D01*
G37*
D15*
G04 #@! TD*
G04 #@! TO.P,J3,2*
G04 #@! TO.N,GND*
X114000000Y-80750000D03*
D20*
G04 #@! TO.P,Q1,1*
G04 #@! TO.N,/FUSED*
X128100000Y-90200000D03*
G04 #@! TO.P,Q1,2*
X128100000Y-89250000D03*
G04 #@! TO.P,Q1,3*
G04 #@! TO.N,Net-(Q1-Pad3)*
X128100000Y-88300000D03*
G04 #@! TO.P,Q1,4*
G04 #@! TO.N,/PR_INPUT*
X125400000Y-88300000D03*
G04 #@! TO.P,Q1,6*
G04 #@! TO.N,/FUSED*
X125400000Y-90200000D03*
G04 #@! TO.P,Q1,5*
X125400000Y-89250000D03*
G04 #@! TD*
D11*
G04 #@! TO.N,GND*
G04 #@! TO.C,R1*
G36*
X130527691Y-89601053D02*
X130548926Y-89604203D01*
X130569750Y-89609419D01*
X130589962Y-89616651D01*
X130609368Y-89625830D01*
X130627781Y-89636866D01*
X130645024Y-89649654D01*
X130660930Y-89664070D01*
X130675346Y-89679976D01*
X130688134Y-89697219D01*
X130699170Y-89715632D01*
X130708349Y-89735038D01*
X130715581Y-89755250D01*
X130720797Y-89776074D01*
X130723947Y-89797309D01*
X130725000Y-89818750D01*
X130725000Y-90256250D01*
X130723947Y-90277691D01*
X130720797Y-90298926D01*
X130715581Y-90319750D01*
X130708349Y-90339962D01*
X130699170Y-90359368D01*
X130688134Y-90377781D01*
X130675346Y-90395024D01*
X130660930Y-90410930D01*
X130645024Y-90425346D01*
X130627781Y-90438134D01*
X130609368Y-90449170D01*
X130589962Y-90458349D01*
X130569750Y-90465581D01*
X130548926Y-90470797D01*
X130527691Y-90473947D01*
X130506250Y-90475000D01*
X129993750Y-90475000D01*
X129972309Y-90473947D01*
X129951074Y-90470797D01*
X129930250Y-90465581D01*
X129910038Y-90458349D01*
X129890632Y-90449170D01*
X129872219Y-90438134D01*
X129854976Y-90425346D01*
X129839070Y-90410930D01*
X129824654Y-90395024D01*
X129811866Y-90377781D01*
X129800830Y-90359368D01*
X129791651Y-90339962D01*
X129784419Y-90319750D01*
X129779203Y-90298926D01*
X129776053Y-90277691D01*
X129775000Y-90256250D01*
X129775000Y-89818750D01*
X129776053Y-89797309D01*
X129779203Y-89776074D01*
X129784419Y-89755250D01*
X129791651Y-89735038D01*
X129800830Y-89715632D01*
X129811866Y-89697219D01*
X129824654Y-89679976D01*
X129839070Y-89664070D01*
X129854976Y-89649654D01*
X129872219Y-89636866D01*
X129890632Y-89625830D01*
X129910038Y-89616651D01*
X129930250Y-89609419D01*
X129951074Y-89604203D01*
X129972309Y-89601053D01*
X129993750Y-89600000D01*
X130506250Y-89600000D01*
X130527691Y-89601053D01*
X130527691Y-89601053D01*
G37*
D12*
G04 #@! TD*
G04 #@! TO.P,R1,2*
G04 #@! TO.N,GND*
X130250000Y-90037500D03*
D11*
G04 #@! TO.N,Net-(Q1-Pad3)*
G04 #@! TO.C,R1*
G36*
X130527691Y-88026053D02*
X130548926Y-88029203D01*
X130569750Y-88034419D01*
X130589962Y-88041651D01*
X130609368Y-88050830D01*
X130627781Y-88061866D01*
X130645024Y-88074654D01*
X130660930Y-88089070D01*
X130675346Y-88104976D01*
X130688134Y-88122219D01*
X130699170Y-88140632D01*
X130708349Y-88160038D01*
X130715581Y-88180250D01*
X130720797Y-88201074D01*
X130723947Y-88222309D01*
X130725000Y-88243750D01*
X130725000Y-88681250D01*
X130723947Y-88702691D01*
X130720797Y-88723926D01*
X130715581Y-88744750D01*
X130708349Y-88764962D01*
X130699170Y-88784368D01*
X130688134Y-88802781D01*
X130675346Y-88820024D01*
X130660930Y-88835930D01*
X130645024Y-88850346D01*
X130627781Y-88863134D01*
X130609368Y-88874170D01*
X130589962Y-88883349D01*
X130569750Y-88890581D01*
X130548926Y-88895797D01*
X130527691Y-88898947D01*
X130506250Y-88900000D01*
X129993750Y-88900000D01*
X129972309Y-88898947D01*
X129951074Y-88895797D01*
X129930250Y-88890581D01*
X129910038Y-88883349D01*
X129890632Y-88874170D01*
X129872219Y-88863134D01*
X129854976Y-88850346D01*
X129839070Y-88835930D01*
X129824654Y-88820024D01*
X129811866Y-88802781D01*
X129800830Y-88784368D01*
X129791651Y-88764962D01*
X129784419Y-88744750D01*
X129779203Y-88723926D01*
X129776053Y-88702691D01*
X129775000Y-88681250D01*
X129775000Y-88243750D01*
X129776053Y-88222309D01*
X129779203Y-88201074D01*
X129784419Y-88180250D01*
X129791651Y-88160038D01*
X129800830Y-88140632D01*
X129811866Y-88122219D01*
X129824654Y-88104976D01*
X129839070Y-88089070D01*
X129854976Y-88074654D01*
X129872219Y-88061866D01*
X129890632Y-88050830D01*
X129910038Y-88041651D01*
X129930250Y-88034419D01*
X129951074Y-88029203D01*
X129972309Y-88026053D01*
X129993750Y-88025000D01*
X130506250Y-88025000D01*
X130527691Y-88026053D01*
X130527691Y-88026053D01*
G37*
D12*
G04 #@! TD*
G04 #@! TO.P,R1,1*
G04 #@! TO.N,Net-(Q1-Pad3)*
X130250000Y-88462500D03*
D11*
G04 #@! TO.N,/VBUS*
G04 #@! TO.C,R2*
G36*
X135777691Y-92851053D02*
X135798926Y-92854203D01*
X135819750Y-92859419D01*
X135839962Y-92866651D01*
X135859368Y-92875830D01*
X135877781Y-92886866D01*
X135895024Y-92899654D01*
X135910930Y-92914070D01*
X135925346Y-92929976D01*
X135938134Y-92947219D01*
X135949170Y-92965632D01*
X135958349Y-92985038D01*
X135965581Y-93005250D01*
X135970797Y-93026074D01*
X135973947Y-93047309D01*
X135975000Y-93068750D01*
X135975000Y-93506250D01*
X135973947Y-93527691D01*
X135970797Y-93548926D01*
X135965581Y-93569750D01*
X135958349Y-93589962D01*
X135949170Y-93609368D01*
X135938134Y-93627781D01*
X135925346Y-93645024D01*
X135910930Y-93660930D01*
X135895024Y-93675346D01*
X135877781Y-93688134D01*
X135859368Y-93699170D01*
X135839962Y-93708349D01*
X135819750Y-93715581D01*
X135798926Y-93720797D01*
X135777691Y-93723947D01*
X135756250Y-93725000D01*
X135243750Y-93725000D01*
X135222309Y-93723947D01*
X135201074Y-93720797D01*
X135180250Y-93715581D01*
X135160038Y-93708349D01*
X135140632Y-93699170D01*
X135122219Y-93688134D01*
X135104976Y-93675346D01*
X135089070Y-93660930D01*
X135074654Y-93645024D01*
X135061866Y-93627781D01*
X135050830Y-93609368D01*
X135041651Y-93589962D01*
X135034419Y-93569750D01*
X135029203Y-93548926D01*
X135026053Y-93527691D01*
X135025000Y-93506250D01*
X135025000Y-93068750D01*
X135026053Y-93047309D01*
X135029203Y-93026074D01*
X135034419Y-93005250D01*
X135041651Y-92985038D01*
X135050830Y-92965632D01*
X135061866Y-92947219D01*
X135074654Y-92929976D01*
X135089070Y-92914070D01*
X135104976Y-92899654D01*
X135122219Y-92886866D01*
X135140632Y-92875830D01*
X135160038Y-92866651D01*
X135180250Y-92859419D01*
X135201074Y-92854203D01*
X135222309Y-92851053D01*
X135243750Y-92850000D01*
X135756250Y-92850000D01*
X135777691Y-92851053D01*
X135777691Y-92851053D01*
G37*
D12*
G04 #@! TD*
G04 #@! TO.P,R2,1*
G04 #@! TO.N,/VBUS*
X135500000Y-93287500D03*
D11*
G04 #@! TO.N,/FB*
G04 #@! TO.C,R2*
G36*
X135777691Y-91276053D02*
X135798926Y-91279203D01*
X135819750Y-91284419D01*
X135839962Y-91291651D01*
X135859368Y-91300830D01*
X135877781Y-91311866D01*
X135895024Y-91324654D01*
X135910930Y-91339070D01*
X135925346Y-91354976D01*
X135938134Y-91372219D01*
X135949170Y-91390632D01*
X135958349Y-91410038D01*
X135965581Y-91430250D01*
X135970797Y-91451074D01*
X135973947Y-91472309D01*
X135975000Y-91493750D01*
X135975000Y-91931250D01*
X135973947Y-91952691D01*
X135970797Y-91973926D01*
X135965581Y-91994750D01*
X135958349Y-92014962D01*
X135949170Y-92034368D01*
X135938134Y-92052781D01*
X135925346Y-92070024D01*
X135910930Y-92085930D01*
X135895024Y-92100346D01*
X135877781Y-92113134D01*
X135859368Y-92124170D01*
X135839962Y-92133349D01*
X135819750Y-92140581D01*
X135798926Y-92145797D01*
X135777691Y-92148947D01*
X135756250Y-92150000D01*
X135243750Y-92150000D01*
X135222309Y-92148947D01*
X135201074Y-92145797D01*
X135180250Y-92140581D01*
X135160038Y-92133349D01*
X135140632Y-92124170D01*
X135122219Y-92113134D01*
X135104976Y-92100346D01*
X135089070Y-92085930D01*
X135074654Y-92070024D01*
X135061866Y-92052781D01*
X135050830Y-92034368D01*
X135041651Y-92014962D01*
X135034419Y-91994750D01*
X135029203Y-91973926D01*
X135026053Y-91952691D01*
X135025000Y-91931250D01*
X135025000Y-91493750D01*
X135026053Y-91472309D01*
X135029203Y-91451074D01*
X135034419Y-91430250D01*
X135041651Y-91410038D01*
X135050830Y-91390632D01*
X135061866Y-91372219D01*
X135074654Y-91354976D01*
X135089070Y-91339070D01*
X135104976Y-91324654D01*
X135122219Y-91311866D01*
X135140632Y-91300830D01*
X135160038Y-91291651D01*
X135180250Y-91284419D01*
X135201074Y-91279203D01*
X135222309Y-91276053D01*
X135243750Y-91275000D01*
X135756250Y-91275000D01*
X135777691Y-91276053D01*
X135777691Y-91276053D01*
G37*
D12*
G04 #@! TD*
G04 #@! TO.P,R2,2*
G04 #@! TO.N,/FB*
X135500000Y-91712500D03*
D11*
G04 #@! TO.N,GND*
G04 #@! TO.C,R3*
G36*
X134027691Y-92851053D02*
X134048926Y-92854203D01*
X134069750Y-92859419D01*
X134089962Y-92866651D01*
X134109368Y-92875830D01*
X134127781Y-92886866D01*
X134145024Y-92899654D01*
X134160930Y-92914070D01*
X134175346Y-92929976D01*
X134188134Y-92947219D01*
X134199170Y-92965632D01*
X134208349Y-92985038D01*
X134215581Y-93005250D01*
X134220797Y-93026074D01*
X134223947Y-93047309D01*
X134225000Y-93068750D01*
X134225000Y-93506250D01*
X134223947Y-93527691D01*
X134220797Y-93548926D01*
X134215581Y-93569750D01*
X134208349Y-93589962D01*
X134199170Y-93609368D01*
X134188134Y-93627781D01*
X134175346Y-93645024D01*
X134160930Y-93660930D01*
X134145024Y-93675346D01*
X134127781Y-93688134D01*
X134109368Y-93699170D01*
X134089962Y-93708349D01*
X134069750Y-93715581D01*
X134048926Y-93720797D01*
X134027691Y-93723947D01*
X134006250Y-93725000D01*
X133493750Y-93725000D01*
X133472309Y-93723947D01*
X133451074Y-93720797D01*
X133430250Y-93715581D01*
X133410038Y-93708349D01*
X133390632Y-93699170D01*
X133372219Y-93688134D01*
X133354976Y-93675346D01*
X133339070Y-93660930D01*
X133324654Y-93645024D01*
X133311866Y-93627781D01*
X133300830Y-93609368D01*
X133291651Y-93589962D01*
X133284419Y-93569750D01*
X133279203Y-93548926D01*
X133276053Y-93527691D01*
X133275000Y-93506250D01*
X133275000Y-93068750D01*
X133276053Y-93047309D01*
X133279203Y-93026074D01*
X133284419Y-93005250D01*
X133291651Y-92985038D01*
X133300830Y-92965632D01*
X133311866Y-92947219D01*
X133324654Y-92929976D01*
X133339070Y-92914070D01*
X133354976Y-92899654D01*
X133372219Y-92886866D01*
X133390632Y-92875830D01*
X133410038Y-92866651D01*
X133430250Y-92859419D01*
X133451074Y-92854203D01*
X133472309Y-92851053D01*
X133493750Y-92850000D01*
X134006250Y-92850000D01*
X134027691Y-92851053D01*
X134027691Y-92851053D01*
G37*
D12*
G04 #@! TD*
G04 #@! TO.P,R3,2*
G04 #@! TO.N,GND*
X133750000Y-93287500D03*
D11*
G04 #@! TO.N,/FB*
G04 #@! TO.C,R3*
G36*
X134027691Y-91276053D02*
X134048926Y-91279203D01*
X134069750Y-91284419D01*
X134089962Y-91291651D01*
X134109368Y-91300830D01*
X134127781Y-91311866D01*
X134145024Y-91324654D01*
X134160930Y-91339070D01*
X134175346Y-91354976D01*
X134188134Y-91372219D01*
X134199170Y-91390632D01*
X134208349Y-91410038D01*
X134215581Y-91430250D01*
X134220797Y-91451074D01*
X134223947Y-91472309D01*
X134225000Y-91493750D01*
X134225000Y-91931250D01*
X134223947Y-91952691D01*
X134220797Y-91973926D01*
X134215581Y-91994750D01*
X134208349Y-92014962D01*
X134199170Y-92034368D01*
X134188134Y-92052781D01*
X134175346Y-92070024D01*
X134160930Y-92085930D01*
X134145024Y-92100346D01*
X134127781Y-92113134D01*
X134109368Y-92124170D01*
X134089962Y-92133349D01*
X134069750Y-92140581D01*
X134048926Y-92145797D01*
X134027691Y-92148947D01*
X134006250Y-92150000D01*
X133493750Y-92150000D01*
X133472309Y-92148947D01*
X133451074Y-92145797D01*
X133430250Y-92140581D01*
X133410038Y-92133349D01*
X133390632Y-92124170D01*
X133372219Y-92113134D01*
X133354976Y-92100346D01*
X133339070Y-92085930D01*
X133324654Y-92070024D01*
X133311866Y-92052781D01*
X133300830Y-92034368D01*
X133291651Y-92014962D01*
X133284419Y-91994750D01*
X133279203Y-91973926D01*
X133276053Y-91952691D01*
X133275000Y-91931250D01*
X133275000Y-91493750D01*
X133276053Y-91472309D01*
X133279203Y-91451074D01*
X133284419Y-91430250D01*
X133291651Y-91410038D01*
X133300830Y-91390632D01*
X133311866Y-91372219D01*
X133324654Y-91354976D01*
X133339070Y-91339070D01*
X133354976Y-91324654D01*
X133372219Y-91311866D01*
X133390632Y-91300830D01*
X133410038Y-91291651D01*
X133430250Y-91284419D01*
X133451074Y-91279203D01*
X133472309Y-91276053D01*
X133493750Y-91275000D01*
X134006250Y-91275000D01*
X134027691Y-91276053D01*
X134027691Y-91276053D01*
G37*
D12*
G04 #@! TD*
G04 #@! TO.P,R3,1*
G04 #@! TO.N,/FB*
X133750000Y-91712500D03*
D11*
G04 #@! TO.N,/SHIELD*
G04 #@! TO.C,R4*
G36*
X150244499Y-81757360D02*
X150265734Y-81760510D01*
X150286558Y-81765726D01*
X150306770Y-81772958D01*
X150326176Y-81782137D01*
X150344589Y-81793173D01*
X150361832Y-81805961D01*
X150377738Y-81820377D01*
X150392154Y-81836283D01*
X150404942Y-81853526D01*
X150415978Y-81871939D01*
X150425157Y-81891345D01*
X150432389Y-81911557D01*
X150437605Y-81932381D01*
X150440755Y-81953616D01*
X150441808Y-81975057D01*
X150441808Y-82487557D01*
X150440755Y-82508998D01*
X150437605Y-82530233D01*
X150432389Y-82551057D01*
X150425157Y-82571269D01*
X150415978Y-82590675D01*
X150404942Y-82609088D01*
X150392154Y-82626331D01*
X150377738Y-82642237D01*
X150361832Y-82656653D01*
X150344589Y-82669441D01*
X150326176Y-82680477D01*
X150306770Y-82689656D01*
X150286558Y-82696888D01*
X150265734Y-82702104D01*
X150244499Y-82705254D01*
X150223058Y-82706307D01*
X149785558Y-82706307D01*
X149764117Y-82705254D01*
X149742882Y-82702104D01*
X149722058Y-82696888D01*
X149701846Y-82689656D01*
X149682440Y-82680477D01*
X149664027Y-82669441D01*
X149646784Y-82656653D01*
X149630878Y-82642237D01*
X149616462Y-82626331D01*
X149603674Y-82609088D01*
X149592638Y-82590675D01*
X149583459Y-82571269D01*
X149576227Y-82551057D01*
X149571011Y-82530233D01*
X149567861Y-82508998D01*
X149566808Y-82487557D01*
X149566808Y-81975057D01*
X149567861Y-81953616D01*
X149571011Y-81932381D01*
X149576227Y-81911557D01*
X149583459Y-81891345D01*
X149592638Y-81871939D01*
X149603674Y-81853526D01*
X149616462Y-81836283D01*
X149630878Y-81820377D01*
X149646784Y-81805961D01*
X149664027Y-81793173D01*
X149682440Y-81782137D01*
X149701846Y-81772958D01*
X149722058Y-81765726D01*
X149742882Y-81760510D01*
X149764117Y-81757360D01*
X149785558Y-81756307D01*
X150223058Y-81756307D01*
X150244499Y-81757360D01*
X150244499Y-81757360D01*
G37*
D12*
G04 #@! TD*
G04 #@! TO.P,R4,1*
G04 #@! TO.N,/SHIELD*
X150004308Y-82231307D03*
D11*
G04 #@! TO.N,GND*
G04 #@! TO.C,R4*
G36*
X148669499Y-81757360D02*
X148690734Y-81760510D01*
X148711558Y-81765726D01*
X148731770Y-81772958D01*
X148751176Y-81782137D01*
X148769589Y-81793173D01*
X148786832Y-81805961D01*
X148802738Y-81820377D01*
X148817154Y-81836283D01*
X148829942Y-81853526D01*
X148840978Y-81871939D01*
X148850157Y-81891345D01*
X148857389Y-81911557D01*
X148862605Y-81932381D01*
X148865755Y-81953616D01*
X148866808Y-81975057D01*
X148866808Y-82487557D01*
X148865755Y-82508998D01*
X148862605Y-82530233D01*
X148857389Y-82551057D01*
X148850157Y-82571269D01*
X148840978Y-82590675D01*
X148829942Y-82609088D01*
X148817154Y-82626331D01*
X148802738Y-82642237D01*
X148786832Y-82656653D01*
X148769589Y-82669441D01*
X148751176Y-82680477D01*
X148731770Y-82689656D01*
X148711558Y-82696888D01*
X148690734Y-82702104D01*
X148669499Y-82705254D01*
X148648058Y-82706307D01*
X148210558Y-82706307D01*
X148189117Y-82705254D01*
X148167882Y-82702104D01*
X148147058Y-82696888D01*
X148126846Y-82689656D01*
X148107440Y-82680477D01*
X148089027Y-82669441D01*
X148071784Y-82656653D01*
X148055878Y-82642237D01*
X148041462Y-82626331D01*
X148028674Y-82609088D01*
X148017638Y-82590675D01*
X148008459Y-82571269D01*
X148001227Y-82551057D01*
X147996011Y-82530233D01*
X147992861Y-82508998D01*
X147991808Y-82487557D01*
X147991808Y-81975057D01*
X147992861Y-81953616D01*
X147996011Y-81932381D01*
X148001227Y-81911557D01*
X148008459Y-81891345D01*
X148017638Y-81871939D01*
X148028674Y-81853526D01*
X148041462Y-81836283D01*
X148055878Y-81820377D01*
X148071784Y-81805961D01*
X148089027Y-81793173D01*
X148107440Y-81782137D01*
X148126846Y-81772958D01*
X148147058Y-81765726D01*
X148167882Y-81760510D01*
X148189117Y-81757360D01*
X148210558Y-81756307D01*
X148648058Y-81756307D01*
X148669499Y-81757360D01*
X148669499Y-81757360D01*
G37*
D12*
G04 #@! TD*
G04 #@! TO.P,R4,2*
G04 #@! TO.N,GND*
X148429308Y-82231307D03*
D11*
G04 #@! TO.N,/EN*
G04 #@! TO.C,R5*
G36*
X134027691Y-89601053D02*
X134048926Y-89604203D01*
X134069750Y-89609419D01*
X134089962Y-89616651D01*
X134109368Y-89625830D01*
X134127781Y-89636866D01*
X134145024Y-89649654D01*
X134160930Y-89664070D01*
X134175346Y-89679976D01*
X134188134Y-89697219D01*
X134199170Y-89715632D01*
X134208349Y-89735038D01*
X134215581Y-89755250D01*
X134220797Y-89776074D01*
X134223947Y-89797309D01*
X134225000Y-89818750D01*
X134225000Y-90256250D01*
X134223947Y-90277691D01*
X134220797Y-90298926D01*
X134215581Y-90319750D01*
X134208349Y-90339962D01*
X134199170Y-90359368D01*
X134188134Y-90377781D01*
X134175346Y-90395024D01*
X134160930Y-90410930D01*
X134145024Y-90425346D01*
X134127781Y-90438134D01*
X134109368Y-90449170D01*
X134089962Y-90458349D01*
X134069750Y-90465581D01*
X134048926Y-90470797D01*
X134027691Y-90473947D01*
X134006250Y-90475000D01*
X133493750Y-90475000D01*
X133472309Y-90473947D01*
X133451074Y-90470797D01*
X133430250Y-90465581D01*
X133410038Y-90458349D01*
X133390632Y-90449170D01*
X133372219Y-90438134D01*
X133354976Y-90425346D01*
X133339070Y-90410930D01*
X133324654Y-90395024D01*
X133311866Y-90377781D01*
X133300830Y-90359368D01*
X133291651Y-90339962D01*
X133284419Y-90319750D01*
X133279203Y-90298926D01*
X133276053Y-90277691D01*
X133275000Y-90256250D01*
X133275000Y-89818750D01*
X133276053Y-89797309D01*
X133279203Y-89776074D01*
X133284419Y-89755250D01*
X133291651Y-89735038D01*
X133300830Y-89715632D01*
X133311866Y-89697219D01*
X133324654Y-89679976D01*
X133339070Y-89664070D01*
X133354976Y-89649654D01*
X133372219Y-89636866D01*
X133390632Y-89625830D01*
X133410038Y-89616651D01*
X133430250Y-89609419D01*
X133451074Y-89604203D01*
X133472309Y-89601053D01*
X133493750Y-89600000D01*
X134006250Y-89600000D01*
X134027691Y-89601053D01*
X134027691Y-89601053D01*
G37*
D12*
G04 #@! TD*
G04 #@! TO.P,R5,2*
G04 #@! TO.N,/EN*
X133750000Y-90037500D03*
D11*
G04 #@! TO.N,/PR_INPUT*
G04 #@! TO.C,R5*
G36*
X134027691Y-88026053D02*
X134048926Y-88029203D01*
X134069750Y-88034419D01*
X134089962Y-88041651D01*
X134109368Y-88050830D01*
X134127781Y-88061866D01*
X134145024Y-88074654D01*
X134160930Y-88089070D01*
X134175346Y-88104976D01*
X134188134Y-88122219D01*
X134199170Y-88140632D01*
X134208349Y-88160038D01*
X134215581Y-88180250D01*
X134220797Y-88201074D01*
X134223947Y-88222309D01*
X134225000Y-88243750D01*
X134225000Y-88681250D01*
X134223947Y-88702691D01*
X134220797Y-88723926D01*
X134215581Y-88744750D01*
X134208349Y-88764962D01*
X134199170Y-88784368D01*
X134188134Y-88802781D01*
X134175346Y-88820024D01*
X134160930Y-88835930D01*
X134145024Y-88850346D01*
X134127781Y-88863134D01*
X134109368Y-88874170D01*
X134089962Y-88883349D01*
X134069750Y-88890581D01*
X134048926Y-88895797D01*
X134027691Y-88898947D01*
X134006250Y-88900000D01*
X133493750Y-88900000D01*
X133472309Y-88898947D01*
X133451074Y-88895797D01*
X133430250Y-88890581D01*
X133410038Y-88883349D01*
X133390632Y-88874170D01*
X133372219Y-88863134D01*
X133354976Y-88850346D01*
X133339070Y-88835930D01*
X133324654Y-88820024D01*
X133311866Y-88802781D01*
X133300830Y-88784368D01*
X133291651Y-88764962D01*
X133284419Y-88744750D01*
X133279203Y-88723926D01*
X133276053Y-88702691D01*
X133275000Y-88681250D01*
X133275000Y-88243750D01*
X133276053Y-88222309D01*
X133279203Y-88201074D01*
X133284419Y-88180250D01*
X133291651Y-88160038D01*
X133300830Y-88140632D01*
X133311866Y-88122219D01*
X133324654Y-88104976D01*
X133339070Y-88089070D01*
X133354976Y-88074654D01*
X133372219Y-88061866D01*
X133390632Y-88050830D01*
X133410038Y-88041651D01*
X133430250Y-88034419D01*
X133451074Y-88029203D01*
X133472309Y-88026053D01*
X133493750Y-88025000D01*
X134006250Y-88025000D01*
X134027691Y-88026053D01*
X134027691Y-88026053D01*
G37*
D12*
G04 #@! TD*
G04 #@! TO.P,R5,1*
G04 #@! TO.N,/PR_INPUT*
X133750000Y-88462500D03*
D11*
G04 #@! TO.N,/EN*
G04 #@! TO.C,R6*
G36*
X132277691Y-89601053D02*
X132298926Y-89604203D01*
X132319750Y-89609419D01*
X132339962Y-89616651D01*
X132359368Y-89625830D01*
X132377781Y-89636866D01*
X132395024Y-89649654D01*
X132410930Y-89664070D01*
X132425346Y-89679976D01*
X132438134Y-89697219D01*
X132449170Y-89715632D01*
X132458349Y-89735038D01*
X132465581Y-89755250D01*
X132470797Y-89776074D01*
X132473947Y-89797309D01*
X132475000Y-89818750D01*
X132475000Y-90256250D01*
X132473947Y-90277691D01*
X132470797Y-90298926D01*
X132465581Y-90319750D01*
X132458349Y-90339962D01*
X132449170Y-90359368D01*
X132438134Y-90377781D01*
X132425346Y-90395024D01*
X132410930Y-90410930D01*
X132395024Y-90425346D01*
X132377781Y-90438134D01*
X132359368Y-90449170D01*
X132339962Y-90458349D01*
X132319750Y-90465581D01*
X132298926Y-90470797D01*
X132277691Y-90473947D01*
X132256250Y-90475000D01*
X131743750Y-90475000D01*
X131722309Y-90473947D01*
X131701074Y-90470797D01*
X131680250Y-90465581D01*
X131660038Y-90458349D01*
X131640632Y-90449170D01*
X131622219Y-90438134D01*
X131604976Y-90425346D01*
X131589070Y-90410930D01*
X131574654Y-90395024D01*
X131561866Y-90377781D01*
X131550830Y-90359368D01*
X131541651Y-90339962D01*
X131534419Y-90319750D01*
X131529203Y-90298926D01*
X131526053Y-90277691D01*
X131525000Y-90256250D01*
X131525000Y-89818750D01*
X131526053Y-89797309D01*
X131529203Y-89776074D01*
X131534419Y-89755250D01*
X131541651Y-89735038D01*
X131550830Y-89715632D01*
X131561866Y-89697219D01*
X131574654Y-89679976D01*
X131589070Y-89664070D01*
X131604976Y-89649654D01*
X131622219Y-89636866D01*
X131640632Y-89625830D01*
X131660038Y-89616651D01*
X131680250Y-89609419D01*
X131701074Y-89604203D01*
X131722309Y-89601053D01*
X131743750Y-89600000D01*
X132256250Y-89600000D01*
X132277691Y-89601053D01*
X132277691Y-89601053D01*
G37*
D12*
G04 #@! TD*
G04 #@! TO.P,R6,1*
G04 #@! TO.N,/EN*
X132000000Y-90037500D03*
D11*
G04 #@! TO.N,GND*
G04 #@! TO.C,R6*
G36*
X132277691Y-88026053D02*
X132298926Y-88029203D01*
X132319750Y-88034419D01*
X132339962Y-88041651D01*
X132359368Y-88050830D01*
X132377781Y-88061866D01*
X132395024Y-88074654D01*
X132410930Y-88089070D01*
X132425346Y-88104976D01*
X132438134Y-88122219D01*
X132449170Y-88140632D01*
X132458349Y-88160038D01*
X132465581Y-88180250D01*
X132470797Y-88201074D01*
X132473947Y-88222309D01*
X132475000Y-88243750D01*
X132475000Y-88681250D01*
X132473947Y-88702691D01*
X132470797Y-88723926D01*
X132465581Y-88744750D01*
X132458349Y-88764962D01*
X132449170Y-88784368D01*
X132438134Y-88802781D01*
X132425346Y-88820024D01*
X132410930Y-88835930D01*
X132395024Y-88850346D01*
X132377781Y-88863134D01*
X132359368Y-88874170D01*
X132339962Y-88883349D01*
X132319750Y-88890581D01*
X132298926Y-88895797D01*
X132277691Y-88898947D01*
X132256250Y-88900000D01*
X131743750Y-88900000D01*
X131722309Y-88898947D01*
X131701074Y-88895797D01*
X131680250Y-88890581D01*
X131660038Y-88883349D01*
X131640632Y-88874170D01*
X131622219Y-88863134D01*
X131604976Y-88850346D01*
X131589070Y-88835930D01*
X131574654Y-88820024D01*
X131561866Y-88802781D01*
X131550830Y-88784368D01*
X131541651Y-88764962D01*
X131534419Y-88744750D01*
X131529203Y-88723926D01*
X131526053Y-88702691D01*
X131525000Y-88681250D01*
X131525000Y-88243750D01*
X131526053Y-88222309D01*
X131529203Y-88201074D01*
X131534419Y-88180250D01*
X131541651Y-88160038D01*
X131550830Y-88140632D01*
X131561866Y-88122219D01*
X131574654Y-88104976D01*
X131589070Y-88089070D01*
X131604976Y-88074654D01*
X131622219Y-88061866D01*
X131640632Y-88050830D01*
X131660038Y-88041651D01*
X131680250Y-88034419D01*
X131701074Y-88029203D01*
X131722309Y-88026053D01*
X131743750Y-88025000D01*
X132256250Y-88025000D01*
X132277691Y-88026053D01*
X132277691Y-88026053D01*
G37*
D12*
G04 #@! TD*
G04 #@! TO.P,R6,2*
G04 #@! TO.N,GND*
X132000000Y-88462500D03*
D11*
G04 #@! TO.N,/VBUS*
G04 #@! TO.C,C7*
G36*
X144980142Y-90901173D02*
X145003803Y-90904683D01*
X145027007Y-90910495D01*
X145049529Y-90918553D01*
X145071153Y-90928781D01*
X145091670Y-90941078D01*
X145110883Y-90955328D01*
X145128607Y-90971392D01*
X145144671Y-90989116D01*
X145158921Y-91008329D01*
X145171218Y-91028846D01*
X145181446Y-91050470D01*
X145189504Y-91072992D01*
X145195316Y-91096196D01*
X145198826Y-91119857D01*
X145200000Y-91143749D01*
X145200000Y-91631249D01*
X145198826Y-91655141D01*
X145195316Y-91678802D01*
X145189504Y-91702006D01*
X145181446Y-91724528D01*
X145171218Y-91746152D01*
X145158921Y-91766669D01*
X145144671Y-91785882D01*
X145128607Y-91803606D01*
X145110883Y-91819670D01*
X145091670Y-91833920D01*
X145071153Y-91846217D01*
X145049529Y-91856445D01*
X145027007Y-91864503D01*
X145003803Y-91870315D01*
X144980142Y-91873825D01*
X144956250Y-91874999D01*
X144043750Y-91874999D01*
X144019858Y-91873825D01*
X143996197Y-91870315D01*
X143972993Y-91864503D01*
X143950471Y-91856445D01*
X143928847Y-91846217D01*
X143908330Y-91833920D01*
X143889117Y-91819670D01*
X143871393Y-91803606D01*
X143855329Y-91785882D01*
X143841079Y-91766669D01*
X143828782Y-91746152D01*
X143818554Y-91724528D01*
X143810496Y-91702006D01*
X143804684Y-91678802D01*
X143801174Y-91655141D01*
X143800000Y-91631249D01*
X143800000Y-91143749D01*
X143801174Y-91119857D01*
X143804684Y-91096196D01*
X143810496Y-91072992D01*
X143818554Y-91050470D01*
X143828782Y-91028846D01*
X143841079Y-91008329D01*
X143855329Y-90989116D01*
X143871393Y-90971392D01*
X143889117Y-90955328D01*
X143908330Y-90941078D01*
X143928847Y-90928781D01*
X143950471Y-90918553D01*
X143972993Y-90910495D01*
X143996197Y-90904683D01*
X144019858Y-90901173D01*
X144043750Y-90899999D01*
X144956250Y-90899999D01*
X144980142Y-90901173D01*
X144980142Y-90901173D01*
G37*
D21*
G04 #@! TD*
G04 #@! TO.P,C7,1*
G04 #@! TO.N,/VBUS*
X144500000Y-91387499D03*
D11*
G04 #@! TO.N,GND*
G04 #@! TO.C,C7*
G36*
X144980142Y-92776173D02*
X145003803Y-92779683D01*
X145027007Y-92785495D01*
X145049529Y-92793553D01*
X145071153Y-92803781D01*
X145091670Y-92816078D01*
X145110883Y-92830328D01*
X145128607Y-92846392D01*
X145144671Y-92864116D01*
X145158921Y-92883329D01*
X145171218Y-92903846D01*
X145181446Y-92925470D01*
X145189504Y-92947992D01*
X145195316Y-92971196D01*
X145198826Y-92994857D01*
X145200000Y-93018749D01*
X145200000Y-93506249D01*
X145198826Y-93530141D01*
X145195316Y-93553802D01*
X145189504Y-93577006D01*
X145181446Y-93599528D01*
X145171218Y-93621152D01*
X145158921Y-93641669D01*
X145144671Y-93660882D01*
X145128607Y-93678606D01*
X145110883Y-93694670D01*
X145091670Y-93708920D01*
X145071153Y-93721217D01*
X145049529Y-93731445D01*
X145027007Y-93739503D01*
X145003803Y-93745315D01*
X144980142Y-93748825D01*
X144956250Y-93749999D01*
X144043750Y-93749999D01*
X144019858Y-93748825D01*
X143996197Y-93745315D01*
X143972993Y-93739503D01*
X143950471Y-93731445D01*
X143928847Y-93721217D01*
X143908330Y-93708920D01*
X143889117Y-93694670D01*
X143871393Y-93678606D01*
X143855329Y-93660882D01*
X143841079Y-93641669D01*
X143828782Y-93621152D01*
X143818554Y-93599528D01*
X143810496Y-93577006D01*
X143804684Y-93553802D01*
X143801174Y-93530141D01*
X143800000Y-93506249D01*
X143800000Y-93018749D01*
X143801174Y-92994857D01*
X143804684Y-92971196D01*
X143810496Y-92947992D01*
X143818554Y-92925470D01*
X143828782Y-92903846D01*
X143841079Y-92883329D01*
X143855329Y-92864116D01*
X143871393Y-92846392D01*
X143889117Y-92830328D01*
X143908330Y-92816078D01*
X143928847Y-92803781D01*
X143950471Y-92793553D01*
X143972993Y-92785495D01*
X143996197Y-92779683D01*
X144019858Y-92776173D01*
X144043750Y-92774999D01*
X144956250Y-92774999D01*
X144980142Y-92776173D01*
X144980142Y-92776173D01*
G37*
D21*
G04 #@! TD*
G04 #@! TO.P,C7,2*
G04 #@! TO.N,GND*
X144500000Y-93262499D03*
D11*
G04 #@! TO.N,GND*
G04 #@! TO.C,C6*
G36*
X147230142Y-92776173D02*
X147253803Y-92779683D01*
X147277007Y-92785495D01*
X147299529Y-92793553D01*
X147321153Y-92803781D01*
X147341670Y-92816078D01*
X147360883Y-92830328D01*
X147378607Y-92846392D01*
X147394671Y-92864116D01*
X147408921Y-92883329D01*
X147421218Y-92903846D01*
X147431446Y-92925470D01*
X147439504Y-92947992D01*
X147445316Y-92971196D01*
X147448826Y-92994857D01*
X147450000Y-93018749D01*
X147450000Y-93506249D01*
X147448826Y-93530141D01*
X147445316Y-93553802D01*
X147439504Y-93577006D01*
X147431446Y-93599528D01*
X147421218Y-93621152D01*
X147408921Y-93641669D01*
X147394671Y-93660882D01*
X147378607Y-93678606D01*
X147360883Y-93694670D01*
X147341670Y-93708920D01*
X147321153Y-93721217D01*
X147299529Y-93731445D01*
X147277007Y-93739503D01*
X147253803Y-93745315D01*
X147230142Y-93748825D01*
X147206250Y-93749999D01*
X146293750Y-93749999D01*
X146269858Y-93748825D01*
X146246197Y-93745315D01*
X146222993Y-93739503D01*
X146200471Y-93731445D01*
X146178847Y-93721217D01*
X146158330Y-93708920D01*
X146139117Y-93694670D01*
X146121393Y-93678606D01*
X146105329Y-93660882D01*
X146091079Y-93641669D01*
X146078782Y-93621152D01*
X146068554Y-93599528D01*
X146060496Y-93577006D01*
X146054684Y-93553802D01*
X146051174Y-93530141D01*
X146050000Y-93506249D01*
X146050000Y-93018749D01*
X146051174Y-92994857D01*
X146054684Y-92971196D01*
X146060496Y-92947992D01*
X146068554Y-92925470D01*
X146078782Y-92903846D01*
X146091079Y-92883329D01*
X146105329Y-92864116D01*
X146121393Y-92846392D01*
X146139117Y-92830328D01*
X146158330Y-92816078D01*
X146178847Y-92803781D01*
X146200471Y-92793553D01*
X146222993Y-92785495D01*
X146246197Y-92779683D01*
X146269858Y-92776173D01*
X146293750Y-92774999D01*
X147206250Y-92774999D01*
X147230142Y-92776173D01*
X147230142Y-92776173D01*
G37*
D21*
G04 #@! TD*
G04 #@! TO.P,C6,2*
G04 #@! TO.N,GND*
X146750000Y-93262499D03*
D11*
G04 #@! TO.N,/VBUS*
G04 #@! TO.C,C6*
G36*
X147230142Y-90901173D02*
X147253803Y-90904683D01*
X147277007Y-90910495D01*
X147299529Y-90918553D01*
X147321153Y-90928781D01*
X147341670Y-90941078D01*
X147360883Y-90955328D01*
X147378607Y-90971392D01*
X147394671Y-90989116D01*
X147408921Y-91008329D01*
X147421218Y-91028846D01*
X147431446Y-91050470D01*
X147439504Y-91072992D01*
X147445316Y-91096196D01*
X147448826Y-91119857D01*
X147450000Y-91143749D01*
X147450000Y-91631249D01*
X147448826Y-91655141D01*
X147445316Y-91678802D01*
X147439504Y-91702006D01*
X147431446Y-91724528D01*
X147421218Y-91746152D01*
X147408921Y-91766669D01*
X147394671Y-91785882D01*
X147378607Y-91803606D01*
X147360883Y-91819670D01*
X147341670Y-91833920D01*
X147321153Y-91846217D01*
X147299529Y-91856445D01*
X147277007Y-91864503D01*
X147253803Y-91870315D01*
X147230142Y-91873825D01*
X147206250Y-91874999D01*
X146293750Y-91874999D01*
X146269858Y-91873825D01*
X146246197Y-91870315D01*
X146222993Y-91864503D01*
X146200471Y-91856445D01*
X146178847Y-91846217D01*
X146158330Y-91833920D01*
X146139117Y-91819670D01*
X146121393Y-91803606D01*
X146105329Y-91785882D01*
X146091079Y-91766669D01*
X146078782Y-91746152D01*
X146068554Y-91724528D01*
X146060496Y-91702006D01*
X146054684Y-91678802D01*
X146051174Y-91655141D01*
X146050000Y-91631249D01*
X146050000Y-91143749D01*
X146051174Y-91119857D01*
X146054684Y-91096196D01*
X146060496Y-91072992D01*
X146068554Y-91050470D01*
X146078782Y-91028846D01*
X146091079Y-91008329D01*
X146105329Y-90989116D01*
X146121393Y-90971392D01*
X146139117Y-90955328D01*
X146158330Y-90941078D01*
X146178847Y-90928781D01*
X146200471Y-90918553D01*
X146222993Y-90910495D01*
X146246197Y-90904683D01*
X146269858Y-90901173D01*
X146293750Y-90899999D01*
X147206250Y-90899999D01*
X147230142Y-90901173D01*
X147230142Y-90901173D01*
G37*
D21*
G04 #@! TD*
G04 #@! TO.P,C6,1*
G04 #@! TO.N,/VBUS*
X146750000Y-91387499D03*
D11*
G04 #@! TO.N,/VBUS*
G04 #@! TO.C,C5*
G36*
X149480142Y-90901173D02*
X149503803Y-90904683D01*
X149527007Y-90910495D01*
X149549529Y-90918553D01*
X149571153Y-90928781D01*
X149591670Y-90941078D01*
X149610883Y-90955328D01*
X149628607Y-90971392D01*
X149644671Y-90989116D01*
X149658921Y-91008329D01*
X149671218Y-91028846D01*
X149681446Y-91050470D01*
X149689504Y-91072992D01*
X149695316Y-91096196D01*
X149698826Y-91119857D01*
X149700000Y-91143749D01*
X149700000Y-91631249D01*
X149698826Y-91655141D01*
X149695316Y-91678802D01*
X149689504Y-91702006D01*
X149681446Y-91724528D01*
X149671218Y-91746152D01*
X149658921Y-91766669D01*
X149644671Y-91785882D01*
X149628607Y-91803606D01*
X149610883Y-91819670D01*
X149591670Y-91833920D01*
X149571153Y-91846217D01*
X149549529Y-91856445D01*
X149527007Y-91864503D01*
X149503803Y-91870315D01*
X149480142Y-91873825D01*
X149456250Y-91874999D01*
X148543750Y-91874999D01*
X148519858Y-91873825D01*
X148496197Y-91870315D01*
X148472993Y-91864503D01*
X148450471Y-91856445D01*
X148428847Y-91846217D01*
X148408330Y-91833920D01*
X148389117Y-91819670D01*
X148371393Y-91803606D01*
X148355329Y-91785882D01*
X148341079Y-91766669D01*
X148328782Y-91746152D01*
X148318554Y-91724528D01*
X148310496Y-91702006D01*
X148304684Y-91678802D01*
X148301174Y-91655141D01*
X148300000Y-91631249D01*
X148300000Y-91143749D01*
X148301174Y-91119857D01*
X148304684Y-91096196D01*
X148310496Y-91072992D01*
X148318554Y-91050470D01*
X148328782Y-91028846D01*
X148341079Y-91008329D01*
X148355329Y-90989116D01*
X148371393Y-90971392D01*
X148389117Y-90955328D01*
X148408330Y-90941078D01*
X148428847Y-90928781D01*
X148450471Y-90918553D01*
X148472993Y-90910495D01*
X148496197Y-90904683D01*
X148519858Y-90901173D01*
X148543750Y-90899999D01*
X149456250Y-90899999D01*
X149480142Y-90901173D01*
X149480142Y-90901173D01*
G37*
D21*
G04 #@! TD*
G04 #@! TO.P,C5,1*
G04 #@! TO.N,/VBUS*
X149000000Y-91387499D03*
D11*
G04 #@! TO.N,GND*
G04 #@! TO.C,C5*
G36*
X149480142Y-92776173D02*
X149503803Y-92779683D01*
X149527007Y-92785495D01*
X149549529Y-92793553D01*
X149571153Y-92803781D01*
X149591670Y-92816078D01*
X149610883Y-92830328D01*
X149628607Y-92846392D01*
X149644671Y-92864116D01*
X149658921Y-92883329D01*
X149671218Y-92903846D01*
X149681446Y-92925470D01*
X149689504Y-92947992D01*
X149695316Y-92971196D01*
X149698826Y-92994857D01*
X149700000Y-93018749D01*
X149700000Y-93506249D01*
X149698826Y-93530141D01*
X149695316Y-93553802D01*
X149689504Y-93577006D01*
X149681446Y-93599528D01*
X149671218Y-93621152D01*
X149658921Y-93641669D01*
X149644671Y-93660882D01*
X149628607Y-93678606D01*
X149610883Y-93694670D01*
X149591670Y-93708920D01*
X149571153Y-93721217D01*
X149549529Y-93731445D01*
X149527007Y-93739503D01*
X149503803Y-93745315D01*
X149480142Y-93748825D01*
X149456250Y-93749999D01*
X148543750Y-93749999D01*
X148519858Y-93748825D01*
X148496197Y-93745315D01*
X148472993Y-93739503D01*
X148450471Y-93731445D01*
X148428847Y-93721217D01*
X148408330Y-93708920D01*
X148389117Y-93694670D01*
X148371393Y-93678606D01*
X148355329Y-93660882D01*
X148341079Y-93641669D01*
X148328782Y-93621152D01*
X148318554Y-93599528D01*
X148310496Y-93577006D01*
X148304684Y-93553802D01*
X148301174Y-93530141D01*
X148300000Y-93506249D01*
X148300000Y-93018749D01*
X148301174Y-92994857D01*
X148304684Y-92971196D01*
X148310496Y-92947992D01*
X148318554Y-92925470D01*
X148328782Y-92903846D01*
X148341079Y-92883329D01*
X148355329Y-92864116D01*
X148371393Y-92846392D01*
X148389117Y-92830328D01*
X148408330Y-92816078D01*
X148428847Y-92803781D01*
X148450471Y-92793553D01*
X148472993Y-92785495D01*
X148496197Y-92779683D01*
X148519858Y-92776173D01*
X148543750Y-92774999D01*
X149456250Y-92774999D01*
X149480142Y-92776173D01*
X149480142Y-92776173D01*
G37*
D21*
G04 #@! TD*
G04 #@! TO.P,C5,2*
G04 #@! TO.N,GND*
X149000000Y-93262499D03*
D22*
G04 #@! TO.P,TP3,1*
G04 #@! TO.N,/SW*
X137250000Y-83000000D03*
G04 #@! TD*
G04 #@! TO.P,TP1,1*
G04 #@! TO.N,/VBUS*
X142000000Y-91400000D03*
G04 #@! TD*
G04 #@! TO.P,TP2,1*
G04 #@! TO.N,/FB*
X131800000Y-92000000D03*
G04 #@! TD*
D23*
G04 #@! TO.N,/SW*
X139000000Y-93200000D03*
X138500000Y-84500000D03*
G04 #@! TO.N,GND*
X132000000Y-87500000D03*
X130200000Y-91000000D03*
X138650000Y-86050000D03*
X138650000Y-87100000D03*
G04 #@! TD*
D24*
G04 #@! TO.N,/FB*
X133750000Y-91712500D02*
X135500000Y-91712500D01*
X135800000Y-91412500D02*
X135500000Y-91712500D01*
X135800000Y-89350000D02*
X135800000Y-91412500D01*
X132087500Y-91712500D02*
X131800000Y-92000000D01*
X133750000Y-91712500D02*
X132087500Y-91712500D01*
G04 #@! TO.N,/VBUS*
X135500000Y-93287500D02*
X135500000Y-93825000D01*
X142000000Y-93200000D02*
X142000000Y-91400000D01*
X135500000Y-93825000D02*
X136875000Y-95200000D01*
X136875000Y-95200000D02*
X140000000Y-95200000D01*
X140000000Y-95200000D02*
X142000000Y-93200000D01*
G04 #@! TO.N,/SW*
X138000000Y-83820000D02*
X137999999Y-83749999D01*
X137999999Y-83749999D02*
X137250000Y-83000000D01*
X138912500Y-93287500D02*
X139000000Y-93200000D01*
X137750000Y-93287500D02*
X138912500Y-93287500D01*
D25*
G04 #@! TO.N,GND*
X132000000Y-88462500D02*
X132000000Y-87500000D01*
X130250000Y-90950000D02*
X130200000Y-91000000D01*
D26*
X130250000Y-90037500D02*
X130250000Y-90950000D01*
D24*
X138650000Y-86050000D02*
X138650000Y-87100000D01*
X114000000Y-80750000D02*
X119000000Y-80750000D01*
G04 #@! TO.N,/SHIELD*
X150004308Y-83731307D02*
X150004308Y-82231307D01*
G04 #@! TO.N,Net-(Q1-Pad3)*
X130087500Y-88300000D02*
X130250000Y-88462500D01*
X128100000Y-88300000D02*
X130087500Y-88300000D01*
G04 #@! TO.N,Net-(C4-Pad2)*
X137700000Y-91662500D02*
X137750000Y-91712500D01*
X137700000Y-89350000D02*
X137700000Y-91662500D01*
D25*
G04 #@! TO.N,/EN*
X132000000Y-90037500D02*
X133750000Y-90037500D01*
X134362500Y-90037500D02*
X133750000Y-90037500D01*
X134800000Y-89600000D02*
X134362500Y-90037500D01*
X134800000Y-88400000D02*
X134800000Y-89600000D01*
X136750000Y-89350000D02*
X136750000Y-88350000D01*
X136750000Y-88350000D02*
X136400000Y-88000000D01*
X136400000Y-88000000D02*
X135200000Y-88000000D01*
X135200000Y-88000000D02*
X134800000Y-88400000D01*
D27*
G04 #@! TO.N,/SHIELD*
X154800000Y-81380000D02*
X154800000Y-94520000D01*
G04 #@! TD*
D28*
G04 #@! TO.N,GND*
G36*
X162522233Y-75540796D02*
X163016452Y-75720189D01*
X163456147Y-76008466D01*
X163817733Y-76390165D01*
X164081809Y-76844807D01*
X164237088Y-77357498D01*
X164275001Y-77782302D01*
X164275000Y-81571403D01*
X164275001Y-81571408D01*
X164275000Y-97707882D01*
X164209203Y-98272233D01*
X164029811Y-98766452D01*
X163741533Y-99206149D01*
X163359835Y-99567733D01*
X162905196Y-99831808D01*
X162392502Y-99987088D01*
X161967710Y-100025000D01*
X129677034Y-100025000D01*
X129682715Y-97372067D01*
X160100000Y-97372067D01*
X160100000Y-98127933D01*
X160389258Y-98826263D01*
X160923737Y-99360742D01*
X161622067Y-99650000D01*
X162377933Y-99650000D01*
X163076263Y-99360742D01*
X163610742Y-98826263D01*
X163900000Y-98127933D01*
X163900000Y-97372067D01*
X163610742Y-96673737D01*
X163076263Y-96139258D01*
X162377933Y-95850000D01*
X161622067Y-95850000D01*
X160923737Y-96139258D01*
X160389258Y-96673737D01*
X160100000Y-97372067D01*
X129682715Y-97372067D01*
X129683710Y-96907591D01*
X129709619Y-96892632D01*
X129892632Y-96709619D01*
X130060865Y-96418232D01*
X130127852Y-96168232D01*
X130150000Y-96000000D01*
X130150000Y-93556000D01*
X132617000Y-93556000D01*
X132617000Y-93855884D01*
X132717174Y-94097727D01*
X132902273Y-94282825D01*
X133144115Y-94383000D01*
X133481500Y-94383000D01*
X133646000Y-94218500D01*
X133646000Y-93391500D01*
X132781500Y-93391500D01*
X132617000Y-93556000D01*
X130150000Y-93556000D01*
X130150000Y-91838087D01*
X130140142Y-91725311D01*
X130110039Y-91554440D01*
X130080763Y-91445083D01*
X129967278Y-91133000D01*
X129981500Y-91133000D01*
X130146000Y-90968500D01*
X130146000Y-90141500D01*
X130126000Y-90141500D01*
X130126000Y-89933500D01*
X130146000Y-89933500D01*
X130146000Y-89913500D01*
X130354000Y-89913500D01*
X130354000Y-89933500D01*
X130374000Y-89933500D01*
X130374000Y-90141500D01*
X130354000Y-90141500D01*
X130354000Y-90968500D01*
X130518500Y-91133000D01*
X130687100Y-91133000D01*
X130613137Y-91206963D01*
X130400000Y-91721523D01*
X130400000Y-92278477D01*
X130613137Y-92793037D01*
X131006963Y-93186863D01*
X131521523Y-93400000D01*
X132078477Y-93400000D01*
X132593037Y-93186863D01*
X132688950Y-93090950D01*
X132781500Y-93183500D01*
X133646000Y-93183500D01*
X133646000Y-93163500D01*
X133854000Y-93163500D01*
X133854000Y-93183500D01*
X133874000Y-93183500D01*
X133874000Y-93391500D01*
X133854000Y-93391500D01*
X133854000Y-94218500D01*
X134018500Y-94383000D01*
X134355885Y-94383000D01*
X134554931Y-94300552D01*
X134684414Y-94494338D01*
X134684417Y-94494341D01*
X134742994Y-94582007D01*
X134830659Y-94640583D01*
X136059415Y-95869339D01*
X136117993Y-95957007D01*
X136465311Y-96189078D01*
X136771587Y-96250000D01*
X136771592Y-96250000D01*
X136875000Y-96270569D01*
X136978408Y-96250000D01*
X139896592Y-96250000D01*
X140000000Y-96270569D01*
X140103408Y-96250000D01*
X140103413Y-96250000D01*
X140409689Y-96189078D01*
X140757007Y-95957007D01*
X140815585Y-95869339D01*
X142669342Y-94015583D01*
X142757007Y-93957007D01*
X142815583Y-93869342D01*
X142815586Y-93869339D01*
X142989077Y-93609690D01*
X142989078Y-93609689D01*
X143004730Y-93530999D01*
X143142000Y-93530999D01*
X143142000Y-93880883D01*
X143242174Y-94122726D01*
X143427273Y-94307824D01*
X143669115Y-94407999D01*
X144231500Y-94407999D01*
X144396000Y-94243499D01*
X144396000Y-93366499D01*
X144604000Y-93366499D01*
X144604000Y-94243499D01*
X144768500Y-94407999D01*
X145330885Y-94407999D01*
X145572727Y-94307824D01*
X145625000Y-94255551D01*
X145677273Y-94307824D01*
X145919115Y-94407999D01*
X146481500Y-94407999D01*
X146646000Y-94243499D01*
X146646000Y-93366499D01*
X146854000Y-93366499D01*
X146854000Y-94243499D01*
X147018500Y-94407999D01*
X147580885Y-94407999D01*
X147822727Y-94307824D01*
X147875000Y-94255551D01*
X147927273Y-94307824D01*
X148169115Y-94407999D01*
X148731500Y-94407999D01*
X148896000Y-94243499D01*
X148896000Y-93366499D01*
X149104000Y-93366499D01*
X149104000Y-94243499D01*
X149268500Y-94407999D01*
X149830885Y-94407999D01*
X150072727Y-94307824D01*
X150257826Y-94122726D01*
X150358000Y-93880883D01*
X150358000Y-93530999D01*
X150193500Y-93366499D01*
X149104000Y-93366499D01*
X148896000Y-93366499D01*
X146854000Y-93366499D01*
X146646000Y-93366499D01*
X144604000Y-93366499D01*
X144396000Y-93366499D01*
X143306500Y-93366499D01*
X143142000Y-93530999D01*
X143004730Y-93530999D01*
X143050000Y-93303413D01*
X143050000Y-93303409D01*
X143070569Y-93200001D01*
X143050000Y-93096593D01*
X143050000Y-92658029D01*
X143142000Y-92701838D01*
X143142000Y-92993999D01*
X143306500Y-93158499D01*
X144396000Y-93158499D01*
X144396000Y-93138499D01*
X144604000Y-93138499D01*
X144604000Y-93158499D01*
X146646000Y-93158499D01*
X146646000Y-93138499D01*
X146854000Y-93138499D01*
X146854000Y-93158499D01*
X148896000Y-93158499D01*
X148896000Y-93138499D01*
X149104000Y-93138499D01*
X149104000Y-93158499D01*
X150193500Y-93158499D01*
X150358000Y-92993999D01*
X150358000Y-92953202D01*
X150513484Y-93056858D01*
X150685678Y-93138135D01*
X150963028Y-93222110D01*
X151151388Y-93250000D01*
X152457711Y-93250000D01*
X152150000Y-93992882D01*
X152150000Y-95047118D01*
X152553438Y-96021105D01*
X153298895Y-96766562D01*
X154272882Y-97170000D01*
X155327118Y-97170000D01*
X156301105Y-96766562D01*
X157046562Y-96021105D01*
X157450000Y-95047118D01*
X157450000Y-93992882D01*
X157046562Y-93018895D01*
X156301105Y-92273438D01*
X156200000Y-92231559D01*
X156200000Y-84134926D01*
X156395191Y-84054075D01*
X156606066Y-83913172D01*
X157313172Y-83206066D01*
X157454075Y-82995191D01*
X157600522Y-82641637D01*
X157650000Y-82392893D01*
X157650000Y-80581025D01*
X157611177Y-80359749D01*
X157495288Y-80039657D01*
X157383455Y-79844813D01*
X156649267Y-78963788D01*
X156546930Y-78865238D01*
X156374897Y-78732535D01*
X156119114Y-78612732D01*
X155907037Y-78565527D01*
X155765813Y-78550000D01*
X154513785Y-78550000D01*
X154369553Y-78566204D01*
X154153188Y-78615442D01*
X154016145Y-78663248D01*
X149402359Y-80877865D01*
X149250973Y-80978773D01*
X149079135Y-81132041D01*
X148997692Y-81098307D01*
X148697808Y-81098307D01*
X148533308Y-81262807D01*
X148533308Y-82127307D01*
X148553308Y-82127307D01*
X148553308Y-82335307D01*
X148533308Y-82335307D01*
X148533308Y-83627307D01*
X148553308Y-83627307D01*
X148553308Y-83835307D01*
X148533308Y-83835307D01*
X148533308Y-84699807D01*
X148697808Y-84864307D01*
X148997692Y-84864307D01*
X149239535Y-84764133D01*
X149300461Y-84703207D01*
X149448229Y-84801942D01*
X149785558Y-84869041D01*
X150223058Y-84869041D01*
X150432000Y-84827480D01*
X150432000Y-85480884D01*
X150532174Y-85722727D01*
X150717273Y-85907825D01*
X150772145Y-85930554D01*
X150695983Y-86044539D01*
X150627266Y-86390000D01*
X150627266Y-87510000D01*
X150695983Y-87855461D01*
X150759152Y-87950000D01*
X150695983Y-88044539D01*
X150627266Y-88390000D01*
X150627266Y-88951509D01*
X147791670Y-86265155D01*
X147585245Y-86133197D01*
X147241373Y-85996173D01*
X147000764Y-85950000D01*
X139900000Y-85950000D01*
X139731768Y-85972148D01*
X139481768Y-86039135D01*
X139345002Y-86118097D01*
X139246383Y-86137714D01*
X139031376Y-86281376D01*
X138887714Y-86496383D01*
X138856990Y-86650843D01*
X138839135Y-86681768D01*
X138772148Y-86931768D01*
X138750000Y-87100000D01*
X138750000Y-87250000D01*
X137840054Y-87250000D01*
X137850000Y-87200000D01*
X137850000Y-85968023D01*
X138339901Y-85674083D01*
X138426848Y-85650000D01*
X146700000Y-85650000D01*
X146868232Y-85627852D01*
X147118232Y-85560865D01*
X147409619Y-85392632D01*
X147592632Y-85209619D01*
X147760865Y-84918232D01*
X147783866Y-84832389D01*
X147860924Y-84864307D01*
X148160808Y-84864307D01*
X148325308Y-84699807D01*
X148325308Y-83835307D01*
X148305308Y-83835307D01*
X148305308Y-83627307D01*
X148325308Y-83627307D01*
X148325308Y-82335307D01*
X148305308Y-82335307D01*
X148305308Y-82127307D01*
X148325308Y-82127307D01*
X148325308Y-81262807D01*
X148160808Y-81098307D01*
X147860924Y-81098307D01*
X147619081Y-81198481D01*
X147509907Y-81307656D01*
X147409619Y-81207368D01*
X147118232Y-81039135D01*
X146868232Y-80972148D01*
X146700000Y-80950000D01*
X139650000Y-80950000D01*
X139500662Y-80967388D01*
X139277055Y-81020174D01*
X139009906Y-81153748D01*
X138833513Y-81300962D01*
X138730000Y-81410000D01*
X138262814Y-82032914D01*
X138043037Y-81813137D01*
X137528477Y-81600000D01*
X136971523Y-81600000D01*
X136456963Y-81813137D01*
X136063137Y-82206963D01*
X135850000Y-82721523D01*
X135850000Y-83278477D01*
X136063137Y-83793037D01*
X136456963Y-84186863D01*
X136602226Y-84247033D01*
X136158245Y-84839007D01*
X135417446Y-84098208D01*
X135209297Y-83958442D01*
X135112656Y-83917897D01*
X135182826Y-83847727D01*
X135283000Y-83605884D01*
X135283000Y-83118500D01*
X135118500Y-82954000D01*
X133854000Y-82954000D01*
X133854000Y-82974000D01*
X133646000Y-82974000D01*
X133646000Y-82954000D01*
X131354000Y-82954000D01*
X131354000Y-82974000D01*
X131146000Y-82974000D01*
X131146000Y-82954000D01*
X128854000Y-82954000D01*
X128854000Y-82974000D01*
X128646000Y-82974000D01*
X128646000Y-82954000D01*
X127381500Y-82954000D01*
X127217000Y-83118500D01*
X127217000Y-83605884D01*
X127289447Y-83780787D01*
X124107727Y-83751862D01*
X123857174Y-83799631D01*
X123714579Y-83857560D01*
X123500650Y-83999100D01*
X123359269Y-84209654D01*
X123300046Y-84351716D01*
X123250000Y-84601826D01*
X123250000Y-86774125D01*
X123255373Y-86857525D01*
X123261958Y-86908423D01*
X123277987Y-86990444D01*
X123732165Y-88716320D01*
X123797121Y-88874639D01*
X123957266Y-89058075D01*
X123957266Y-89150000D01*
X105725000Y-89150000D01*
X105725000Y-81018500D01*
X123442000Y-81018500D01*
X123442000Y-81880884D01*
X123542174Y-82122727D01*
X123727273Y-82307825D01*
X123969115Y-82408000D01*
X124731500Y-82408000D01*
X124896000Y-82243500D01*
X124896000Y-80854000D01*
X125104000Y-80854000D01*
X125104000Y-82243500D01*
X125268500Y-82408000D01*
X126030885Y-82408000D01*
X126272727Y-82307825D01*
X126457826Y-82122727D01*
X126469676Y-82094116D01*
X127217000Y-82094116D01*
X127217000Y-82581500D01*
X127381500Y-82746000D01*
X128646000Y-82746000D01*
X128646000Y-81731500D01*
X128854000Y-81731500D01*
X128854000Y-82746000D01*
X131146000Y-82746000D01*
X131146000Y-81731500D01*
X131354000Y-81731500D01*
X131354000Y-82746000D01*
X133646000Y-82746000D01*
X133646000Y-81731500D01*
X133854000Y-81731500D01*
X133854000Y-82746000D01*
X135118500Y-82746000D01*
X135283000Y-82581500D01*
X135283000Y-82094116D01*
X135182826Y-81852273D01*
X134997727Y-81667175D01*
X134755885Y-81567000D01*
X134018500Y-81567000D01*
X133854000Y-81731500D01*
X133646000Y-81731500D01*
X133481500Y-81567000D01*
X132744115Y-81567000D01*
X132502273Y-81667175D01*
X132500000Y-81669448D01*
X132497727Y-81667175D01*
X132255885Y-81567000D01*
X131518500Y-81567000D01*
X131354000Y-81731500D01*
X131146000Y-81731500D01*
X130981500Y-81567000D01*
X130244115Y-81567000D01*
X130002273Y-81667175D01*
X130000000Y-81669448D01*
X129997727Y-81667175D01*
X129755885Y-81567000D01*
X129018500Y-81567000D01*
X128854000Y-81731500D01*
X128646000Y-81731500D01*
X128481500Y-81567000D01*
X127744115Y-81567000D01*
X127502273Y-81667175D01*
X127317174Y-81852273D01*
X127217000Y-82094116D01*
X126469676Y-82094116D01*
X126558000Y-81880884D01*
X126558000Y-81018500D01*
X126393500Y-80854000D01*
X125104000Y-80854000D01*
X124896000Y-80854000D01*
X123606500Y-80854000D01*
X123442000Y-81018500D01*
X105725000Y-81018500D01*
X105725000Y-77792118D01*
X105773972Y-77372067D01*
X106100000Y-77372067D01*
X106100000Y-78127933D01*
X106389258Y-78826263D01*
X106923737Y-79360742D01*
X107622067Y-79650000D01*
X108377933Y-79650000D01*
X108452493Y-79619116D01*
X123442000Y-79619116D01*
X123442000Y-80481500D01*
X123606500Y-80646000D01*
X124896000Y-80646000D01*
X124896000Y-79256500D01*
X125104000Y-79256500D01*
X125104000Y-80646000D01*
X126393500Y-80646000D01*
X126558000Y-80481500D01*
X126558000Y-79619116D01*
X126457826Y-79377273D01*
X126272727Y-79192175D01*
X126030885Y-79092000D01*
X125268500Y-79092000D01*
X125104000Y-79256500D01*
X124896000Y-79256500D01*
X124731500Y-79092000D01*
X123969115Y-79092000D01*
X123727273Y-79192175D01*
X123542174Y-79377273D01*
X123442000Y-79619116D01*
X108452493Y-79619116D01*
X109076263Y-79360742D01*
X109610742Y-78826263D01*
X109900000Y-78127933D01*
X109900000Y-77372067D01*
X160100000Y-77372067D01*
X160100000Y-78127933D01*
X160389258Y-78826263D01*
X160923737Y-79360742D01*
X161622067Y-79650000D01*
X162377933Y-79650000D01*
X163076263Y-79360742D01*
X163610742Y-78826263D01*
X163900000Y-78127933D01*
X163900000Y-77372067D01*
X163610742Y-76673737D01*
X163076263Y-76139258D01*
X162377933Y-75850000D01*
X161622067Y-75850000D01*
X160923737Y-76139258D01*
X160389258Y-76673737D01*
X160100000Y-77372067D01*
X109900000Y-77372067D01*
X109610742Y-76673737D01*
X109076263Y-76139258D01*
X108377933Y-75850000D01*
X107622067Y-75850000D01*
X106923737Y-76139258D01*
X106389258Y-76673737D01*
X106100000Y-77372067D01*
X105773972Y-77372067D01*
X105790796Y-77227767D01*
X105970189Y-76733548D01*
X106258466Y-76293853D01*
X106640165Y-75932267D01*
X107094807Y-75668191D01*
X107607498Y-75512912D01*
X108032291Y-75475000D01*
X161957882Y-75475000D01*
X162522233Y-75540796D01*
X162522233Y-75540796D01*
G37*
X162522233Y-75540796D02*
X163016452Y-75720189D01*
X163456147Y-76008466D01*
X163817733Y-76390165D01*
X164081809Y-76844807D01*
X164237088Y-77357498D01*
X164275001Y-77782302D01*
X164275000Y-81571403D01*
X164275001Y-81571408D01*
X164275000Y-97707882D01*
X164209203Y-98272233D01*
X164029811Y-98766452D01*
X163741533Y-99206149D01*
X163359835Y-99567733D01*
X162905196Y-99831808D01*
X162392502Y-99987088D01*
X161967710Y-100025000D01*
X129677034Y-100025000D01*
X129682715Y-97372067D01*
X160100000Y-97372067D01*
X160100000Y-98127933D01*
X160389258Y-98826263D01*
X160923737Y-99360742D01*
X161622067Y-99650000D01*
X162377933Y-99650000D01*
X163076263Y-99360742D01*
X163610742Y-98826263D01*
X163900000Y-98127933D01*
X163900000Y-97372067D01*
X163610742Y-96673737D01*
X163076263Y-96139258D01*
X162377933Y-95850000D01*
X161622067Y-95850000D01*
X160923737Y-96139258D01*
X160389258Y-96673737D01*
X160100000Y-97372067D01*
X129682715Y-97372067D01*
X129683710Y-96907591D01*
X129709619Y-96892632D01*
X129892632Y-96709619D01*
X130060865Y-96418232D01*
X130127852Y-96168232D01*
X130150000Y-96000000D01*
X130150000Y-93556000D01*
X132617000Y-93556000D01*
X132617000Y-93855884D01*
X132717174Y-94097727D01*
X132902273Y-94282825D01*
X133144115Y-94383000D01*
X133481500Y-94383000D01*
X133646000Y-94218500D01*
X133646000Y-93391500D01*
X132781500Y-93391500D01*
X132617000Y-93556000D01*
X130150000Y-93556000D01*
X130150000Y-91838087D01*
X130140142Y-91725311D01*
X130110039Y-91554440D01*
X130080763Y-91445083D01*
X129967278Y-91133000D01*
X129981500Y-91133000D01*
X130146000Y-90968500D01*
X130146000Y-90141500D01*
X130126000Y-90141500D01*
X130126000Y-89933500D01*
X130146000Y-89933500D01*
X130146000Y-89913500D01*
X130354000Y-89913500D01*
X130354000Y-89933500D01*
X130374000Y-89933500D01*
X130374000Y-90141500D01*
X130354000Y-90141500D01*
X130354000Y-90968500D01*
X130518500Y-91133000D01*
X130687100Y-91133000D01*
X130613137Y-91206963D01*
X130400000Y-91721523D01*
X130400000Y-92278477D01*
X130613137Y-92793037D01*
X131006963Y-93186863D01*
X131521523Y-93400000D01*
X132078477Y-93400000D01*
X132593037Y-93186863D01*
X132688950Y-93090950D01*
X132781500Y-93183500D01*
X133646000Y-93183500D01*
X133646000Y-93163500D01*
X133854000Y-93163500D01*
X133854000Y-93183500D01*
X133874000Y-93183500D01*
X133874000Y-93391500D01*
X133854000Y-93391500D01*
X133854000Y-94218500D01*
X134018500Y-94383000D01*
X134355885Y-94383000D01*
X134554931Y-94300552D01*
X134684414Y-94494338D01*
X134684417Y-94494341D01*
X134742994Y-94582007D01*
X134830659Y-94640583D01*
X136059415Y-95869339D01*
X136117993Y-95957007D01*
X136465311Y-96189078D01*
X136771587Y-96250000D01*
X136771592Y-96250000D01*
X136875000Y-96270569D01*
X136978408Y-96250000D01*
X139896592Y-96250000D01*
X140000000Y-96270569D01*
X140103408Y-96250000D01*
X140103413Y-96250000D01*
X140409689Y-96189078D01*
X140757007Y-95957007D01*
X140815585Y-95869339D01*
X142669342Y-94015583D01*
X142757007Y-93957007D01*
X142815583Y-93869342D01*
X142815586Y-93869339D01*
X142989077Y-93609690D01*
X142989078Y-93609689D01*
X143004730Y-93530999D01*
X143142000Y-93530999D01*
X143142000Y-93880883D01*
X143242174Y-94122726D01*
X143427273Y-94307824D01*
X143669115Y-94407999D01*
X144231500Y-94407999D01*
X144396000Y-94243499D01*
X144396000Y-93366499D01*
X144604000Y-93366499D01*
X144604000Y-94243499D01*
X144768500Y-94407999D01*
X145330885Y-94407999D01*
X145572727Y-94307824D01*
X145625000Y-94255551D01*
X145677273Y-94307824D01*
X145919115Y-94407999D01*
X146481500Y-94407999D01*
X146646000Y-94243499D01*
X146646000Y-93366499D01*
X146854000Y-93366499D01*
X146854000Y-94243499D01*
X147018500Y-94407999D01*
X147580885Y-94407999D01*
X147822727Y-94307824D01*
X147875000Y-94255551D01*
X147927273Y-94307824D01*
X148169115Y-94407999D01*
X148731500Y-94407999D01*
X148896000Y-94243499D01*
X148896000Y-93366499D01*
X149104000Y-93366499D01*
X149104000Y-94243499D01*
X149268500Y-94407999D01*
X149830885Y-94407999D01*
X150072727Y-94307824D01*
X150257826Y-94122726D01*
X150358000Y-93880883D01*
X150358000Y-93530999D01*
X150193500Y-93366499D01*
X149104000Y-93366499D01*
X148896000Y-93366499D01*
X146854000Y-93366499D01*
X146646000Y-93366499D01*
X144604000Y-93366499D01*
X144396000Y-93366499D01*
X143306500Y-93366499D01*
X143142000Y-93530999D01*
X143004730Y-93530999D01*
X143050000Y-93303413D01*
X143050000Y-93303409D01*
X143070569Y-93200001D01*
X143050000Y-93096593D01*
X143050000Y-92658029D01*
X143142000Y-92701838D01*
X143142000Y-92993999D01*
X143306500Y-93158499D01*
X144396000Y-93158499D01*
X144396000Y-93138499D01*
X144604000Y-93138499D01*
X144604000Y-93158499D01*
X146646000Y-93158499D01*
X146646000Y-93138499D01*
X146854000Y-93138499D01*
X146854000Y-93158499D01*
X148896000Y-93158499D01*
X148896000Y-93138499D01*
X149104000Y-93138499D01*
X149104000Y-93158499D01*
X150193500Y-93158499D01*
X150358000Y-92993999D01*
X150358000Y-92953202D01*
X150513484Y-93056858D01*
X150685678Y-93138135D01*
X150963028Y-93222110D01*
X151151388Y-93250000D01*
X152457711Y-93250000D01*
X152150000Y-93992882D01*
X152150000Y-95047118D01*
X152553438Y-96021105D01*
X153298895Y-96766562D01*
X154272882Y-97170000D01*
X155327118Y-97170000D01*
X156301105Y-96766562D01*
X157046562Y-96021105D01*
X157450000Y-95047118D01*
X157450000Y-93992882D01*
X157046562Y-93018895D01*
X156301105Y-92273438D01*
X156200000Y-92231559D01*
X156200000Y-84134926D01*
X156395191Y-84054075D01*
X156606066Y-83913172D01*
X157313172Y-83206066D01*
X157454075Y-82995191D01*
X157600522Y-82641637D01*
X157650000Y-82392893D01*
X157650000Y-80581025D01*
X157611177Y-80359749D01*
X157495288Y-80039657D01*
X157383455Y-79844813D01*
X156649267Y-78963788D01*
X156546930Y-78865238D01*
X156374897Y-78732535D01*
X156119114Y-78612732D01*
X155907037Y-78565527D01*
X155765813Y-78550000D01*
X154513785Y-78550000D01*
X154369553Y-78566204D01*
X154153188Y-78615442D01*
X154016145Y-78663248D01*
X149402359Y-80877865D01*
X149250973Y-80978773D01*
X149079135Y-81132041D01*
X148997692Y-81098307D01*
X148697808Y-81098307D01*
X148533308Y-81262807D01*
X148533308Y-82127307D01*
X148553308Y-82127307D01*
X148553308Y-82335307D01*
X148533308Y-82335307D01*
X148533308Y-83627307D01*
X148553308Y-83627307D01*
X148553308Y-83835307D01*
X148533308Y-83835307D01*
X148533308Y-84699807D01*
X148697808Y-84864307D01*
X148997692Y-84864307D01*
X149239535Y-84764133D01*
X149300461Y-84703207D01*
X149448229Y-84801942D01*
X149785558Y-84869041D01*
X150223058Y-84869041D01*
X150432000Y-84827480D01*
X150432000Y-85480884D01*
X150532174Y-85722727D01*
X150717273Y-85907825D01*
X150772145Y-85930554D01*
X150695983Y-86044539D01*
X150627266Y-86390000D01*
X150627266Y-87510000D01*
X150695983Y-87855461D01*
X150759152Y-87950000D01*
X150695983Y-88044539D01*
X150627266Y-88390000D01*
X150627266Y-88951509D01*
X147791670Y-86265155D01*
X147585245Y-86133197D01*
X147241373Y-85996173D01*
X147000764Y-85950000D01*
X139900000Y-85950000D01*
X139731768Y-85972148D01*
X139481768Y-86039135D01*
X139345002Y-86118097D01*
X139246383Y-86137714D01*
X139031376Y-86281376D01*
X138887714Y-86496383D01*
X138856990Y-86650843D01*
X138839135Y-86681768D01*
X138772148Y-86931768D01*
X138750000Y-87100000D01*
X138750000Y-87250000D01*
X137840054Y-87250000D01*
X137850000Y-87200000D01*
X137850000Y-85968023D01*
X138339901Y-85674083D01*
X138426848Y-85650000D01*
X146700000Y-85650000D01*
X146868232Y-85627852D01*
X147118232Y-85560865D01*
X147409619Y-85392632D01*
X147592632Y-85209619D01*
X147760865Y-84918232D01*
X147783866Y-84832389D01*
X147860924Y-84864307D01*
X148160808Y-84864307D01*
X148325308Y-84699807D01*
X148325308Y-83835307D01*
X148305308Y-83835307D01*
X148305308Y-83627307D01*
X148325308Y-83627307D01*
X148325308Y-82335307D01*
X148305308Y-82335307D01*
X148305308Y-82127307D01*
X148325308Y-82127307D01*
X148325308Y-81262807D01*
X148160808Y-81098307D01*
X147860924Y-81098307D01*
X147619081Y-81198481D01*
X147509907Y-81307656D01*
X147409619Y-81207368D01*
X147118232Y-81039135D01*
X146868232Y-80972148D01*
X146700000Y-80950000D01*
X139650000Y-80950000D01*
X139500662Y-80967388D01*
X139277055Y-81020174D01*
X139009906Y-81153748D01*
X138833513Y-81300962D01*
X138730000Y-81410000D01*
X138262814Y-82032914D01*
X138043037Y-81813137D01*
X137528477Y-81600000D01*
X136971523Y-81600000D01*
X136456963Y-81813137D01*
X136063137Y-82206963D01*
X135850000Y-82721523D01*
X135850000Y-83278477D01*
X136063137Y-83793037D01*
X136456963Y-84186863D01*
X136602226Y-84247033D01*
X136158245Y-84839007D01*
X135417446Y-84098208D01*
X135209297Y-83958442D01*
X135112656Y-83917897D01*
X135182826Y-83847727D01*
X135283000Y-83605884D01*
X135283000Y-83118500D01*
X135118500Y-82954000D01*
X133854000Y-82954000D01*
X133854000Y-82974000D01*
X133646000Y-82974000D01*
X133646000Y-82954000D01*
X131354000Y-82954000D01*
X131354000Y-82974000D01*
X131146000Y-82974000D01*
X131146000Y-82954000D01*
X128854000Y-82954000D01*
X128854000Y-82974000D01*
X128646000Y-82974000D01*
X128646000Y-82954000D01*
X127381500Y-82954000D01*
X127217000Y-83118500D01*
X127217000Y-83605884D01*
X127289447Y-83780787D01*
X124107727Y-83751862D01*
X123857174Y-83799631D01*
X123714579Y-83857560D01*
X123500650Y-83999100D01*
X123359269Y-84209654D01*
X123300046Y-84351716D01*
X123250000Y-84601826D01*
X123250000Y-86774125D01*
X123255373Y-86857525D01*
X123261958Y-86908423D01*
X123277987Y-86990444D01*
X123732165Y-88716320D01*
X123797121Y-88874639D01*
X123957266Y-89058075D01*
X123957266Y-89150000D01*
X105725000Y-89150000D01*
X105725000Y-81018500D01*
X123442000Y-81018500D01*
X123442000Y-81880884D01*
X123542174Y-82122727D01*
X123727273Y-82307825D01*
X123969115Y-82408000D01*
X124731500Y-82408000D01*
X124896000Y-82243500D01*
X124896000Y-80854000D01*
X125104000Y-80854000D01*
X125104000Y-82243500D01*
X125268500Y-82408000D01*
X126030885Y-82408000D01*
X126272727Y-82307825D01*
X126457826Y-82122727D01*
X126469676Y-82094116D01*
X127217000Y-82094116D01*
X127217000Y-82581500D01*
X127381500Y-82746000D01*
X128646000Y-82746000D01*
X128646000Y-81731500D01*
X128854000Y-81731500D01*
X128854000Y-82746000D01*
X131146000Y-82746000D01*
X131146000Y-81731500D01*
X131354000Y-81731500D01*
X131354000Y-82746000D01*
X133646000Y-82746000D01*
X133646000Y-81731500D01*
X133854000Y-81731500D01*
X133854000Y-82746000D01*
X135118500Y-82746000D01*
X135283000Y-82581500D01*
X135283000Y-82094116D01*
X135182826Y-81852273D01*
X134997727Y-81667175D01*
X134755885Y-81567000D01*
X134018500Y-81567000D01*
X133854000Y-81731500D01*
X133646000Y-81731500D01*
X133481500Y-81567000D01*
X132744115Y-81567000D01*
X132502273Y-81667175D01*
X132500000Y-81669448D01*
X132497727Y-81667175D01*
X132255885Y-81567000D01*
X131518500Y-81567000D01*
X131354000Y-81731500D01*
X131146000Y-81731500D01*
X130981500Y-81567000D01*
X130244115Y-81567000D01*
X130002273Y-81667175D01*
X130000000Y-81669448D01*
X129997727Y-81667175D01*
X129755885Y-81567000D01*
X129018500Y-81567000D01*
X128854000Y-81731500D01*
X128646000Y-81731500D01*
X128481500Y-81567000D01*
X127744115Y-81567000D01*
X127502273Y-81667175D01*
X127317174Y-81852273D01*
X127217000Y-82094116D01*
X126469676Y-82094116D01*
X126558000Y-81880884D01*
X126558000Y-81018500D01*
X126393500Y-80854000D01*
X125104000Y-80854000D01*
X124896000Y-80854000D01*
X123606500Y-80854000D01*
X123442000Y-81018500D01*
X105725000Y-81018500D01*
X105725000Y-77792118D01*
X105773972Y-77372067D01*
X106100000Y-77372067D01*
X106100000Y-78127933D01*
X106389258Y-78826263D01*
X106923737Y-79360742D01*
X107622067Y-79650000D01*
X108377933Y-79650000D01*
X108452493Y-79619116D01*
X123442000Y-79619116D01*
X123442000Y-80481500D01*
X123606500Y-80646000D01*
X124896000Y-80646000D01*
X124896000Y-79256500D01*
X125104000Y-79256500D01*
X125104000Y-80646000D01*
X126393500Y-80646000D01*
X126558000Y-80481500D01*
X126558000Y-79619116D01*
X126457826Y-79377273D01*
X126272727Y-79192175D01*
X126030885Y-79092000D01*
X125268500Y-79092000D01*
X125104000Y-79256500D01*
X124896000Y-79256500D01*
X124731500Y-79092000D01*
X123969115Y-79092000D01*
X123727273Y-79192175D01*
X123542174Y-79377273D01*
X123442000Y-79619116D01*
X108452493Y-79619116D01*
X109076263Y-79360742D01*
X109610742Y-78826263D01*
X109900000Y-78127933D01*
X109900000Y-77372067D01*
X160100000Y-77372067D01*
X160100000Y-78127933D01*
X160389258Y-78826263D01*
X160923737Y-79360742D01*
X161622067Y-79650000D01*
X162377933Y-79650000D01*
X163076263Y-79360742D01*
X163610742Y-78826263D01*
X163900000Y-78127933D01*
X163900000Y-77372067D01*
X163610742Y-76673737D01*
X163076263Y-76139258D01*
X162377933Y-75850000D01*
X161622067Y-75850000D01*
X160923737Y-76139258D01*
X160389258Y-76673737D01*
X160100000Y-77372067D01*
X109900000Y-77372067D01*
X109610742Y-76673737D01*
X109076263Y-76139258D01*
X108377933Y-75850000D01*
X107622067Y-75850000D01*
X106923737Y-76139258D01*
X106389258Y-76673737D01*
X106100000Y-77372067D01*
X105773972Y-77372067D01*
X105790796Y-77227767D01*
X105970189Y-76733548D01*
X106258466Y-76293853D01*
X106640165Y-75932267D01*
X107094807Y-75668191D01*
X107607498Y-75512912D01*
X108032291Y-75475000D01*
X161957882Y-75475000D01*
X162522233Y-75540796D01*
G36*
X132104000Y-88358500D02*
X132124000Y-88358500D01*
X132124000Y-88566500D01*
X132104000Y-88566500D01*
X132104000Y-88586500D01*
X131896000Y-88586500D01*
X131896000Y-88566500D01*
X131876000Y-88566500D01*
X131876000Y-88358500D01*
X131896000Y-88358500D01*
X131896000Y-88338500D01*
X132104000Y-88338500D01*
X132104000Y-88358500D01*
X132104000Y-88358500D01*
G37*
X132104000Y-88358500D02*
X132124000Y-88358500D01*
X132124000Y-88566500D01*
X132104000Y-88566500D01*
X132104000Y-88586500D01*
X131896000Y-88586500D01*
X131896000Y-88566500D01*
X131876000Y-88566500D01*
X131876000Y-88358500D01*
X131896000Y-88358500D01*
X131896000Y-88338500D01*
X132104000Y-88338500D01*
X132104000Y-88358500D01*
G36*
X132195625Y-87439875D02*
X132150000Y-87485500D01*
X132150000Y-87333416D01*
X132195625Y-87439875D01*
X132195625Y-87439875D01*
G37*
X132195625Y-87439875D02*
X132150000Y-87485500D01*
X132150000Y-87333416D01*
X132195625Y-87439875D01*
G36*
X152194000Y-84346000D02*
X152214000Y-84346000D01*
X152214000Y-84554000D01*
X152194000Y-84554000D01*
X152194000Y-84574000D01*
X151986000Y-84574000D01*
X151986000Y-84554000D01*
X151966000Y-84554000D01*
X151966000Y-84346000D01*
X151986000Y-84346000D01*
X151986000Y-84326000D01*
X152194000Y-84326000D01*
X152194000Y-84346000D01*
X152194000Y-84346000D01*
G37*
X152194000Y-84346000D02*
X152214000Y-84346000D01*
X152214000Y-84554000D01*
X152194000Y-84554000D01*
X152194000Y-84574000D01*
X151986000Y-84574000D01*
X151986000Y-84554000D01*
X151966000Y-84554000D01*
X151966000Y-84346000D01*
X151986000Y-84346000D01*
X151986000Y-84326000D01*
X152194000Y-84326000D01*
X152194000Y-84346000D01*
D29*
G04 #@! TO.N,+24V*
G36*
X124373000Y-96873000D02*
X111877000Y-96873000D01*
X111877000Y-92627000D01*
X124373000Y-92627000D01*
X124373000Y-96873000D01*
X124373000Y-96873000D01*
G37*
X124373000Y-96873000D02*
X111877000Y-96873000D01*
X111877000Y-92627000D01*
X124373000Y-92627000D01*
X124373000Y-96873000D01*
G04 #@! TO.N,/FUSED*
G36*
X128784259Y-89180852D02*
X128919148Y-89315741D01*
X128973000Y-89516721D01*
X128973000Y-90561913D01*
X128974926Y-90583948D01*
X129005029Y-90754819D01*
X129010749Y-90776185D01*
X129346749Y-91700184D01*
X129373000Y-91849190D01*
X129373000Y-95983279D01*
X129319148Y-96184259D01*
X129184259Y-96319148D01*
X128983279Y-96373000D01*
X127416678Y-96373000D01*
X127168552Y-96286773D01*
X127027367Y-96065258D01*
X125814821Y-90955240D01*
X125798349Y-90916302D01*
X125621922Y-90639492D01*
X125587648Y-90603704D01*
X125556513Y-90587788D01*
X125246448Y-90480037D01*
X125204760Y-90473000D01*
X125116721Y-90473000D01*
X124915741Y-90419148D01*
X124780852Y-90284259D01*
X124727000Y-90083279D01*
X124727000Y-89516721D01*
X124780852Y-89315741D01*
X124915741Y-89180852D01*
X125116721Y-89127000D01*
X128583279Y-89127000D01*
X128784259Y-89180852D01*
X128784259Y-89180852D01*
G37*
X128784259Y-89180852D02*
X128919148Y-89315741D01*
X128973000Y-89516721D01*
X128973000Y-90561913D01*
X128974926Y-90583948D01*
X129005029Y-90754819D01*
X129010749Y-90776185D01*
X129346749Y-91700184D01*
X129373000Y-91849190D01*
X129373000Y-95983279D01*
X129319148Y-96184259D01*
X129184259Y-96319148D01*
X128983279Y-96373000D01*
X127416678Y-96373000D01*
X127168552Y-96286773D01*
X127027367Y-96065258D01*
X125814821Y-90955240D01*
X125798349Y-90916302D01*
X125621922Y-90639492D01*
X125587648Y-90603704D01*
X125556513Y-90587788D01*
X125246448Y-90480037D01*
X125204760Y-90473000D01*
X125116721Y-90473000D01*
X124915741Y-90419148D01*
X124780852Y-90284259D01*
X124727000Y-90083279D01*
X124727000Y-89516721D01*
X124780852Y-89315741D01*
X124915741Y-89180852D01*
X125116721Y-89127000D01*
X128583279Y-89127000D01*
X128784259Y-89180852D01*
D25*
G04 #@! TO.N,/PR_INPUT*
G36*
X134792521Y-84624029D02*
X134886812Y-84663588D01*
X135935451Y-85712227D01*
X135975000Y-85807707D01*
X135975000Y-87300825D01*
X135876455Y-87427039D01*
X135584611Y-87500000D01*
X135249240Y-87500000D01*
X135199999Y-87490205D01*
X135150758Y-87500000D01*
X135150757Y-87500000D01*
X135004910Y-87529011D01*
X134839520Y-87639520D01*
X134811625Y-87681268D01*
X134795653Y-87697240D01*
X134621176Y-87740859D01*
X134577077Y-87761692D01*
X134552967Y-87785200D01*
X134401474Y-87979228D01*
X134379536Y-88022788D01*
X134375000Y-88056155D01*
X134375000Y-88136083D01*
X134329011Y-88204911D01*
X134306370Y-88318734D01*
X134290205Y-88400000D01*
X134300000Y-88449242D01*
X134300001Y-88964700D01*
X134275135Y-88975000D01*
X133324865Y-88975000D01*
X133254250Y-88945750D01*
X133225000Y-88875135D01*
X133225000Y-87941052D01*
X133222447Y-87915919D01*
X133206276Y-87837135D01*
X133198722Y-87813028D01*
X132666843Y-86571976D01*
X132620761Y-86516861D01*
X132436932Y-86395645D01*
X132368121Y-86375000D01*
X126500000Y-86375000D01*
X126452164Y-86384515D01*
X126310743Y-86443094D01*
X126270190Y-86470191D01*
X126243094Y-86510743D01*
X126184515Y-86652164D01*
X126175000Y-86700000D01*
X126175000Y-88475135D01*
X126147032Y-88542654D01*
X124620000Y-88542654D01*
X124568178Y-88552962D01*
X124470809Y-88477901D01*
X124029519Y-86801001D01*
X124025000Y-86766071D01*
X124025000Y-84626838D01*
X124054548Y-84555959D01*
X124125691Y-84527057D01*
X134792521Y-84624029D01*
X134792521Y-84624029D01*
G37*
X134792521Y-84624029D02*
X134886812Y-84663588D01*
X135935451Y-85712227D01*
X135975000Y-85807707D01*
X135975000Y-87300825D01*
X135876455Y-87427039D01*
X135584611Y-87500000D01*
X135249240Y-87500000D01*
X135199999Y-87490205D01*
X135150758Y-87500000D01*
X135150757Y-87500000D01*
X135004910Y-87529011D01*
X134839520Y-87639520D01*
X134811625Y-87681268D01*
X134795653Y-87697240D01*
X134621176Y-87740859D01*
X134577077Y-87761692D01*
X134552967Y-87785200D01*
X134401474Y-87979228D01*
X134379536Y-88022788D01*
X134375000Y-88056155D01*
X134375000Y-88136083D01*
X134329011Y-88204911D01*
X134306370Y-88318734D01*
X134290205Y-88400000D01*
X134300000Y-88449242D01*
X134300001Y-88964700D01*
X134275135Y-88975000D01*
X133324865Y-88975000D01*
X133254250Y-88945750D01*
X133225000Y-88875135D01*
X133225000Y-87941052D01*
X133222447Y-87915919D01*
X133206276Y-87837135D01*
X133198722Y-87813028D01*
X132666843Y-86571976D01*
X132620761Y-86516861D01*
X132436932Y-86395645D01*
X132368121Y-86375000D01*
X126500000Y-86375000D01*
X126452164Y-86384515D01*
X126310743Y-86443094D01*
X126270190Y-86470191D01*
X126243094Y-86510743D01*
X126184515Y-86652164D01*
X126175000Y-86700000D01*
X126175000Y-88475135D01*
X126147032Y-88542654D01*
X124620000Y-88542654D01*
X124568178Y-88552962D01*
X124470809Y-88477901D01*
X124029519Y-86801001D01*
X124025000Y-86766071D01*
X124025000Y-84626838D01*
X124054548Y-84555959D01*
X124125691Y-84527057D01*
X134792521Y-84624029D01*
D28*
G04 #@! TO.N,/SW*
G36*
X146872355Y-81801474D02*
X146998526Y-81927645D01*
X147050000Y-82119748D01*
X147050000Y-84480252D01*
X146998526Y-84672355D01*
X146872355Y-84798526D01*
X146680252Y-84850000D01*
X138338492Y-84850000D01*
X138298452Y-84855443D01*
X138041204Y-84926697D01*
X138004070Y-84942630D01*
X137365578Y-85325725D01*
X137335356Y-85349629D01*
X137251353Y-85435779D01*
X137199419Y-85446109D01*
X137050568Y-85545568D01*
X136951109Y-85694419D01*
X136916184Y-85870000D01*
X136916184Y-87389516D01*
X136800000Y-87437641D01*
X136631962Y-87368038D01*
X136583816Y-87251803D01*
X136583816Y-85870000D01*
X136561338Y-85756994D01*
X136634604Y-85537195D01*
X139359521Y-81903972D01*
X139495320Y-81790637D01*
X139667464Y-81750000D01*
X146680252Y-81750000D01*
X146872355Y-81801474D01*
X146872355Y-81801474D01*
G37*
X146872355Y-81801474D02*
X146998526Y-81927645D01*
X147050000Y-82119748D01*
X147050000Y-84480252D01*
X146998526Y-84672355D01*
X146872355Y-84798526D01*
X146680252Y-84850000D01*
X138338492Y-84850000D01*
X138298452Y-84855443D01*
X138041204Y-84926697D01*
X138004070Y-84942630D01*
X137365578Y-85325725D01*
X137335356Y-85349629D01*
X137251353Y-85435779D01*
X137199419Y-85446109D01*
X137050568Y-85545568D01*
X136951109Y-85694419D01*
X136916184Y-85870000D01*
X136916184Y-87389516D01*
X136800000Y-87437641D01*
X136631962Y-87368038D01*
X136583816Y-87251803D01*
X136583816Y-85870000D01*
X136561338Y-85756994D01*
X136634604Y-85537195D01*
X139359521Y-81903972D01*
X139495320Y-81790637D01*
X139667464Y-81750000D01*
X146680252Y-81750000D01*
X146872355Y-81801474D01*
G04 #@! TO.N,/VBUS*
G36*
X147262370Y-86865714D02*
X150752202Y-90171869D01*
X150799839Y-90202321D01*
X151143711Y-90339345D01*
X151199236Y-90350000D01*
X152955500Y-90350000D01*
X153084626Y-90386682D01*
X153175178Y-90485767D01*
X153205240Y-90545891D01*
X153250000Y-90735498D01*
X153250000Y-91963055D01*
X153126389Y-92261479D01*
X153061479Y-92326389D01*
X152763055Y-92450000D01*
X151173599Y-92450000D01*
X150938763Y-92378897D01*
X150609167Y-92159167D01*
X150569430Y-92140411D01*
X150292080Y-92056436D01*
X150248612Y-92050000D01*
X143729705Y-92050000D01*
X143547384Y-92008806D01*
X139768718Y-90209442D01*
X139609255Y-90067876D01*
X139550000Y-89863040D01*
X139550000Y-87119748D01*
X139601474Y-86927645D01*
X139727645Y-86801474D01*
X139919748Y-86750000D01*
X146971979Y-86750000D01*
X147262370Y-86865714D01*
X147262370Y-86865714D01*
G37*
X147262370Y-86865714D02*
X150752202Y-90171869D01*
X150799839Y-90202321D01*
X151143711Y-90339345D01*
X151199236Y-90350000D01*
X152955500Y-90350000D01*
X153084626Y-90386682D01*
X153175178Y-90485767D01*
X153205240Y-90545891D01*
X153250000Y-90735498D01*
X153250000Y-91963055D01*
X153126389Y-92261479D01*
X153061479Y-92326389D01*
X152763055Y-92450000D01*
X151173599Y-92450000D01*
X150938763Y-92378897D01*
X150609167Y-92159167D01*
X150569430Y-92140411D01*
X150292080Y-92056436D01*
X150248612Y-92050000D01*
X143729705Y-92050000D01*
X143547384Y-92008806D01*
X139768718Y-90209442D01*
X139609255Y-90067876D01*
X139550000Y-89863040D01*
X139550000Y-87119748D01*
X139601474Y-86927645D01*
X139727645Y-86801474D01*
X139919748Y-86750000D01*
X146971979Y-86750000D01*
X147262370Y-86865714D01*
G04 #@! TO.N,/SHIELD*
G36*
X155912710Y-79386368D02*
X156045247Y-79488605D01*
X156752029Y-80336742D01*
X156850000Y-80607344D01*
X156850000Y-82363055D01*
X156726389Y-82661479D01*
X156061479Y-83326389D01*
X155763055Y-83450000D01*
X153973599Y-83450000D01*
X153738763Y-83378897D01*
X153534519Y-83242734D01*
X153479543Y-83160457D01*
X153176942Y-82958266D01*
X153078420Y-82938669D01*
X152809167Y-82759167D01*
X152769430Y-82740411D01*
X152492080Y-82656436D01*
X152448612Y-82650000D01*
X149919748Y-82650000D01*
X149727645Y-82598526D01*
X149601474Y-82472355D01*
X149550000Y-82280252D01*
X149550000Y-81935816D01*
X149608941Y-81731473D01*
X149767658Y-81589908D01*
X154347134Y-79391760D01*
X154530639Y-79350000D01*
X155749320Y-79350000D01*
X155912710Y-79386368D01*
X155912710Y-79386368D01*
G37*
X155912710Y-79386368D02*
X156045247Y-79488605D01*
X156752029Y-80336742D01*
X156850000Y-80607344D01*
X156850000Y-82363055D01*
X156726389Y-82661479D01*
X156061479Y-83326389D01*
X155763055Y-83450000D01*
X153973599Y-83450000D01*
X153738763Y-83378897D01*
X153534519Y-83242734D01*
X153479543Y-83160457D01*
X153176942Y-82958266D01*
X153078420Y-82938669D01*
X152809167Y-82759167D01*
X152769430Y-82740411D01*
X152492080Y-82656436D01*
X152448612Y-82650000D01*
X149919748Y-82650000D01*
X149727645Y-82598526D01*
X149601474Y-82472355D01*
X149550000Y-82280252D01*
X149550000Y-81935816D01*
X149608941Y-81731473D01*
X149767658Y-81589908D01*
X154347134Y-79391760D01*
X154530639Y-79350000D01*
X155749320Y-79350000D01*
X155912710Y-79386368D01*
G04 #@! TD*
M02*
