G04 #@! TF.GenerationSoftware,KiCad,Pcbnew,5.0.2-bee76a0~70~ubuntu16.04.1*
G04 #@! TF.CreationDate,2019-02-28T19:01:00+01:00*
G04 #@! TF.ProjectId,24VDC_to_USB_voltage_converter,32345644-435f-4746-9f5f-5553425f766f,rev?*
G04 #@! TF.SameCoordinates,Original*
G04 #@! TF.FileFunction,Soldermask,Bot*
G04 #@! TF.FilePolarity,Negative*
%FSLAX46Y46*%
G04 Gerber Fmt 4.6, Leading zero omitted, Abs format (unit mm)*
G04 Created by KiCad (PCBNEW 5.0.2-bee76a0~70~ubuntu16.04.1) date Thu 28 Feb 2019 07:01:00 PM CET*
%MOMM*%
%LPD*%
G01*
G04 APERTURE LIST*
%ADD10C,0.100000*%
G04 APERTURE END LIST*
D10*
G36*
X108379485Y-96498996D02*
X108379487Y-96498997D01*
X108379488Y-96498997D01*
X108497253Y-96547777D01*
X108616255Y-96597069D01*
X108829342Y-96739449D01*
X109010551Y-96920658D01*
X109152931Y-97133745D01*
X109251004Y-97370515D01*
X109301000Y-97621861D01*
X109301000Y-97878139D01*
X109251004Y-98129485D01*
X109152931Y-98366255D01*
X109010551Y-98579342D01*
X108829342Y-98760551D01*
X108829339Y-98760553D01*
X108616255Y-98902931D01*
X108379488Y-99001003D01*
X108379487Y-99001003D01*
X108379485Y-99001004D01*
X108128139Y-99051000D01*
X107871861Y-99051000D01*
X107620515Y-99001004D01*
X107620513Y-99001003D01*
X107620512Y-99001003D01*
X107383745Y-98902931D01*
X107170661Y-98760553D01*
X107170658Y-98760551D01*
X106989449Y-98579342D01*
X106847069Y-98366255D01*
X106748996Y-98129485D01*
X106699000Y-97878139D01*
X106699000Y-97621861D01*
X106748996Y-97370515D01*
X106847069Y-97133745D01*
X106989449Y-96920658D01*
X107170658Y-96739449D01*
X107383745Y-96597069D01*
X107502747Y-96547777D01*
X107620512Y-96498997D01*
X107620513Y-96498997D01*
X107620515Y-96498996D01*
X107871861Y-96449000D01*
X108128139Y-96449000D01*
X108379485Y-96498996D01*
X108379485Y-96498996D01*
G37*
G36*
X162379485Y-96498996D02*
X162379487Y-96498997D01*
X162379488Y-96498997D01*
X162497253Y-96547777D01*
X162616255Y-96597069D01*
X162829342Y-96739449D01*
X163010551Y-96920658D01*
X163152931Y-97133745D01*
X163251004Y-97370515D01*
X163301000Y-97621861D01*
X163301000Y-97878139D01*
X163251004Y-98129485D01*
X163152931Y-98366255D01*
X163010551Y-98579342D01*
X162829342Y-98760551D01*
X162829339Y-98760553D01*
X162616255Y-98902931D01*
X162379488Y-99001003D01*
X162379487Y-99001003D01*
X162379485Y-99001004D01*
X162128139Y-99051000D01*
X161871861Y-99051000D01*
X161620515Y-99001004D01*
X161620513Y-99001003D01*
X161620512Y-99001003D01*
X161383745Y-98902931D01*
X161170661Y-98760553D01*
X161170658Y-98760551D01*
X160989449Y-98579342D01*
X160847069Y-98366255D01*
X160748996Y-98129485D01*
X160699000Y-97878139D01*
X160699000Y-97621861D01*
X160748996Y-97370515D01*
X160847069Y-97133745D01*
X160989449Y-96920658D01*
X161170658Y-96739449D01*
X161383745Y-96597069D01*
X161502747Y-96547777D01*
X161620512Y-96498997D01*
X161620513Y-96498997D01*
X161620515Y-96498996D01*
X161871861Y-96449000D01*
X162128139Y-96449000D01*
X162379485Y-96498996D01*
X162379485Y-96498996D01*
G37*
G36*
X120801200Y-92705553D02*
X120859273Y-92723170D01*
X120912805Y-92751783D01*
X120959717Y-92790283D01*
X120998217Y-92837195D01*
X121026830Y-92890727D01*
X121044447Y-92948800D01*
X121051000Y-93015340D01*
X121051000Y-96484660D01*
X121044447Y-96551200D01*
X121026830Y-96609273D01*
X120998217Y-96662805D01*
X120959717Y-96709717D01*
X120912805Y-96748217D01*
X120859273Y-96776830D01*
X120801200Y-96794447D01*
X120734660Y-96801000D01*
X117265340Y-96801000D01*
X117198800Y-96794447D01*
X117140727Y-96776830D01*
X117087195Y-96748217D01*
X117040283Y-96709717D01*
X117001783Y-96662805D01*
X116973170Y-96609273D01*
X116955553Y-96551200D01*
X116949000Y-96484660D01*
X116949000Y-93015340D01*
X116955553Y-92948800D01*
X116973170Y-92890727D01*
X117001783Y-92837195D01*
X117040283Y-92790283D01*
X117087195Y-92751783D01*
X117140727Y-92723170D01*
X117198800Y-92705553D01*
X117265340Y-92699000D01*
X120734660Y-92699000D01*
X120801200Y-92705553D01*
X120801200Y-92705553D01*
G37*
G36*
X115801200Y-92705553D02*
X115859273Y-92723170D01*
X115912805Y-92751783D01*
X115959717Y-92790283D01*
X115998217Y-92837195D01*
X116026830Y-92890727D01*
X116044447Y-92948800D01*
X116051000Y-93015340D01*
X116051000Y-96484660D01*
X116044447Y-96551200D01*
X116026830Y-96609273D01*
X115998217Y-96662805D01*
X115959717Y-96709717D01*
X115912805Y-96748217D01*
X115859273Y-96776830D01*
X115801200Y-96794447D01*
X115734660Y-96801000D01*
X112265340Y-96801000D01*
X112198800Y-96794447D01*
X112140727Y-96776830D01*
X112087195Y-96748217D01*
X112040283Y-96709717D01*
X112001783Y-96662805D01*
X111973170Y-96609273D01*
X111955553Y-96551200D01*
X111949000Y-96484660D01*
X111949000Y-93015340D01*
X111955553Y-92948800D01*
X111973170Y-92890727D01*
X112001783Y-92837195D01*
X112040283Y-92790283D01*
X112087195Y-92751783D01*
X112140727Y-92723170D01*
X112198800Y-92705553D01*
X112265340Y-92699000D01*
X115734660Y-92699000D01*
X115801200Y-92705553D01*
X115801200Y-92705553D01*
G37*
G36*
X155398252Y-92547818D02*
X155398254Y-92547819D01*
X155398255Y-92547819D01*
X155771513Y-92702427D01*
X155946193Y-92819145D01*
X156107439Y-92926886D01*
X156393114Y-93212561D01*
X156393116Y-93212564D01*
X156617573Y-93548487D01*
X156772181Y-93921745D01*
X156851000Y-94317994D01*
X156851000Y-94722006D01*
X156772181Y-95118255D01*
X156617573Y-95491513D01*
X156617572Y-95491514D01*
X156393114Y-95827439D01*
X156107439Y-96113114D01*
X156107436Y-96113116D01*
X155771513Y-96337573D01*
X155398255Y-96492181D01*
X155398254Y-96492181D01*
X155398252Y-96492182D01*
X155002007Y-96571000D01*
X154597993Y-96571000D01*
X154201748Y-96492182D01*
X154201746Y-96492181D01*
X154201745Y-96492181D01*
X153828487Y-96337573D01*
X153492564Y-96113116D01*
X153492561Y-96113114D01*
X153206886Y-95827439D01*
X152982428Y-95491514D01*
X152982427Y-95491513D01*
X152827819Y-95118255D01*
X152749000Y-94722006D01*
X152749000Y-94317994D01*
X152827819Y-93921745D01*
X152982427Y-93548487D01*
X153206884Y-93212564D01*
X153206886Y-93212561D01*
X153492561Y-92926886D01*
X153653807Y-92819145D01*
X153828487Y-92702427D01*
X154201745Y-92547819D01*
X154201746Y-92547819D01*
X154201748Y-92547818D01*
X154597993Y-92469000D01*
X155002007Y-92469000D01*
X155398252Y-92547818D01*
X155398252Y-92547818D01*
G37*
G36*
X152981669Y-90503394D02*
X153018664Y-90514616D01*
X153052754Y-90532838D01*
X153082638Y-90557362D01*
X153107162Y-90587246D01*
X153125384Y-90621336D01*
X153136606Y-90658331D01*
X153141000Y-90702941D01*
X153141000Y-92197059D01*
X153136606Y-92241669D01*
X153125384Y-92278664D01*
X153107162Y-92312754D01*
X153082638Y-92342638D01*
X153052754Y-92367162D01*
X153018664Y-92385384D01*
X152981669Y-92396606D01*
X152937059Y-92401000D01*
X151242941Y-92401000D01*
X151198331Y-92396606D01*
X151161336Y-92385384D01*
X151127246Y-92367162D01*
X151097362Y-92342638D01*
X151072838Y-92312754D01*
X151054616Y-92278664D01*
X151043394Y-92241669D01*
X151039000Y-92197059D01*
X151039000Y-90702941D01*
X151043394Y-90658331D01*
X151054616Y-90621336D01*
X151072838Y-90587246D01*
X151097362Y-90557362D01*
X151127246Y-90532838D01*
X151161336Y-90514616D01*
X151198331Y-90503394D01*
X151242941Y-90499000D01*
X152937059Y-90499000D01*
X152981669Y-90503394D01*
X152981669Y-90503394D01*
G37*
G36*
X152805816Y-88102817D02*
X152837184Y-88112332D01*
X152866090Y-88127783D01*
X152891425Y-88148575D01*
X152912217Y-88173910D01*
X152927668Y-88202816D01*
X152937183Y-88234184D01*
X152941000Y-88272940D01*
X152941000Y-89627060D01*
X152937183Y-89665816D01*
X152927668Y-89697184D01*
X152912217Y-89726090D01*
X152891425Y-89751425D01*
X152866090Y-89772217D01*
X152837184Y-89787668D01*
X152805816Y-89797183D01*
X152767060Y-89801000D01*
X151412940Y-89801000D01*
X151374184Y-89797183D01*
X151342816Y-89787668D01*
X151313910Y-89772217D01*
X151288575Y-89751425D01*
X151267783Y-89726090D01*
X151252332Y-89697184D01*
X151242817Y-89665816D01*
X151239000Y-89627060D01*
X151239000Y-88272940D01*
X151242817Y-88234184D01*
X151252332Y-88202816D01*
X151267783Y-88173910D01*
X151288575Y-88148575D01*
X151313910Y-88127783D01*
X151342816Y-88112332D01*
X151374184Y-88102817D01*
X151412940Y-88099000D01*
X152767060Y-88099000D01*
X152805816Y-88102817D01*
X152805816Y-88102817D01*
G37*
G36*
X152805816Y-86102817D02*
X152837184Y-86112332D01*
X152866090Y-86127783D01*
X152891425Y-86148575D01*
X152912217Y-86173910D01*
X152927668Y-86202816D01*
X152937183Y-86234184D01*
X152941000Y-86272940D01*
X152941000Y-87627060D01*
X152937183Y-87665816D01*
X152927668Y-87697184D01*
X152912217Y-87726090D01*
X152891425Y-87751425D01*
X152866090Y-87772217D01*
X152837184Y-87787668D01*
X152805816Y-87797183D01*
X152767060Y-87801000D01*
X151412940Y-87801000D01*
X151374184Y-87797183D01*
X151342816Y-87787668D01*
X151313910Y-87772217D01*
X151288575Y-87751425D01*
X151267783Y-87726090D01*
X151252332Y-87697184D01*
X151242817Y-87665816D01*
X151239000Y-87627060D01*
X151239000Y-86272940D01*
X151242817Y-86234184D01*
X151252332Y-86202816D01*
X151267783Y-86173910D01*
X151288575Y-86148575D01*
X151313910Y-86127783D01*
X151342816Y-86112332D01*
X151374184Y-86102817D01*
X151412940Y-86099000D01*
X152767060Y-86099000D01*
X152805816Y-86102817D01*
X152805816Y-86102817D01*
G37*
G36*
X152981669Y-83503394D02*
X153018664Y-83514616D01*
X153052754Y-83532838D01*
X153082638Y-83557362D01*
X153107162Y-83587246D01*
X153125384Y-83621336D01*
X153136606Y-83658331D01*
X153141000Y-83702941D01*
X153141000Y-85197059D01*
X153136606Y-85241669D01*
X153125384Y-85278664D01*
X153107162Y-85312754D01*
X153082638Y-85342638D01*
X153052754Y-85367162D01*
X153018664Y-85385384D01*
X152981669Y-85396606D01*
X152937059Y-85401000D01*
X151242941Y-85401000D01*
X151198331Y-85396606D01*
X151161336Y-85385384D01*
X151127246Y-85367162D01*
X151097362Y-85342638D01*
X151072838Y-85312754D01*
X151054616Y-85278664D01*
X151043394Y-85241669D01*
X151039000Y-85197059D01*
X151039000Y-83702941D01*
X151043394Y-83658331D01*
X151054616Y-83621336D01*
X151072838Y-83587246D01*
X151097362Y-83557362D01*
X151127246Y-83532838D01*
X151161336Y-83514616D01*
X151198331Y-83503394D01*
X151242941Y-83499000D01*
X152937059Y-83499000D01*
X152981669Y-83503394D01*
X152981669Y-83503394D01*
G37*
G36*
X155398252Y-79407818D02*
X155398254Y-79407819D01*
X155398255Y-79407819D01*
X155771513Y-79562427D01*
X155771514Y-79562428D01*
X156107439Y-79786886D01*
X156393114Y-80072561D01*
X156393116Y-80072564D01*
X156617573Y-80408487D01*
X156772181Y-80781745D01*
X156851000Y-81177994D01*
X156851000Y-81582006D01*
X156772181Y-81978255D01*
X156617573Y-82351513D01*
X156617572Y-82351514D01*
X156393114Y-82687439D01*
X156107439Y-82973114D01*
X156107436Y-82973116D01*
X155771513Y-83197573D01*
X155398255Y-83352181D01*
X155398254Y-83352181D01*
X155398252Y-83352182D01*
X155002007Y-83431000D01*
X154597993Y-83431000D01*
X154201748Y-83352182D01*
X154201746Y-83352181D01*
X154201745Y-83352181D01*
X153828487Y-83197573D01*
X153492564Y-82973116D01*
X153492561Y-82973114D01*
X153206886Y-82687439D01*
X152982428Y-82351514D01*
X152982427Y-82351513D01*
X152827819Y-81978255D01*
X152749000Y-81582006D01*
X152749000Y-81177994D01*
X152827819Y-80781745D01*
X152982427Y-80408487D01*
X153206884Y-80072564D01*
X153206886Y-80072561D01*
X153492561Y-79786886D01*
X153828486Y-79562428D01*
X153828487Y-79562427D01*
X154201745Y-79407819D01*
X154201746Y-79407819D01*
X154201748Y-79407818D01*
X154597993Y-79329000D01*
X155002007Y-79329000D01*
X155398252Y-79407818D01*
X155398252Y-79407818D01*
G37*
G36*
X120801200Y-78705553D02*
X120859273Y-78723170D01*
X120912805Y-78751783D01*
X120959717Y-78790283D01*
X120998217Y-78837195D01*
X121026830Y-78890727D01*
X121044447Y-78948800D01*
X121051000Y-79015340D01*
X121051000Y-82484660D01*
X121044447Y-82551200D01*
X121026830Y-82609273D01*
X120998217Y-82662805D01*
X120959717Y-82709717D01*
X120912805Y-82748217D01*
X120859273Y-82776830D01*
X120801200Y-82794447D01*
X120734660Y-82801000D01*
X117265340Y-82801000D01*
X117198800Y-82794447D01*
X117140727Y-82776830D01*
X117087195Y-82748217D01*
X117040283Y-82709717D01*
X117001783Y-82662805D01*
X116973170Y-82609273D01*
X116955553Y-82551200D01*
X116949000Y-82484660D01*
X116949000Y-79015340D01*
X116955553Y-78948800D01*
X116973170Y-78890727D01*
X117001783Y-78837195D01*
X117040283Y-78790283D01*
X117087195Y-78751783D01*
X117140727Y-78723170D01*
X117198800Y-78705553D01*
X117265340Y-78699000D01*
X120734660Y-78699000D01*
X120801200Y-78705553D01*
X120801200Y-78705553D01*
G37*
G36*
X115801200Y-78705553D02*
X115859273Y-78723170D01*
X115912805Y-78751783D01*
X115959717Y-78790283D01*
X115998217Y-78837195D01*
X116026830Y-78890727D01*
X116044447Y-78948800D01*
X116051000Y-79015340D01*
X116051000Y-82484660D01*
X116044447Y-82551200D01*
X116026830Y-82609273D01*
X115998217Y-82662805D01*
X115959717Y-82709717D01*
X115912805Y-82748217D01*
X115859273Y-82776830D01*
X115801200Y-82794447D01*
X115734660Y-82801000D01*
X112265340Y-82801000D01*
X112198800Y-82794447D01*
X112140727Y-82776830D01*
X112087195Y-82748217D01*
X112040283Y-82709717D01*
X112001783Y-82662805D01*
X111973170Y-82609273D01*
X111955553Y-82551200D01*
X111949000Y-82484660D01*
X111949000Y-79015340D01*
X111955553Y-78948800D01*
X111973170Y-78890727D01*
X112001783Y-78837195D01*
X112040283Y-78790283D01*
X112087195Y-78751783D01*
X112140727Y-78723170D01*
X112198800Y-78705553D01*
X112265340Y-78699000D01*
X115734660Y-78699000D01*
X115801200Y-78705553D01*
X115801200Y-78705553D01*
G37*
G36*
X162379485Y-76498996D02*
X162379487Y-76498997D01*
X162379488Y-76498997D01*
X162616255Y-76597069D01*
X162829342Y-76739449D01*
X163010551Y-76920658D01*
X163152931Y-77133745D01*
X163251004Y-77370515D01*
X163301000Y-77621861D01*
X163301000Y-77878139D01*
X163251004Y-78129485D01*
X163152931Y-78366255D01*
X163010551Y-78579342D01*
X162829342Y-78760551D01*
X162829339Y-78760553D01*
X162616255Y-78902931D01*
X162379488Y-79001003D01*
X162379487Y-79001003D01*
X162379485Y-79001004D01*
X162128139Y-79051000D01*
X161871861Y-79051000D01*
X161620515Y-79001004D01*
X161620513Y-79001003D01*
X161620512Y-79001003D01*
X161383745Y-78902931D01*
X161170661Y-78760553D01*
X161170658Y-78760551D01*
X160989449Y-78579342D01*
X160847069Y-78366255D01*
X160748996Y-78129485D01*
X160699000Y-77878139D01*
X160699000Y-77621861D01*
X160748996Y-77370515D01*
X160847069Y-77133745D01*
X160989449Y-76920658D01*
X161170658Y-76739449D01*
X161383745Y-76597069D01*
X161620512Y-76498997D01*
X161620513Y-76498997D01*
X161620515Y-76498996D01*
X161871861Y-76449000D01*
X162128139Y-76449000D01*
X162379485Y-76498996D01*
X162379485Y-76498996D01*
G37*
G36*
X108379485Y-76498996D02*
X108379487Y-76498997D01*
X108379488Y-76498997D01*
X108616255Y-76597069D01*
X108829342Y-76739449D01*
X109010551Y-76920658D01*
X109152931Y-77133745D01*
X109251004Y-77370515D01*
X109301000Y-77621861D01*
X109301000Y-77878139D01*
X109251004Y-78129485D01*
X109152931Y-78366255D01*
X109010551Y-78579342D01*
X108829342Y-78760551D01*
X108829339Y-78760553D01*
X108616255Y-78902931D01*
X108379488Y-79001003D01*
X108379487Y-79001003D01*
X108379485Y-79001004D01*
X108128139Y-79051000D01*
X107871861Y-79051000D01*
X107620515Y-79001004D01*
X107620513Y-79001003D01*
X107620512Y-79001003D01*
X107383745Y-78902931D01*
X107170661Y-78760553D01*
X107170658Y-78760551D01*
X106989449Y-78579342D01*
X106847069Y-78366255D01*
X106748996Y-78129485D01*
X106699000Y-77878139D01*
X106699000Y-77621861D01*
X106748996Y-77370515D01*
X106847069Y-77133745D01*
X106989449Y-76920658D01*
X107170658Y-76739449D01*
X107383745Y-76597069D01*
X107620512Y-76498997D01*
X107620513Y-76498997D01*
X107620515Y-76498996D01*
X107871861Y-76449000D01*
X108128139Y-76449000D01*
X108379485Y-76498996D01*
X108379485Y-76498996D01*
G37*
M02*
